<svg id="Layer_1" xmlns="http://www.w3.org/2000/svg" width="153.07" height="240.94" viewBox="0 0 153.07 240.94"><path d="M64.007 123.464l-7.51 9.785c3.72.412 6.993 2.17 6.993 7.027 0 3.894-2.756 7.65-8.75 7.65-3.55 0-6.203-1.448-6.754-1.793V142c.792.724 3.72 2.55 6.58 2.55 3.136 0 5.065-1.62 5.065-4.134 0-3.31-3.03-4.445-6.098-4.445-1.55 0-2.55.105-3.377.312l7.098-9.544c-5.616 0-7.786.034-8.854.826v-4.1h15.607zM84.787 139.45c0 5.616-4.204 8.477-8.44 8.477-4.17 0-8.373-2.067-8.373-11.44 0-5.96 2.31-13.367 10.818-13.367 1.998 0 3.204.275 4.514.758v4.65c-1.38-1.24-2.55-1.86-5.03-1.86-3.688 0-5.823 2.447-6.41 6.857.622-.654 2.517-1.964 5.238-1.964 4.238 0 7.683 2.826 7.683 7.89zm-3.722-.034c0-2.93-2.032-4.34-4.514-4.34-2.514 0-4.167 1.377-4.787 2.135v.277c0 3.55 1.067 7.2 4.72 7.2 3.17 0 4.582-2.548 4.582-5.27zM104.085 127.22h-10.06v5.168c.998-.38 2.135-.552 3.823-.552 3.55 0 7.235 2.17 7.235 7.546 0 4.203-2.17 8.545-8.89 8.545-3.342 0-6.098-1.344-6.2-1.517v-4.307s2.755 2.516 5.994 2.516c3.79 0 5.134-2.344 5.134-5.03 0-3.103-2.1-4.24-4.686-4.24-3.17 0-5.685 1.724-5.926 1.793v-13.68h13.575v3.757z"/><path d="M113.6 83.936h-11.794v-3.37c0-2.786-2.267-5.053-5.054-5.053h-1.685c-2.787 0-5.055 2.267-5.055 5.054v3.37H63.058v-3.37c0-2.787-2.267-5.054-5.054-5.054H56.32c-2.788 0-5.055 2.267-5.055 5.054v3.37H39.47c-4.643 0-8.422 3.778-8.422 8.423v65.704c0 4.645 3.78 8.424 8.423 8.424H113.6c4.645 0 8.424-3.78 8.424-8.424V92.36c0-4.645-3.78-8.424-8.423-8.424zm-74.13 3.37h11.794v3.37c0 2.787 2.267 5.054 5.054 5.054h5.054c.93 0 1.685-.754 1.685-1.685 0-.93-.754-1.685-1.685-1.685h-5.054c-.93 0-1.685-.756-1.685-1.685V80.567c0-.93.756-1.685 1.685-1.685h1.685c.93 0 1.685.756 1.685 1.685v3.37c-.93 0-1.685.753-1.685 1.684 0 .93.754 1.686 1.685 1.686h30.325v3.37c0 2.787 2.268 5.054 5.055 5.054h5.054c.932 0 1.685-.754 1.685-1.685 0-.93-.753-1.685-1.685-1.685h-5.054c-.93 0-1.686-.756-1.686-1.685V80.567c0-.93.757-1.685 1.686-1.685h1.685c.928 0 1.685.756 1.685 1.685v3.37c-.932 0-1.685.753-1.685 1.684 0 .93.753 1.686 1.685 1.686H113.6c2.787 0 5.055 2.267 5.055 5.054v13.478H34.417V92.36c0-2.787 2.268-5.054 5.054-5.054zm74.13 75.812H39.47c-2.786 0-5.053-2.268-5.053-5.055v-48.856h84.236v48.856c0 2.788-2.267 5.055-5.054 5.055z"/></svg>