<svg id="Layer_1" xmlns="http://www.w3.org/2000/svg" width="91.253" height="89.68" viewBox="0 0 91.253 89.68"><g fill="#0082DC"><path d="M34.832 46.96l-6.47 8.433c3.204.355 6.024 1.87 6.024 6.057 0 3.354-2.375 6.592-7.54 6.592-3.06 0-5.345-1.246-5.82-1.545v-3.562c.683.623 3.208 2.197 5.67 2.197 2.702 0 4.364-1.395 4.364-3.56 0-2.855-2.61-3.83-5.255-3.83-1.336 0-2.196.09-2.91.267l6.116-8.226c-4.837 0-6.708.03-7.627.713v-3.533H34.83v-.003zM52.738 60.738c0 4.838-3.623 7.303-7.272 7.303-3.595 0-7.214-1.78-7.214-9.854 0-5.137 1.99-11.518 9.32-11.518 1.723 0 2.762.236 3.892.652v4.006c-1.188-1.066-2.198-1.604-4.335-1.604-3.18 0-5.02 2.107-5.522 5.908.534-.562 2.168-1.69 4.512-1.69 3.648 0 6.618 2.433 6.618 6.798zm-3.207-.03c0-2.526-1.75-3.74-3.89-3.74-2.167 0-3.592 1.188-4.125 1.84v.235c0 3.062.92 6.205 4.066 6.205 2.733 0 3.95-2.196 3.95-4.54zM69.365 50.2h-8.668v4.452c.86-.326 1.84-.477 3.295-.477 3.06 0 6.233 1.87 6.233 6.502 0 3.62-1.87 7.36-7.66 7.36-2.88 0-5.254-1.155-5.343-1.306v-3.71s2.374 2.168 5.165 2.168c3.267 0 4.424-2.02 4.424-4.334 0-2.674-1.81-3.652-4.037-3.652-2.73 0-4.898 1.486-5.105 1.545V46.96h11.695v3.237h.002v.002z"/><path d="M77.563 12.903h-10.16V10c0-2.402-1.954-4.355-4.355-4.355h-1.45c-2.402 0-4.355 1.952-4.355 4.354V12.9h-23.23V10c0-2.402-1.953-4.355-4.353-4.355h-1.45c-2.403 0-4.355 1.952-4.355 4.354V12.9H13.69c-4.002 0-7.258 3.256-7.258 7.258v56.613c0 4.004 3.256 7.26 7.258 7.26h63.872c4.002 0 7.26-3.256 7.26-7.26V20.16c0-4-3.258-7.257-7.26-7.257zM13.69 15.806h10.162v2.904c0 2.4 1.953 4.354 4.354 4.354h4.354c.803 0 1.453-.65 1.453-1.45s-.65-1.454-1.453-1.454h-4.354c-.8 0-1.452-.65-1.452-1.452v-8.71c0-.8.65-1.452 1.452-1.452h1.45c.802 0 1.454.65 1.454 1.452V12.9c-.803 0-1.453.65-1.453 1.453 0 .8.65 1.45 1.453 1.45h26.13v2.905c0 2.4 1.953 4.354 4.354 4.354h4.354c.804 0 1.453-.65 1.453-1.45s-.648-1.454-1.452-1.454h-4.354c-.8 0-1.453-.65-1.453-1.452v-8.71c0-.8.654-1.452 1.454-1.452h1.452c.8 0 1.45.65 1.45 1.452V12.9c-.802 0-1.45.647-1.45 1.45 0 .802.648 1.452 1.45 1.452h13.065c2.402 0 4.356 1.954 4.356 4.354V31.77H9.336V20.16c0-2.4 1.954-4.354 4.354-4.354zM77.563 81.13H13.69c-2.4 0-4.354-1.954-4.354-4.355V34.678H81.92v42.097c-.002 2.4-1.956 4.354-4.357 4.354z"/></g></svg>