<?xml version="1.0" encoding="utf-8"?>
<!-- Generator: Adobe Illustrator 15.0.0, SVG Export Plug-In . SVG Version: 6.00 Build 0)  -->
<!DOCTYPE svg PUBLIC "-//W3C//DTD SVG 1.1//EN" "http://www.w3.org/Graphics/SVG/1.1/DTD/svg11.dtd">
<svg version="1.1" id="Layer_1" xmlns="http://www.w3.org/2000/svg" xmlns:xlink="http://www.w3.org/1999/xlink" x="0px" y="0px"
	 width="91.253px" height="89.68px" viewBox="0 0 91.253 89.68" enable-background="new 0 0 91.253 89.68" xml:space="preserve">
<g>
	<g>
		<path fill="#0082DC" d="M34.832,46.961l-6.471,8.432c3.205,0.355,6.025,1.871,6.025,6.057c0,3.354-2.375,6.592-7.541,6.592
			c-3.059,0-5.344-1.246-5.818-1.545v-3.562c0.682,0.623,3.207,2.197,5.67,2.197c2.701,0,4.363-1.395,4.363-3.561
			c0-2.854-2.611-3.83-5.255-3.83c-1.336,0-2.196,0.09-2.91,0.268l6.116-8.225c-4.838,0-6.709,0.029-7.628,0.713v-3.533h13.448
			V46.961z"/>
		<path fill="#0082DC" d="M52.738,60.738c0,4.838-3.623,7.303-7.272,7.303c-3.595,0-7.214-1.781-7.214-9.855
			c0-5.137,1.99-11.518,9.32-11.518c1.723,0,2.762,0.236,3.892,0.652v4.006c-1.188-1.066-2.198-1.604-4.335-1.604
			c-3.178,0-5.018,2.107-5.521,5.908c0.534-0.562,2.168-1.691,4.512-1.691C49.768,53.939,52.738,56.373,52.738,60.738z
			 M49.531,60.707c0-2.525-1.752-3.74-3.891-3.74c-2.167,0-3.592,1.189-4.125,1.84v0.236c0,3.062,0.919,6.205,4.066,6.205
			C48.313,65.248,49.531,63.052,49.531,60.707z"/>
		<path fill="#0082DC" d="M69.365,50.199h-8.668v4.453c0.86-0.326,1.84-0.477,3.295-0.477c3.059,0,6.233,1.869,6.233,6.502
			c0,3.621-1.871,7.361-7.659,7.361c-2.88,0-5.255-1.156-5.344-1.307v-3.711c0,0,2.374,2.168,5.165,2.168
			c3.267,0,4.424-2.02,4.424-4.334c0-2.674-1.812-3.652-4.038-3.652c-2.73,0-4.898,1.486-5.105,1.545V46.961h11.695v3.236h0.002
			V50.199z"/>
	</g>
	<path fill="#0082DC" d="M77.563,12.903H67.402V9.999c0-2.401-1.953-4.354-4.354-4.354h-1.451c-2.401,0-4.354,1.952-4.354,4.354
		v2.903H34.014V9.999c0-2.401-1.954-4.354-4.354-4.354h-1.451c-2.402,0-4.354,1.952-4.354,4.354v2.903H13.69
		c-4.002,0-7.258,3.256-7.258,7.258v56.613c0,4.004,3.256,7.26,7.258,7.26h63.872c4.002,0,7.26-3.256,7.26-7.26V20.161
		C84.822,16.159,81.564,12.903,77.563,12.903z M13.69,15.806h10.162v2.904c0,2.401,1.953,4.354,4.354,4.354h4.354
		c0.803,0,1.453-0.649,1.453-1.451s-0.65-1.453-1.453-1.453h-4.354c-0.801,0-1.452-0.651-1.452-1.452v-8.71
		c0-0.8,0.651-1.452,1.452-1.452h1.451c0.801,0,1.453,0.651,1.453,1.452v2.903c-0.803,0-1.453,0.648-1.453,1.452
		c0,0.801,0.649,1.451,1.453,1.451H57.24v2.904c0,2.401,1.953,4.354,4.354,4.354h4.354c0.804,0,1.453-0.649,1.453-1.451
		s-0.649-1.453-1.453-1.453h-4.354c-0.8,0-1.453-0.651-1.453-1.452v-8.71c0-0.8,0.653-1.452,1.453-1.452h1.452
		c0.8,0,1.451,0.651,1.451,1.452v2.903c-0.803,0-1.451,0.648-1.451,1.452c0,0.801,0.648,1.451,1.451,1.451h13.064
		c2.401,0,4.355,1.954,4.355,4.354v11.614H9.335V20.161C9.335,17.76,11.29,15.806,13.69,15.806z M77.563,81.129H13.69
		c-2.401,0-4.354-1.953-4.354-4.354V34.678h72.583v42.097C81.918,79.176,79.964,81.129,77.563,81.129z"/>
</g>
</svg>
