<svg width="100" height="100" viewBox="0 0 100 100" xmlns="http://www.w3.org/2000/svg"><g id="Page-1" fill="none" fill-rule="evenodd"><g id="i-1" fill="#0082DC"><path d="M50.308 99.662C22.924 99.662.646 77.384.646 50S22.924.338 50.308.338C77.69.338 99.97 22.616 99.97 50S77.69 99.662 50.308 99.662zm0-97.297C24.04 2.365 2.673 23.735 2.673 50c0 26.266 21.368 47.635 47.635 47.635 26.266 0 47.635-21.37 47.635-47.635 0-26.266-21.37-47.635-47.635-47.635z" id="Fill-1"/><path d="M78.802 74.706H18.576c-.573 0-1.038-.464-1.038-1.038 0-.573.465-1.038 1.038-1.038h5.192v-3.115c0-.574.465-1.04 1.04-1.04h3.114v-18.47c-.572-.268-1.05-.698-1.37-1.256-.86-1.488-.35-3.397 1.14-4.255L58.704 26.57 56.4 23.3c-.72-1.017-.977-2.3-.71-3.52.27-1.217 1.04-2.273 2.122-2.896l2.522-1.458c.676-.39 1.445-.596 2.222-.596 1.73 0 3.316 1.013 4.042 2.584l6.75 14.603c.972 2.102.192 4.56-1.814 5.72V72.63h7.268c.573 0 1.04.465 1.04 1.038 0 .574-.467 1.038-1.04 1.038zm-9.345-2.076V38.312c-.05.003-.098.02-.146.02-1.445 0-2.805-.705-3.637-1.885l-3.392-4.81-6.152 3.568 5.908 37.425h7.42zM56.982 53.94l-2.78-17.617-12.136 7.036-1.67 10.58H56.98zm-14.94 2.077l6.66 5.678 6.672-5.678H42.04zm15.42.95l-7.16 6.09 9.384 8-2.225-14.09zm.868 15.663l-9.63-8.208-9.648 8.208H58.33zM47.1 63.057l-7.18-6.118-2.227 14.12 9.406-8.003zM25.844 72.63h6.23v-2.077h-6.23v2.077zm7.27-4.154c.572 0 1.038.465 1.038 1.04v3.114h1.19l4.408-27.928-8.943 5.188c-.257.148-.53.25-.808.32v18.266h3.114zm-4.386-22.184c-.498.288-.668.923-.38 1.418.137.24.36.414.63.486.27.07.548.033.788-.105L61.08 29.935l-1.174-1.66L28.73 46.29zm42.733-13.406l-6.75-14.6c-.387-.84-1.233-1.38-2.157-1.38-.413 0-.822.11-1.184.32l-2.52 1.456c-.588.337-.988.885-1.133 1.544-.145.66-.01 1.327.378 1.878L67.37 35.25c.682.967 2.094 1.284 3.125.687 1.07-.62 1.487-1.928.968-3.05zM48.69 41.482c2.29 0 4.153 1.862 4.153 4.152s-1.863 4.153-4.154 4.153c-2.29 0-4.154-1.862-4.154-4.153 0-2.29 1.863-4.152 4.153-4.152zm0 6.228c1.144 0 2.076-.932 2.076-2.076 0-1.145-.932-2.077-2.077-2.077s-2.078.932-2.078 2.077c0 1.144.933 2.076 2.077 2.076z" id="Fill-2"/></g></g></svg>