<svg width="100" height="100" viewBox="0 0 100 100" xmlns="http://www.w3.org/2000/svg"><g id="Page-1" fill="none" fill-rule="evenodd"><g id="i-2" fill="#0082DC"><path d="M49.857 99.662C22.474 99.662.195 77.384.195 50S22.475.338 49.857.338C77.24.338 99.52 22.616 99.52 50S77.24 99.662 49.857 99.662zm0-97.297C23.59 2.365 2.222 23.735 2.222 50c0 26.266 21.37 47.635 47.635 47.635 26.267 0 47.636-21.37 47.636-47.635 0-26.266-21.37-47.635-47.636-47.635z" id="Fill-1"/><path d="M82.543 73.65h-65.37c-.282 0-.51.453-.51 1.012 0 .56.228 1.014.51 1.014h65.37c.28 0 .508-.454.508-1.014s-.226-1.013-.507-1.013" id="Fill-13"/><path d="M46.14 56.08v18.582c0 .266.11.528.3.717.187.188.448.296.715.296h5.405c.267 0 .528-.108.717-.297.19-.19.297-.452.297-.718H52.56V73.65h-4.392V23.784h3.38v50.877h1.012V73.65v1.012h1.014v-18.58h16.224v2.364c0 .266.108.528.297.716.19.19.45.297.716.297h5.407c.267 0 .528-.11.716-.298.19-.188.297-.45.297-.716l-1.013-1.014h-4.392V30.405h3.378v27.027h1.014l1.013 1.014V56.08h4.802c.068 0 1.02-.078 1.02-1.012 0-.935-.952-1.014-1.02-1.014H77.23v-20.27h4.802c.068 0 1.02-.08 1.02-1.014s-.952-1.013-1.02-1.013H77.23v-2.365c0-.267-.108-.528-.297-.717-.188-.19-.45-.297-.716-.297H70.81c-.265 0-.526.108-.715.297-.19.19-.297.45-.297.717v2.365H53.574v-8.985c0-.267-.108-.528-.297-.717-.19-.19-.45-.297-.717-.297h-5.405c-.267 0-.528.108-.716.297-.19.19-.3.45-.3.717v8.985H29.49v-2.365c0-.267-.11-.528-.3-.717-.187-.19-.448-.297-.715-.297H23.07c-.267 0-.53.108-.717.297-.19.19-.297.45-.297.717v2.365h-4.374c-.067 0-1.018.08-1.018 1.013 0 .935.95 1.014 1.018 1.014h4.374v20.27h-4.374c-.067 0-1.018.08-1.018 1.014s.95 1.013 1.018 1.013h4.374v2.366c0 .266.108.528.297.716.188.19.45.297.717.297h5.405c.267 0 .528-.11.716-.298.19-.188.3-.45.3-.716h-1.015l-1.014-1.014h-3.377V30.405h3.378v27.027l1.015 1.014v-1.014 1.014h1.014V56.08h16.65zm0-2.026v-20.27H29.49v20.27h16.65zM69.8 33.784H53.574v20.27h16.224v-20.27z" id="Fill-2"/></g></g></svg>