<svg width="100" height="100" viewBox="0 0 100 100" xmlns="http://www.w3.org/2000/svg"><g id="Page-1" fill="none" fill-rule="evenodd"><g id="i-4" fill="#0082DC"><path d="M49.738 99.662C22.354 99.662.076 77.384.076 50S22.354.338 49.738.338 99.4 22.616 99.4 50 77.122 99.662 49.738 99.662zm0-97.297C23.472 2.365 2.103 23.735 2.103 50c0 26.266 21.37 47.635 47.635 47.635 26.266 0 47.635-21.37 47.635-47.635 0-26.266-21.37-47.635-47.635-47.635z" id="Fill-1"/><path d="M43.753 76.67c-.907-1.317-1.956-3.11-2.86-5.063-.904-1.952-1.663-4.066-2.013-6.004-.154-.847-.225-1.654-.225-2.424.002-2.09.515-3.917 1.34-5.55 1.237-2.45 3.2-4.452 5.154-6.036.975-.792 1.946-1.48 2.818-2.072.873-.592 1.642-1.086 2.24-1.512 0 0-.817.568-1.298.883.393 1.7.97 3.114 1.66 4.336 1.343 2.368 3.06 3.993 4.594 5.743 1.54 1.757 2.933 3.622 3.87 6.583.405 1.285.57 2.48.57 3.598 0 2.204-.643 4.12-1.423 5.735-.388.805-.81 1.533-1.202 2.18-.392.65-.75 1.21-1.02 1.727-.188.358-.146.794.108 1.108.254.314.67.448 1.06.34 10.14-2.81 17.658-12.142 17.66-23.28 0-6.12-2.31-11.744-6.117-16.052 0 0-12.813-14.56-16.075-22.127l.083.4s-.046-.432-.08-.524c-.026-.07-.082-.182-.082-.182l-.244.12.25-.11-.25.11.25-.11-.72.31h.78c-.004-.186-.05-.28-.06-.31l-.72.31h.78c0-.22-.072-.432-.204-.607-.373-.498-.975-.863-1.678-.863-.253-.002-.514.05-.76.147 0 0-.463.276-.617.428-.152.154-.283.324-.39.537-.074.143-.11.295-.11.456v.193l.084-.4c-3.264 7.573-9.834 15.317-16.073 22.317-1.91 2.113-3.41 4.618-4.507 7.31-1.114 2.732-1.613 5.655-1.613 8.744 0 0 0 .137 0 .21 0 5.474 1.876 10.527 5.008 14.55 3.13 4.023 7.52 7.027 12.558 8.425.448.123.925-.074 1.154-.48.228-.405.15-.915-.187-1.234l-.425-.24c-4.697-1.22-8.632-4.03-11.5-7.716-2.87-3.687-4.58-8.296-4.58-13.304 0-.067 0-.134 0-.2 0 0 .46-5.53 1.462-7.99 1.02-2.5 2.404-4.802 4.14-6.72 0 0 12.96-14.87 16.424-22.867.053-.124-.168-.356-.135-.264.027.07.083.183.083.183l.236-.114-.24.103.24-.104-.24.103.718-.312h-.78c.003.19.05.284.06.313l.72-.312h-.78c0 .097.028.37.084.5 3.465 8 10.165 15.733 16.423 22.673l.752-.68-.76.672c3.5 3.962 5.61 9.104 5.61 14.71.003 10.203-6.898 18.753-16.176 21.326 0 0 1.854-.54 2.567-.91 1.145-2 2.478-4.825 2.48-8.226 0-1.318-.196-2.727-.662-4.207-.69-2.195-1.644-3.902-2.684-5.334-1.565-2.15-3.284-3.688-4.667-5.475-1.385-1.79-2.496-3.807-2.996-7.103-.05-.348-.28-.646-.605-.783-.325-.138-.7-.097-.985.108-.706.506-1.846 1.22-3.135 2.132-1.936 1.372-4.227 3.2-6.062 5.61-1.833 2.405-3.207 5.43-3.205 9.077 0 .893.082 1.822.257 2.785.53 2.907 1.802 5.938 3.162 8.486.53.99 1.072 1.903 1.594 2.706.15.23 3.182 1.135 3.182 1.135s-.468-.747-1.07-1.62z" id="Fill-2"/><path d="M49.937 77.906l.784.7c-.027-.022-1.257-1.038-2.498-2.83-1.245-1.792-2.493-4.342-2.65-7.465l-1.013.053h1.012c0-.735.15-1.586.387-2.435.356-1.275.906-2.542 1.366-3.48-.46-.714-.2-.292-.917-1.505.528-.334.866-.546.866-.546l-.867.546c.835 1.475 1.856 2.852 2.783 4.146.927 1.288 1.744 2.466 2.127 3.317.67 1.477.937 2.825.937 4.045 0 1.36-.332 2.567-.854 3.61-.522 1.042-.717 1.192-1.466 1.844l.146 1.488.637-.788-.637.788.666.763c.936-.817 1.814-1.888 2.465-3.186.65-1.296 1.07-2.824 1.07-4.518 0-1.52-.34-3.167-1.12-4.884-.524-1.142-1.393-2.353-2.324-3.66-.93-1.3-1.925-2.674-2.682-4.01-.177-.312-.51-.51-.867-.514-.358-.005-.695.182-.88.49-.016.024-.715 1.18-1.42 2.8-.355.81-.71 1.738-.983 2.708-.27.97-.46 1.982-.462 2.98l.002.052c.187 3.67 1.664 6.606 3.075 8.614 1.414 2.01 2.773 3.112 2.823 3.154.383.31.933.3 1.304-.025l-.667-.763" id="Fill-3"/></g></g></svg>