<svg width="100" height="100" viewBox="0 0 100 100" xmlns="http://www.w3.org/2000/svg"><g id="Page-1" fill="none" fill-rule="evenodd"><g id="i-5" fill="#0082DC"><path d="M50.19 99.662C22.804 99.662.525 77.384.525 50S22.806.338 50.19.338C77.57.338 99.85 22.616 99.85 50S77.573 99.662 50.19 99.662zm0-97.297C23.92 2.365 2.552 23.735 2.552 50c0 26.266 21.37 47.635 47.636 47.635 26.265 0 47.634-21.37 47.634-47.635 0-26.266-21.37-47.635-47.635-47.635z" id="Fill-1"/><path d="M62.832 59.35h-1.014c0 1.293-.26 2.403-.714 3.36-.683 1.43-1.814 2.533-3.297 3.305-1.48.768-3.312 1.185-5.314 1.184-2.67 0-5.03-.743-6.675-2.068-.825-.662-1.48-1.467-1.935-2.423-.455-.957-.713-2.067-.713-3.36V31.293c0-2.578 1.04-4.903 2.73-6.593 1.69-1.69 4.015-2.732 6.593-2.732 2.58 0 4.904 1.04 6.594 2.73 1.69 1.69 2.73 4.016 2.73 6.594v28.06h2.028V31.29c0-6.27-5.08-11.35-11.352-11.35-6.27 0-11.35 5.08-11.35 11.35v28.06c0 1.563.318 2.988.91 4.23.886 1.863 2.377 3.294 4.194 4.232 1.82.943 3.967 1.412 6.246 1.412 3.04 0 5.85-.833 7.946-2.512 1.044-.84 1.904-1.892 2.494-3.133.592-1.24.912-2.665.91-4.23h-1.012" id="Fill-2"/><path d="M37.726 62.305h-1.014c0 1.355-.546 2.572-1.434 3.46-.888.888-2.106 1.434-3.46 1.434s-2.57-.547-3.46-1.434c-.888-.89-1.433-2.106-1.434-3.46V50.49c0-1.354.546-2.57 1.433-3.46.89-.887 2.107-1.433 3.46-1.433 1.355 0 2.573.546 3.46 1.433.89.89 1.434 2.106 1.435 3.46v11.815h2.027V50.49c0-3.822-3.1-6.92-6.922-6.92-3.823 0-6.92 3.098-6.92 6.92v11.815c0 3.823 3.097 6.92 6.92 6.92s6.92-3.097 6.92-6.92h-1.012" id="Fill-3"/><path d="M76.123 63.782H75.11c0 .947-.38 1.795-1 2.417-.623.62-1.47 1-2.417 1-.948 0-1.796-.38-2.417-1-.62-.623-1-1.47-1-2.418V43.107c0-.948.38-1.796 1-2.416.62-.62 1.47-1 2.417-1 .947 0 1.794.38 2.416 1 .62.622 1 1.47 1 2.417v20.675h2.026V43.107c0-3.008-2.436-5.444-5.443-5.445-3.01 0-5.444 2.438-5.444 5.445v20.675c0 3.007 2.434 5.444 5.443 5.444 3.007 0 5.443-2.436 5.443-5.444h-1.013" id="Fill-4"/><path d="M32.83 44.583V37.2c.002-.948.382-1.796 1.002-2.417.62-.62 1.47-1 2.417-1h5.906c.56 0 1.014-.455 1.014-1.015 0-.56-.454-1.013-1.014-1.013H36.25c-3.01 0-5.445 2.437-5.446 5.444v7.383c0 .56.454 1.014 1.014 1.014s1.013-.454 1.013-1.014" id="Fill-5"/><path d="M62.832 58.888h4.43c.56 0 1.014-.454 1.014-1.014s-.454-1.013-1.014-1.013h-4.43c-.56 0-1.014.455-1.014 1.014 0 .56.454 1.014 1.014 1.014" id="Fill-6"/><path d="M70.68 68.213v4.43c0 .56.452 1.014 1.013 1.014.56 0 1.013-.454 1.013-1.014v-4.43c0-.56-.453-1.014-1.013-1.014-.56 0-1.014.453-1.014 1.013" id="Fill-7"/><path d="M51.48 68.213v4.43c0 .56.454 1.014 1.013 1.014.56 0 1.014-.454 1.014-1.014v-4.43c0-.56-.454-1.014-1.014-1.014s-1.013.453-1.013 1.013" id="Fill-8"/><path d="M30.804 68.213v4.43c0 .56.454 1.014 1.014 1.014s1.013-.454 1.013-1.014v-4.43c0-.56-.452-1.014-1.012-1.014s-1.014.453-1.014 1.013" id="Fill-9"/><path d="M24.434 73.657H77.6c.56 0 1.014-.454 1.014-1.014S78.16 71.63 77.6 71.63H24.434c-.56 0-1.014.454-1.014 1.013 0 .56.454 1.014 1.014 1.014" id="Fill-10"/></g></g></svg>