<svg width="273" height="35" viewBox="0 0 273 35" xmlns="http://www.w3.org/2000/svg"><g id="Page-1" fill="none" fill-rule="evenodd"><g id="logo" fill="#003D6E"><path d="M60.05 2.632h2.3c1.403 0 4.863.22 5.25.417V.26H57.246v17.12l2.806.002V2.63" id="Fill-1"/><path d="M77 11.562v5.82h2.688V3.904h-2.71l-6.75 10.102.242-3.963v-6.14l-2.71.002V17.38l2.71.002 6.774-9.81-.244 3.99" id="Fill-2"/><path d="M85.937 6.327h6.096v11.055h2.708V3.927H83.227V17.38l2.71.002V6.325" id="Fill-3"/><path d="M100.99 8.87c.993-1.64 2.372-2.81 4.066-2.81 1.572 0 3.365 1.17 3.365 4.645 0 3.104-1.623 4.72-3.968 4.72-1.743 0-2.88-.587-3.46-.98V8.872zm0 8.095c.607.294 1.815.71 3.777.71 3.604 0 6.46-2.495 6.46-7.215 0-4.894-2.856-6.8-5.64-6.8-2.15 0-3.387.71-4.645 2.544l-.29-2.276h-2.37v18.837l2.71-.123v-5.677z" id="Fill-4"/><path d="M119.52 15.572c-2.23 0-3.776-1.957-3.776-4.94 0-2.74 1.523-4.794 3.87-4.794 2.42 0 3.68 1.86 3.68 4.817 0 2.864-1.284 4.917-3.774 4.917zm6.506-4.917c0-3.985-1.862-7.117-6.34-7.117-3.822 0-6.65 3.01-6.65 7.117 0 4.184 2.175 7.215 6.484 7.215 4.134 0 6.506-3.253 6.506-7.215z" id="Fill-5"/><path d="M128.634 17.381l2.685.002V6.3h1.79c1.113 0 3.822.173 4.136.32V3.928h-8.612V17.38" id="Fill-6"/><path d="M142.596 15.45c-1.163 0-1.96-.735-1.96-1.884 0-1.834 1.475-2.47 4.138-2.47.557 0 1.62.025 1.62.025l.024 1.932c-.7 1.224-2.056 2.398-3.822 2.398zm6.412-5.552c0-4.255-.944-6.213-5.54-6.213-2.59 0-4.283.806-4.283.806l.24 3.18c.897-.756 1.574-1.61 3.872-1.61 2.685 0 3.047 1.734 3.144 3.006-.65 0-1.256-.026-1.957-.026-4.622 0-6.46 1.738-6.46 4.72 0 2.008 1.234 3.964 4.113 3.964 1.838 0 2.95-.76 4.5-2.3.072.54.17 1.396.338 2.08l2.542-.368s-.508-1.296-.508-4.865V9.899z" id="Fill-7"/><path d="M161.894 13.518c0-2.397-1.865-3.058-2.69-3.253 1.164-.418 2.253-1.37 2.253-3.18 0-1.958-1.67-3.424-5.058-3.424-2.492 0-4.742.54-4.742.54l.072 2.64c1.066-.513 1.84-.905 3.992-.905 1.84 0 2.952.538 2.952 1.566 0 1.443-1.427 1.835-3.266 1.835h-1.96v2.347c1.017-.023 1.258-.073 2.033-.073 2.347 0 3.654.61 3.654 1.81 0 1.37-1.356 1.908-3.435 1.908-2.59 0-4.138-1.003-4.138-1.003v2.837c.918.27 2.78.465 4.184.465 4.26 0 6.148-1.59 6.148-4.108" id="Fill-8"/><path d="M170.093 15.572c-2.225 0-3.775-1.957-3.775-4.94 0-2.74 1.523-4.794 3.87-4.794 2.42 0 3.678 1.86 3.678 4.817 0 2.864-1.28 4.917-3.773 4.917zm.168-12.034c-3.82 0-6.65 3.01-6.65 7.117 0 4.184 2.175 7.215 6.483 7.215 4.135 0 6.506-3.253 6.506-7.215 0-3.985-1.863-7.117-6.34-7.117z" id="Fill-9"/><path d="M184.884 15.572c-2.226 0-3.775-1.957-3.775-4.94 0-2.74 1.524-4.794 3.87-4.794 2.42 0 3.677 1.86 3.677 4.817 0 2.864-1.28 4.917-3.773 4.917zm.17-12.034c-3.825 0-6.655 3.01-6.655 7.117 0 4.184 2.177 7.215 6.484 7.215 4.137 0 6.506-3.253 6.506-7.215 0-3.985-1.862-7.117-6.337-7.117z" id="Fill-10"/><path d="M201.7 9.873c-.075.122-1.6 1.027-3.076 1.027-1.694 0-2.855-.49-2.855-3.4V3.93h-2.71v4.06c0 3.916 1.935 5.456 4.718 5.456 1.597 0 2.588-.368 3.92-1.003v4.94l2.71.002V3.927h-2.71v5.945" id="Fill-11"/><path d="M210.41 14.007l.24-3.963v-6.14l-2.71.002V17.38l2.71.002 6.777-9.81-.243 3.99v5.82h2.683V3.904h-2.707l-6.75 10.102" id="Fill-12"/><path d="M229.46 15.328c-2.88 0-4.185-2.472-4.185-4.574 0-2.885 1.474-4.695 4.06-4.695 1.456 0 2.76.583 3.657 1.71l.338-3.375c-1.017-.417-2.54-.734-3.823-.734-4.16 0-6.943 2.544-6.943 7.045 0 4.99 2.974 6.922 6.75 6.922 1.38 0 2.878-.343 4.186-.93l-.074-2.568s-1.403 1.198-3.967 1.198" id="Fill-13"/><path d="M234.66 6.448c.194-.097 1.79-.32 2.687-.32l1.98.002v11.252h2.712V6.128h1.982c.8 0 2.37.17 2.684.318v-2.52H234.66v2.52" id="Fill-14"/><path d="M260.034 3.928h-3.363l-3.265 4.305c-.725.93-1.257 1.396-1.62 1.396l-.46-.002v-5.7h-2.71V17.38l2.71.002v-5.967h.53c.34 0 1.066.78 1.743 1.615l3.46 4.351 3.58.002-6-6.996 5.396-6.458" id="Fill-15"/><path d="M265.79 15.45c-1.162 0-1.96-.735-1.96-1.884 0-1.834 1.477-2.47 4.135-2.47.558 0 1.62.025 1.62.025l.028 1.932c-.703 1.224-2.058 2.398-3.823 2.398zm6.41-3.18V9.899c0-4.255-.943-6.213-5.538-6.213-2.59 0-4.285.806-4.285.806l.24 3.18c.898-.756 1.574-1.61 3.875-1.61 2.684 0 3.046 1.734 3.144 3.006-.652 0-1.258-.026-1.96-.026-4.62 0-6.46 1.738-6.46 4.72 0 2.008 1.234 3.964 4.112 3.964 1.84 0 2.953-.76 4.5-2.3.074.54.17 1.396.34 2.08l2.54-.368s-.507-1.296-.507-4.865z" id="Fill-16"/><path d="M58.186 31.485l.12-2.095v-2.93h-1.06v6.468h1.013l3.286-4.905-.11 2.11v2.796l1.06-.002v-6.47h-1.032l-3.278 5.027" id="Fill-17"/><path d="M67.392 29.892h-2.4v-2.054H63.97v5.09h1.023v-2.13h2.4v2.13h1.023v-5.09h-1.024v2.054" id="Fill-18"/><path d="M76.666 27.838H75.41l-1.19 1.62c-.255.362-.383.527-.52.527h-.183v-2.147H72.49v2.146h-.18c-.138 0-.268-.165-.523-.527l-1.19-1.62h-1.254L71.3 30.27l-2.094 2.659 1.29-.002 1.272-1.722c.24-.334.423-.547.55-.547h.173v2.268h1.027v-2.27h.174c.13 0 .31.214.55.548l1.27 1.723 1.293-.002-2.042-2.657 1.906-2.432" id="Fill-19"/><path d="M78.526 31.65l.09-1.498v-2.324h-1.024v5.1h1.025l2.564-3.712-.092 1.508v2.204h1.017v-5.1H81.08l-2.554 3.822" id="Fill-20"/><path d="M86.976 29.892H84.58v-2.054h-1.025v5.09h1.025v-2.13h2.396v2.13H88v-5.09h-1.024v2.054" id="Fill-21"/><path d="M90.385 31.65l.09-1.498v-2.324H89.45v5.1h1.025l2.564-3.712-.093 1.508v2.204h1.016v-5.1H92.94l-2.555 3.822" id="Fill-22"/><path d="M97.748 32.187c-.66 0-1.09-.223-1.31-.37v-2.11c.376-.62.898-1.066 1.537-1.066.595.002 1.27.446 1.27 1.76 0 1.176-.61 1.787-1.497 1.787zm.43-4.45c-.817 0-1.282.267-1.76.962l-.11-.862h-.895v7.126l1.025-.048V32.77c.227.11.685.267 1.427.267 1.365 0 2.444-.943 2.444-2.727 0-1.852-1.08-2.573-2.133-2.573z" id="Fill-23"/><path d="M102.364 31.65l.09-1.498v-2.324h-1.024v5.1h1.025l2.563-3.712-.092 1.508v2.204h1.016v-5.1h-1.026l-2.552 3.822" id="Fill-24"/><path d="M110.814 29.892h-2.397v-2.054h-1.027v5.09h1.027v-2.13h2.397v2.13h1.026v-5.09h-1.026v2.054" id="Fill-25"/><path d="M113.257 32.928h1.017v-4.193h.677c.422 0 1.447.065 1.564.123v-1.02h-3.257v5.09" id="Fill-26"/><path d="M124.01 27.838h-1.27l-1.235 1.628c-.275.354-.476.526-.613.526h-.175v-2.154h-1.024v5.09h1.024V30.67h.202c.127 0 .402.295.658.61l1.31 1.648h1.352l-2.27-2.647 2.04-2.442" id="Fill-27"/><path d="M126.288 32.194c-.44 0-.74-.275-.74-.71 0-.696.556-.935 1.563-.935.212 0 .613.008.613.008l.01.73c-.265.463-.778.906-1.445.906zm2.424-2.098c0-1.608-.356-2.35-2.096-2.35-.98 0-1.62.305-1.62.305l.09 1.204c.34-.29.597-.613 1.467-.613 1.016.002 1.153.66 1.19 1.14-.248 0-.477-.007-.743-.007-1.747 0-2.442.654-2.442 1.785 0 .758.466 1.498 1.555 1.498.695 0 1.117-.286 1.704-.87.026.206.062.53.127.786l.96-.138s-.192-.49-.192-1.84v-.898z" id="Fill-28"/><path d="M134.42 27.838h-1.27l-1.236 1.628c-.275.354-.477.526-.614.526h-.174v-2.154h-1.024v5.09h1.024V30.67h.203c.126 0 .4.295.657.61l1.31 1.648h1.353l-2.27-2.647 2.04-2.442" id="Fill-29"/><path d="M138.66 31.65l.09-1.498v-2.324h-1.023v5.1h1.024l2.563-3.712-.092 1.508v2.204h1.018v-5.1h-1.025l-2.553 3.822" id="Fill-30"/><path d="M145.968 32.15c-1.09 0-1.585-.935-1.585-1.73 0-1.092.56-1.78 1.536-1.78.55.002 1.045.226 1.382.65l.128-1.276c-.384-.16-.96-.277-1.445-.277-1.575 0-2.628.962-2.628 2.665 0 1.887 1.127 2.617 2.555 2.617.522 0 1.09-.13 1.584-.352l-.03-.972s-.53.454-1.498.454" id="Fill-31"/><path d="M152.876 27.838h-1.273l-1.237 1.628c-.273.354-.476.526-.612.526h-.175v-2.154h-1.026v5.09h1.025V30.67h.2c.128 0 .403.295.66.61l1.308 1.648h1.355l-2.27-2.647 2.043-2.442" id="Fill-32"/><path d="M156.034 31.974l-1.437-4.136h-1.155l2.05 5.347c-.283.612-.566.907-1.014.907-.358 0-.752-.174-.924-.314l.063 1.12c.256.072.512.102.815.102 1.125 0 1.692-.77 2.334-2.452.483-1.286.952-2.636 1.61-4.71h-1.07c-.55 1.887-.787 2.748-1.272 4.136" id="Fill-33"/><path d="M161.3 32.15c-1.092 0-1.586-.935-1.586-1.73 0-1.092.56-1.78 1.538-1.78.55.002 1.044.226 1.385.65l.126-1.276c-.382-.16-.962-.277-1.445-.277-1.575 0-2.63.962-2.63 2.665 0 1.887 1.128 2.617 2.555 2.617.523 0 1.09-.13 1.584-.352l-.027-.972s-.53.454-1.5.454" id="Fill-34"/><path d="M166.054 32.15c-1.088 0-1.582-.935-1.582-1.73 0-1.092.558-1.78 1.537-1.78.547.002 1.042.226 1.38.65l.13-1.276c-.386-.16-.963-.277-1.448-.277-1.574 0-2.626.962-2.626 2.665 0 1.887 1.127 2.617 2.553 2.617.522 0 1.088-.13 1.582-.352l-.026-.972s-.532.454-1.502.454" id="Fill-35"/><path d="M168.107 28.79c.07-.037.676-.12 1.015-.12h.75v4.258h1.026v-4.257h.75c.302 0 .895.064 1.016.12v-.952h-4.557v.953" id="Fill-36"/><path d="M175.442 32.158c-.403 0-.75-.017-1.006-.038v-1.385h.968c.733 0 1.136.24 1.136.694 0 .518-.42.728-1.098.728zm-1.006-3.564c.273-.015.66-.037.952-.037.675 0 .97.224.97.614 0 .547-.385.75-1.136.75h-.786v-1.326zm2.113 1.64c.438-.157.842-.526.842-1.232 0-.72-.515-1.23-1.886-1.23-.852.002-2.024.066-2.024.066v5.09c.294.017 1.1.053 2.2.053 1.36.002 1.91-.672 1.91-1.572 0-.832-.732-1.1-1.043-1.174z" id="Fill-37"/><path d="M180.822 32.24c-.84 0-1.425-.738-1.425-1.87 0-1.033.574-1.813 1.463-1.813.915 0 1.39.706 1.39 1.825 0 1.085-.484 1.86-1.428 1.86zm.064-4.55c-1.446 0-2.517 1.14-2.517 2.692 0 1.582.824 2.73 2.452 2.73 1.566 0 2.464-1.232 2.464-2.73 0-1.506-.707-2.692-2.4-2.692z" id="Fill-38"/><path d="M34.104 21.914l-1.867 4.176h-.034l-1.868-4.176h3.77zM23.38 26.09h-.032l-1.87-4.176h3.77l-1.87 4.176zm-8.86 0h-.03l-1.868-4.176h3.768l-1.87 4.176zm13.214-5.874H10.02l3.386 7.572h2.2l3.328-7.444 3.33 7.444h2.2l3.327-7.445 3.33 7.445h2.2l3.385-7.572h-8.97z" id="Fill-39"/><path d="M11.793 7.274h4.64V5.577h-6.318v13.428h1.678V7.275" id="Fill-40"/><path d="M20.644 7.274h4.64V5.577h-6.32v13.428h1.68V7.275" id="Fill-41"/><path d="M21.375 9.947h1.52v5.113h-1.52V9.946z" id="Fill-42"/><path d="M23.627 9.947h1.363v5.113h-1.363V9.946z" id="Fill-43"/><path d="M25.72 9.947h1.524v5.113H25.72V9.946z" id="Fill-44"/><path d="M12.61 9.947h5.53v5.113h-5.53V9.946z" id="Fill-45"/><path d="M44.586 15.29l-7.23 15.698H9.65l-7.734-15.71v-6.14l5.097-6.94H39.84l4.746 6.923v6.17zM6.05.26L0 8.496v7.236L8.465 32.93l30.113-.002 7.837-17.014.09-.195V8.513L40.844.26H6.05z" id="Fill-46"/><path d="M35.817 14.07v-.705h-3.73V11.64h3.73v-.654l1.545 1.543-1.545 1.54zm-6.17-6.796h5.33v2.67h-4.57v5.118h4.57v2.223h-5.33V7.275zm7.01-1.697H27.97v13.407h8.687v-3.368l3.095-3.086-3.095-3.09V5.577z" id="Fill-47"/></g></g></svg>