<svg width="273" height="38" viewBox="0 0 273 38" xmlns="http://www.w3.org/2000/svg"><g id="Page-1" fill="none" fill-rule="evenodd"><g id="logo-en" fill="#003D6E"><path d="M35.22 23.53l-1.928 4.265h-.035l-1.93-4.266h3.893zm-11.076 4.265h-.032l-1.93-4.266h3.89l-1.928 4.265zm-9.148 0h-.032l-1.93-4.266h3.892l-1.93 4.265zm13.645-6H10.348l3.498 7.734h2.272l3.437-7.604 3.438 7.603h2.27l3.438-7.606 3.438 7.605h2.27l3.498-7.736H28.64z" id="Fill-1"/><path d="M12.18 8.574h4.79V6.842h-6.524v13.716h1.733V8.574" id="Fill-2"/><path d="M21.32 8.574h4.79V6.842h-6.524v13.716h1.734V8.574" id="Fill-3"/><path d="M22.074 11.304h1.57v5.222h-1.57v-5.222z" id="Fill-4"/><path d="M24.4 11.304h1.41v5.222H24.4v-5.222z" id="Fill-5"/><path d="M26.563 11.304h1.572v5.222h-1.572v-5.222z" id="Fill-6"/><path d="M13.024 11.304h5.71v5.222h-5.71v-5.222z" id="Fill-7"/><path d="M46.046 16.763l-7.468 16.035H9.968L1.98 16.748v-6.27L7.245 3.39h33.9l4.902 7.07v6.303zM6.246 1.41L0 9.82v7.393L8.743 34.78H39.84l8.094-17.38.094-.2V9.843L42.182 1.41H6.247z" id="Fill-8"/><path d="M36.99 15.516v-.72h-3.854v-1.76h3.853v-.67l1.594 1.576-1.595 1.574zm-6.372-6.942h5.504V11.3h-4.72v5.23h4.72v2.27h-5.504V8.575zm7.24-1.732h-8.974v13.694h8.973v-3.44l3.195-3.154-3.195-3.156V6.842z" id="Fill-9"/><path d="M72.89 17.427c-1.237.608-3.386 1.215-5.466 1.215-5.14 0-8.175-3.2-8.175-8.34 0-5.045 3.432-8.526 8.524-8.526 1.566 0 3.528.397 4.766.888l-.396 3.434c-1.1-1.425-2.757-1.94-4.58-1.94-3.153 0-5.536 2.243-5.536 6.192 0 3.153 1.94 5.956 5.56 5.956 1.075 0 1.94-.187 2.756-.49V12.03c-1.4 0-2.85.165-3.457.26V9.694h6.004v7.732" id="Fill-10"/><path d="M76.72 5.56h2.615v12.85H76.72V5.56zM78.003.656c.934 0 1.682.748 1.682 1.682 0 .934-.748 1.66-1.682 1.66-.935 0-1.66-.726-1.66-1.66 0-.934.725-1.682 1.66-1.682z" id="Fill-11"/><path d="M86.295 10.28v5.326c.56.373 1.658.934 3.34.934 2.266 0 3.83-1.542 3.83-4.51 0-3.316-1.727-4.437-3.246-4.437-1.636 0-2.968 1.12-3.925 2.686zm-.327-4.72l.28 2.173c1.215-1.75 2.406-2.43 4.485-2.43 2.686 0 5.444 1.822 5.444 6.495 0 4.508-2.758 6.89-6.238 6.89-1.893 0-3.06-.396-3.645-.677v5.42l-2.617.118V5.56h2.29z" id="Fill-12"/><path d="M99.28 18.408V5.56h2.29l.21 2.5c1.12-1.915 2.36-2.663 4.275-2.663.958 0 1.73.397 1.73.397l-.632 2.897s-.817-.676-1.892-.676c-1.4 0-2.5.794-3.363 2.43v7.964H99.28" id="Fill-13"/><path d="M114.322 16.68c2.407 0 3.645-1.962 3.645-4.695 0-2.827-1.214-4.602-3.55-4.602-2.267 0-3.738 1.962-3.738 4.578 0 2.85 1.494 4.72 3.642 4.72zm.164-11.493c4.322 0 6.12 2.99 6.12 6.798 0 3.783-2.288 6.89-6.284 6.89-4.157 0-6.26-2.896-6.26-6.89 0-3.925 2.734-6.798 6.424-6.798z" id="Fill-14"/><path d="M131.84 8.387c-.98-.63-1.962-.864-3.13-.864-1.8 0-3.55 1.565-3.55 4.368 0 2.594 1.19 4.3 3.76 4.3.818 0 1.986-.397 2.92-1.262v-6.54zm2.616-2.826v11.003c0 5.092-2.172 7.36-6.774 7.36-1.892 0-4.228-.61-4.228-.61l-.234-3.036s2.173 1.425 4.556 1.425c3.62 0 4.064-2.336 4.064-4.812-1.448 1.378-2.71 1.542-3.808 1.542-3.106 0-5.442-2.383-5.442-6.4 0-3.575 2.195-6.705 6.096-6.705 1.846 0 3.388.747 3.388.794l1.94-.56h.442z" id="Fill-15"/><path d="M145.526 12.428s-1.027-.023-1.565-.023c-2.57 0-3.993.608-3.993 2.36 0 1.098.77 1.798 1.893 1.798 1.705 0 3.013-1.12 3.69-2.29l-.024-1.845zm.56 6.098c-.163-.655-.256-1.473-.326-1.986-1.495 1.47-2.57 2.195-4.345 2.195-2.78 0-3.97-1.868-3.97-3.784 0-2.85 1.774-4.507 6.236-4.507.678 0 1.263.024 1.893.024-.093-1.216-.444-2.874-3.037-2.874-2.22 0-2.873.817-3.737 1.542l-.235-3.037s1.635-.77 4.135-.77c4.44 0 5.35 1.868 5.35 5.933v2.266c0 3.41.49 4.65.49 4.65l-2.453.35z" id="Fill-16"/><path d="M160.918 5.56v.912c-.046-.047-6.89 9.787-6.89 9.787s7.124 0 7.077-.047v2.195h-10.722v-.887c-.024-.022 6.774-9.834 6.774-9.834-4.18 0-5.42.117-6.493.28V5.562h10.254" id="Fill-17"/><path d="M168.345 16.68c2.406 0 3.644-1.962 3.644-4.695 0-2.827-1.216-4.602-3.55-4.602-2.267 0-3.74 1.962-3.74 4.578 0 2.85 1.496 4.72 3.645 4.72zm.164-11.493c4.32 0 6.12 2.99 6.12 6.798 0 3.783-2.29 6.89-6.285 6.89-4.158 0-6.26-2.896-6.26-6.89 0-3.925 2.732-6.798 6.424-6.798z" id="Fill-18"/><path d="M182.848 16.68c2.406 0 3.644-1.962 3.644-4.695 0-2.827-1.214-4.602-3.55-4.602-2.266 0-3.737 1.962-3.737 4.578 0 2.85 1.495 4.72 3.643 4.72zm.164-11.493c4.322 0 6.12 2.99 6.12 6.798 0 3.783-2.288 6.89-6.284 6.89-4.157 0-6.26-2.896-6.26-6.89 0-3.925 2.734-6.798 6.424-6.798z" id="Fill-19"/><path d="M201.675 17.755c-1.262.56-2.71.887-4.043.887-3.644 0-6.516-1.846-6.516-6.61 0-4.3 2.686-6.73 6.704-6.73 1.238 0 2.71.306 3.69.702l-.327 3.224c-.863-1.074-2.125-1.635-3.526-1.635-2.5 0-3.926 1.728-3.926 4.485 0 2.01 1.264 4.368 4.043 4.368 2.476 0 3.83-1.144 3.83-1.144l.072 2.453" id="Fill-20"/><path d="M213.282 18.408s.023-2.686.023-6.003c0-3.387-.514-4.695-2.475-4.695-1.45 0-2.85 1.215-3.738 2.663v8.035h-2.617V.538l2.523-.116V7.85c1.17-1.66 2.523-2.547 4.625-2.547 3.574 0 4.3 2.15 4.3 7.032-.024 0-.024 6.073-.024 6.073h-2.618" id="Fill-21"/><path d="M219.75 5.56h2.616v12.85h-2.616V5.56zm1.285-4.905c.934 0 1.68.748 1.68 1.682 0 .934-.746 1.66-1.68 1.66-.935 0-1.66-.726-1.66-1.66 0-.934.725-1.682 1.66-1.682z" id="Fill-22"/><path d="M230.54 7.523c-1.19 0-2.195.467-2.195 1.448 0 1.38 1.94 1.66 3.645 2.173 1.495.444 3.666 1.285 3.666 3.575 0 2.406-1.775 3.924-5.443 3.924-1.868 0-3.34-.467-4.18-.77l.14-2.898s1.518 1.52 4.158 1.52c1.356 0 2.64-.61 2.64-1.636 0-1.38-2.92-1.776-4.743-2.5-1.424-.56-2.452-1.495-2.452-3.34 0-2.313 1.682-3.715 5-3.715 2.264 0 3.994.515 3.994.515l-.375 3.013c-.7-.676-1.892-1.307-3.855-1.307" id="Fill-23"/><path d="M241.705 7.967v5.512c0 2.242.84 2.873 1.938 2.873 2.08 0 3.552-1.355 3.552-1.355l-.12 2.826c-1.75.772-2.894.888-4.11.888-2.592 0-3.9-1.87-3.9-4.625 0-1.402.023-6.12.023-6.12h-2.266v-.724c1.892-1.518 3.644-5.21 3.644-5.21h1.24V5.7h5.324v2.29l-5.325-.023" id="Fill-24"/><path d="M261.16 18.408h-3.292l-3.247-4.345c-.63-.817-1.214-1.354-1.542-1.354h-.536v5.698h-2.617V.538l2.617-.116v10.582h.607c.28 0 .77-.608 1.447-1.52l2.99-3.947h3.037l-4.79 6.074 5.327 6.798" id="Fill-25"/><path d="M269.662 12.428s-1.028-.023-1.565-.023c-2.57 0-3.995.608-3.995 2.36 0 1.098.772 1.798 1.893 1.798 1.706 0 3.013-1.12 3.69-2.29l-.023-1.845zm.56 6.098c-.162-.655-.255-1.473-.326-1.986-1.495 1.47-2.57 2.195-4.345 2.195-2.78 0-3.97-1.868-3.97-3.784 0-2.85 1.775-4.507 6.237-4.507.678 0 1.26.024 1.892.024-.094-1.216-.445-2.874-3.038-2.874-2.22 0-2.872.817-3.738 1.542l-.233-3.037s1.636-.77 4.136-.77c4.44 0 5.35 1.868 5.35 5.933v2.266c0 3.41.49 4.65.49 4.65l-2.453.35z" id="Fill-26"/><path d="M60.413 34.78V28.09h4.217v.994h-3.108V30.9h2.65v.974h-2.65v1.912h3.232v.995h-4.34" id="Fill-27"/><path d="M69.36 34.78s.01-1.1.01-2.457c0-1.386-.21-1.92-1.013-1.92-.593 0-1.167.496-1.53 1.09v3.288h-1.07v-5.258h.936l.096.975c.59-.9 1.194-1.08 1.892-1.08 1.415 0 1.76.88 1.76 2.878-.01 0-.01 2.486-.01 2.486h-1.07" id="Fill-28"/><path d="M75.306 30.678c-.402-.257-.804-.353-1.282-.353-.736 0-1.453.64-1.453 1.788 0 1.06.488 1.76 1.54 1.76.335 0 .813-.163 1.196-.517v-2.678zm1.07-1.156v4.503c0 2.084-.89 3.012-2.772 3.012-.775 0-1.732-.248-1.732-.248l-.095-1.244s.89.583 1.865.583c1.482 0 1.664-.957 1.664-1.97-.593.564-1.11.63-1.56.63-1.27 0-2.227-.975-2.227-2.62 0-1.463.898-2.744 2.495-2.744.755 0 1.386.306 1.386.326l.795-.23h.182z" id="Fill-29"/><path d="M78.085 29.522h1.07v5.26h-1.07v-5.26zm.526-2.008c.384 0 .69.306.69.688 0 .383-.306.68-.69.68-.38 0-.678-.297-.678-.68 0-.382.297-.688.68-.688z" id="Fill-30"/><path d="M84.54 34.78s.008-1.1.008-2.457c0-1.386-.21-1.92-1.014-1.92-.592 0-1.166.496-1.53 1.09v3.288h-1.07v-5.258h.937l.096.975c.594-.9 1.196-1.08 1.893-1.08 1.415 0 1.76.88 1.76 2.878-.01 0-.01 2.486-.01 2.486h-1.07" id="Fill-31"/><path d="M87.777 31.645h2.553c0-.794-.344-1.444-1.214-1.444-.832 0-1.243.517-1.34 1.445zm3.337 2.907c-.516.23-1.214.324-1.817.324-1.77 0-2.6-.85-2.6-2.706 0-1.606.774-2.792 2.524-2.792 1.722 0 2.153 1.272 2.153 2.286 0 .363-.048.803-.058.87h-3.538c.105.975.603 1.424 1.578 1.424 1.243 0 1.76-.44 1.76-.44v1.034z" id="Fill-32"/><path d="M93.34 31.645h2.553c0-.794-.344-1.444-1.215-1.444-.83 0-1.242.517-1.338 1.445zm3.337 2.907c-.516.23-1.214.324-1.817.324-1.77 0-2.6-.85-2.6-2.706 0-1.606.774-2.792 2.524-2.792 1.72 0 2.15 1.272 2.15 2.286 0 .363-.046.803-.056.87H93.34c.105.975.602 1.424 1.578 1.424 1.243 0 1.76-.44 1.76-.44v1.034z" id="Fill-33"/><path d="M98.272 34.78v-5.258h.937l.085 1.023c.46-.784.965-1.09 1.75-1.09.392 0 .708.162.708.162l-.26 1.186s-.334-.277-.773-.277c-.574 0-1.024.325-1.377.994v3.26h-1.07" id="Fill-34"/><path d="M102.505 29.522h1.07v5.26h-1.07v-5.26zm.527-2.008c.382 0 .688.306.688.688 0 .383-.306.68-.688.68-.383 0-.68-.297-.68-.68 0-.382.297-.688.68-.688z" id="Fill-35"/><path d="M108.96 34.78s.008-1.1.008-2.457c0-1.386-.21-1.92-1.014-1.92-.592 0-1.166.496-1.53 1.09v3.288h-1.07v-5.258h.937l.096.975c.594-.9 1.196-1.08 1.893-1.08 1.415 0 1.76.88 1.76 2.878-.01 0-.01 2.486-.01 2.486h-1.07" id="Fill-36"/><path d="M114.904 30.678c-.402-.257-.804-.353-1.282-.353-.736 0-1.453.64-1.453 1.788 0 1.06.486 1.76 1.538 1.76.335 0 .813-.163 1.196-.517v-2.678zm1.07-1.156v4.503c0 2.084-.89 3.012-2.773 3.012-.773 0-1.73-.248-1.73-.248l-.095-1.244s.89.583 1.865.583c1.482 0 1.664-.957 1.664-1.97-.593.564-1.11.63-1.56.63-1.27 0-2.227-.975-2.227-2.62 0-1.463.9-2.744 2.496-2.744.755 0 1.386.306 1.386.326l.793-.23h.182z" id="Fill-37"/><path d="M123.716 34.513c-.517.23-1.11.363-1.654.363-1.492 0-2.668-.755-2.668-2.706 0-1.76 1.1-2.754 2.745-2.754.506 0 1.107.125 1.51.288l-.135 1.32c-.353-.44-.87-.67-1.443-.67-1.024 0-1.607.707-1.607 1.836 0 .822.516 1.787 1.654 1.787 1.013 0 1.568-.468 1.568-.468l.028 1.003" id="Fill-38"/><path d="M126.965 34.073c.985 0 1.49-.803 1.49-1.922 0-1.156-.496-1.882-1.45-1.882-.93 0-1.532.803-1.532 1.874 0 1.166.612 1.93 1.492 1.93zm.067-4.704c1.768 0 2.505 1.223 2.505 2.78 0 1.55-.937 2.822-2.572 2.822-1.702 0-2.563-1.186-2.563-2.82 0-1.607 1.12-2.783 2.63-2.783z" id="Fill-39"/><path d="M134.134 34.78s.01-1.1.01-2.457c0-1.386-.115-1.92-.842-1.92-.564 0-1.07.496-1.434 1.09v3.288h-1.07v-5.258h.936l.096.956c.535-.737.985-1.062 1.797-1.062.737 0 1.13.288 1.406.928.612-.688 1.186-.928 1.798-.928 1.425 0 1.722.88 1.722 2.88-.01 0-.01 2.485-.01 2.485h-1.07s.01-1.1.01-2.457c0-1.386-.116-1.92-.87-1.92-.69 0-1.245.59-1.407.878v3.5h-1.07" id="Fill-40"/><path d="M141.148 31.453v2.18c.23.153.68.383 1.368.383.927 0 1.568-.63 1.568-1.846 0-1.357-.708-1.816-1.33-1.816-.67 0-1.213.46-1.606 1.1zm-.134-1.93l.115.888c.496-.716.984-.994 1.835-.994 1.1 0 2.228.746 2.228 2.658 0 1.846-1.128 2.822-2.553 2.822-.775 0-1.252-.163-1.492-.278v2.218l-1.07.048v-7.362h.936z" id="Fill-41"/><path d="M149.32 32.333s-.42-.01-.64-.01c-1.05 0-1.635.25-1.635.966 0 .448.316.735.775.735.698 0 1.234-.46 1.51-.936l-.01-.757zm.23 2.496c-.066-.27-.104-.604-.133-.814-.612.602-1.052.898-1.778.898-1.14 0-1.627-.765-1.627-1.548 0-1.167.727-1.846 2.553-1.846.277 0 .516.01.775.01-.038-.498-.182-1.176-1.243-1.176-.908 0-1.176.334-1.53.63l-.095-1.243s.67-.314 1.692-.314c1.817 0 2.19.765 2.19 2.428v.928c0 1.396.2 1.903.2 1.903l-1.003.144z" id="Fill-42"/><path d="M155.572 34.78s.01-1.1.01-2.457c0-1.386-.21-1.92-1.014-1.92-.592 0-1.166.496-1.53 1.09v3.288h-1.07v-5.258h.936l.096.975c.593-.9 1.195-1.08 1.894-1.08 1.414 0 1.76.88 1.76 2.878-.01 0-.01 2.486-.01 2.486h-1.072" id="Fill-43"/><path d="M157.292 29.522h1.204l1.5 4.274c.508-1.434.757-2.323 1.33-4.274h1.12c-.69 2.142-1.177 3.538-1.684 4.866-.67 1.74-1.262 2.535-2.438 2.535-.316 0-.583-.03-.85-.106l-.068-1.157c.182.144.593.325.966.325.468 0 .765-.305 1.06-.936l-2.14-5.528" id="Fill-44"/></g></g></svg>