<svg width="44" height="51" viewBox="0 0 44 51" xmlns="http://www.w3.org/2000/svg"><g id="Page-1" fill="none" fill-rule="evenodd"><path d="M.73 50.702H2.6V1.07H.73v49.632zM42.278 5.446c-.232.058-.5.124-.8.194-.86.2-1.8.403-2.79.59-1.783.34-3.528.595-5.157.736-5.21.45-8.168-.354-8.168-2.375 0-2.088-1.436-3.314-3.8-3.72-1.786-.31-4.143-.18-6.955.294-1.51.254-3.106.6-4.746 1.017-1.263.322-2.48.665-3.61 1.01-.395.12-.75.232-1.062.332-.188.06-.32.105-.39.13-.383.128-.64.492-.64.9v26.123c0 .644.617 1.102 1.22.905.062-.02.183-.06.36-.114.294-.092.632-.194 1.01-.305 1.077-.316 2.245-.632 3.457-.927 1.628-.397 3.21-.724 4.697-.957 5.473-.857 8.59-.283 8.59 1.664 0 3.753 3.936 4.775 10.21 4.155 1.656-.164 3.415-.442 5.212-.8 1.048-.21 2.044-.435 2.956-.66.32-.078.607-.15.857-.217.15-.04.257-.07.314-.085.408-.113.69-.488.69-.916V6.294c0-.623-.58-1.077-1.172-.92-.048.013-.142.037-.28.072zm-.42.848v26.123l.69-.917c-.05.014-.148.04-.29.078-.24.063-.518.134-.828.21-.888.22-1.858.437-2.878.64-1.74.35-3.442.618-5.032.775-5.207.515-8.158-.252-8.158-2.263 0-2.084-1.43-3.32-3.79-3.756-1.785-.328-4.142-.227-6.955.214-1.54.24-3.173.578-4.848.986-1.243.303-2.437.627-3.542.95-.387.114-.735.22-1.04.315-.184.056-.313.097-.382.12l1.222.905V4.553l-.64.9c.063-.02.187-.06.367-.12.302-.097.648-.206 1.033-.323 1.102-.336 2.292-.672 3.527-.985 1.594-.405 3.142-.74 4.597-.986 5.47-.922 8.58-.386 8.58 1.55 0 3.744 3.93 4.813 10.198 4.27 1.697-.147 3.5-.412 5.34-.76 1.02-.194 1.985-.4 2.868-.608.31-.073.588-.14.83-.2.146-.038.248-.064.303-.08l-1.17-.918z" id="n-1" fill="#0082DC"/></g></svg>