<svg width="70" height="63" viewBox="0 0 70 63" xmlns="http://www.w3.org/2000/svg"><g id="Page-1" fill="none" fill-rule="evenodd"><g id="n-3" fill="#0082DC"><path d="M68.516 37.3c-.704 0-1.274.578-1.274 1.29v15.76c0 3.328-2.675 6.036-5.964 6.036H8.548c-3.287 0-5.962-2.708-5.962-6.036V38.59c0-.712-.57-1.29-1.275-1.29-.702 0-1.273.578-1.273 1.29v15.76c0 4.75 3.82 8.616 8.512 8.616h52.728c4.694 0 8.512-3.866 8.512-8.616V38.59c0-.712-.57-1.29-1.274-1.29" id="Fill-1"/><path d="M.89 34.752c.67.238 16.115 5.67 27.45 5.98v7.296c0 1.697 1.363 3.078 3.04 3.078h7.067c1.677 0 3.042-1.38 3.042-3.078v-7.272c9.818-.08 16.672-1.542 27.658-5.844.497-.194.822-.682.815-1.22l-.173-12.154c-.032-2.306-.923-4.463-2.507-6.076-1.598-1.626-3.73-2.52-6.005-2.52h-12.41c-.008-.7-.017-1.19-.027-1.49-.004-.155-.01-.313-.034-.47 0-.265.008-1.05.022-2.227V8.74c0-2.988-1.467-5.354-4.24-6.843C42.282.66 39.13.034 35.217.034c-3.893 0-7.208.64-9.586 1.85-2.947 1.5-4.505 3.87-4.505 6.856 0 .006 0 .012 0 .018.023 1.57.035 2.06.04 2.243v.05c-.005.105-.016.39-.03 1.89H8.55c-4.694 0-8.513 3.866-8.513 8.617v11.978c0 .548.342 1.036.853 1.217zm38.05 13.276c0 .275-.22.498-.493.498H31.38c-.27 0-.493-.223-.493-.498V37.174c0-.276.222-.5.493-.5h7.067c.272 0 .493.224.493.5v10.854zm-15.226-37.09c-.004-.18-.016-.657-.038-2.208.003-1.995 1.017-3.48 3.1-4.54 2.026-1.03 4.944-1.576 8.44-1.576 3.445 0 6.272.54 8.177 1.562 1.94 1.04 2.884 2.53 2.886 4.556-.015 1.206-.02 1.81-.023 2.115 0 .185 0 .374.032.56.006.136.017.51.028 1.534H23.686c.01-.98.018-1.6.027-1.77.003-.06.005-.06 0-.232zM2.586 21.558c0-3.33 2.675-6.038 5.963-6.038h52.728c3.296 0 5.916 2.66 5.964 6.055l.16 11.253c-10.29 3.97-16.597 5.274-25.913 5.35v-1.004c0-1.698-1.366-3.08-3.043-3.08H31.38c-1.677 0-3.04 1.382-3.04 3.08v.976c-4.415-.133-10.237-1.128-16.93-2.9-4.02-1.064-7.332-2.14-8.824-2.64V21.556z" id="Fill-2"/></g></g></svg>