<svg width="59" height="62" viewBox="0 0 59 62" xmlns="http://www.w3.org/2000/svg"><g id="Page-1" fill="none" fill-rule="evenodd"><g id="n-5" transform="translate(-.228)" fill="#0082DC"><path d="M14.986 46.587l-7.808-17.53c-.51-1.148-.005-2.504 1.124-3.027l6.885-3.177V16.81c0-.76.425-1.426 1.11-1.74L28.78 9.31c.78-.37 1.71-.378 2.525.003l12.478 5.758c.682.314 1.106.98 1.106 1.74v6.043l6.88 3.18c1.13.522 1.635 1.878 1.13 3.023l-7.802 17.51-2.08-.943 7.802-17.51-8.21-3.783v-7.272l-12.26-5.656c-.223-.105-.413-.1-.61-.007L17.468 17.06v7.27l-8.215 3.792 7.814 17.522-2.08.943zm23.666-24.09l-8.304-3.832c-.216-.102-.405-.1-.62 0l-8.27 3.82-.95-2.09 8.27-3.82c.4-.188.823-.283 1.253-.286.44 0 .865.096 1.27.286l8.3 3.833-.948 2.088z" id="Fill-1"/><path d="M26.035 8.514h-2.28V4.84c0-2.533 2.758-4.517 6.28-4.517 3.524 0 6.286 1.984 6.286 4.517v3.672h-2.28V4.84c0-1.047-1.714-2.216-4.004-2.216-2.29 0-4 1.17-4 2.216v3.674" id="Fill-2"/><path d="M37.327 54.28h-.002c-1.536 0-2.91-.878-4.24-1.726-1.06-.678-2.158-1.377-3.042-1.377-.885.002-1.97.697-3.022 1.37-1.33.85-2.708 1.733-4.26 1.733h-.003c-1.543 0-2.935-.875-4.28-1.72-1.067-.675-2.172-1.37-3.06-1.37-.88 0-1.958.693-3.002 1.366-1.317.847-2.678 1.724-4.22 1.724h-.002c-1.536 0-2.91-.878-4.242-1.728-1.058-.676-2.153-1.375-3.038-1.375v-2.3c1.546 0 2.925.88 4.26 1.733 1.054.675 2.146 1.37 3.022 1.37.878 0 1.953-.694 2.993-1.363 1.32-.85 2.685-1.728 4.23-1.728 1.54 0 2.928.872 4.268 1.716 1.072.677 2.18 1.374 3.074 1.374.89 0 1.982-.7 3.04-1.375 1.325-.848 2.695-1.725 4.236-1.728 1.553 0 2.93.882 4.267 1.733 1.056.675 2.148 1.37 3.022 1.37h.002c.874 0 1.95-.694 2.99-1.363 1.32-.85 2.684-1.728 4.23-1.728 1.54 0 2.925.872 4.267 1.716 1.073.677 2.18 1.374 3.076 1.374.89 0 1.983-.7 3.04-1.375 1.326-.85 2.7-1.728 4.244-1.728v2.3c-.883 0-1.972.696-3.024 1.37-1.33.85-2.71 1.733-4.26 1.733h-.002c-1.546 0-2.935-.875-4.28-1.722-1.07-.673-2.174-1.37-3.06-1.37-.882 0-1.96.695-3.004 1.368-1.315.847-2.676 1.724-4.217 1.724" id="Fill-3"/><path d="M51.888 61.305c-1.548 0-2.937-.875-4.282-1.725-1.07-.673-2.172-1.37-3.06-1.37-.878 0-1.956.697-3.002 1.37-1.313.848-2.674 1.725-4.215 1.725h-.005c-1.536-.002-2.91-.88-4.238-1.728-1.06-.676-2.158-1.375-3.044-1.375-.885 0-1.972.697-3.024 1.37-1.33.852-2.708 1.73-4.258 1.733h-.007c-1.544 0-2.933-.875-4.278-1.725-1.068-.673-2.174-1.37-3.06-1.37-.878 0-1.958.697-3 1.37-1.32.848-2.678 1.737-4.224 1.725-1.536-.002-2.91-.88-4.24-1.728-1.06-.676-2.155-1.375-3.04-1.375V55.9c1.545 0 2.925.882 4.26 1.733 1.055.674 2.147 1.37 3.023 1.37h.002c.876 0 1.95-.692 2.99-1.363 1.32-.85 2.682-1.73 4.23-1.73 1.54 0 2.927.875 4.267 1.72 1.072.676 2.18 1.374 3.07 1.374h.004c.89 0 1.982-.7 3.038-1.377 1.325-.847 2.697-1.722 4.236-1.728 1.555 0 2.935.882 4.272 1.733 1.055.674 2.147 1.37 3.02 1.37h.003c.873 0 1.948-.69 2.988-1.362 1.32-.85 2.683-1.73 4.23-1.73 1.54 0 2.924.875 4.266 1.72 1.072.676 2.18 1.374 3.074 1.374h.002c.888 0 1.98-.698 3.037-1.377 1.327-.85 2.702-1.728 4.247-1.728V58.2c-.883 0-1.973.697-3.026 1.37-1.33.852-2.707 1.73-4.255 1.733h-.005" id="Fill-4"/></g></g></svg>