<svg width="73" height="63" viewBox="0 0 73 63" xmlns="http://www.w3.org/2000/svg"><g id="Page-1" fill="none" fill-rule="evenodd"><g id="n-6" fill="#0082DC"><path d="M36.486.345C16.506.345.254 16.63.254 36.645c0 9.695 3.77 18.812 10.613 25.668.282.282.652.424 1.022.424s.74-.142 1.02-.424c.565-.566.565-1.483 0-2.048-6.297-6.31-9.764-14.698-9.764-23.62 0-1.17.06-2.322.178-3.46.163.098.346.165.546.193l4.463.62c.066.01.134.014.2.014.71 0 1.33-.525 1.43-1.25.11-.793-.443-1.523-1.233-1.633l-4.463-.62c-.19-.028-.378-.014-.553.03 1.074-5.805 3.65-11.087 7.31-15.426l3.313 3.04c.277.254.628.38.976.38.39 0 .782-.158 1.066-.47.538-.59.497-1.507-.09-2.047l-3.31-3.036c3.685-3.673 8.22-6.487 13.28-8.125.008.096.024.192.05.288l1.2 4.358c.176.643.758 1.064 1.392 1.064.127 0 .257-.016.385-.052.77-.212 1.222-1.01 1.01-1.78l-1.2-4.36c-.026-.095-.06-.184-.104-.27 2.41-.556 4.917-.86 7.493-.86 2.707 0 5.336.333 7.857.946-.05.09-.09.184-.12.286l-1.266 4.34c-.224.77.216 1.573.982 1.798.135.04.27.057.406.057.627 0 1.203-.41 1.386-1.043l1.265-4.342c.03-.105.047-.21.053-.315 4.893 1.643 9.284 4.387 12.874 7.946l-3.22 2.952c-.587.54-.628 1.457-.09 2.046.286.313.676.47 1.068.47.348 0 .697-.126.974-.38l3.23-2.96c3.684 4.34 6.28 9.633 7.364 15.455-.152-.03-.308-.043-.47-.02l-4.46.62c-.792.11-1.344.84-1.236 1.633.1.725.72 1.25 1.43 1.25.067 0 .133-.004.2-.014l4.463-.62c.17-.025.326-.082.47-.158.117 1.135.178 2.286.178 3.452 0 8.914-3.46 17.296-9.747 23.603-.563.565-.563 1.483.002 2.047.563.566 1.48.565 2.044 0 6.83-6.853 10.592-15.964 10.592-25.65 0-20.015-16.252-36.3-36.23-36.3" id="Fill-1"/><path d="M52.118 20.934c-.564-.566-1.48-.566-2.044 0L39.377 31.652c-.87-.51-1.858-.79-2.89-.79-1.53 0-2.967.597-4.047 1.68-1.08 1.08-1.676 2.52-1.676 4.054 0 1.53.595 2.972 1.676 4.056 1.08 1.08 2.518 1.677 4.046 1.677 1.53 0 2.964-.597 4.046-1.68 1.877-1.88 2.17-4.75.886-6.948l10.7-10.72c.566-.566.566-1.482 0-2.048zm-13.63 17.668c-1.07 1.07-2.936 1.07-4.004 0-.535-.537-.83-1.25-.83-2.007 0-.757.295-1.47.83-2.006.535-.537 1.246-.83 2.002-.83.756 0 1.468.294 2.002.828 1.103 1.107 1.103 2.907 0 4.014z" id="Fill-2"/></g></g></svg>