<svg width="37" height="61" viewBox="0 0 37 61" xmlns="http://www.w3.org/2000/svg"><g id="Page-1" fill="none" fill-rule="evenodd"><g id="n-7" fill="#0082DC"><path d="M6.475 15.97h12.95v-1.88H6.475v1.88z" id="Fill-1"/><path d="M6.475 10.333h12.95V8.455H6.475v1.878z" id="Fill-2"/><path d="M6.475 21.606h24.05v-1.88H6.475v1.88z" id="Fill-3"/><path d="M6.475 27.242h24.05v-1.878H6.475v1.878z" id="Fill-4"/><path d="M6.475 32.88h24.05V31H6.475v1.88z" id="Fill-5"/><path d="M24.975.94H4.63C2.585.94.926 2.626.926 4.71v43.184c0 2.086 1.648 3.773 3.696 3.773h14.805v9.394l4.625-4.696 4.625 4.697v-9.393h3.704c2.04 0 3.695-1.687 3.695-3.74V14.092L24.975.94zm0 2.818L33.67 14.09h-6.852c-1.01 0-1.843-.848-1.843-1.895V3.758zm1.85 52.794l-2.775-2.82-2.775 2.82v-7.397c.842.406 1.782.633 2.775.633.993 0 1.933-.227 2.775-.633v7.397zM24.05 47.91c-2.555 0-4.625-2.103-4.625-4.698 0-2.594 2.07-4.697 4.625-4.697s4.625 2.103 4.625 4.697c0 2.595-2.07 4.697-4.625 4.697zm10.175.012c0 1.03-.827 1.866-1.85 1.866h-3.7v-1.975c1.145-1.185 1.85-2.81 1.85-4.6 0-3.634-2.897-6.577-6.475-6.577s-6.475 2.943-6.475 6.576c0 1.79.705 3.416 1.85 4.6v1.976h-14.8c-1.008 0-1.85-.836-1.85-1.87V4.687c0-1.015.825-1.87 1.843-1.87h18.507V12.2c0 2.103 1.656 3.77 3.696 3.77h7.405v31.952z" id="Fill-6"/></g></g></svg>