<svg width="60" height="60" viewBox="0 0 60 60" xmlns="http://www.w3.org/2000/svg"><g id="Page-1" fill="none" fill-rule="evenodd"><path d="M30 1c16.016 0 29 12.984 29 29S46.016 59 30 59 1 46.016 1 30 13.984 1 30 1zm21.436 9.47s-1.262 6.922-6.305 9.444c-5.042-1.26-10.087 2.522-8.825 2.522 1.26 0 2.52 5.043 2.52 5.043 1.263 1.26 3.784 0 3.784 0 3.15 3.15-5.044 8.825-5.044 10.086 0 1.26 3.15 1.89 1.26 3.782-1.89 1.89-3.783 2.522-3.783 2.522 0 6.304-6.303 6.304-7.564 6.304-1.262 0-3.784-5.043-3.784-6.304 0-1.26 1.262-2.522 1.262-3.783 0-1.26-2.52-3.782-2.52-3.782 0-5.044-3.784-3.782-7.567-3.782-3.78 0-3.78-5.044-3.78-5.044s0-8.827 6.303-10.088c6.305-1.26 6.305 1.26 6.305 1.26 2.52 2.522 7.566 0 10.088 0 0 0 1.26-8.824-1.263-7.564-2.52 1.26-4.78.286-5.042-2.52-.366-3.943 11.004-6.306 11.004-6.306" id="n-9" stroke="#0082DC" stroke-width="2" stroke-linecap="round" stroke-linejoin="round"/></g></svg>