<svg id="Layer_1" xmlns="http://www.w3.org/2000/svg" width="91.253" height="89.68" viewBox="0 0 91.253 89.68"><g fill="#0082DC"><path d="M63.11 63.417h-1.5c0 1.91-.382 3.556-1.056 4.97-1.012 2.117-2.686 3.752-4.88 4.895-2.19 1.137-4.9 1.754-7.863 1.753-3.953.002-7.443-1.1-9.88-3.06-1.222-.98-2.188-2.173-2.862-3.587-.673-1.415-1.056-3.06-1.057-4.97v-41.53c.002-3.813 1.543-7.255 4.043-9.757 2.502-2.5 5.94-4.04 9.758-4.04 3.814 0 7.258 1.54 9.76 4.04 2.5 2.503 4.04 5.942 4.04 9.76v41.526h3V21.89c0-9.28-7.52-16.8-16.8-16.8-9.277 0-16.798 7.52-16.8 16.8v41.526c0 2.313.473 4.424 1.35 6.26 1.31 2.76 3.517 4.877 6.206 6.268 2.693 1.396 5.87 2.09 9.245 2.09 4.498-.002 8.657-1.233 11.76-3.72 1.547-1.24 2.82-2.8 3.693-4.637.876-1.837 1.35-3.945 1.348-6.26h-1.5zM25.955 67.79h-1.5c-.002 2.004-.81 3.806-2.123 5.12-1.313 1.312-3.117 2.12-5.12 2.122-2.005 0-3.807-.81-5.123-2.122-1.313-1.314-2.12-3.116-2.122-5.12V50.303c0-2.005.81-3.808 2.12-5.122 1.316-1.312 3.118-2.12 5.123-2.12 2.005 0 3.808.81 5.122 2.12 1.313 1.314 2.12 3.117 2.123 5.122v17.484h3V50.304c-.002-5.658-4.586-10.242-10.244-10.243-5.654.002-10.24 4.586-10.24 10.244v17.484c0 5.657 4.585 10.242 10.24 10.243 5.66 0 10.243-4.585 10.245-10.242h-1.5zM82.783 69.974h-1.5c0 1.4-.562 2.656-1.48 3.576-.92.918-2.175 1.48-3.575 1.48-1.402 0-2.656-.562-3.576-1.48-.918-.92-1.48-2.176-1.48-3.576v-30.6c0-1.4.562-2.656 1.48-3.575.92-.92 2.174-1.48 3.576-1.48 1.4 0 2.656.56 3.576 1.48.917.92 1.48 2.174 1.48 3.574v30.6h3v-30.6c0-4.45-3.605-8.057-8.058-8.058-4.452 0-8.06 3.606-8.06 8.058v30.6c0 4.45 3.605 8.06 8.06 8.06 4.45 0 8.057-3.605 8.057-8.06h-1.5z"/><path d="M18.71 41.56V30.632c.002-1.4.563-2.656 1.48-3.576.922-.918 2.176-1.48 3.577-1.48h8.743c.828 0 1.5-.672 1.5-1.5s-.672-1.5-1.5-1.5h-8.743c-4.45 0-8.058 3.605-8.058 8.06v10.928c0 .828.67 1.5 1.5 1.5.83-.003 1.5-.675 1.5-1.504zM63.11 62.73h6.56c.828 0 1.5-.67 1.5-1.5 0-.826-.672-1.5-1.5-1.5h-6.56c-.827 0-1.5.674-1.5 1.5 0 .83.673 1.5 1.5 1.5M74.726 76.532v6.558c0 .827.67 1.5 1.5 1.5.828 0 1.5-.673 1.5-1.5v-6.558c0-.828-.672-1.5-1.5-1.5-.83 0-1.5.672-1.5 1.5M46.31 76.532v6.558c0 .827.672 1.5 1.5 1.5s1.5-.673 1.5-1.5v-6.558c0-.828-.67-1.5-1.5-1.5-.827 0-1.5.672-1.5 1.5M15.71 76.532v6.558c0 .827.673 1.5 1.5 1.5.83 0 1.5-.673 1.5-1.5v-6.558c0-.828-.67-1.5-1.5-1.5-.828 0-1.5.672-1.5 1.5"/><path d="M6.283 84.59H84.97c.826 0 1.5-.673 1.5-1.5 0-.828-.674-1.5-1.5-1.5H6.283c-.83 0-1.5.672-1.5 1.5 0 .827.67 1.5 1.5 1.5"/></g></svg>