<svg id="Layer_1" xmlns="http://www.w3.org/2000/svg" width="153.07" height="240.94" viewBox="0 0 153.07 240.94"><g fill="#231F20"><path d="M93.99 138.84h-1.5c0 1.91-.383 3.555-1.057 4.97-1.01 2.117-2.685 3.75-4.88 4.893-2.19 1.137-4.9 1.754-7.863 1.753-3.954.002-7.444-1.098-9.88-3.06-1.22-.98-2.19-2.172-2.863-3.586-.673-1.415-1.056-3.06-1.057-4.97V97.312c0-3.815 1.542-7.256 4.042-9.758 2.502-2.5 5.942-4.04 9.758-4.042 3.815 0 7.257 1.542 9.76 4.042 2.5 2.502 4.04 5.942 4.04 9.758v41.528h3V97.312c0-9.28-7.52-16.8-16.8-16.8-9.28 0-16.8 7.52-16.8 16.8v41.528c0 2.314.472 4.423 1.348 6.26 1.312 2.76 3.518 4.876 6.207 6.266 2.693 1.395 5.87 2.09 9.245 2.09 4.497-.002 8.656-1.234 11.76-3.72 1.546-1.24 2.818-2.8 3.692-4.636.876-1.837 1.35-3.945 1.348-6.26h-1.5zM56.833 143.212h-1.5c0 2.005-.81 3.806-2.122 5.12-1.314 1.314-3.116 2.122-5.12 2.123-2.005 0-3.807-.81-5.122-2.122-1.313-1.315-2.12-3.116-2.122-5.12v-17.486c0-2.005.81-3.807 2.122-5.122 1.315-1.312 3.117-2.12 5.12-2.12 2.006 0 3.807.808 5.123 2.12 1.314 1.315 2.122 3.117 2.123 5.122v17.485h3v-17.485c0-5.658-4.585-10.242-10.243-10.243-5.657 0-10.242 4.585-10.243 10.243v17.485c0 5.657 4.585 10.242 10.243 10.243 5.658 0 10.242-4.586 10.243-10.243h-1.5zM113.662 145.397h-1.5c0 1.4-.563 2.656-1.48 3.576-.92.918-2.175 1.48-3.576 1.48-1.402 0-2.657-.562-3.576-1.48-.918-.92-1.48-2.175-1.48-3.576v-30.6c0-1.4.562-2.657 1.48-3.576.92-.917 2.174-1.48 3.576-1.48 1.4 0 2.656.563 3.576 1.48.917.92 1.48 2.176 1.48 3.577v30.6h3v-30.6c0-4.45-3.605-8.057-8.057-8.058-4.452 0-8.057 3.606-8.058 8.057v30.6c0 4.45 3.605 8.057 8.058 8.058 4.45 0 8.056-3.606 8.057-8.058h-1.5z"/><path d="M49.59 116.983v-10.93c0-1.4.563-2.655 1.48-3.575.92-.918 2.175-1.48 3.577-1.48h8.743c.83 0 1.5-.673 1.5-1.5s-.67-1.5-1.5-1.5h-8.743c-4.45 0-8.056 3.605-8.057 8.057v10.93c0 .827.67 1.5 1.5 1.5s1.5-.673 1.5-1.502zM93.99 138.154h6.558c.83 0 1.5-.672 1.5-1.5s-.67-1.5-1.5-1.5H93.99c-.828 0-1.5.672-1.5 1.5s.672 1.5 1.5 1.5M105.605 151.955v6.557c0 .828.67 1.5 1.5 1.5.828 0 1.5-.672 1.5-1.5v-6.557c0-.828-.672-1.5-1.5-1.5-.83 0-1.5.672-1.5 1.5M77.19 151.955v6.557c0 .828.67 1.5 1.5 1.5s1.5-.672 1.5-1.5v-6.557c0-.828-.67-1.5-1.5-1.5-.828 0-1.5.672-1.5 1.5M46.59 151.955v6.557c0 .828.67 1.5 1.5 1.5s1.5-.672 1.5-1.5v-6.557c0-.828-.67-1.5-1.5-1.5s-1.5.672-1.5 1.5"/><path d="M37.162 160.012h78.686c.828 0 1.5-.672 1.5-1.5s-.672-1.5-1.5-1.5H37.162c-.83 0-1.5.672-1.5 1.5s.67 1.5 1.5 1.5"/></g></svg>