<svg id="Layer_1" xmlns="http://www.w3.org/2000/svg" width="63.464" height="89.68" viewBox="0 0 63.464 89.68"><g id="Page-1_1_"><g id="n-8" fill="#0082DC"><path id="Fill-1" d="M32.415 57.923c-14.704 0-26.66-12.067-26.66-26.905 0-14.836 11.956-26.906 26.66-26.906 14.7 0 26.66 12.07 26.66 26.906 0 14.834-11.96 26.905-26.66 26.905zm0-50.623C19.455 7.3 8.91 17.94 8.91 31.017s10.543 23.72 23.504 23.72c12.96 0 23.502-10.642 23.502-23.72s-10.54-23.72-23.504-23.72l.003.003z"/><path id="Fill-2" d="M19.494 83.842c-.25 0-.508-.06-.737-.187-.518-.275-.843-.816-.843-1.406V60.145c0-.88.71-1.593 1.58-1.593.873 0 1.58.713 1.58 1.593V79.24l10.453-7.17c.537-.37 1.238-.37 1.774 0l10.457 7.17V60.142c0-.877.705-1.593 1.578-1.593.87 0 1.578.716 1.578 1.593V82.25c0 .588-.32 1.13-.84 1.407-.515.272-1.14.24-1.625-.092l-12.034-8.253-12.034 8.253c-.265.182-.577.277-.886.277"/><path id="Fill-3" d="M33.31 43.9c-.87 0-1.578-.716-1.578-1.596v-18.47l-3.78 2.703c-.712.51-1.695.337-2.2-.38-.505-.715-.336-1.71.375-2.22l6.27-4.482c.484-.344 1.115-.388 1.637-.116.523.27.855.816.855 1.414v21.553c0 .88-.71 1.593-1.58 1.593"/></g></g></svg>