<svg id="Layer_1" xmlns="http://www.w3.org/2000/svg" width="91.253" height="89.68" viewBox="0 0 91.253 89.68"><path fill="#0082DC" d="M44.626 85.075C22.44 85.075 4.39 67.025 4.39 44.84c0-22.186 18.05-40.236 40.236-40.236 4.04 0 7.944.6 11.627 1.712.098.02.192.048.283.087 6.85 2.127 12.925 6.04 17.673 11.192.11.09.21.196.287.315 6.44 7.136 10.364 16.583 10.364 26.93.002 22.186-18.047 40.235-40.234 40.235zm0-77.79C23.92 7.286 7.073 24.133 7.073 44.84S23.92 82.392 44.626 82.392 82.18 65.547 82.18 44.84c0-8.824-3.06-16.948-8.174-23.365-1.048 3.205-3.473 8.53-8.487 11.038-.287.143-.616.18-.926.102-3.934-.984-7.88.61-9.663 1.733 1.01 1.14 1.918 3.258 2.72 6.34.867.463 2.54-.06 3.29-.43.516-.253 1.14-.153 1.546.254 3.86 3.858-1.31 9.234-4.397 12.445-.712.74-1.574 1.637-1.9 2.103.144.137.46.412.663.59.725.63 1.716 1.493 1.762 2.803.03.868-.373 1.73-1.2 2.557-1.826 1.823-3.663 2.85-4.713 3.34-.392 5.664-4.518 8.89-11.456 8.89-2.91 0-6.417-7.882-6.417-9.795 0-1.162.524-2.21.987-3.136.363-.726.705-1.41.705-1.94-.017-.61-1.44-2.575-2.987-4.122-.25-.252-.393-.593-.393-.948 0-1.553-.298-2.62-.885-3.176-.958-.903-3.047-.784-5.26-.657-.86.05-1.753.1-2.662.1-5.07 0-6.412-5.3-6.412-8.105 0-.528.108-12.96 9.532-14.845 4.252-.85 7.23-.604 8.853.727.65.534.953 1.125 1.09 1.576 1.894 1.51 5.23.73 8.188.044 1.033-.24 2.027-.47 2.93-.593.39-3.36.36-6.586-.072-7.608-2.118.984-4.195 1.032-5.79.145-1.566-.87-2.54-2.533-2.74-4.685-.385-4.147 5.658-6.933 10.493-8.487-1.886-.297-3.816-.45-5.78-.45zM35.813 52.74c1.135 1.188 3.39 3.786 3.39 5.627 0 1.163-.524 2.213-.988 3.14-.362.723-.704 1.406-.704 1.935.015 1.25 2.722 6.454 3.864 7.112 5.756-.035 8.675-2.428 8.675-7.112 0-.577.367-1.09.914-1.27.018-.008 2.295-.807 4.553-3.06.383-.385.416-.573.416-.575-.045-.172-.563-.623-.842-.865-.737-.644-1.656-1.443-1.656-2.686 0-1.018.785-1.876 2.72-3.89 2.88-2.995 5.58-6.048 4.887-7.99-1.422.48-3.87.95-5.522-.698-.173-.172-.295-.388-.354-.624-.65-2.593-1.695-5.206-2.294-5.76-.563-.06-1.02-.37-1.248-.852-.158-.333-.325-1.01.324-1.803 1.218-1.484 6.906-4.687 12.786-3.476 4.798-2.683 6.676-8.82 7.177-10.835-4.34-4.59-9.82-8.09-15.983-10.038-5.66 1.232-13.596 4.214-13.343 6.946.082.878.387 2.042 1.37 2.588.87.483 2.132.38 3.458-.284 1.206-.602 2.086-.19 2.503.11 2.168 1.564 1.63 7.83 1.118 11.423-.095.66-.66 1.152-1.328 1.152-.87 0-2.153.298-3.513.614-3.6.837-8.084 1.88-10.966-1.006-.23-.23-.368-.535-.39-.857-.104-.388-1.522-1.53-6.855-.465-7.264 1.453-7.374 12.11-7.374 12.216 0 .217.068 5.422 3.73 5.422.832 0 1.684-.05 2.51-.097 2.804-.16 5.455-.312 7.253 1.386 1.066 1.008 1.63 2.507 1.713 4.57z" id="Page-1"/></svg>