<?xml version="1.0" encoding="utf-8"?>
<!-- Generator: Adobe Illustrator 15.0.0, SVG Export Plug-In . SVG Version: 6.00 Build 0)  -->
<!DOCTYPE svg PUBLIC "-//W3C//DTD SVG 1.1//EN" "http://www.w3.org/Graphics/SVG/1.1/DTD/svg11.dtd">
<svg version="1.1" id="Layer_1" xmlns="http://www.w3.org/2000/svg" xmlns:xlink="http://www.w3.org/1999/xlink" x="0px" y="0px"
	 width="91.253px" height="89.68px" viewBox="0 0 91.253 89.68" enable-background="new 0 0 91.253 89.68" xml:space="preserve">
<g id="Page-1">
	<path fill="#0082DC" d="M44.626,85.075c-22.186,0-40.236-18.049-40.236-40.235c0-22.186,18.05-40.236,40.236-40.236
		c4.041,0,7.944,0.599,11.627,1.712c0.098,0.019,0.192,0.048,0.283,0.087c6.851,2.127,12.925,6.041,17.673,11.192
		c0.112,0.089,0.21,0.196,0.288,0.315c6.439,7.136,10.364,16.583,10.364,26.929C84.862,67.026,66.813,85.075,44.626,85.075z
		 M44.626,7.286c-20.707,0-37.553,16.846-37.553,37.553s16.846,37.554,37.553,37.554S82.18,65.547,82.18,44.84
		c0-8.824-3.061-16.948-8.174-23.365c-1.048,3.205-3.473,8.53-8.487,11.038c-0.286,0.143-0.615,0.179-0.925,0.102
		c-3.934-0.984-7.88,0.609-9.663,1.733c1.008,1.14,1.917,3.258,2.72,6.339c0.866,0.464,2.539-0.059,3.29-0.428
		c0.515-0.254,1.139-0.154,1.545,0.253c3.859,3.858-1.31,9.234-4.397,12.445c-0.711,0.74-1.573,1.637-1.9,2.103
		c0.145,0.137,0.46,0.412,0.664,0.59c0.725,0.63,1.716,1.493,1.762,2.803c0.03,0.868-0.373,1.729-1.2,2.557
		c-1.826,1.823-3.663,2.849-4.713,3.339c-0.392,5.665-4.518,8.891-11.456,8.891c-2.911,0-6.417-7.882-6.417-9.795
		c0-1.162,0.525-2.211,0.988-3.136c0.363-0.725,0.705-1.409,0.705-1.938c-0.017-0.61-1.441-2.576-2.987-4.123
		c-0.251-0.252-0.393-0.593-0.393-0.948c0-1.553-0.298-2.621-0.885-3.176c-0.958-0.903-3.047-0.784-5.259-0.657
		c-0.862,0.049-1.754,0.1-2.663,0.1c-5.071,0-6.412-5.301-6.412-8.105c0-0.528,0.108-12.96,9.532-14.845
		c4.252-0.85,7.229-0.604,8.853,0.727c0.651,0.534,0.953,1.125,1.091,1.576c1.893,1.509,5.228,0.731,8.187,0.044
		c1.033-0.24,2.027-0.471,2.929-0.593c0.391-3.361,0.361-6.587-0.071-7.609c-2.118,0.984-4.195,1.032-5.791,0.145
		c-1.565-0.87-2.538-2.533-2.739-4.685c-0.385-4.147,5.658-6.933,10.493-8.487C48.521,7.438,46.591,7.286,44.626,7.286z
		 M35.813,52.739c1.135,1.189,3.391,3.787,3.391,5.628c0,1.163-0.525,2.213-0.989,3.139c-0.362,0.724-0.704,1.407-0.704,1.936
		c0.014,1.251,2.721,6.454,3.863,7.112c5.756-0.035,8.675-2.428,8.675-7.112c0-0.577,0.368-1.089,0.915-1.271
		c0.018-0.007,2.295-0.806,4.553-3.06c0.383-0.384,0.416-0.572,0.416-0.574c-0.045-0.172-0.563-0.623-0.842-0.865
		c-0.738-0.644-1.657-1.443-1.657-2.686c0-1.018,0.785-1.876,2.721-3.889c2.88-2.996,5.579-6.049,4.886-7.99
		c-1.423,0.48-3.872,0.95-5.523-0.699c-0.173-0.172-0.295-0.388-0.354-0.624c-0.649-2.593-1.695-5.206-2.294-5.759
		c-0.563-0.062-1.021-0.372-1.248-0.853c-0.158-0.333-0.325-1.01,0.324-1.803c1.218-1.483,6.906-4.686,12.786-3.475
		c4.798-2.683,6.676-8.819,7.177-10.835c-4.339-4.59-9.819-8.088-15.982-10.037c-5.66,1.232-13.596,4.214-13.343,6.946
		c0.082,0.878,0.387,2.042,1.371,2.588c0.87,0.483,2.131,0.379,3.457-0.284c1.206-0.602,2.086-0.189,2.503,0.111
		c2.168,1.563,1.631,7.828,1.118,11.422c-0.095,0.661-0.66,1.152-1.328,1.152c-0.87,0-2.153,0.298-3.513,0.614
		c-3.601,0.836-8.084,1.878-10.966-1.007c-0.23-0.23-0.368-0.535-0.39-0.857c-0.104-0.388-1.522-1.531-6.855-0.465
		c-7.265,1.453-7.375,12.109-7.375,12.216c0.001,0.217,0.068,5.422,3.729,5.422c0.833,0,1.685-0.049,2.51-0.097
		c2.805-0.161,5.456-0.312,7.254,1.386C35.166,49.178,35.729,50.677,35.813,52.739z"/>
</g>
</svg>
