<svg width="100" height="100" viewBox="0 0 100 100" xmlns="http://www.w3.org/2000/svg"><g id="Page-1" fill="none" fill-rule="evenodd"><g id="Group" transform="translate(0 -256)" fill="#0082DC"><g id="s-1" transform="translate(0 256)"><path d="M49.662 99.324C22.278 99.324 0 77.047 0 49.662 0 22.278 22.278 0 49.662 0s49.662 22.278 49.662 49.662c0 27.385-22.278 49.662-49.662 49.662zm0-97.297c-26.266 0-47.635 21.37-47.635 47.635 0 26.266 21.37 47.635 47.635 47.635 26.266 0 47.635-21.37 47.635-47.635 0-26.266-21.37-47.635-47.635-47.635z" id="Fill-1"/><path d="M68.587 76.594l-8.26-17.533c2.168-1.238 4-2.816 5.327-4.67.322-.45.22-1.074-.23-1.395-.45-.322-1.074-.218-1.395.23-1.13 1.576-2.692 2.938-4.556 4.026L54.67 47.055c3.226-1.96 5.388-5.495 5.388-9.546 0-5.835-4.472-10.618-10.175-11.125V22c0-1.334-2-1.334-2 0v4.383c-5.703.506-10.177 5.29-10.177 11.125 0 3.92 2.024 7.365 5.08 9.36l-3.852 10.718c-2.1-1.218-3.818-2.837-4.964-4.74-.285-.472-.9-.624-1.373-.34-.473.285-.625.9-.34 1.373 1.383 2.295 3.47 4.207 5.994 5.606L32.07 76.68c-.452 1.255 1.43 1.932 1.88.677l6.107-16.984c2.54 1.08 5.42 1.678 8.428 1.678 3.632 0 7.09-.744 10.06-2.078l8.232 17.476c.568 1.206 2.378.354 1.81-.853zM48.485 60.051c-2.785 0-5.434-.56-7.75-1.56l3.835-10.67c1.327.556 2.783.864 4.312.864 1.41 0 2.752-.27 3.993-.747l4.817 10.226c-2.7 1.205-5.864 1.888-9.207 1.888zm-8.78-22.541c0-5.07 4.11-9.177 9.177-9.177 5.068 0 9.176 4.107 9.176 9.175 0 3.47-1.928 6.49-4.77 8.048-.27.022-.53.15-.713.35-1.13.497-2.378.778-3.693.778-5.067 0-9.176-4.108-9.176-9.175v-.002z" id="Fill-15"/><path d="M54.332 37.508c0-3.01-2.44-5.45-5.45-5.45-3.01 0-5.45 2.44-5.45 5.45 0 3.01 2.44 5.45 5.45 5.45 3.01.002 5.45-2.44 5.45-5.45zm-5.45 3.45c-1.905.002-3.45-1.544-3.45-3.45 0-1.906 1.544-3.45 3.45-3.45 1.905 0 3.45 1.545 3.45 3.45 0 1.905-1.546 3.45-3.45 3.45z" id="Path"/></g></g></g></svg>