<svg width="100" height="100" viewBox="0 0 100 100" xmlns="http://www.w3.org/2000/svg"><g id="Page-1" fill="none" fill-rule="evenodd"><g id="Group" transform="translate(-144 -301)" fill="#0082DC"><g id="s-2" transform="translate(144 301)"><path d="M49.79 99.648C22.408 99.648.13 77.37.13 49.986S22.408.324 49.79.324c27.384 0 49.663 22.278 49.663 49.662S77.173 99.648 49.79 99.648zm0-97.297c-26.266 0-47.635 21.37-47.635 47.636 0 26.266 21.37 47.635 47.636 47.635 26.267 0 47.636-21.368 47.636-47.634 0-26.266-21.37-47.635-47.635-47.635z" id="Fill-1"/><path d="M46.697 40.614c0 .55-.446.997-.998.997-.55 0-.998-.445-.998-.996 0-.55.447-.997.997-.997s.997.446.997.997" id="Fill-3"/><path d="M71.697 40.614c0 .55-.446.997-.998.997-.55 0-.998-.445-.998-.996 0-.55.447-.997.997-.997s.997.446.997.997" id="Fill-4"/><path d="M46.697 56.154c0 .55-.446.997-.998.997-.55 0-.998-.445-.998-.996 0-.55.447-.997.997-.997s.997.446.997.997" id="Fill-5"/><path d="M71.697 56.154c0 .55-.446.997-.998.997-.55 0-.998-.445-.998-.996 0-.55.447-.997.997-.997s.997.446.997.997" id="Fill-6"/><path d="M32.07 71.793c.553 0 1-.448 1-1v-3.89c0-.553-.447-1-1-1h-7.94c-.55 0-1 .447-1 1v3.89c0 .552.45 1 1 1h7.94zm-6.94-1v-3.89l-1 1h7.94l-1-1v3.89l1-1h-7.94l1 1zm48.913 1c.552 0 1-.447 1-1V66.71c0-.554-.448-1-1-1h-7.94c-.552 0-1 .446-1 1v4.084c0 .552.448 1 1 1h7.94zm-6.94-1V66.71l-1 1h7.94l-1-1v4.084l1-1h-7.94l1 1zm-13.478 1c.552 0 1-.447 1-1v-3.89c0-.55-.448-1-1-1H44.55c-.55 0-1 .45-1 1v3.89c0 .553.45 1 1 1h9.075zm-8.074-1v-3.89l-1 1h9.075l-1-1v3.89l1-1H44.55l1 1z" id="Stroke-2"/><path d="M24.13 62.21v2h49.913v-2H24.13zM74.043 60.703c.552 0 1-.447 1-1V37.007c0-.552-.448-1-1-1H42.28c-.55 0-1 .448-1 1v22.696c0 .553.45 1 1 1h31.763zm-30.762-1V37.007l-1 1h31.763l-1-1v22.696l1-1H42.28l1 1zM39.1 59.7V43.814c0-.552-.45-1-1-1H24.13c-.55 0-1 .448-1 1v15.887c0 .552.45 1 1 1L38.1 60.7c.55 0 1-.45 1-1zM24.13 58.7l1 1V43.815l-1 1H38.1l-1-1V59.7l.998-1-13.967.002z" id="Path"/><path d="M74.043 62.21H24.13c-1.332 0-1.332 2 0 2h49.913c1.333 0 1.333-2 0-2zM30.8 27.93l-1 1h31.763l-1-1v4.89c0 .553.448 1 1 1s1-.447 1-1v-4.89c0-.553-.448-1-1-1H29.8c-.55 0-1 .447-1 1v11.7c0 .55.45 1 1 1 .554 0 1-.45 1-1v-11.7z" id="Path"/></g></g></g></svg>