<svg width="100" height="100" viewBox="0 0 100 100" xmlns="http://www.w3.org/2000/svg"><g id="Page-1" fill="none" fill-rule="evenodd"><g id="Group" transform="translate(-308 -206)" fill="#0082DC"><g id="s-3" transform="translate(308 206)"><path d="M49.803 99.648C22.42 99.648.14 77.37.14 49.986S22.42.324 49.804.324c27.383 0 49.662 22.278 49.662 49.662s-22.28 49.662-49.662 49.662zm0-97.297c-26.266 0-47.635 21.37-47.635 47.636 0 26.266 21.37 47.635 47.635 47.635 26.267 0 47.635-21.368 47.635-47.634C97.438 23.72 76.07 2.35 49.803 2.35zM26.34 48.89c.528-11.194 9.772-20.107 21.098-20.107 7.88 0 14.99 4.355 18.64 11.18.263.494.877.68 1.37.417.494-.264.68-.878.417-1.372-3.997-7.48-11.792-12.25-20.427-12.25-1.484 0-2.935.14-4.34.405l1.666-1.39c1.463-1.216 3.368-1.767 5.252-1.515C63.008 25.99 72.823 37.12 72.823 50.353v6.797h-47.52c-1.506 0-2.085-.58-2.085-2.084V53c0-1.506.58-2.085 2.084-2.085h25.816c.56 0 1.014-.454 1.014-1.014 0-.558-.454-1.012-1.014-1.012h-24.78zm-2.033.08c.358-9.033 5.893-16.735 13.72-20.22.002-.003.005-.005.007-.008l5.433-4.527c1.9-1.58 4.37-2.294 6.817-1.968C64.28 24.115 74.85 36.1 74.85 50.353v6.797h7.248c.56 0 1.013.454 1.013 1.014s-.452 1.013-1.012 1.013h-9.313v.02c0 3.656-2.52 6.176-6.177 6.176H37.694c-1.506 0-2.085.58-2.085 2.084 0 3.908-1.62 6.177-5.144 6.177-3.525 0-5.145-2.27-5.145-6.177v-8.28h-.018c-2.625 0-4.11-1.487-4.11-4.11v-2.068c0-2.273 1.113-3.692 3.115-4.033zm46.45 10.21v.018c0 2.538-1.61 4.15-4.15 4.15H37.695c-2.625 0-4.112 1.486-4.112 4.11 0 2.908-.887 4.15-3.116 4.15-2.23 0-3.118-1.242-3.118-4.15v-8.28h43.41z" id="Path"/></g></g></g></svg>