<svg width="100" height="100" viewBox="0 0 100 100" xmlns="http://www.w3.org/2000/svg"><g id="Page-1" fill="none" fill-rule="evenodd"><g id="Group" transform="translate(-428 -301)" fill="#0082DC"><g id="s-4" transform="translate(428 301)"><path d="M66.892 59.46v-25H38.514v37.837H48.65c1.35 0 1.35 2.027 0 2.027h-22.3c-1.35 0-1.35-2.027 0-2.027h10.136V34.46H26.35c-1.35 0-1.35-2.028 0-2.028h3.64l6.496-6.807v-2.652h2.028v2.378l29.6 7.082h4.183c1.352 0 1.352 2.027 0 2.027H68.92v25h5.742c.56 0 1.014.453 1.014 1.013v6.757c0 .56-.454 1.013-1.014 1.013H61.824c-.56 0-1.013-.454-1.013-1.013v-6.757c0-.56.455-1.014 1.014-1.014h5.068zM38.514 32.43h20.89l-20.89-4.997v4.997zm-2.028 0h-3.694l3.694-3.87v3.87zm13.636 67.216C22.74 99.648.46 77.37.46 49.986S22.74.324 50.122.324c27.384 0 49.662 22.278 49.662 49.662S77.506 99.648 50.122 99.648zm0-97.297c-26.266 0-47.635 21.37-47.635 47.636 0 26.266 21.37 47.635 47.635 47.635 26.267 0 47.635-21.368 47.635-47.634C97.757 23.72 76.39 2.35 50.122 2.35zM73.65 61.487v4.73H62.837v-4.73h10.81z" id="Fill-1"/></g></g></g></svg>