<svg width="100" height="100" viewBox="0 0 100 100" xmlns="http://www.w3.org/2000/svg"><g id="Page-1" fill="none" fill-rule="evenodd"><g id="Group" transform="translate(-226 -47)" fill="#0082DC"><g id="s-5" transform="translate(226 47)"><path d="M50.122 99.648C22.74 99.648.46 77.37.46 49.986S22.74.324 50.122.324c27.384 0 49.662 22.278 49.662 49.662S77.506 99.648 50.122 99.648zm0-97.297c-26.266 0-47.635 21.37-47.635 47.636 0 26.266 21.37 47.635 47.635 47.635 26.267 0 47.635-21.368 47.635-47.634C97.757 23.72 76.39 2.35 50.122 2.35z" id="Fill-1"/><path d="M29.73 79.167h2.027V26.24H29.73v52.927zm45.024-48.26c-.25.06-.542.13-.867.206-.93.215-1.95.43-3.024.63-1.93.36-3.822.633-5.587.784-5.647.48-8.853-.377-8.853-2.532 0-2.228-1.556-3.535-4.118-3.97-1.935-.328-4.49-.19-7.537.314-1.636.27-3.365.64-5.142 1.084-1.37.342-2.69.71-3.913 1.075-.43.128-.815.247-1.152.355-.203.065-.346.11-.423.137-.414.138-.693.525-.693.96V57.81c0 .687.67 1.175 1.324.965.066-.02.198-.063.388-.12.32-.1.686-.21 1.095-.327 1.17-.337 2.434-.675 3.748-.99 1.764-.422 3.48-.77 5.09-1.02 5.93-.913 9.308-.302 9.308 1.775 0 4.002 4.266 5.092 11.064 4.43 1.795-.174 3.702-.47 5.65-.853 1.134-.224 2.214-.463 3.203-.702.346-.084.657-.163.928-.233.165-.042.28-.073.342-.09.44-.12.746-.52.746-.977V31.81c0-.664-.628-1.148-1.27-.98-.052.013-.154.04-.304.076zm-.453.903v27.858l.747-.978c-.054.015-.16.043-.315.083-.26.068-.56.143-.897.224-.96.233-2.012.466-3.118.684-1.886.372-3.73.658-5.453.826-5.643.55-8.84-.268-8.84-2.413 0-2.223-1.55-3.542-4.108-4.005-1.934-.35-4.49-.242-7.537.228-1.67.257-3.44.616-5.255 1.05-1.346.324-2.64.67-3.837 1.015-.42.122-.797.235-1.127.336-.198.06-.338.105-.413.13l1.324.964V29.953l-.692.962c.068-.023.203-.067.397-.13.327-.103.703-.22 1.12-.344 1.194-.357 2.484-.715 3.822-1.05 1.727-.43 3.405-.79 4.982-1.05 5.926-.983 9.296-.41 9.296 1.655 0 3.99 4.258 5.13 11.052 4.55 1.84-.155 3.794-.438 5.787-.81 1.104-.205 2.15-.426 3.108-.647.336-.077.637-.15.898-.214.16-.04.27-.068.33-.083l-1.27-.98z" id="Stroke-2"/></g></g></g></svg>