<svg id="Layer_1" xmlns="http://www.w3.org/2000/svg" width="153.07" height="240.94" viewBox="0 0 153.07 240.94"><path d="M51.5 164.5c-.83 0-1.5-.672-1.5-1.5V88c0-.83.67-1.5 1.5-1.5s1.5.67 1.5 1.5v75c0 .828-.67 1.5-1.5 1.5zM73.5 161.5c-.83 0-1.5-.672-1.5-1.5V88c0-.83.67-1.5 1.5-1.5s1.5.67 1.5 1.5v72c0 .828-.67 1.5-1.5 1.5z"/><path d="M73 100h-9c-.83 0-1.5-.67-1.5-1.5S63.17 97 64 97h9c.83 0 1.5.67 1.5 1.5s-.67 1.5-1.5 1.5zM61 165h-9c-.83 0-1.5-.672-1.5-1.5s.67-1.5 1.5-1.5h9c.83 0 1.5.672 1.5 1.5s-.67 1.5-1.5 1.5zM73 113h-9c-.83 0-1.5-.67-1.5-1.5s.67-1.5 1.5-1.5h9c.83 0 1.5.67 1.5 1.5s-.67 1.5-1.5 1.5zM73 126h-9c-.83 0-1.5-.672-1.5-1.5s.67-1.5 1.5-1.5h9c.83 0 1.5.672 1.5 1.5s-.67 1.5-1.5 1.5zM73 139h-9c-.83 0-1.5-.672-1.5-1.5s.67-1.5 1.5-1.5h9c.83 0 1.5.672 1.5 1.5s-.67 1.5-1.5 1.5zM73 152h-9c-.83 0-1.5-.672-1.5-1.5s.67-1.5 1.5-1.5h9c.83 0 1.5.672 1.5 1.5s-.67 1.5-1.5 1.5zM96.5 106.5c-.828 0-1.5-.67-1.5-1.5V91c0-.83.672-1.5 1.5-1.5s1.5.67 1.5 1.5v14c0 .83-.672 1.5-1.5 1.5z"/><path d="M103 100H89c-.828 0-1.5-.67-1.5-1.5S88.172 97 89 97h14c.828 0 1.5.67 1.5 1.5s-.672 1.5-1.5 1.5zM103 153H89c-.828 0-1.5-.672-1.5-1.5s.672-1.5 1.5-1.5h14c.828 0 1.5.672 1.5 1.5s-.672 1.5-1.5 1.5zM73.5 89.5c-.83 0-1.5-.67-1.5-1.5 0-5.376-4.174-9.75-9.305-9.75C57.44 78.25 53 82.715 53 88c0 .83-.67 1.5-1.5 1.5S50 88.83 50 88c0-6.91 5.814-12.75 12.695-12.75C69.48 75.25 75 80.97 75 88c0 .83-.67 1.5-1.5 1.5z"/></svg>