<svg id="Layer_1" xmlns="http://www.w3.org/2000/svg" width="58.842" height="89.68" viewBox="0 0 58.842 89.68"><path fill="#0082DC" d="M6.943 83.577c-.725 0-1.31-.587-1.31-1.31V16.795c0-.725.585-1.31 1.31-1.31.724 0 1.31.585 1.31 1.31v65.473c-.002.722-.587 1.31-1.31 1.31zM26.148 80.96c-.725 0-1.31-.587-1.31-1.312V16.795c0-.725.585-1.31 1.31-1.31.724 0 1.31.585 1.31 1.31V79.65c0 .723-.586 1.31-1.31 1.31z"/><path fill="#0082DC" d="M25.71 27.27h-7.855c-.725 0-1.31-.585-1.31-1.31 0-.724.585-1.31 1.31-1.31h7.856c.725 0 1.31.585 1.31 1.31 0 .724-.585 1.31-1.31 1.31zM15.235 84.014H7.378c-.724 0-1.31-.587-1.31-1.31 0-.724.585-1.31 1.31-1.31h7.856c.724 0 1.31.586 1.31 1.31 0 .723-.585 1.31-1.31 1.31zM25.71 38.618h-7.855c-.725 0-1.31-.585-1.31-1.31S17.13 36 17.854 36h7.856c.725 0 1.31.585 1.31 1.31 0 .723-.585 1.308-1.31 1.308zM25.71 49.97h-7.855c-.725 0-1.31-.588-1.31-1.312 0-.723.585-1.31 1.31-1.31h7.856c.725 0 1.31.587 1.31 1.31 0 .724-.585 1.31-1.31 1.31zM25.71 61.316h-7.855c-.725 0-1.31-.587-1.31-1.31 0-.724.585-1.31 1.31-1.31h7.856c.725 0 1.31.586 1.31 1.31 0 .723-.585 1.31-1.31 1.31zM25.71 72.666h-7.855c-.725 0-1.31-.587-1.31-1.31 0-.724.585-1.31 1.31-1.31h7.856c.725 0 1.31.586 1.31 1.31 0 .723-.585 1.31-1.31 1.31zM46.226 32.944c-.723 0-1.31-.585-1.31-1.31v-12.22c0-.725.587-1.31 1.31-1.31.725 0 1.31.584 1.31 1.31v12.222c0 .723-.586 1.308-1.31 1.308z"/><path fill="#0082DC" d="M51.9 27.27H39.68c-.724 0-1.312-.585-1.312-1.31 0-.724.588-1.31 1.31-1.31h12.224c.723 0 1.31.585 1.31 1.31-.002.724-.588 1.31-1.31 1.31zM51.9 73.54H39.68c-.724 0-1.312-.59-1.312-1.312s.588-1.31 1.31-1.31h12.224c.723 0 1.31.587 1.31 1.31s-.588 1.31-1.31 1.31zM26.148 18.104c-.725 0-1.31-.586-1.31-1.31 0-4.693-3.645-8.512-8.124-8.512-4.587 0-8.463 3.897-8.463 8.512 0 .724-.585 1.31-1.31 1.31-.723 0-1.31-.586-1.31-1.31 0-6.033 5.076-11.13 11.083-11.13 5.924 0 10.742 4.992 10.742 11.13.002.724-.583 1.31-1.307 1.31z"/></svg>