<svg width="59" height="57" viewBox="0 0 59 57" xmlns="http://www.w3.org/2000/svg"><g id="Page-1" fill="none" fill-rule="evenodd"><path d="M46.484 56.23c-.436 0-.9-.147-1.38-.44L30.68 47.027c-.65-.394-1.958-.394-2.607 0L13.65 55.79c-1.07.65-2.123.546-2.7-.18-.27-.345-.543-.97-.3-2.007l3.85-16.47c.182-.78-.203-1.965-.806-2.488L.93 23.59c-1.112-.96-.967-1.882-.854-2.233.114-.35.537-1.18 2-1.304l16.804-1.416c.794-.067 1.8-.8 2.107-1.537l6.535-15.595C28.092.147 29.01 0 29.376 0s1.285.147 1.854 1.505L37.765 17.1c.308.738 1.314 1.47 2.11 1.537l16.8 1.416c1.465.124 1.888.954 2 1.304.115.35.26 1.272-.853 2.234L45.058 34.646c-.603.523-.987 1.71-.805 2.488l3.85 16.47c.242 1.036-.03 1.662-.3 2.006-.318.4-.786.62-1.32.62zM2.67 22.202l12.452 10.784c1.21 1.045 1.87 3.087 1.505 4.646L12.872 53.7l14.07-8.548c1.33-.808 3.54-.808 4.87 0l14.07 8.547-3.756-16.066c-.365-1.56.296-3.602 1.504-4.647l12.452-10.784-16.392-1.38c-1.59-.135-3.32-1.397-3.94-2.872L29.377 2.74 23.002 17.95c-.618 1.476-2.35 2.738-3.94 2.873l-16.39 1.38z" id="w-1" fill="#0082DC"/></g></svg>