<svg width="54" height="44" viewBox="0 0 54 44" xmlns="http://www.w3.org/2000/svg"><g id="Page-1" fill="none" fill-rule="evenodd"><path d="M29.066 43.82c-.054 0-.11-.002-.166-.005-1.452-.097-2.55-1.37-2.458-2.836.22-3.385.35-6.897.398-10.717-.774.057-1.586.055-2.358-.002.048 3.807.178 7.312.395 10.695.093 1.468-1.005 2.738-2.45 2.833-.056.005-.115.006-.174.006-1.38 0-2.53-1.094-2.62-2.492-.28-4.385-.424-8.99-.44-14.078v-1.192c-.28 1.125-.53 2.25-.66 3.12-.183 1.24-1.347 2.136-2.6 1.956-.61-.094-1.144-.42-1.508-.92-.365-.498-.515-1.112-.424-1.726.467-3.16 1.89-10.73 5.044-12.804 1.296-.854 3.633-1.41 6.21-1.49-3.656-.223-6.563-3.313-6.563-7.078 0-3.91 3.135-7.09 6.986-7.09 3.852 0 6.984 3.18 6.984 7.09 0 3.726-2.844 6.788-6.445 7.07 2.738.04 5.006.624 6.258 1.617 2.918 2.317 4.463 10.255 4.868 12.632.218 1.262-.62 2.468-1.863 2.688-.138.023-.267.034-.395.034-1.116 0-2.065-.81-2.257-1.928-.142-.83-.394-1.92-.67-3.006v1.024c0 .11-.022.198-.04.256-.007 4.955-.148 9.487-.43 13.85-.092 1.397-1.24 2.492-2.62 2.492zm-.98-14.952l-.007.713c-.042 4.114-.175 7.87-.41 11.48-.048.78.535 1.456 1.302 1.508l.094.002c.732 0 1.342-.583 1.39-1.324.282-4.36.422-8.89.43-13.85l.038-5.164c0-.128-.02-.25-.034-.374l-.036-.298.095-.61.527-.002c.54 0 .54 0 1.433 3.276.314 1.153.877 3.303 1.13 4.767.098.578.632.977 1.232.875.57-.1.956-.657.856-1.242-.758-4.457-2.368-10.237-4.413-11.86-1.07-.85-3.24-1.356-5.804-1.356-2.566 0-4.998.51-6.195 1.3-2.234 1.47-3.787 7.13-4.495 11.94-.043.284.027.568.195.8.168.23.415.38.696.423.546.086 1.122-.328 1.206-.905.215-1.46.747-3.55 1.156-5.046.922-3.377.922-3.377 1.443-3.377h.738l-.132.737c-.065.365-.095.668-.095.952v4.99c.015 5.06.158 9.64.438 13.998.048.742.658 1.324 1.39 1.324l.09-.002c.77-.05 1.355-.727 1.306-1.505-.234-3.61-.367-7.36-.408-11.46l-.006-.712.697.087c1.11.135 2.345.137 3.457 0l.696-.084zM25.676 1.25c-3.172 0-5.754 2.62-5.754 5.84 0 3.22 2.582 5.84 5.754 5.84 3.173 0 5.753-2.62 5.753-5.84 0-3.22-2.58-5.84-5.754-5.84zm20.187 39.848c-.055 0-.113-.002-.17-.006-.643-.043-1.24-.34-1.67-.84-.43-.496-.642-1.135-.6-1.795.198-3.06.315-6.23.36-9.67-.668.048-1.36.048-2.028 0 .044 3.432.16 6.596.358 9.648.086 1.364-.936 2.546-2.28 2.635-.054.004-.107.006-.16.006-1.28 0-2.352-1.02-2.435-2.32-.146-2.254-.248-4.594-.314-7.159l-.007-.288.21-.194c.796-.726 1.163-1.788.983-2.843-.22-1.288-2.488-9.207-3.084-10.353l-.163-.315.182-.304c.53-.873 1.08-1.492 1.68-1.888 1.068-.704 2.906-1.186 4.977-1.33-3.017-.52-5.322-3.194-5.322-6.405 0-3.582 2.87-6.497 6.4-6.497 3.53 0 6.4 2.915 6.4 6.498 0 3.173-2.25 5.822-5.218 6.386 2.188.118 3.988.634 5.028 1.46 2.66 2.11 4.074 9.34 4.444 11.508.202 1.177-.58 2.303-1.74 2.51-1.218.205-2.276-.606-2.473-1.77-.104-.61-.286-1.4-.495-2.22v.412c0 .103-.02.185-.036.243-.008 4.5-.136 8.615-.392 12.574-.086 1.3-1.155 2.318-2.435 2.318zm-.834-13.702l-.01.712c-.035 3.73-.156 7.142-.368 10.43-.02.328.085.645.298.89.213.248.508.396.83.417l.083.003c.634 0 1.164-.505 1.207-1.15.254-3.956.382-8.07.388-12.577l.036-4.69c0-.114-.017-.224-.03-.334l-.084-.39.366-.5h.712l.204.56c.002-.02.034.09.102.322.368 1.253 1.346 4.58 1.67 6.47.084.496.544.836 1.05.75.49-.086.822-.563.736-1.062-.69-4.04-2.15-9.277-3.99-10.738-.96-.763-2.92-1.22-5.236-1.22-2.32 0-4.518.46-5.598 1.173-.38.25-.757.66-1.126 1.22.82 2.01 2.857 9.228 3.054 10.38.236 1.383-.197 2.775-1.16 3.78.064 2.44.164 4.68.302 6.836.042.644.573 1.15 1.207 1.15l.085-.004c.662-.044 1.17-.63 1.127-1.307-.212-3.28-.333-6.684-.37-10.41l-.006-.713.696.086c1.007.124 2.116.125 3.127.002l.696-.084zM42.78 2.43c-2.85 0-5.17 2.354-5.17 5.248s2.32 5.247 5.17 5.247 5.17-2.353 5.17-5.248c0-2.893-2.32-5.247-5.17-5.247zM11.662 39.737c-.048 0-.095-.002-.145-.005-1.18-.08-2.08-1.12-2.003-2.32.164-2.536.263-5.163.3-8.01-.495.03-1.006.03-1.502 0 .038 2.828.136 5.45.3 7.99.075 1.2-.825 2.242-2.007 2.32-.045.004-.093.005-.142.005-1.13 0-2.07-.895-2.144-2.04-.21-3.234-.32-6.64-.337-10.4-.09.42-.166.81-.214 1.14-.153 1.027-1.116 1.766-2.15 1.62-.507-.077-.948-.346-1.248-.76-.3-.414-.426-.92-.35-1.428.357-2.43 1.456-8.255 3.91-9.872.802-.527 2.11-.91 3.61-1.076-2.276-.674-3.943-2.81-3.943-5.335 0-3.064 2.455-5.557 5.474-5.557 3.017 0 5.473 2.493 5.473 5.557 0 2.495-1.627 4.61-3.86 5.31 1.58.157 2.874.575 3.66 1.2.328.26.642.615.958 1.09l.185.275-.123.31c-.436 1.097-1.22 3.887-1.227 3.915-.36 1.448-.666 3.03-.91 4.678-.122.824.08 1.646.57 2.316l.286.324-.006.242c-.056 2.352-.145 4.468-.275 6.47-.075 1.145-1.016 2.04-2.143 2.04zm-.6-11.722l-.008.71c-.03 3.138-.133 6.006-.312 8.768-.032.513.353.958.857.992l.062.002c.48 0 .882-.384.914-.873.124-1.913.212-3.932.266-6.165-.01-.016-.02-.03-.033-.043-.686-.94-.968-2.094-.798-3.247.25-1.69.565-3.31.94-4.817.033-.124.687-2.452 1.15-3.735-.175-.23-.348-.416-.512-.546-.79-.628-2.413-1.003-4.338-1.003-1.932 0-3.756.38-4.648.968-1.663 1.094-2.828 5.37-3.365 9.006-.027.178.016.355.12.5.107.145.262.24.437.266.03.003.065.007.1.007.325 0 .605-.247.654-.574.162-1.097.57-2.7.883-3.852.737-2.71.737-2.71 1.247-2.71h.298l.37.475-.07.306c-.042.238-.064.46-.064.668v3.808c.012 3.87.12 7.36.334 10.67.03.49.433.872.915.872.567-.036.952-.48.92-.996-.18-2.77-.28-5.63-.31-8.75l-.007-.71.697.085c.838.104 1.762.105 2.602 0l.696-.082zM9.073 7.26c-2.34 0-4.244 1.932-4.244 4.307 0 2.376 1.904 4.307 4.244 4.307s4.242-1.93 4.242-4.307c0-2.375-1.903-4.307-4.242-4.307z" id="w-10" fill="#1584D9"/></g></svg>