<svg width="80" height="52" viewBox="0 0 80 52" xmlns="http://www.w3.org/2000/svg"><g id="Page-1" fill="none" fill-rule="evenodd"><path d="M75.123 32.707V18.074c.884-.666 1.05-1.447 1.05-1.92 0-.62-.27-1.762-2.066-2.485L41.387.543c-1.806-.725-4.797-.725-6.602 0L2.065 13.67C.268 14.39 0 15.534 0 16.152c0 .618.268 1.76 2.067 2.484l12.315 4.938V41.41c0 .41.17.802.467 1.083 6.514 6.134 14.874 9.204 23.236 9.204 8.36 0 16.72-3.07 23.237-9.204.298-.28.467-.673.467-1.083V23.575l10.37-4.158v13.29c-2.548.664-4.444 2.97-4.444 5.73 0 3.28 2.657 5.944 5.925 5.944 3.27 0 5.927-2.664 5.927-5.942 0-2.76-1.896-5.067-4.444-5.73zM58.827 40.76c-11.753 10.622-29.73 10.622-41.482 0V24.763l17.44 6.995c.902.36 2.074.56 3.3.56 1.228 0 2.4-.2 3.302-.56l17.44-6.995V40.76zM40.287 29c-1.106.442-3.294.442-4.403 0L3.854 16.153l32.032-12.85c1.105-.443 3.293-.443 4.4 0l31.886 12.792c-.002.02-.012.037-.012.058v.064L40.286 29zM73.64 41.41c-1.633 0-2.96-1.333-2.96-2.972 0-1.637 1.327-2.97 2.96-2.97 1.636 0 2.964 1.333 2.964 2.97 0 1.64-1.328 2.972-2.963 2.972z" id="w-3" fill="#0082DC"/></g></svg>