<svg width="59" height="54" viewBox="0 0 59 54" xmlns="http://www.w3.org/2000/svg"><g id="Page-1" fill="none" fill-rule="evenodd"><g id="w-4" fill="#0082DC"><path d="M57.91 10.065c-1.353-3.81-3.942-6.785-7.29-8.377C48.34.598 45.776.023 43.208.023c-5.696 0-10.973 2.773-13.44 7.06l-.267.458-.22-.376C26.816 2.87 21.54.094 15.84.094c-2.567 0-5.13.576-7.413 1.664-3.348 1.59-5.936 4.564-7.29 8.372-1.57 4.42-1.326 9.586.654 13.814C6.34 33.66 27.865 52.754 28.78 53.56c.19.17.452.24.708.24.05 0 .1-.004.15-.008.24-.025.484-.155.665-.332 1.282-1.134 22.445-19.97 26.953-29.598 1.98-4.22 2.224-9.378.656-13.797zM55.28 22.92c-3.932 8.396-22.116 25.013-25.8 28.327C25.62 47.767 7.668 31.334 3.763 23c-1.736-3.71-1.95-8.243-.57-12.125C4.346 7.622 6.536 5.093 9.357 3.75c1.993-.95 4.235-1.45 6.48-1.45 4.936 0 9.472 2.343 11.56 5.976l1.158 1.994c.188.325.528.53.9.544.36.01.725-.164.937-.474.016-.023.086-.126.1-.15l1.16-1.996c2.084-3.625 6.62-5.967 11.554-5.967 2.247 0 4.49.503 6.485 1.455 2.82 1.34 5.008 3.872 6.164 7.127 1.376 3.88 1.16 8.406-.574 12.11z" id="Fill-1"/><path d="M16.512 6.93c-5 0-9.067 4.108-9.067 9.16 0 1.485.362 2.96 1.044 4.267.195.375.573.587.965.587.17 0 .346-.04.508-.126.534-.285.737-.952.455-1.49-.517-.99-.79-2.11-.79-3.24 0-3.834 3.088-6.954 6.884-6.954.603 0 1.09-.494 1.09-1.102 0-.61-.487-1.102-1.09-1.102" id="Fill-2"/></g></g></svg>