<svg width="50" height="50" viewBox="0 0 50 50" xmlns="http://www.w3.org/2000/svg"><g id="Page-1" fill="none" fill-rule="evenodd"><path d="M48.12 27.358c1.134-.86 1.88-2.225 1.88-3.773 0-2.6-2.077-4.717-4.63-4.717H34.548c.857-3.7 1.563-10.75 1.563-13.208C36.11.982 33.595 0 31.48 0 30.1 0 27.78.612 27.78 4.717c0 5.635-8.13 17.52-9.734 19.81h-1.676c-.105-.376-.284-.728-.54-1.02-.485-.55-1.19-.865-1.94-.865H2.78c-1.532 0-2.778 1.27-2.778 2.83V47.17C0 48.73 1.246 50 2.778 50h8.333c1.48 0 2.815-1.218 2.978-2.714l2.276-20.87h2.155c.293 0 .57-.144.746-.387.423-.588 10.364-14.48 10.364-21.313 0-2.01.536-2.83 1.85-2.83 1.445 0 2.78.456 2.78 3.773 0 2.898-.956 11.26-1.804 13.853-.096.288-.048.604.125.85.176.246.456.392.753.392H45.37c1.532 0 2.778 1.27 2.778 2.83s-1.246 2.83-2.778 2.83h-1.85c-.514 0-.927.423-.927.943s.413.944.926.944h1.85c1.532 0 2.778 1.27 2.778 2.83s-1.246 2.83-2.778 2.83h-.926c-.11 0-.212.03-.31.063-.203-.027-.403-.063-.615-.063h-.927c-.512 0-.926.423-.926.944 0 .52.414.943.926.943h.926c1.53 0 2.776 1.27 2.776 2.83s-1.246 2.83-2.777 2.83h-.927c-.1 0-.194.028-.286.058-.09-.03-.184-.06-.285-.06h-.818c-.512 0-.926.424-.926.945 0 .52.414.943.926.943 1.277 0 2.315 1.06 2.315 2.36 0 1.3-1.248 2.357-2.78 2.357H27.316c-3.418 0-6.673-.444-7.457-.844l-1.852-.944c-.457-.234-1.012-.044-1.24.422-.23.466-.045 1.033.413 1.266l1.85.943c1.33.677 5.26 1.043 8.285 1.043H40.74c2.554 0 4.63-1.905 4.63-4.245 0-.932-.3-1.792-.8-2.493 2.046-.487 3.578-2.352 3.578-4.583 0-1.207-.46-2.298-1.194-3.134 1.77-.662 3.046-2.382 3.046-4.414 0-1.548-.746-2.913-1.88-3.774zm-35.873 19.72c-.06.55-.59 1.035-1.136 1.035H2.78c-.51 0-.926-.423-.926-.943V25.472c0-.52.415-.944.926-.944h11.11c.226 0 .424.084.558.237.135.153.195.362.17.59l-2.37 21.722z" id="w-5" fill="#0082DC"/></g></svg>