<svg width="57" height="57" viewBox="0 0 57 57" xmlns="http://www.w3.org/2000/svg"><g id="Page-1" fill="none" fill-rule="evenodd"><path d="M57 12.667c0-2.91-2.368-5.278-5.278-5.278h-11l-1.8-3.153-.18-.325C37.78 2.17 36.583 0 33.78 0H23.222c-2.945 0-4.21 2.438-5.138 4.226L16.277 7.39h-11C2.368 7.39 0 9.756 0 12.666V26.39c0 1.198.402 2.372 1.056 3.392v21.94c0 2.91 2.367 5.278 5.277 5.278h44.334c2.91 0 5.277-2.368 5.277-5.278v-21.94C56.598 28.762 57 27.588 57 26.39V12.666zM19.96 5.192c.996-1.918 1.712-3.08 3.262-3.08h10.556c1.487 0 2.123 1.02 3.117 2.82l1.4 2.457H18.706L19.96 5.19zM2.11 12.667C2.11 10.92 3.533 9.5 5.28 9.5h46.444c1.746 0 3.167 1.42 3.167 3.167V26.39c0 1.84-1.51 3.774-3.298 4.22l-16.76 4.192v-2.078c.005-1.72-1.41-3.142-3.165-3.168H25.32c-1.743.024-3.157 1.446-3.153 3.166v2.08l-16.76-4.19c-1.786-.448-3.296-2.38-3.296-4.223V12.666zm30.612 20.055v5.276c-.002.723-.647 1.627-1.268 1.788-1.93.482-3.99.48-5.898.003-.63-.166-1.277-1.07-1.278-1.79v-5.28c0-.563.49-1.045 1.055-1.053h6.318c.582.008 1.073.492 1.072 1.055zM50.667 54.89H6.333c-1.746 0-3.166-1.422-3.166-3.168V31.897c.537.338 1.114.608 1.73.76l17.013 4.256c.087.02.17.01.257.01v1.08c.003 1.7 1.284 3.42 2.868 3.833 1.132.28 2.298.424 3.465.424 1.166 0 2.333-.143 3.476-.427 1.573-.41 2.854-2.13 2.857-3.833v-1.056c.085 0 .17-.01.257-.03l17.014-4.256c.615-.153 1.192-.423 1.73-.76V51.72c0 1.746-1.42 3.167-3.167 3.167z" id="w-6" fill="#0082DC"/></g></svg>