<svg width="60" height="54" viewBox="0 0 60 54" xmlns="http://www.w3.org/2000/svg"><g id="Page-1" fill="none" fill-rule="evenodd"><path d="M58.73 21.224c-.266-.56-.688-1.01-1.212-1.314-.075-.062-.157-.116-.25-.155-.446-.18-.61-1.198-.6-1.704.016-.543-.412-.998-.955-1.014-.544-.036-.996.412-1.014.958-.005.15-.01.9.237 1.697-.833.312-1.513.974-1.82 1.85-.152.438-.19.895-.14 1.344-.735.145-1.538.47-2.326.907-.965-2.646-2.278-4.43-3.902-5.345v-.114c.23.02.465.035.704.035 3.597 0 7.82-2.176 8.032-2.286.483-.253.67-.85.42-1.334-.096-.186-.243-.328-.416-.418-.15-.166-.354-.284-.594-.316-2.422-.326-3.45-2.734-3.492-2.836-.046-.11-.11-.207-.188-.29-.42-2.644-2.7-4.672-5.452-4.672s-5.034 2.03-5.453 4.676c-.077.082-.143.177-.188.286-.043.102-1.07 2.51-3.492 2.836-.24.032-.444.15-.596.317-.17.09-.318.23-.414.416-.25.484-.063 1.08.42 1.333.21.11 4.434 2.285 8.032 2.285.24 0 .472-.014.704-.034v.105c-1.57.88-2.725 2.514-3.577 4.504-.023.03-.05.06-.068.097L36.334 31.6l-5.058-11.095c-.066-.143-.164-.26-.277-.353-.732-1.935-1.665-3.53-2.844-4.54v-1.975c2.578-.47 4.543-2.733 4.543-5.453 0-1.96-1.02-3.68-2.554-4.667 1.115-.527 2.132-1.242 2.488-2.174.195-.51-.06-1.082-.568-1.277-.508-.196-1.08.06-1.273.57-.27.708-2.593 1.664-4.514 2.08-2.625.43-4.637 2.715-4.637 5.468 0 2.72 1.963 4.985 4.542 5.453v1.548c-.063.063-.12.133-.164.21-1.375 1.05-2.424 2.88-3.223 5.117l-5.69 12.13-6.358-2.808s-.002 0-.002 0c-.212-.192-.44-.355-.68-.492v-1.14c1.786-.444 3.117-2.062 3.117-3.99 0-1.714-1.05-3.186-2.537-3.804-.118-.126-.268-.225-.445-.276-.93-.267-2.598-1.078-2.426-1.834.122-.53-.21-1.062-.74-1.184-.53-.125-1.06.21-1.18.744-.268 1.172.3 2.113 1.136 2.815-1.203.718-2.013 2.033-2.013 3.537 0 1.928 1.33 3.546 3.118 3.99v1.14c-.79.454-1.434 1.223-1.958 2.195-.007.008-.016.015-.022.024L.224 39.605c-.32.44-.227 1.06.21 1.383.176.128.38.19.584.19.303 0 .6-.14.794-.403l2.635-3.596c-.67 4.14-.58 8.438-.553 9.255.012.392.253.74.615.885.358.147.773.068 1.053-.205.006-.005.287-.26.73-.55l.54 5.457H5.426c-.544 0-.986.443-.986.99 0 .546.442.988.986.988h7.309c.545 0 .987-.442.987-.99 0-.545-.44-.988-.987-.988h-1.407l.54-5.457c.446.29.725.546.73.55.186.182.434.278.684.278.125 0 .25-.024.37-.074.362-.147.603-.494.616-.886.035-1.12.2-8.798-1.66-13.62l4.217 1.862c.13.057.263.083.395.083.062 0 .122-.016.184-.027.084.022.17.038.255.038.368 0 .723-.21.89-.567l2.375-5.06c-.785 6.328-.658 12.572-.622 13.823.01.4.26.752.632.895.114.045.234.066.352.066.265 0 .525-.108.715-.31.007-.006.226-.234.607-.55l1.146 8.954h-2.16c-.544 0-.986.443-.986.99 0 .546.442.988.986.988H32.74c.543 0 .985-.442.985-.99 0-.545-.44-.988-.986-.988h-2.16l1.105-8.63c.15.137.234.223.238.227.274.29.693.385 1.066.243.37-.143.62-.497.63-.895.038-1.26.166-7.585-.636-13.96l2.367 5.187c.02.043.05.075.074.114.016.024.03.05.048.074.036.048.076.088.12.127.007.006.014.012.02.018.18.153.4.245.634.245.137 0 .276-.03.41-.09.212-.098.37-.265.47-.46l2.23-3.984c-.606 4.476-.495 8.644-.46 9.534.013.373.236.705.574.86.3.14.644.108.922-.064-.233 3.15-.153 5.655-.15 5.775.014.384.246.726.6.876.123.053.255.08.386.08.238 0 .472-.086.656-.25.008-.007.376-.323.973-.672l.463 5.647h-1.33c-.544 0-.986.444-.986.99 0 .547.44.99.986.99h7.542c.544 0 .986-.443.986-.99 0-.546-.442-.99-.986-.99h-1.33l.463-5.646c.6.35.966.666.973.672.284.255.693.322 1.044.17.35-.15.584-.49.597-.874.003-.118.082-2.623-.15-5.78.157.098.332.16.513.16.14 0 .278-.03.408-.09.34-.154.563-.488.577-.86.006-.14.116-3.29-.23-7.184.023-.008.048-.012.07-.022l4.378-1.94c.498-.222.723-.806.502-1.305-.22-.5-.8-.726-1.3-.504l-.48.214c.702-1.16 1.246-2.474 1.188-3.537.962-.253 1.765-.964 2.104-1.936.27-.77.223-1.598-.13-2.333zm-51.78 2.99c0-1.18.956-2.14 2.133-2.14 1.175 0 2.13.96 2.13 2.14 0 1.177-.955 2.135-2.13 2.135-1.177 0-2.133-.96-2.133-2.137zm2.4 27.81h-.512l-.642-6.255c.165-.03.333-.06.505-.067h.72c.187.007.37.036.55.07l-.62 6.25zm.114-8.298h-.807c-1.09.05-2.058.41-2.81.81.035-4.06.566-9.25 1.932-11.927.013-.026.025-.05.037-.077.334-.635.716-1.12 1.153-1.404.038.003.073.01.113.01.038 0 .074-.007.11-.01 2.264 1.475 3.082 8.33 3.125 13.41-.76-.402-1.74-.764-2.854-.814zm14.15-35.542c0-1.968 1.595-3.57 3.557-3.57s3.558 1.602 3.558 3.57c0 1.968-1.596 3.57-3.557 3.57-1.96 0-3.557-1.602-3.557-3.57zm.94 13.228l.034-.073c.035-.077.056-.155.072-.234.612-1.73 1.37-3.12 2.305-3.938 3.902 3.41 4.72 16.7 4.716 23.715-1.008-.683-2.415-1.415-4.067-1.665-.118-.05-.25-.08-.39-.08h-.153c-.04.003-.08.005-.12.008-.045-.003-.09-.006-.138-.008h-.108c-.13 0-.257.026-.372.073-1.653.242-3.07.98-4.085 1.67-.003-5.233.453-13.96 2.306-19.468zm4.04 30.61h-2.848l-1.3-10.152c.728-.368 1.58-.668 2.502-.742 1.103.09 2.105.498 2.92.957l-1.273 9.938zm26.184-26.5c.192.56-.877 3.18-2.96 4.953-.982.836-2.432 1.678-3.796.998l-.238-.192c-.503-.86-.293-1.903.625-3.103 1.748-2.284 4.868-3.603 5.478-3.395.017.01.038.015.056.024.213.194.46.347.724.475.03.083.058.164.11.24zM52.5 15.24c-1.05.405-2.3.8-3.5 1.004.816-.594 1.467-1.402 1.862-2.345.426.48.968.958 1.64 1.342zm-6.737-7.05c1.96 0 3.557 1.6 3.557 3.568s-1.596 3.57-3.557 3.57c-1.96 0-3.558-1.602-3.558-3.57 0-1.968 1.596-3.568 3.558-3.568zm-5.1 5.71c.396.943 1.047 1.75 1.862 2.345-1.202-.205-2.448-.6-3.5-1.004.67-.385 1.21-.864 1.64-1.34zm5.09 6.247c1.302.71 2.375 2.31 3.197 4.763-.59.456-1.13.942-1.567 1.42-1.943 2.126-2.366 4.375-1.16 6.17.055.08.12.153.198.215l.442.357c.048.038.098.072.15.1.646.35 1.336.52 2.047.52.47 0 .95-.082 1.43-.23.137 1.773.18 3.364.185 4.493-1.156-.61-2.865-1.283-4.86-1.357l-.143.002c-1.98.073-3.68.75-4.834 1.36.016-5.462.89-15.587 4.914-17.813zm.472 31.873H45.3L44.77 45.6c.304-.072.62-.122.95-.136h.042c.343.014.673.065.988.14l-.527 6.42zm-.42-8.537h-.123c-1.376.057-2.583.518-3.478.992.014-1.288.075-3.14.274-5.113.884-.39 2-.74 3.23-.786l.072-.002c1.255.047 2.39.402 3.283.796-.002.047-.005.092 0 .138.187 1.918.245 3.71.26 4.97-.902-.477-2.122-.938-3.52-.996zM57 22.904c-.19.543-.803.856-1.364.658-.27-.095-.487-.29-.61-.547-.125-.26-.142-.55-.048-.822.15-.43.558-.72 1.013-.72.12 0 .24.02.354.06.27.094.488.29.61.548.125.26.142.55.047.824z" id="w-7" fill="#0082DC"/></g></svg>