<svg width="37" height="45" viewBox="0 0 37 45" xmlns="http://www.w3.org/2000/svg"><g id="Page-1" fill="none" fill-rule="evenodd"><path d="M8.4 13.628c3.823 0 6.964-3.08 6.964-6.827S12.224 0 8.4 0C4.577 0 1.463 3.053 1.463 6.8c0 3.75 3.114 6.828 6.937 6.828zM8.4 3.1c2.103 0 3.774 1.64 3.774 3.7 0 2.062-1.672 3.7-3.774 3.7-2.102 0-3.774-1.638-3.774-3.7 0-2.06 1.67-3.7 3.774-3.7zM28.6 13.63c3.824 0 6.938-3.08 6.938-6.827S32.424 0 28.6 0c-3.822 0-6.964 3.053-6.964 6.8 0 3.75 3.142 6.828 6.965 6.828zm0-10.527c2.103 0 3.775 1.64 3.775 3.7 0 2.062-1.672 3.7-3.774 3.7-2.102 0-3.774-1.638-3.774-3.7 0-2.06 1.672-3.7 3.775-3.7zM11.59 18.684c0 3.747 3.14 6.826 6.963 6.826s6.938-3.08 6.938-6.827c0-3.748-3.114-6.8-6.937-6.8-3.822 0-6.964 3.052-6.964 6.8zm6.963-3.7c2.103 0 3.75 1.64 3.75 3.7 0 2.06-1.647 3.7-3.75 3.7-2.102 0-3.774-1.64-3.774-3.7 0-2.06 1.67-3.7 3.773-3.7zM3.163 41.17V17.25c0-.32.234-.52.558-.52.882-.004 1.594-.706 1.59-1.57-.002-.86-.712-1.555-1.59-1.558C1.69 13.602 0 15.257 0 17.25v23.92c0 1.994 1.688 3.648 3.72 3.648h5.105v-3.126H3.722c-.325 0-.56-.204-.56-.522zM33.28 13.602c-.882-.003-1.598.694-1.6 1.558-.004.863.707 1.565 1.588 1.568h.01c.326 0 .532.203.532.522v23.92c0 .318-.206.52-.53.52h-5.13v3.128h5.13c2.033 0 3.72-1.655 3.72-3.648V17.25c0-1.993-1.688-3.648-3.72-3.648zM23.23 26.917c-.42 0-.844.153-1.143.442-.3.29-.48.682-.48 1.094 0 .412.18.83.48 1.12.298.29.72.45 1.142.443.324 0 .53.203.53.52v10.815c0 .318-.206.52-.53.52H13.85c-.326 0-.533-.202-.533-.52V30.538c0-.318.207-.52.532-.52.42 0 .842-.154 1.142-.444.3-.29.478-.708.478-1.12 0-.412-.18-.805-.478-1.095-.3-.29-.723-.45-1.143-.443-2.034 0-3.722 1.63-3.722 3.622V41.35c0 1.993 1.688 3.648 3.72 3.648h9.384c2.033 0 3.72-1.655 3.72-3.648V30.54c0-1.994-1.687-3.623-3.72-3.623z" id="w-8" fill="#1584D9"/></g></svg>