<?xml version="1.0" encoding="utf-8"?>
<!-- Generator: Adobe Illustrator 15.0.0, SVG Export Plug-In . SVG Version: 6.00 Build 0)  -->
<!DOCTYPE svg PUBLIC "-//W3C//DTD SVG 1.1//EN" "http://www.w3.org/Graphics/SVG/1.1/DTD/svg11.dtd">
<svg version="1.1" id="Layer_1" xmlns="http://www.w3.org/2000/svg" xmlns:xlink="http://www.w3.org/1999/xlink" x="0px" y="0px"
	 width="153.07px" height="240.94px" viewBox="0 0 153.07 240.94" enable-background="new 0 0 153.07 240.94" xml:space="preserve">
<g>
	<g>
		<path d="M64.007,123.464l-7.511,9.785c3.721,0.413,6.994,2.171,6.994,7.028c0,3.894-2.756,7.649-8.751,7.649
			c-3.549,0-6.202-1.447-6.753-1.792V142c0.792,0.724,3.721,2.55,6.58,2.55c3.136,0,5.065-1.619,5.065-4.134
			c0-3.309-3.032-4.445-6.099-4.445c-1.551,0-2.55,0.104-3.377,0.311l7.098-9.544c-5.616,0-7.786,0.034-8.854,0.826v-4.1H64.007z"/>
		<path d="M84.787,139.451c0,5.615-4.204,8.476-8.441,8.476c-4.169,0-8.372-2.067-8.372-11.439c0-5.96,2.309-13.368,10.818-13.368
			c1.998,0,3.204,0.275,4.514,0.758v4.651c-1.379-1.24-2.55-1.86-5.03-1.86c-3.688,0-5.823,2.446-6.409,6.856
			c0.621-0.654,2.516-1.964,5.237-1.964C81.342,131.561,84.787,134.386,84.787,139.451z M81.065,139.416
			c0-2.929-2.032-4.341-4.514-4.341c-2.515,0-4.168,1.378-4.788,2.136v0.276c0,3.549,1.067,7.2,4.72,7.2
			C79.653,144.688,81.065,142.139,81.065,139.416z"/>
		<path d="M104.085,127.22H94.024v5.168c0.999-0.379,2.136-0.552,3.824-0.552c3.549,0,7.235,2.171,7.235,7.546
			c0,4.203-2.171,8.545-8.89,8.545c-3.342,0-6.098-1.344-6.201-1.517v-4.307c0,0,2.756,2.516,5.995,2.516
			c3.79,0,5.134-2.343,5.134-5.03c0-3.102-2.102-4.238-4.687-4.238c-3.169,0-5.685,1.723-5.926,1.792v-13.679h13.575V127.22z"/>
	</g>
	<path d="M113.599,83.936h-11.793v-3.369c0-2.787-2.267-5.054-5.054-5.054h-1.685c-2.787,0-5.055,2.267-5.055,5.054v3.369H63.058
		v-3.369c0-2.787-2.267-5.054-5.054-5.054h-1.685c-2.787,0-5.054,2.267-5.054,5.054v3.369H39.471c-4.644,0-8.423,3.779-8.423,8.424
		v65.704c0,4.645,3.779,8.424,8.423,8.424h74.127c4.645,0,8.424-3.779,8.424-8.424V92.36
		C122.022,87.715,118.243,83.936,113.599,83.936z M39.471,87.306h11.793v3.37c0,2.787,2.267,5.054,5.054,5.054h5.054
		c0.931,0,1.685-0.754,1.685-1.685c0-0.93-0.754-1.685-1.685-1.685h-5.054c-0.929,0-1.685-0.756-1.685-1.685V80.567
		c0-0.929,0.756-1.685,1.685-1.685h1.685c0.929,0,1.685,0.756,1.685,1.685v3.369c-0.93,0-1.685,0.754-1.685,1.685
		c0,0.93,0.754,1.685,1.685,1.685h30.325v3.37c0,2.787,2.268,5.054,5.055,5.054h5.054c0.932,0,1.685-0.754,1.685-1.685
		c0-0.93-0.753-1.685-1.685-1.685h-5.054c-0.929,0-1.686-0.756-1.686-1.685V80.567c0-0.929,0.757-1.685,1.686-1.685h1.685
		c0.928,0,1.685,0.756,1.685,1.685v3.369c-0.932,0-1.685,0.754-1.685,1.685c0,0.93,0.753,1.685,1.685,1.685h15.162
		c2.787,0,5.055,2.267,5.055,5.054v13.478H34.417V92.36C34.417,89.573,36.685,87.306,39.471,87.306z M113.599,163.118H39.471
		c-2.787,0-5.054-2.268-5.054-5.055v-48.856h84.236v48.856C118.653,160.851,116.386,163.118,113.599,163.118z"/>
</g>
</svg>
