<?xml version="1.0" encoding="UTF-8" standalone="no"?>
<svg width="100px" height="100px" viewBox="0 0 100 100" version="1.1" xmlns="http://www.w3.org/2000/svg" xmlns:xlink="http://www.w3.org/1999/xlink" xmlns:sketch="http://www.bohemiancoding.com/sketch/ns">
    <!-- Generator: Sketch 3.2.2 (9983) - http://www.bohemiancoding.com/sketch -->
    <title>s-3</title>
    <desc>Created with Sketch.</desc>
    <defs></defs>
    <g id="Page-1" stroke="none" stroke-width="1" fill="none" fill-rule="evenodd" sketch:type="MSPage">
        <g id="s-3" sketch:type="MSLayerGroup" fill="#0082DC">
            <path d="M49.8033784,99.647973 C22.4195946,99.647973 0.141216216,77.3702703 0.141216216,49.9858108 C0.141216216,22.602027 22.4195946,0.323648649 49.8033784,0.323648649 C77.1864865,0.323648649 99.4648649,22.602027 99.4648649,49.9858108 C99.4648649,77.3702703 77.1864865,99.647973 49.8033784,99.647973 Z M49.8033784,2.35067568 C23.5371622,2.35067568 2.16824324,23.7195946 2.16824324,49.9858108 C2.16824324,76.252027 23.5371622,97.6209459 49.8033784,97.6209459 C76.0695946,97.6209459 97.4378378,76.252027 97.4378378,49.9858108 C97.4378378,23.7195946 76.0695946,2.35067568 49.8033784,2.35067568 Z M26.339432,48.8878378 C26.8683136,37.6940619 36.1115907,28.7810811 47.4378378,28.7810811 C55.3177171,28.7810811 62.4291135,33.1345304 66.0770652,39.9607973 C66.3408857,40.4544739 66.9549584,40.6408092 67.4486351,40.3769888 C67.9423118,40.1131684 68.1286471,39.4990956 67.8648266,39.005419 C63.867695,31.5257456 56.0730964,26.7540541 47.4378378,26.7540541 C45.9540006,26.7540541 44.502782,26.8936376 43.0965965,27.1603889 L43.0965965,27.1603889 L44.7636909,25.7711782 C46.2272765,24.5535836 48.1318999,24.0031678 50.0159272,24.2546064 C63.0080561,25.9903039 72.822973,37.1198318 72.822973,50.3527027 L72.822973,57.15 L25.302027,57.15 C23.796525,57.15 23.2175676,56.5709478 23.2175676,55.0655405 L23.2175676,52.9993243 C23.2175676,51.493917 23.796525,50.9148649 25.302027,50.9148649 L51.1182432,50.9148649 C51.6779913,50.9148649 52.1317568,50.4610994 52.1317568,49.9013514 C52.1317568,49.3416033 51.6779913,48.8878378 51.1182432,48.8878378 L26.339432,48.8878378 Z M24.3070116,48.9674068 C24.665447,39.9349258 30.1998727,32.2333897 38.0264248,28.7469223 C38.0290299,28.7447072 38.031649,28.7425025 38.0342821,28.7403083 L43.4666767,24.2134259 C45.3660673,22.6332734 47.8379192,21.9189346 50.2842091,22.2454117 C64.2801004,24.115208 74.85,36.100841 74.85,50.3527027 L74.85,57.15 L82.097973,57.15 C82.657721,57.15 83.1114865,57.6037655 83.1114865,58.1635135 C83.1114865,58.7232616 82.657721,59.177027 82.097973,59.177027 L72.7851351,59.177027 L72.7851351,59.1959459 C72.7851351,62.8532114 70.2656091,65.372973 66.6081081,65.372973 L37.6939189,65.372973 C36.1881738,65.372973 35.6094595,65.9515926 35.6094595,67.4567568 C35.6094595,71.3649371 33.988885,73.6337838 30.4655405,73.6337838 C26.9411826,73.6337838 25.3209459,71.3654101 25.3209459,67.4567568 L25.3209459,59.177027 L25.302027,59.177027 C22.6769547,59.177027 21.1905405,57.6903697 21.1905405,55.0655405 L21.1905405,52.9993243 C21.1905405,50.7269447 22.3045772,49.3076015 24.3070116,48.9674068 Z M70.7581081,59.177027 L70.7581081,59.1959459 C70.7581081,61.7337577 69.1460705,63.3459459 66.6081081,63.3459459 L37.6939189,63.3459459 C35.0687519,63.3459459 33.5824324,64.8320223 33.5824324,67.4567568 C33.5824324,70.3636845 32.6945403,71.6067568 30.4655405,71.6067568 C28.2355273,71.6067568 27.347973,70.3641575 27.347973,67.4567568 L27.347973,59.177027 L70.7581081,59.177027 Z" id="Path" sketch:type="MSShapeGroup"></path>
        </g>
    </g>
</svg>