<?xml version="1.0" encoding="UTF-8" standalone="no"?>
<svg width="100px" height="100px" viewBox="0 0 100 100" version="1.1" xmlns="http://www.w3.org/2000/svg" xmlns:xlink="http://www.w3.org/1999/xlink" xmlns:sketch="http://www.bohemiancoding.com/sketch/ns">
    <!-- Generator: Sketch 3.2.2 (9983) - http://www.bohemiancoding.com/sketch -->
    <title>i-1</title>
    <desc>Created with Sketch.</desc>
    <defs></defs>
    <g id="Page-1" stroke="none" stroke-width="1" fill="none" fill-rule="evenodd" sketch:type="MSPage">
        <g id="i-1" sketch:type="MSLayerGroup" fill="#0082DC">
            <path d="M50.3081081,99.6621622 C22.9243243,99.6621622 0.645945946,77.3837838 0.645945946,50 C0.645945946,22.6162162 22.9243243,0.337837838 50.3081081,0.337837838 C77.6912162,0.337837838 99.9702703,22.6162162 99.9702703,50 C99.9702703,77.3837838 77.6912162,99.6621622 50.3081081,99.6621622 L50.3081081,99.6621622 Z M50.3081081,2.36486486 C24.0412162,2.36486486 2.67297297,23.7337838 2.67297297,50 C2.67297297,76.2662162 24.0412162,97.6351351 50.3081081,97.6351351 C76.5743243,97.6351351 97.9432432,76.2662162 97.9432432,50 C97.9432432,23.7337838 76.5743243,2.36486486 50.3081081,2.36486486 L50.3081081,2.36486486 Z" id="Fill-1" sketch:type="MSShapeGroup"></path>
            <path d="M78.802027,74.7060811 L18.5763514,74.7060811 C18.0027027,74.7060811 17.5378378,74.2418919 17.5378378,73.6675676 C17.5378378,73.0952703 18.0027027,72.6297297 18.5763514,72.6297297 L23.7682432,72.6297297 L23.7682432,69.5148649 C23.7682432,68.9412162 24.2331081,68.4763514 24.8067568,68.4763514 L27.9216216,68.4763514 L27.9216216,50.0054054 C27.35,49.7371622 26.8722973,49.3067568 26.5506757,48.7486486 C25.6918919,47.2621622 26.2027027,45.3533784 27.6905405,44.4945946 L58.7047297,26.5695946 L56.4,23.3 C55.6810811,22.2831081 55.422973,20.9993243 55.6912162,19.7797297 C55.9587838,18.5628378 56.7310811,17.5067568 57.8121622,16.8837838 L60.3344595,15.4263514 C61.0101351,15.0364865 61.7790541,14.8304054 62.5560811,14.8304054 C64.2858108,14.8304054 65.8722973,15.8432432 66.597973,17.4135135 L73.347973,32.0168919 C74.3202703,34.1189189 73.5398649,36.5783784 71.5337838,37.7358108 L71.5337838,72.6297297 L78.802027,72.6297297 C79.375,72.6297297 79.8405405,73.0952703 79.8405405,73.6675676 C79.8405405,74.2418919 79.375,74.7060811 78.802027,74.7060811 L78.802027,74.7060811 Z M69.4567568,72.6297297 L69.4567568,38.3121622 C69.4074324,38.3148649 69.3594595,38.3317568 69.3108108,38.3317568 C67.8648649,38.3317568 66.5047297,37.627027 65.672973,36.4472973 L62.2810811,31.6371622 L56.1277027,35.2054054 L62.0364865,72.6297297 L69.4567568,72.6297297 L69.4567568,72.6297297 Z M56.9824324,53.9405405 L54.202027,36.322973 L42.0655405,43.3594595 L40.3945946,53.9405405 L56.9824324,53.9405405 L56.9824324,53.9405405 Z M42.0405405,56.0168919 L48.7013514,61.6952703 L55.3743243,56.0168919 L42.0405405,56.0168919 L42.0405405,56.0168919 Z M57.4614865,56.9682432 L50.3027027,63.0581081 L59.6858108,71.0560811 L57.4614865,56.9682432 L57.4614865,56.9682432 Z M58.3304054,72.6297297 L48.7006757,64.4222973 L39.052027,72.6297297 L58.3304054,72.6297297 L58.3304054,72.6297297 Z M47.0993243,63.0574324 L39.9209459,56.9385135 L37.6925676,71.0594595 L47.0993243,63.0574324 L47.0993243,63.0574324 Z M25.8445946,72.6297297 L32.0756757,72.6297297 L32.0756757,70.5527027 L25.8445946,70.5527027 L25.8445946,72.6297297 Z M33.1141892,68.4763514 C33.6871622,68.4763514 34.1527027,68.9412162 34.1527027,69.5148649 L34.1527027,72.6297297 L35.3418919,72.6297297 L39.7506757,44.702027 L30.8067568,49.8898649 C30.55,50.0378378 30.277027,50.1405405 29.9986486,50.2094595 L29.9986486,68.4763514 L33.1141892,68.4763514 L33.1141892,68.4763514 Z M28.7290541,46.2918919 C28.2324324,46.5797297 28.0621622,47.2148649 28.3493243,47.7101351 C28.4871622,47.9506757 28.7114865,48.1236486 28.9797297,48.1959459 C29.2486486,48.2668919 29.5277027,48.2290541 29.7675676,48.0912162 L61.0797297,29.9344595 L59.9060811,28.272973 L28.7290541,46.2918919 L28.7290541,46.2918919 Z M71.4628378,32.8864865 L64.7135135,18.2851351 C64.3263514,17.4472973 63.4797297,16.9067568 62.5560811,16.9067568 C62.1432432,16.9067568 61.7344595,17.0168919 61.3722973,17.2263514 L58.8506757,18.6817568 C58.2641892,19.0189189 57.8641892,19.5668919 57.7189189,20.2263514 C57.575,20.8858108 57.7087838,21.5527027 58.097973,22.1040541 L67.3702703,35.25 C68.052027,36.2168919 69.4635135,36.5337838 70.4952703,35.9371622 C71.5641892,35.3182432 71.9817568,34.0087838 71.4628378,32.8864865 L71.4628378,32.8864865 Z M48.6891892,41.4817568 C50.9797297,41.4817568 52.8425676,43.3439189 52.8425676,45.6337838 C52.8425676,47.925 50.9797297,49.7871622 48.6891892,49.7871622 C46.3986486,49.7871622 44.5358108,47.925 44.5358108,45.6337838 C44.5358108,43.3439189 46.3986486,41.4817568 48.6891892,41.4817568 L48.6891892,41.4817568 Z M48.6891892,47.7101351 C49.8337838,47.7101351 50.7662162,46.7783784 50.7662162,45.6337838 C50.7662162,44.4891892 49.8337838,43.5574324 48.6891892,43.5574324 C47.5445946,43.5574324 46.6121622,44.4891892 46.6121622,45.6337838 C46.6121622,46.7783784 47.5445946,47.7101351 48.6891892,47.7101351 L48.6891892,47.7101351 Z" id="Fill-2" sketch:type="MSShapeGroup"></path>
        </g>
    </g>
</svg>