<?xml version="1.0" encoding="UTF-8" standalone="no"?>
<svg width="100px" height="100px" viewBox="0 0 100 100" version="1.1" xmlns="http://www.w3.org/2000/svg" xmlns:xlink="http://www.w3.org/1999/xlink" xmlns:sketch="http://www.bohemiancoding.com/sketch/ns">
    <!-- Generator: Sketch 3.2.2 (9983) - http://www.bohemiancoding.com/sketch -->
    <title>i-2</title>
    <desc>Created with Sketch.</desc>
    <defs></defs>
    <g id="Page-1" stroke="none" stroke-width="1" fill="none" fill-rule="evenodd" sketch:type="MSPage">
        <g id="i-2" sketch:type="MSLayerGroup" fill="#0082DC">
            <path d="M49.8574324,99.6621622 C22.4736486,99.6621622 0.19527027,77.3837838 0.19527027,50 C0.19527027,22.6162162 22.4736486,0.337837838 49.8574324,0.337837838 C77.2412162,0.337837838 99.5195946,22.6162162 99.5195946,50 C99.5195946,77.3837838 77.2412162,99.6621622 49.8574324,99.6621622 L49.8574324,99.6621622 Z M49.8574324,2.36486486 C23.5912162,2.36486486 2.2222973,23.7337838 2.2222973,50 C2.2222973,76.2662162 23.5912162,97.6351351 49.8574324,97.6351351 C76.1236486,97.6351351 97.4925676,76.2662162 97.4925676,50 C97.4925676,23.7337838 76.1236486,2.36486486 49.8574324,2.36486486 L49.8574324,2.36486486 Z" id="Fill-1" sketch:type="MSShapeGroup"></path>
            <path d="M82.5432432,73.6486486 L17.1716216,73.6486486 C16.8905405,73.6486486 16.6635135,74.1027027 16.6635135,74.6621622 C16.6635135,75.2216216 16.8905405,75.6756757 17.1716216,75.6756757 L82.5432432,75.6756757 C82.8236486,75.6756757 83.0513514,75.2216216 83.0513514,74.6621622 C83.0513514,74.1027027 82.8236486,73.6486486 82.5432432,73.6486486" id="Fill-13" sketch:type="MSShapeGroup"></path>
            <path d="M46.1412162,56.0810811 L46.1412162,74.6621622 C46.1412162,74.9283784 46.2493243,75.1898649 46.4385135,75.3790541 C46.627027,75.5675676 46.8878378,75.6756757 47.1547297,75.6756757 L52.5601351,75.6756757 C52.827027,75.6756757 53.0878378,75.5675676 53.277027,75.3790541 C53.4655405,75.1898649 53.5736486,74.9283784 53.5736486,74.6621622 L52.5601351,74.6621622 L52.5601351,73.6486486 L48.1682432,73.6486486 L48.1682432,23.7851351 L51.5466216,23.7851351 L51.5466216,74.6621622 L52.5601351,74.6621622 L52.5601351,73.6486486 L52.5601351,74.6621622 L53.5736486,74.6621622 L53.5736486,56.0810811 L53.5736486,56.0810811 L69.797973,56.0810811 L69.797973,58.4459459 C69.797973,58.7121622 69.9060811,58.9736486 70.0945946,59.1621622 C70.2837838,59.3513514 70.5445946,59.4594595 70.8114865,59.4594595 L76.2168919,59.4594595 C76.4837838,59.4594595 76.7445946,59.3513514 76.9331081,59.1621622 C77.1222973,58.9736486 77.2304054,58.7121622 77.2304054,58.4459459 L76.2168921,57.4324326 L75.2033785,57.4324326 L71.825,57.4324324 L71.825,30.4054054 L75.2033784,30.4054054 L75.2033785,57.4324326 L76.2168919,57.4324324 L77.2304054,58.4459459 L77.2304054,56.0810811 L82.0324324,56.0810811 C82.1,56.0810811 83.0513514,56.002027 83.0513514,55.0675676 C83.0513514,54.1331081 82.1,54.0540541 82.0324324,54.0540541 L77.2304054,54.0540541 L77.2304054,54.0540541 L77.2304054,33.7837838 L77.2304054,33.7837838 L82.0324324,33.7837838 C82.1,33.7837838 83.0513514,33.7047297 83.0513514,32.7702703 C83.0513514,31.8358108 82.1,31.7567568 82.0324324,31.7567568 L77.2304054,31.7567568 L77.2304054,29.3918919 C77.2304054,29.125 77.1222973,28.8641892 76.9331081,28.675 C76.7445946,28.4864865 76.4837838,28.3783784 76.2168919,28.3783784 L70.8114865,28.3783784 C70.5445946,28.3783784 70.2837838,28.4864865 70.0945946,28.675 C69.9060811,28.8641892 69.797973,29.125 69.797973,29.3918919 L69.797973,31.7567568 L69.797973,31.7567568 L53.5736486,31.7567568 L53.5736486,22.7716216 C53.5736486,22.5054054 53.4655405,22.2439189 53.277027,22.0554054 C53.0878378,21.8662162 52.827027,21.7581081 52.5601351,21.7581081 L47.1547297,21.7581081 C46.8878378,21.7581081 46.627027,21.8662162 46.4385135,22.0554054 C46.2493243,22.2439189 46.1412162,22.5054054 46.1412162,22.7716216 L46.1412162,31.7567568 L46.1412162,31.7567568 L29.4885135,31.7567568 L29.4885135,29.3918919 C29.4885135,29.125 29.3797297,28.8641892 29.1912162,28.675 C29.0027027,28.4864865 28.7418919,28.3783784 28.475,28.3783784 L23.0695946,28.3783784 C22.8027027,28.3783784 22.5412162,28.4864865 22.3527027,28.675 C22.1641892,28.8641892 22.0560811,29.125 22.0560811,29.3918919 L22.0560811,31.7567568 L22.0560811,31.7567568 L17.6824324,31.7567568 C17.6148649,31.7567568 16.6635135,31.8358108 16.6635135,32.7702703 C16.6635135,33.7047297 17.6148649,33.7837838 17.6824324,33.7837838 L22.0560811,33.7837838 L22.0560811,54.0540541 L17.6824324,54.0540541 C17.6148649,54.0540541 16.6635135,54.1331081 16.6635135,55.0675676 C16.6635135,56.002027 17.6148649,56.0810811 17.6824324,56.0810811 L22.0560811,56.0810811 L22.0560811,56.0810811 L22.0560811,58.4459459 C22.0560811,58.7121622 22.1641892,58.9736486 22.3527027,59.1621622 C22.5412162,59.3513514 22.8027027,59.4594595 23.0695946,59.4594595 L28.475,59.4594595 C28.7418919,59.4594595 29.0027027,59.3513514 29.1912162,59.1621622 C29.3797297,58.9736486 29.4885135,58.7121622 29.4885135,58.4459459 L28.475,58.4459459 L27.4614866,57.4324326 L24.0831081,57.4324324 L24.0831081,30.4054054 L27.4614865,30.4054054 L27.4614866,57.4324326 L28.475,58.4459459 L28.475,57.4324324 L28.475,58.4459459 L29.4885135,58.4459459 L29.4885135,56.0810811 L46.1412162,56.0810811 Z M46.1412162,54.0540541 L46.1412162,33.7837838 L29.4885135,33.7837838 L29.4885135,54.0540541 L46.1412162,54.0540541 Z M69.797973,33.7837838 L53.5736486,33.7837838 L53.5736486,54.0540541 L69.797973,54.0540541 L69.797973,33.7837838 L69.797973,33.7837838 Z" id="Fill-2" sketch:type="MSShapeGroup"></path>
        </g>
    </g>
</svg>