<?xml version="1.0" encoding="UTF-8" standalone="no"?>
<svg width="100px" height="100px" viewBox="0 0 100 100" version="1.1" xmlns="http://www.w3.org/2000/svg" xmlns:xlink="http://www.w3.org/1999/xlink" xmlns:sketch="http://www.bohemiancoding.com/sketch/ns">
    <!-- Generator: Sketch 3.2.2 (9983) - http://www.bohemiancoding.com/sketch -->
    <title>i-3</title>
    <desc>Created with Sketch.</desc>
    <defs></defs>
    <g id="Page-1" stroke="none" stroke-width="1" fill="none" fill-rule="evenodd" sketch:type="MSPage">
        <g id="i-3" sketch:type="MSLayerGroup" fill="#0082DC">
            <path d="M50.1885135,99.6621622 C22.8047297,99.6621622 0.526351351,77.3837838 0.526351351,50 C0.526351351,22.6162162 22.8047297,0.337837838 50.1885135,0.337837838 C77.5722973,0.337837838 99.8506757,22.6162162 99.8506757,50 C99.8506757,77.3837838 77.5722973,99.6621622 50.1885135,99.6621622 L50.1885135,99.6621622 Z M50.1885135,2.36486486 C23.9222973,2.36486486 2.55337838,23.7337838 2.55337838,50 C2.55337838,76.2662162 23.9222973,97.6351351 50.1885135,97.6351351 C76.4547297,97.6351351 97.8236486,76.2662162 97.8236486,50 C97.8236486,23.7337838 76.4547297,2.36486486 50.1885135,2.36486486 L50.1885135,2.36486486 Z" id="Fill-1" sketch:type="MSShapeGroup"></path>
            <path d="M49.2,18.9175676 C46.7364865,27.3209459 42.8966216,33.1966216 39.3621622,38.5966216 C37.1540541,41.975 35.0594595,45.1675676 33.5060811,48.7121622 C31.9527027,52.2547297 30.9581081,56.1527027 30.9601351,60.8486486 C30.9655405,65.8344595 32.9168919,71.0202703 36.2810811,75.0155405 C37.9648649,77.0114865 40.0081081,78.7081081 42.3513514,79.9094595 C44.6939189,81.1108108 47.3385135,81.8114865 50.1885135,81.8108108 C52.9662162,81.8114865 55.5722973,81.1067568 57.8972973,79.9047297 C61.3878378,78.1 64.2540541,75.1898649 66.2601351,71.8155405 C68.2635135,68.4391892 69.4141892,64.5891892 69.4162162,60.8486486 C69.4189189,56.1648649 68.4189189,52.2682432 66.8574324,48.7243243 C65.2966216,45.177027 63.1925676,41.9783784 60.9736486,38.5932432 C57.422973,33.1810811 53.5655405,27.2932432 51.1459459,18.9216216 C51.0216216,18.4891892 50.6243243,18.1898649 50.1743243,18.1891892 C49.7243243,18.1885135 49.3263514,18.4858108 49.2,18.9175676 C49.2,18.9175676 50.1478201,22.5187783 50.6838441,23.9232703 C53.1350029,30.345806 56.3670583,35.2671808 59.2783784,39.7054054 C61.5006757,43.0905405 63.5344595,46.2006757 65.002027,49.5398649 C66.4695946,52.8824324 67.3871622,56.4506757 67.3891892,60.8486486 C67.3952703,65.277027 65.5358108,70.0675676 62.4337838,73.6959459 C60.8851351,75.5114865 59.0331081,77.0371622 56.9668919,78.1040541 C54.9,79.1709459 52.622973,79.7831081 50.1885135,79.7837838 C47.6709459,79.7831081 45.3554054,79.1702703 43.2756757,78.1054054 C40.1587838,76.5094595 37.5777027,73.8817568 35.7824324,70.7972973 C33.9864865,67.7155405 32.9858108,64.1864865 32.9871622,60.8486486 C32.9898649,56.4364865 33.9033784,52.8648649 35.3628378,49.5256757 C36.8236486,46.1878378 38.8472973,43.0858108 41.0587838,39.7067568 C44.5905405,34.3087838 47.6627579,29.5848421 50.1885142,22.46875 C49.8281244,21.234375 49.2,18.9175676 49.2,18.9175676 Z" id="Fill-2" sketch:type="MSShapeGroup"></path>
            <path d="M53.5601351,74.5648649 C53.0614865,74.5648649 52.6168919,74.2128378 52.5195946,73.7047297 C52.4094595,73.1277027 52.7871622,72.5722973 53.3621622,72.4628378 C57.2182432,71.7236486 58.9432432,67.8283784 58.9432432,64.2912162 C58.9432432,63.7067568 59.4195946,63.2317568 60.0047297,63.2317568 C60.5905405,63.2317568 61.0662162,63.7067568 61.0662162,64.2912162 C61.0662162,68.702027 58.8074324,73.5804054 53.7608108,74.5466216 C53.6939189,74.5601351 53.627027,74.5648649 53.5601351,74.5648649" id="Fill-3" sketch:type="MSShapeGroup"></path>
        </g>
    </g>
</svg>