<?xml version="1.0" encoding="UTF-8" standalone="no"?>
<svg width="100px" height="100px" viewBox="0 0 100 100" version="1.1" xmlns="http://www.w3.org/2000/svg" xmlns:xlink="http://www.w3.org/1999/xlink" xmlns:sketch="http://www.bohemiancoding.com/sketch/ns">
    <!-- Generator: Sketch 3.2.2 (9983) - http://www.bohemiancoding.com/sketch -->
    <title>i-4</title>
    <desc>Created with Sketch.</desc>
    <defs></defs>
    <g id="Page-1" stroke="none" stroke-width="1" fill="none" fill-rule="evenodd" sketch:type="MSPage">
        <g id="i-4" sketch:type="MSLayerGroup" fill="#0082DC">
            <path d="M49.7378378,99.6621622 C22.3540541,99.6621622 0.0756756757,77.3837838 0.0756756757,50 C0.0756756757,22.6162162 22.3540541,0.337837838 49.7378378,0.337837838 C77.1216216,0.337837838 99.4,22.6162162 99.4,50 C99.4,77.3837838 77.1216216,99.6621622 49.7378378,99.6621622 L49.7378378,99.6621622 Z M49.7378378,2.36486486 C23.4716216,2.36486486 2.1027027,23.7337838 2.1027027,50 C2.1027027,76.2662162 23.4716216,97.6351351 49.7378378,97.6351351 C76.0040541,97.6351351 97.372973,76.2662162 97.372973,50 C97.372973,23.7337838 76.0040541,2.36486486 49.7378378,2.36486486 L49.7378378,2.36486486 Z" id="Fill-1" sketch:type="MSShapeGroup"></path>
            <path d="M43.7533784,76.6689189 C42.8459459,75.3533784 41.7966216,73.5587838 40.8932432,71.6067568 C39.9885135,69.6554054 39.2297297,67.5412162 38.8797297,65.6033784 C38.7263514,64.7560811 38.6554054,63.9493243 38.6554054,63.1790541 C38.6567568,61.0898649 39.1702703,59.2628378 39.9952703,57.6290541 C41.2317568,55.1810811 43.1945946,53.1777027 45.1486486,51.5939189 C46.125,50.802027 47.0959459,50.1141892 47.9675676,49.5222973 C48.8405405,48.9297297 49.6101351,48.4358108 50.2081081,48.0101351 C50.2081081,48.0101351 49.3906259,48.5781241 48.9103509,48.8932838 C49.3025856,50.5933782 49.8799932,52.007324 50.5709459,53.2290541 C51.9128378,55.597973 53.6297297,57.222973 55.1635135,58.972973 C56.7040541,60.7304054 58.0966216,62.5952703 59.0344595,65.5560811 C59.4391892,66.8405405 59.6027027,68.0358108 59.6027027,69.1540541 C59.6027027,71.3581081 58.9608108,73.275 58.1810811,74.8891892 C57.7918919,75.6952703 57.3689189,76.422973 56.9777027,77.0702703 C56.5864865,77.7189189 56.2283784,78.2810811 55.9567568,78.7972973 C55.7695946,79.1547297 55.8121622,79.5905405 56.0662162,79.9047297 C56.3195946,80.2189189 56.7364865,80.3527027 57.125,80.2445946 C67.2648649,77.4337838 74.7844595,68.1027027 74.7871622,56.9648649 C74.7871622,50.8445946 72.4763514,45.2209459 68.6689189,40.9128378 C68.6689189,40.9128378 55.8574324,26.3540541 52.5945946,18.7858108 L52.6777027,19.1871622 C52.6777027,19.1871622 52.6317568,18.7540541 52.597973,18.6621622 C52.5716216,18.5932432 52.5162162,18.4804054 52.5162162,18.4804054 L52.2722973,18.5986486 L52.5209459,18.4912162 L52.2722973,18.5986486 L52.5209459,18.4912162 L51.8027027,18.8013514 L52.5810811,18.8013514 C52.5783784,18.6141892 52.5310811,18.5195946 52.5209459,18.4912162 L51.8027027,18.8013514 L52.5810811,18.8013514 C52.5810811,18.5804054 52.5101351,18.3682432 52.3777027,18.1925676 C52.0054054,17.6945946 51.4033784,17.3297297 50.7,17.3297297 C50.4466216,17.3283784 50.1858108,17.3790541 49.9405405,17.477027 C49.9405405,17.477027 49.477027,17.7527027 49.322973,17.9054054 C49.1709459,18.0587838 49.0398649,18.2290541 48.9317568,18.4418919 C48.8594595,18.5851351 48.8236486,18.7371622 48.8236486,18.897973 L48.8236486,19.0912162 L48.9067568,18.6891892 C45.6425676,26.2628378 39.072973,34.0067568 32.8344595,41.0074324 C30.9243243,43.1195946 29.4243243,45.625 28.327027,48.3155405 C27.2128378,51.0486486 26.7135135,53.9722973 26.7141892,57.0608108 C26.7141892,57.0608108 26.7135135,57.1966216 26.7135135,57.2695946 C26.7128378,62.7439189 28.5898649,67.7966216 31.7216216,71.8195946 C34.8533784,75.8432432 39.2418919,78.8466216 44.2804054,80.2445946 C44.7283784,80.3682432 45.2054054,80.1709459 45.4337838,79.7662162 C45.6621622,79.3601351 45.5851351,78.85 45.2466216,78.5310811 L44.8216219,78.2912169 C40.125,77.0702696 36.1898649,74.2601351 33.3209459,70.5743243 C30.4527027,66.8871622 28.7405405,62.2783784 28.7405405,57.2695946 C28.7405405,57.2033784 28.7405405,57.1364865 28.7412162,57.0702703 C28.7412162,57.0702703 29.202027,51.5405405 30.2040541,49.0810811 C31.222973,46.5810811 32.6081081,44.2783784 34.3432432,42.3608108 C34.3432432,42.3608108 47.3040541,27.4912162 50.7675676,19.4932432 C50.8209459,19.3689189 50.6,19.1371622 50.6331081,19.2290541 C50.6601351,19.2993243 50.7162162,19.4128378 50.7162162,19.4128378 L50.952027,19.2986486 L50.7108108,19.4027027 L50.952027,19.2986486 L50.7108108,19.4027027 L51.4304054,19.0912162 L50.6506757,19.0912162 C50.6533784,19.2804054 50.7013514,19.3743243 50.7108108,19.4027027 L51.4304054,19.0912162 L50.6506757,19.0912162 C50.6506757,19.1871622 50.6777027,19.4594595 50.7337838,19.5891892 C54.1986486,27.5885135 60.8993243,35.322973 67.1574324,42.2628378 L67.9094595,41.5837838 L67.15,42.2547297 C70.6486486,46.2168919 72.7594595,51.3594595 72.7601351,56.9648649 C72.7628378,67.1682432 65.8621622,75.7175676 56.5837838,78.2912162 C56.5837838,78.2912162 58.4375009,77.7499991 59.1512201,77.378807 C60.2947112,75.3802839 61.6279663,72.5551373 61.6297297,69.1540541 C61.6304054,67.8364865 61.4344595,66.427027 60.9675676,64.9466216 C60.277027,62.752027 59.3243243,61.0452703 58.2844595,59.6128378 C56.7189189,57.4628378 55,55.925 53.6168919,54.1378378 C52.2324324,52.3466216 51.1209459,50.3310811 50.6209459,47.0351351 C50.5689189,46.6871622 50.3385135,46.3891892 50.0148649,46.252027 C49.6898649,46.1141892 49.3162162,46.1554054 49.0297297,46.3601351 C48.3236486,46.8655405 47.1837838,47.5804054 45.8952703,48.4918919 C43.9594595,49.8635135 41.6675676,51.6905405 39.8331081,54.1013514 C38,56.5067568 36.6263514,59.5331081 36.6283784,63.1790541 C36.6283784,64.072973 36.7101351,65.002027 36.8851351,65.9648649 C37.4148649,68.8716216 38.6871622,71.9027027 40.0466216,74.4506757 C40.5758262,75.4392592 41.1189004,76.3531911 41.6409781,77.1560204 C41.7908093,77.3864246 44.8216216,78.2912162 44.8216216,78.2912162 C44.8216216,78.2912162 44.3540541,77.5425676 43.7533784,76.6689189 Z" id="Fill-2" sketch:type="MSShapeGroup"></path>
            <path d="M49.9374998,77.9062503 L50.7209459,78.6067568 L50.7209459,78.6067568 C50.6925676,78.5844595 49.4628378,77.5682432 48.2216216,75.777027 C46.977027,73.9837838 45.7290541,71.4344595 45.5709459,68.3114865 L44.5587838,68.3628378 L45.5722973,68.3628378 C45.5716216,67.6277027 45.7209459,66.777027 45.9594595,65.9283784 C46.3155405,64.6533784 46.8662162,63.3864865 47.3263514,62.4493243 C46.8662162,61.7343751 47.1250001,62.1562501 46.4087837,60.9425675 C46.9375001,60.6093749 47.2763514,60.3972973 47.2763514,60.3972973 L46.4087837,60.9425675 C47.2452702,62.4175675 48.2662162,63.7945946 49.1932432,65.0891892 C50.1195946,66.3777027 50.9371622,67.5560811 51.3195946,68.4074324 C51.9898649,69.8844595 52.2567568,71.2324324 52.2574324,72.452027 C52.2574324,73.8114865 51.925,75.0189189 51.4027027,76.0621622 C50.8810811,77.1040541 50.6861485,77.2535476 49.9374998,77.9062503 L50.0831081,79.3939189 L50.7202703,78.6060811 L50.0831081,79.3939189 L50.7493243,80.1574324 C51.6858108,79.3398649 52.5635135,78.2689189 53.2148649,76.9709459 C53.8655405,75.6743243 54.2851351,74.1459459 54.2844595,72.452027 C54.2851351,70.9331081 53.9459459,69.2851351 53.1655405,67.5682432 C52.6412162,66.4256757 51.7722973,65.2148649 50.8412162,63.9087838 C49.9094595,62.6094595 48.9148649,61.2337838 48.1581081,59.8972973 C47.9810811,59.5858108 47.6493243,59.3885135 47.2905405,59.3837838 C46.9317568,59.3790541 46.5945946,59.5655405 46.4087838,59.872973 C46.3939189,59.897973 45.6952703,61.0540541 44.9885135,62.6743243 C44.6351351,63.4851351 44.2797297,64.4121622 44.0074324,65.3817568 C43.7364865,66.3513514 43.5466216,67.3635135 43.5452703,68.3628378 L43.5466216,68.4141892 C43.7344595,72.0851351 45.2108108,75.0195946 46.6222973,77.0277027 C48.0364865,79.0378378 49.3952703,80.1398649 49.4452703,80.1817568 C49.8283784,80.4918919 50.3783784,80.4810811 50.7493243,80.1574324 L50.0831081,79.3939189" id="Fill-3" sketch:type="MSShapeGroup"></path>
        </g>
    </g>
</svg>