<?xml version="1.0" encoding="UTF-8" standalone="no"?>
<svg width="100px" height="100px" viewBox="0 0 100 100" version="1.1" xmlns="http://www.w3.org/2000/svg" xmlns:xlink="http://www.w3.org/1999/xlink" xmlns:sketch="http://www.bohemiancoding.com/sketch/ns">
    <!-- Generator: Sketch 3.2.2 (9983) - http://www.bohemiancoding.com/sketch -->
    <title>i-5</title>
    <desc>Created with Sketch.</desc>
    <defs></defs>
    <g id="Page-1" stroke="none" stroke-width="1" fill="none" fill-rule="evenodd" sketch:type="MSPage">
        <g id="i-5" sketch:type="MSLayerGroup" fill="#0082DC">
            <path d="M50.1885135,99.6621622 C22.8047297,99.6621622 0.526351351,77.3837838 0.526351351,50 C0.526351351,22.6162162 22.8047297,0.337837838 50.1885135,0.337837838 C77.5722973,0.337837838 99.8506757,22.6162162 99.8506757,50 C99.8506757,77.3837838 77.5722973,99.6621622 50.1885135,99.6621622 L50.1885135,99.6621622 Z M50.1885135,2.36486486 C23.9222973,2.36486486 2.55337838,23.7337838 2.55337838,50 C2.55337838,76.2662162 23.9222973,97.6351351 50.1885135,97.6351351 C76.4547297,97.6351351 97.8236486,76.2662162 97.8236486,50 C97.8236486,23.7337838 76.4547297,2.36486486 50.1885135,2.36486486 L50.1885135,2.36486486 Z" id="Fill-1" sketch:type="MSShapeGroup"></path>
            <path d="M62.8317568,59.3513514 L61.8182432,59.3513514 C61.8175676,60.6425676 61.5587838,61.7527027 61.1040541,62.7094595 C60.4209459,64.1398649 59.2898649,65.2432432 57.8074324,66.0148649 C56.327027,66.7831081 54.4952703,67.2 52.4932432,67.1993243 C49.8216216,67.2006757 47.4635135,66.4574324 45.8182432,65.1324324 C44.9925676,64.4695946 44.3391892,63.6648649 43.8831081,62.7094595 C43.4283784,61.7527027 43.1702703,60.6425676 43.1695946,59.3513514 L43.1695946,31.2918919 C43.1702703,28.7135135 44.2114865,26.3891892 45.9,24.6986486 C47.5905405,23.0094595 49.9148649,21.9682432 52.4932432,21.9675676 C55.0716216,21.9682432 57.3966216,23.0094595 59.0871622,24.6986486 C60.7763514,26.3891892 61.8175676,28.7135135 61.8182432,31.2918919 L61.8182432,59.3513514 L63.8452703,59.3513514 L63.8452703,31.2918919 C63.8445946,25.0216216 58.7635135,19.9412162 52.4932432,19.9405405 C46.2236486,19.9412162 41.1432432,25.0216216 41.1425676,31.2918919 L41.1425676,59.3513514 C41.1418919,60.9148649 41.4614865,62.3398649 42.0533784,63.5810811 C42.9391892,65.4452703 44.4297297,66.8756757 46.2472973,67.8141892 C48.0668919,68.7567568 50.2135135,69.2256757 52.4932432,69.2263514 C55.5317568,69.225 58.3425676,68.3925676 60.4385135,66.7135135 C61.4837838,65.875 62.3439189,64.8222973 62.9344595,63.5810811 C63.5263514,62.3398649 63.8459459,60.9148649 63.8452703,59.3513514 L62.8317568,59.3513514" id="Fill-2" sketch:type="MSShapeGroup"></path>
            <path d="M37.7256757,62.3054054 L36.7121622,62.3054054 C36.7114865,63.6601351 36.1655405,64.877027 35.2783784,65.7655405 C34.3898649,66.6527027 33.1722973,67.1986486 31.8175676,67.1993243 C30.4635135,67.1986486 29.2466216,66.6527027 28.3574324,65.7655405 C27.4702703,64.877027 26.925,63.6601351 26.9243243,62.3054054 L26.9243243,50.4912162 C26.925,49.1364865 27.4702703,47.9189189 28.3574324,47.0297297 C29.2466216,46.1432432 30.4635135,45.5972973 31.8175676,45.5966216 C33.1722973,45.5972973 34.3898649,46.1432432 35.2783784,47.0297297 C36.1655405,47.9189189 36.7114865,49.1364865 36.7121622,50.4912162 L36.7121622,62.3054054 L38.7391892,62.3054054 L38.7391892,50.4912162 C38.7385135,46.6675676 35.6405405,43.5702703 31.8175676,43.5695946 C27.9952703,43.5702703 24.897973,46.6675676 24.8972973,50.4912162 L24.8972973,62.3054054 C24.897973,66.1277027 27.9952703,69.2256757 31.8175676,69.2263514 C35.6405405,69.2256757 38.7385135,66.1277027 38.7391892,62.3054054 L37.7256757,62.3054054" id="Fill-3" sketch:type="MSShapeGroup"></path>
            <path d="M76.122973,63.7817568 L75.1094595,63.7817568 C75.1087838,64.7290541 74.7290541,65.577027 74.1087838,66.1986486 C73.4871622,66.8189189 72.6398649,67.1986486 71.6925676,67.1993243 C70.7452703,67.1986486 69.8972973,66.8189189 69.2763514,66.1986486 C68.6560811,65.577027 68.2763514,64.7290541 68.2756757,63.7817568 L68.2756757,43.1067568 C68.2763514,42.1594595 68.6560811,41.3114865 69.2763514,40.6905405 C69.8972973,40.0702703 70.7452703,39.6898649 71.6925676,39.6891892 C72.6398649,39.6898649 73.4871622,40.0702703 74.1087838,40.6905405 C74.7290541,41.3121622 75.1087838,42.1594595 75.1094595,43.1067568 L75.1094595,63.7817568 L77.1364865,63.7817568 L77.1364865,43.1067568 C77.1358108,40.0993243 74.7,37.6628378 71.6925676,37.6621622 C68.6844595,37.6628378 66.2486486,40.1 66.2486486,43.1067568 L66.2486486,63.7817568 C66.2486486,66.7891892 68.6844595,69.2256757 71.6925676,69.2263514 C74.7,69.2256757 77.1358108,66.7898649 77.1364865,63.7817568 L76.122973,63.7817568" id="Fill-4" sketch:type="MSShapeGroup"></path>
            <path d="M32.8310811,44.5831081 L32.8310811,37.1993243 C32.8317568,36.252027 33.2121622,35.4040541 33.8317568,34.7831081 C34.4533784,34.1621622 35.3013514,33.7824324 36.2486486,33.7817568 L42.1560811,33.7817568 C42.7155405,33.7817568 43.1695946,33.3277027 43.1695946,32.7682432 C43.1695946,32.2087838 42.7155405,31.7547297 42.1560811,31.7547297 L36.2486486,31.7547297 C33.2405405,31.7554054 30.8047297,34.1918919 30.8040541,37.1993243 L30.8040541,44.5831081 C30.8040541,45.1432432 31.2581081,45.5966216 31.8175676,45.5966216 C32.3777027,45.5966216 32.8310811,45.1432432 32.8310811,44.5831081" id="Fill-5" sketch:type="MSShapeGroup"></path>
            <path d="M62.8317568,58.8878378 L67.2621622,58.8878378 C67.8216216,58.8878378 68.2756757,58.4337838 68.2756757,57.8743243 C68.2756757,57.3148649 67.8216216,56.8608108 67.2621622,56.8608108 L62.8317568,56.8608108 C62.2716216,56.8608108 61.8182432,57.3148649 61.8182432,57.8743243 C61.8182432,58.4337838 62.2716216,58.8878378 62.8317568,58.8878378" id="Fill-6" sketch:type="MSShapeGroup"></path>
            <path d="M70.6790541,68.2128378 L70.6790541,72.6432432 C70.6790541,73.2027027 71.1324324,73.6567568 71.6925676,73.6567568 C72.2527027,73.6567568 72.7060811,73.2027027 72.7060811,72.6432432 L72.7060811,68.2128378 C72.7060811,67.6533784 72.2527027,67.1993243 71.6925676,67.1993243 C71.1324324,67.1993243 70.6790541,67.6533784 70.6790541,68.2128378" id="Fill-7" sketch:type="MSShapeGroup"></path>
            <path d="M51.4797297,68.2128378 L51.4797297,72.6432432 C51.4797297,73.2027027 51.9337838,73.6567568 52.4932432,73.6567568 C53.0533784,73.6567568 53.5067568,73.2027027 53.5067568,72.6432432 L53.5067568,68.2128378 C53.5067568,67.6533784 53.0533784,67.1993243 52.4932432,67.1993243 C51.9337838,67.1993243 51.4797297,67.6533784 51.4797297,68.2128378" id="Fill-8" sketch:type="MSShapeGroup"></path>
            <path d="M30.8040541,68.2128378 L30.8040541,72.6432432 C30.8040541,73.2027027 31.2581081,73.6567568 31.8175676,73.6567568 C32.3777027,73.6567568 32.8310811,73.2027027 32.8310811,72.6432432 L32.8310811,68.2128378 C32.8310811,67.6533784 32.3777027,67.1993243 31.8175676,67.1993243 C31.2581081,67.1993243 30.8040541,67.6533784 30.8040541,68.2128378" id="Fill-9" sketch:type="MSShapeGroup"></path>
            <path d="M24.4337838,73.6567568 L77.6,73.6567568 C78.1594595,73.6567568 78.6135135,73.2027027 78.6135135,72.6432432 C78.6135135,72.0837838 78.1594595,71.6297297 77.6,71.6297297 L24.4337838,71.6297297 C23.8743243,71.6297297 23.4202703,72.0837838 23.4202703,72.6432432 C23.4202703,73.2027027 23.8743243,73.6567568 24.4337838,73.6567568" id="Fill-10" sketch:type="MSShapeGroup"></path>
        </g>
    </g>
</svg>