<?xml version="1.0" encoding="UTF-8" standalone="no"?>
<svg width="57px" height="57px" viewBox="0 0 57 57" version="1.1" xmlns="http://www.w3.org/2000/svg" xmlns:xlink="http://www.w3.org/1999/xlink" xmlns:sketch="http://www.bohemiancoding.com/sketch/ns">
    <!-- Generator: Sketch 3.2.2 (9983) - http://www.bohemiancoding.com/sketch -->
    <title>Imported Layers</title>
    <desc>Created with Sketch.</desc>
    <defs></defs>
    <g id="Page-1" stroke="none" stroke-width="1" fill="none" fill-rule="evenodd" sketch:type="MSPage">
        <path d="M57,12.6666667 C57,9.7565 54.6323889,7.38888889 51.7222222,7.38888889 L40.7233333,7.38888889 L38.9215,4.237 L38.7431111,3.91188889 C37.7804444,2.16916667 36.5834444,0 33.7777778,0 L23.2222222,0 C20.2772222,0 19.0116111,2.43833333 18.0837778,4.22644444 L16.2766667,7.38888889 L5.27777778,7.38888889 C2.36761111,7.38888889 0,9.7565 0,12.6666667 L0,26.3888889 C0,27.588 0.402166667,28.7617778 1.05555556,29.7825 L1.05555556,51.7222222 C1.05555556,54.6323889 3.42316667,57 6.33333333,57 L50.6666667,57 C53.5768333,57 55.9444444,54.6323889 55.9444444,51.7222222 L55.9444444,29.7825 C56.5978333,28.7617778 57,27.588 57,26.3888889 L57,12.6666667 L57,12.6666667 Z M19.9595,5.19227778 C20.9559444,3.27433333 21.6716111,2.11111111 23.2222222,2.11111111 L33.7777778,2.11111111 C35.2650556,2.11111111 35.9005,3.13077778 36.8948333,4.93261111 L38.2945,7.38888889 L18.7065556,7.38888889 L19.9595,5.19227778 L19.9595,5.19227778 Z M2.11111111,12.6666667 C2.11111111,10.9207778 3.53188889,9.5 5.27777778,9.5 L51.7222222,9.5 C53.4681111,9.5 54.8888889,10.9207778 54.8888889,12.6666667 L54.8888889,26.3888889 C54.8888889,28.2308333 53.3794444,30.1635556 51.5923889,30.6111111 L34.8333333,34.8016667 L34.8333333,32.7243333 C34.8365,31.0027222 33.4231111,29.5819444 31.6666667,29.5555556 L25.3185556,29.5555556 C23.5768889,29.5798333 22.1635,31.0016667 22.1666667,32.7222222 L22.1666667,34.8016667 L5.40761111,30.6111111 C3.62055556,30.1635556 2.11111111,28.2308333 2.11111111,26.3888889 L2.11111111,12.6666667 L2.11111111,12.6666667 Z M32.7222222,32.7222222 L32.7222222,37.9978889 C32.7201111,38.7209444 32.0751667,39.6245 31.4545,39.786 C29.5238889,40.2683889 27.4645,40.2652222 25.5560556,39.7891667 C24.9248333,39.6245 24.2788333,38.7209444 24.2777778,38 L24.2777778,32.7201111 C24.2767222,32.1575 24.7665,31.6751111 25.3333333,31.6666667 L31.6508333,31.6666667 C32.2324444,31.6751111 32.7232778,32.1585556 32.7222222,32.7222222 L32.7222222,32.7222222 Z M50.6666667,54.8888889 L6.33333333,54.8888889 C4.58744444,54.8888889 3.16666667,53.4681111 3.16666667,51.7222222 L3.16666667,31.8967778 C3.70394444,32.2345556 4.28133333,32.5047778 4.89566667,32.6578333 L21.9101667,36.9127778 C21.9967222,36.9338889 22.0811667,36.9243889 22.1666667,36.9243889 L22.1666667,38.0021111 C22.1698333,39.7036667 23.4512778,41.4221111 25.0346111,41.8358889 C26.1672222,42.1166667 27.3325556,42.2602222 28.5,42.2602222 C29.6663889,42.2602222 30.8327778,42.1166667 31.9759444,41.8327222 C33.5487222,41.4221111 34.8301667,39.7036667 34.8333333,38 L34.8333333,36.9444444 C34.9177778,36.9444444 35.0043333,36.9338889 35.0898333,36.9127778 L52.1043333,32.6578333 C52.7186667,32.5047778 53.2960556,32.2345556 53.8333333,31.8967778 L53.8333333,51.7222222 C53.8333333,53.4681111 52.4125556,54.8888889 50.6666667,54.8888889 L50.6666667,54.8888889 Z" id="Imported-Layers" fill="#0082DC" sketch:type="MSShapeGroup"></path>
    </g>
</svg>