<?xml version="1.0" encoding="UTF-8" standalone="no"?>
<svg width="273px" height="35px" viewBox="0 0 273 35" version="1.1" xmlns="http://www.w3.org/2000/svg" xmlns:xlink="http://www.w3.org/1999/xlink" xmlns:sketch="http://www.bohemiancoding.com/sketch/ns">
    <!-- Generator: Sketch 3.2 (9961) - http://www.bohemiancoding.com/sketch -->
    <title>logo</title>
    <desc>Created with Sketch.</desc>
    <defs></defs>
    <g id="Page-1" stroke="none" stroke-width="1" fill="none" fill-rule="evenodd" sketch:type="MSPage">
        <g id="logo" sketch:type="MSLayerGroup" fill="#003D6E">
            <path d="M60.0506033,2.6325 L62.349837,2.6325 C63.753413,2.6325 67.2133913,2.852 67.6011304,3.0485 L67.6011304,0.26 L57.2454293,0.26 L57.2454293,17.3815 L60.0506033,17.3815 L60.0506033,2.6325" id="Fill-1" sketch:type="MSShapeGroup"></path>
            <path d="M77.0003424,11.5615 L77.0003424,17.3815 L79.6883043,17.3815 L79.6883043,3.9055 L76.9770978,3.9055 L70.2282609,14.0065 L70.4696087,10.0435 L70.4696087,3.9055 L67.760875,3.9055 L67.760875,17.3815 L70.4696087,17.3815 L77.2436685,7.5735 L77.0003424,11.5615" id="Fill-2" sketch:type="MSShapeGroup"></path>
            <path d="M85.9366413,6.3265 L92.0326522,6.3265 L92.0326522,17.3815 L94.7413859,17.3815 L94.7413859,3.928 L83.2259293,3.928 L83.2259293,17.3815 L85.9366413,17.3815 L85.9366413,6.3265" id="Fill-3" sketch:type="MSShapeGroup"></path>
            <path d="M100.990712,8.871 C101.983304,7.2305 103.362152,6.0585 105.055543,6.0585 C106.628261,6.0585 108.420565,7.2305 108.420565,10.705 C108.420565,13.8095 106.797402,15.4245 104.451679,15.4245 C102.708832,15.4245 101.571332,14.8385 100.990712,14.446 L100.990712,8.871 L100.990712,8.871 Z M100.990712,16.9645 C101.596554,17.259 102.804777,17.675 104.766717,17.675 C108.370614,17.675 111.225739,15.1795 111.225739,10.4605 C111.225739,5.5665 108.370614,3.661 105.587696,3.661 C103.435842,3.661 102.199924,4.3695 100.94175,6.204 L100.652924,3.928 L98.2819783,3.928 L98.2819783,22.7645 L100.990712,22.6415 L100.990712,16.9645 L100.990712,16.9645 Z" id="Fill-4" sketch:type="MSShapeGroup"></path>
            <path d="M119.519598,15.5715 C117.291087,15.5715 115.744087,13.615 115.744087,10.632 C115.744087,7.891 117.266853,5.8375 119.615049,5.8375 C122.034462,5.8375 123.293625,7.6965 123.293625,10.655 C123.293625,13.5185 122.009734,15.5715 119.519598,15.5715 L119.519598,15.5715 Z M126.026098,10.655 C126.026098,6.6695 124.16406,3.5375 119.687255,3.5375 C115.864266,3.5375 113.035353,6.547 113.035353,10.655 C113.035353,14.8385 115.21144,17.87 119.519598,17.87 C123.653668,17.87 126.026098,14.617 126.026098,10.655 L126.026098,10.655 Z" id="Fill-5" sketch:type="MSShapeGroup"></path>
            <path d="M128.634435,17.3815 L131.318935,17.3815 L131.318935,6.3005 L133.109755,6.3005 C134.223022,6.3005 136.931755,6.4725 137.245804,6.62 L137.245804,3.928 L128.634435,3.928 L128.634435,17.3815" id="Fill-6" sketch:type="MSShapeGroup"></path>
            <path d="M142.596011,15.45 C141.432793,15.45 140.634565,14.715 140.634565,13.5655 C140.634565,11.732 142.111337,11.0955 144.773582,11.0955 C145.330957,11.0955 146.392788,11.121 146.392788,11.121 L146.418011,13.052 C145.717212,14.276 144.362103,15.45 142.596011,15.45 L142.596011,15.45 Z M149.007554,9.8975 C149.007554,5.643 148.063924,3.6845 143.467435,3.6845 C140.877397,3.6845 139.1845,4.491 139.1845,4.491 L139.426342,7.6715 C140.322,6.914 140.998565,6.0585 143.29681,6.0585 C145.982299,6.0585 146.344321,7.7935 146.440761,9.0655 C145.788924,9.0655 145.184071,9.0405 144.483272,9.0405 C139.861065,9.0405 138.023755,10.778 138.023755,13.761 C138.023755,15.7685 139.256707,17.7245 142.135571,17.7245 C143.974364,17.7245 145.087136,16.9645 146.63562,15.4245 C146.708321,15.963 146.80575,16.82 146.974397,17.5035 L149.515967,17.136 C149.515967,17.136 149.007554,15.84 149.007554,12.2705 L149.007554,9.8975 L149.007554,9.8975 Z" id="Fill-7" sketch:type="MSShapeGroup"></path>
            <path d="M161.89444,13.5185 C161.89444,11.121 160.029435,10.4605 159.204995,10.265 C160.368212,9.8475 161.45675,8.8955 161.45675,7.084 C161.45675,5.127 159.785614,3.661 156.399326,3.661 C153.908201,3.661 151.658424,4.199 151.658424,4.199 L151.729641,6.8395 C152.795924,6.3265 153.568929,5.935 155.722266,5.935 C157.560565,5.935 158.673832,6.4725 158.673832,7.501 C158.673832,8.943 157.246516,9.3345 155.408217,9.3345 L153.448255,9.3345 L153.448255,11.682 C154.464587,11.659 154.705935,11.609 155.481413,11.609 C157.826641,11.609 159.133777,12.2195 159.133777,13.42 C159.133777,14.7895 157.777679,15.328 155.698527,15.328 C153.110962,15.328 151.561984,14.325 151.561984,14.325 L151.561984,17.162 C152.480391,17.4315 154.342924,17.627 155.745511,17.627 C160.005201,17.627 161.89444,16.0375 161.89444,13.5185" id="Fill-8" sketch:type="MSShapeGroup"></path>
            <path d="M170.092848,15.5715 C167.867799,15.5715 166.317832,13.615 166.317832,10.632 C166.317832,7.891 167.841092,5.8375 170.188299,5.8375 C172.608701,5.8375 173.86638,7.6965 173.86638,10.655 C173.86638,13.5185 172.585457,15.5715 170.092848,15.5715 L170.092848,15.5715 Z M170.261495,3.5375 C166.439495,3.5375 163.608603,6.547 163.608603,10.655 C163.608603,14.8385 165.78469,17.87 170.092848,17.87 C174.227908,17.87 176.599348,14.617 176.599348,10.655 C176.599348,6.6695 174.73731,3.5375 170.261495,3.5375 L170.261495,3.5375 Z" id="Fill-9" sketch:type="MSShapeGroup"></path>
            <path d="M184.884304,15.5715 C182.657772,15.5715 181.108793,13.615 181.108793,10.632 C181.108793,7.891 182.633538,5.8375 184.979755,5.8375 C187.399168,5.8375 188.657342,7.6965 188.657342,10.655 C188.657342,13.5185 187.375924,15.5715 184.884304,15.5715 L184.884304,15.5715 Z M185.052951,3.5375 C181.229467,3.5375 178.399071,6.547 178.399071,10.655 C178.399071,14.8385 180.576641,17.87 184.884304,17.87 C189.020848,17.87 191.39031,14.617 191.39031,10.655 C191.39031,6.6695 189.528272,3.5375 185.052951,3.5375 L185.052951,3.5375 Z" id="Fill-10" sketch:type="MSShapeGroup"></path>
            <path d="M201.699027,9.873 C201.624842,9.9945 200.100098,10.8995 198.624315,10.8995 C196.929935,10.8995 195.76919,10.4105 195.76919,7.501 L195.76919,3.928 L193.060457,3.928 L193.060457,7.989 C193.060457,11.904 194.995196,13.4445 197.778114,13.4445 C199.375065,13.4445 200.366174,13.076 201.699027,12.4415 L201.699027,17.3815 L204.406772,17.3815 L204.406772,3.928 L201.699027,3.928 L201.699027,9.873" id="Fill-11" sketch:type="MSShapeGroup"></path>
            <path d="M210.410299,14.0065 L210.650163,10.0435 L210.650163,3.9055 L207.939946,3.9055 L207.939946,17.3815 L210.650163,17.3815 L217.426696,7.5735 L217.183864,11.5615 L217.183864,17.3815 L219.86688,17.3815 L219.86688,3.9055 L217.15963,3.9055 L210.410299,14.0065" id="Fill-12" sketch:type="MSShapeGroup"></path>
            <path d="M229.459467,15.328 C226.57912,15.328 225.274951,12.856 225.274951,10.7535 C225.274951,7.8685 226.74925,6.0585 229.336321,6.0585 C230.790837,6.0585 232.094016,6.643 232.991652,7.7695 L233.329935,4.3945 C232.313109,3.978 230.790837,3.661 229.50744,3.661 C225.346168,3.661 222.564239,6.204 222.564239,10.705 C222.564239,15.6945 225.537565,17.627 229.314065,17.627 C230.693408,17.627 232.192435,17.2835 233.499571,16.696 L233.426375,14.129 C233.426375,14.129 232.023293,15.328 229.459467,15.328" id="Fill-13" sketch:type="MSShapeGroup"></path>
            <path d="M234.658832,6.448 C234.85369,6.351 236.450147,6.1295 237.346793,6.1295 L239.327527,6.1295 L239.327527,17.3815 L242.039228,17.3815 L242.039228,6.1295 L244.02194,6.1295 C244.821158,6.1295 246.39338,6.3005 246.70644,6.448 L246.70644,3.928 L234.658832,3.928 L234.658832,6.448" id="Fill-14" sketch:type="MSShapeGroup"></path>
            <path d="M260.033984,3.928 L256.67094,3.928 L253.404832,8.2335 C252.679799,9.164 252.147647,9.6285 251.78513,9.6285 L251.325679,9.6285 L251.325679,3.928 L248.614967,3.928 L248.614967,17.3815 L251.325679,17.3815 L251.325679,11.415 L251.854864,11.415 C252.19562,11.415 252.921147,12.1955 253.598207,13.0295 L257.058679,17.3815 L260.637353,17.3815 L254.637783,10.386 L260.033984,3.928" id="Fill-15" sketch:type="MSShapeGroup"></path>
            <path d="M265.790228,15.45 C264.628,15.45 263.829772,14.715 263.829772,13.5655 C263.829772,11.732 265.306543,11.0955 267.965326,11.0955 C268.523196,11.0955 269.586016,11.121 269.586016,11.121 L269.612723,13.052 C268.909946,14.276 267.555332,15.45 265.790228,15.45 L265.790228,15.45 Z M272.201277,12.2705 L272.201277,9.8975 C272.201277,5.643 271.256658,3.6845 266.661652,3.6845 C264.072603,3.6845 262.377234,4.491 262.377234,4.491 L262.618087,7.6715 C263.514734,6.914 264.191299,6.0585 266.492016,6.0585 C269.175527,6.0585 269.538043,7.7935 269.636462,9.0655 C268.983636,9.0655 268.377793,9.0405 267.676005,9.0405 C263.055283,9.0405 261.2155,10.778 261.2155,13.761 C261.2155,15.7685 262.450429,17.7245 265.32781,17.7245 C267.168582,17.7245 268.281353,16.9645 269.829342,15.4245 C269.901549,15.963 269.997989,16.82 270.166636,17.5035 L272.706723,17.136 C272.706723,17.136 272.201277,15.84 272.201277,12.2705 L272.201277,12.2705 Z" id="Fill-16" sketch:type="MSShapeGroup"></path>
            <path d="M58.1855978,31.4845 L58.3057772,29.3905 L58.3057772,26.459 L57.2454293,26.459 L57.2454293,32.9285 L58.259288,32.9285 L61.5456739,28.0225 L61.4353859,30.133 L61.4353859,32.9285 L62.4967228,32.9285 L62.4967228,26.459 L61.4640707,26.459 L58.1855978,31.4845" id="Fill-17" sketch:type="MSShapeGroup"></path>
            <path d="M67.3924239,29.8925 L64.9927935,29.8925 L64.9927935,27.838 L63.9690435,27.838 L63.9690435,32.9285 L64.9927935,32.9285 L64.9927935,30.798 L67.3924239,30.798 L67.3924239,32.9285 L68.4161739,32.9285 L68.4161739,27.838 L67.3924239,27.838 L67.3924239,29.8925" id="Fill-18" sketch:type="MSShapeGroup"></path>
            <path d="M76.6655217,27.838 L75.4113043,27.838 L74.2208859,29.457 C73.9647011,29.8195 73.8371033,29.9845 73.6996141,29.9845 L73.5171196,29.9845 L73.5171196,27.838 L72.4913913,27.838 L72.4913913,29.9845 L72.3098859,29.9845 C72.1723967,29.9845 72.0423261,29.8195 71.7866359,29.457 L70.5972065,27.838 L69.3434837,27.838 L71.3014674,30.2705 L69.2064891,32.9285 L70.4958207,32.9285 L71.768337,31.206 C72.0067174,30.872 72.1906957,30.659 72.3182935,30.659 L72.4913913,30.659 L72.4913913,32.9285 L73.5171196,32.9285 L73.5171196,30.659 L73.6912065,30.659 C73.8197935,30.659 74.0012989,30.872 74.2386902,31.206 L75.5112065,32.9285 L76.8025163,32.9285 L74.7614457,30.2705 L76.6655217,27.838" id="Fill-19" sketch:type="MSShapeGroup"></path>
            <path d="M78.5255815,31.6495 L78.6165815,30.1515 L78.6165815,27.828 L77.5918424,27.828 L77.5918424,32.9285 L78.6165815,32.9285 L81.1809022,29.216 L81.0884185,30.7245 L81.0884185,32.9285 L82.10475,32.9285 L82.10475,27.828 L81.0795163,27.828 L78.5255815,31.6495" id="Fill-20" sketch:type="MSShapeGroup"></path>
            <path d="M86.9762174,29.8925 L84.5800489,29.8925 L84.5800489,27.838 L83.5548152,27.838 L83.5548152,32.9285 L84.5800489,32.9285 L84.5800489,30.798 L86.9762174,30.798 L86.9762174,32.9285 L88.0009565,32.9285 L88.0009565,27.838 L86.9762174,27.838 L86.9762174,29.8925" id="Fill-21" sketch:type="MSShapeGroup"></path>
            <path d="M90.3847609,31.6495 L90.4752663,30.1515 L90.4752663,27.828 L89.4510217,27.828 L89.4510217,32.9285 L90.4752663,32.9285 L93.0390924,29.216 L92.9471033,30.7245 L92.9471033,32.9285 L93.9629402,32.9285 L93.9629402,27.828 L92.9386957,27.828 L90.3847609,31.6495" id="Fill-22" sketch:type="MSShapeGroup"></path>
            <path d="M97.7483424,32.1865 C97.0885924,32.1865 96.656837,31.964 96.4382391,31.8155 L96.4382391,29.708 C96.8136141,29.086 97.335875,28.6415 97.9753478,28.6415 C98.5703098,28.6415 99.2463804,29.086 99.2463804,30.4015 C99.2463804,31.576 98.6341087,32.1865 97.7483424,32.1865 L97.7483424,32.1865 Z M98.1771304,27.7365 C97.3606033,27.7365 96.8962065,28.004 96.4194457,28.699 L96.3081685,27.838 L95.4135,27.838 L95.4135,34.964 L96.4382391,34.916 L96.4382391,32.7695 C96.6652446,32.881 97.123212,33.037 97.8650598,33.037 C99.2300598,33.037 100.308707,32.0945 100.308707,30.3095 C100.308707,28.458 99.2300598,27.7365 98.1771304,27.7365 L98.1771304,27.7365 Z" id="Fill-23" sketch:type="MSShapeGroup"></path>
            <path d="M102.363625,31.6495 L102.45512,30.1515 L102.45512,27.828 L101.43038,27.828 L101.43038,32.9285 L102.45512,32.9285 L105.018451,29.216 L104.925967,30.7245 L104.925967,32.9285 L105.942299,32.9285 L105.942299,27.828 L104.915582,27.828 L102.363625,31.6495" id="Fill-24" sketch:type="MSShapeGroup"></path>
            <path d="M110.813766,29.8925 L108.417103,29.8925 L108.417103,27.838 L107.390386,27.838 L107.390386,32.9285 L108.417103,32.9285 L108.417103,30.798 L110.813766,30.798 L110.813766,32.9285 L111.840484,32.9285 L111.840484,27.838 L110.813766,27.838 L110.813766,29.8925" id="Fill-25" sketch:type="MSShapeGroup"></path>
            <path d="M113.257413,32.9285 L114.274239,32.9285 L114.274239,28.7345 L114.950804,28.7345 C115.371679,28.7345 116.396913,28.8 116.51363,28.8575 L116.51363,27.838 L113.257413,27.838 L113.257413,32.9285" id="Fill-26" sketch:type="MSShapeGroup"></path>
            <path d="M124.011239,27.838 L122.740207,27.838 L121.504783,29.466 C121.230299,29.8195 121.029011,29.992 120.892016,29.992 L120.717435,29.992 L120.717435,27.838 L119.692696,27.838 L119.692696,32.9285 L120.717435,32.9285 L120.717435,30.67 L120.918723,30.67 C121.04731,30.67 121.322288,30.965 121.577978,31.28 L122.887092,32.9285 L124.240223,32.9285 L121.971158,30.281 L124.011239,27.838" id="Fill-27" sketch:type="MSShapeGroup"></path>
            <path d="M126.288217,32.1945 C125.848549,32.1945 125.546864,31.919 125.546864,31.4845 C125.546864,30.788 126.104239,30.549 127.111174,30.549 C127.321859,30.549 127.723446,30.5585 127.723446,30.5585 L127.733832,31.289 C127.46825,31.751 126.954891,32.1945 126.288217,32.1945 L126.288217,32.1945 Z M128.712082,30.0965 C128.712082,28.4875 128.3555,27.745 126.61562,27.745 C125.634897,27.745 124.996908,28.0505 124.996908,28.0505 L125.087413,29.254 C125.426685,28.965 125.68287,28.6415 126.55281,28.6415 C127.569141,28.6415 127.706136,29.301 127.742734,29.781 C127.495451,29.781 127.266467,29.7735 126.999897,29.7735 C125.252598,29.7735 124.558228,30.4275 124.558228,31.5575 C124.558228,32.3165 125.023614,33.0565 126.113141,33.0565 C126.808005,33.0565 127.22987,32.7695 127.816918,32.1865 C127.842636,32.3915 127.878739,32.715 127.944022,32.9725 L128.904962,32.834 C128.904962,32.834 128.712082,32.3445 128.712082,30.993 L128.712082,30.0965 L128.712082,30.0965 Z" id="Fill-28" sketch:type="MSShapeGroup"></path>
            <path d="M134.420353,27.838 L133.149321,27.838 L131.913897,29.466 C131.639413,29.8195 131.437136,29.992 131.299647,29.992 L131.12556,29.992 L131.12556,27.838 L130.10181,27.838 L130.10181,32.9285 L131.12556,32.9285 L131.12556,30.67 L131.328826,30.67 C131.456424,30.67 131.730413,30.965 131.986598,31.28 L133.295712,32.9285 L134.650326,32.9285 L132.379283,30.281 L134.420353,27.838" id="Fill-29" sketch:type="MSShapeGroup"></path>
            <path d="M138.659766,31.6495 L138.750766,30.1515 L138.750766,27.828 L137.726522,27.828 L137.726522,32.9285 L138.750766,32.9285 L141.312614,29.216 L141.22112,30.7245 L141.22112,32.9285 L142.237946,32.9285 L142.237946,27.828 L141.212712,27.828 L138.659766,31.6495" id="Fill-30" sketch:type="MSShapeGroup"></path>
            <path d="M145.967957,32.1495 C144.878429,32.1495 144.38337,31.215 144.38337,30.419 C144.38337,29.328 144.943217,28.6415 145.919489,28.6415 C146.469446,28.6415 146.965,28.866 147.302293,29.291 L147.430386,28.0135 C147.046109,27.8555 146.469446,27.7365 145.984772,27.7365 C144.410076,27.7365 143.356652,28.699 143.356652,30.4015 C143.356652,32.289 144.484261,33.0195 145.912071,33.0195 C146.433837,33.0195 147.001103,32.8905 147.496163,32.668 L147.466984,31.696 C147.466984,31.696 146.934832,32.1495 145.967957,32.1495" id="Fill-31" sketch:type="MSShapeGroup"></path>
            <path d="M152.876043,27.838 L151.602538,27.838 L150.36563,29.466 C150.093125,29.8195 149.889859,29.992 149.754348,29.992 L149.579272,29.992 L149.579272,27.838 L148.553543,27.838 L148.553543,32.9285 L149.579272,32.9285 L149.579272,30.67 L149.78056,30.67 C149.908158,30.67 150.182641,30.965 150.439815,31.28 L151.74794,32.9285 L153.102554,32.9285 L150.833489,30.281 L152.876043,27.838" id="Fill-32" sketch:type="MSShapeGroup"></path>
            <path d="M156.033842,31.9735 L154.596636,27.838 L153.441826,27.838 L155.493283,33.1855 C155.209402,33.797 154.926016,34.092 154.47794,34.092 C154.12037,34.092 153.726201,33.918 153.553598,33.7775 L153.617397,34.8985 C153.872592,34.9705 154.128777,35 154.43244,35 C155.556587,35 156.124348,34.2315 156.766293,32.548 C157.249484,31.2625 157.717837,29.912 158.377092,27.838 L157.30537,27.838 C156.755908,29.7255 156.518516,30.586 156.033842,31.9735" id="Fill-33" sketch:type="MSShapeGroup"></path>
            <path d="M161.299478,32.1495 C160.208467,32.1495 159.713902,31.215 159.713902,30.419 C159.713902,29.328 160.273255,28.6415 161.252495,28.6415 C161.800967,28.6415 162.295533,28.866 162.637277,29.291 L162.763391,28.0135 C162.381092,27.8555 161.800967,27.7365 161.317777,27.7365 C159.743082,27.7365 158.688668,28.699 158.688668,30.4015 C158.688668,32.289 159.815783,33.0195 161.243098,33.0195 C161.766348,33.0195 162.33213,32.8905 162.826696,32.668 L162.800484,31.696 C162.800484,31.696 162.268826,32.1495 161.299478,32.1495" id="Fill-34" sketch:type="MSShapeGroup"></path>
            <path d="M166.053734,32.1495 C164.966185,32.1495 164.47162,31.215 164.47162,30.419 C164.47162,29.328 165.030478,28.6415 166.008728,28.6415 C166.557201,28.6415 167.051766,28.866 167.38906,29.291 L167.520614,28.0135 C167.134359,27.8555 166.557201,27.7365 166.072033,27.7365 C164.498326,27.7365 163.446386,28.699 163.446386,30.4015 C163.446386,32.289 164.573005,33.0195 165.998837,33.0195 C166.521592,33.0195 167.08787,32.8905 167.582435,32.668 L167.555728,31.696 C167.555728,31.696 167.023576,32.1495 166.053734,32.1495" id="Fill-35" sketch:type="MSShapeGroup"></path>
            <path d="M168.107168,28.791 C168.178386,28.753 168.782745,28.671 169.122016,28.671 L169.871777,28.671 L169.871777,32.9285 L170.897505,32.9285 L170.897505,28.671 L171.647761,28.671 C171.94994,28.671 172.542924,28.7345 172.663598,28.791 L172.663598,27.838 L168.107168,27.838 L168.107168,28.791" id="Fill-36" sketch:type="MSShapeGroup"></path>
            <path d="M175.441571,32.158 C175.039489,32.158 174.692304,32.1415 174.43612,32.12 L174.43612,30.7345 L175.403984,30.7345 C176.137424,30.7345 176.539505,30.9745 176.539505,31.4285 C176.539505,31.9475 176.11962,32.158 175.441571,32.158 L175.441571,32.158 Z M174.43612,28.5945 C174.70912,28.579 175.096364,28.5575 175.387663,28.5575 C176.063239,28.5575 176.357505,28.781 176.357505,29.171 C176.357505,29.717 175.972734,29.921 175.221984,29.921 L174.43612,29.921 L174.43612,28.5945 L174.43612,28.5945 Z M176.548902,30.2345 C176.988076,30.077 177.391641,29.708 177.391641,29.002 C177.391641,28.2805 176.876799,27.7735 175.506359,27.7735 C174.654223,27.7735 173.482103,27.838 173.482103,27.838 L173.482103,32.9285 C173.775875,32.9445 174.582016,32.9815 175.681435,32.9815 C177.043467,32.9815 177.592929,32.3075 177.592929,31.408 C177.592929,30.576 176.860478,30.3095 176.548902,30.2345 L176.548902,30.2345 Z" id="Fill-37" sketch:type="MSShapeGroup"></path>
            <path d="M180.82244,32.241 C179.981679,32.241 179.396609,31.502 179.396609,30.371 C179.396609,29.337 179.971293,28.5575 180.860027,28.5575 C181.775467,28.5575 182.250745,29.2625 182.250745,30.382 C182.250745,31.467 181.766071,32.241 180.82244,32.241 L180.82244,32.241 Z M180.885745,27.6905 C179.44013,27.6905 178.369397,28.829 178.369397,30.382 C178.369397,31.964 179.194332,33.1115 180.82244,33.1115 C182.387739,33.1115 183.28587,31.88 183.28587,30.382 C183.28587,28.876 182.578641,27.6905 180.885745,27.6905 L180.885745,27.6905 Z" id="Fill-38" sketch:type="MSShapeGroup"></path>
            <path d="M34.1037337,21.914 L32.23675,26.09 L32.2031196,26.09 L30.3351467,21.914 L34.1037337,21.914 L34.1037337,21.914 Z M23.3785924,26.09 L23.3479293,26.09 L21.4784728,21.914 L25.2470598,21.914 L23.3785924,26.09 L23.3785924,26.09 Z M14.5209293,26.09 L14.4892772,26.09 L12.6217989,21.914 L16.3898913,21.914 L14.5209293,26.09 L14.5209293,26.09 Z M27.7337337,20.216 L10.0193967,20.216 L13.4061793,27.788 L15.6060054,27.788 L18.9339348,20.3445 L22.2633478,27.788 L24.4626793,27.788 L27.7906087,20.3435 L31.1200217,27.788 L33.3193533,27.788 L36.7051467,20.216 L27.7337337,20.216 L27.7337337,20.216 Z" id="Fill-39" sketch:type="MSShapeGroup"></path>
            <path d="M11.7934022,7.2745 L16.4329185,7.2745 L16.4329185,5.5775 L10.1148478,5.5775 L10.1148478,19.005 L11.7934022,19.005 L11.7934022,7.2745" id="Fill-40" sketch:type="MSShapeGroup"></path>
            <path d="M20.6441413,7.2745 L25.2826685,7.2745 L25.2826685,5.5775 L18.9645978,5.5775 L18.9645978,19.005 L20.6441413,19.005 L20.6441413,7.2745" id="Fill-41" sketch:type="MSShapeGroup"></path>
            <path d="M21.3746141,9.9465 L22.8958967,9.9465 L22.8958967,15.06 L21.3746141,15.06 L21.3746141,9.9465 Z" id="Fill-42" sketch:type="MSShapeGroup"></path>
            <path d="M23.6268641,9.9465 L24.9903804,9.9465 L24.9903804,15.06 L23.6268641,15.06 L23.6268641,9.9465 Z" id="Fill-43" sketch:type="MSShapeGroup"></path>
            <path d="M25.7213478,9.9465 L27.2436196,9.9465 L27.2436196,15.06 L25.7213478,15.06 L25.7213478,9.9465 Z" id="Fill-44" sketch:type="MSShapeGroup"></path>
            <path d="M12.611413,9.9465 L18.1406522,9.9465 L18.1406522,15.06 L12.611413,15.06 L12.611413,9.9465 Z" id="Fill-45" sketch:type="MSShapeGroup"></path>
            <path d="M44.5860435,15.29 L37.3550054,30.9885 L9.65242935,30.9885 L1.91792391,15.277 L1.91792391,9.1385 L7.01491304,2.199 L39.8406902,2.199 L44.5860435,9.121 L44.5860435,15.29 L44.5860435,15.29 Z M6.04902717,0.26 L0,8.496 L0,15.7325 L8.46547283,32.9285 L38.5780652,32.9285 L46.4154402,15.914 L46.5039674,15.719 L46.5039674,8.5145 L40.8446576,0.26 L6.04902717,0.26 L6.04902717,0.26 Z" id="Fill-46" sketch:type="MSShapeGroup"></path>
            <path d="M35.8174022,14.0695 L35.8174022,13.365 L32.0859076,13.365 L32.0859076,11.641 L35.816413,11.641 L35.816413,10.986 L37.3619293,12.5295 L35.8174022,14.0695 L35.8174022,14.0695 Z M29.6472065,7.2745 L34.978125,7.2745 L34.978125,9.9435 L30.4068587,9.9435 L30.4073533,15.0625 L34.978125,15.0625 L34.978125,17.2855 L29.6472065,17.2855 L29.6472065,7.2745 L29.6472065,7.2745 Z M36.6566793,5.5775 L27.9691467,5.5775 L27.9691467,18.9845 L36.6566793,18.9845 L36.6566793,15.6165 L39.7516685,12.5295 L36.6566793,9.439 L36.6566793,5.5775 L36.6566793,5.5775 Z" id="Fill-47" sketch:type="MSShapeGroup"></path>
        </g>
    </g>
</svg>