<?xml version="1.0" encoding="UTF-8" standalone="no"?>
<svg width="273px" height="38px" viewBox="0 0 273 38" version="1.1" xmlns="http://www.w3.org/2000/svg" xmlns:xlink="http://www.w3.org/1999/xlink" xmlns:sketch="http://www.bohemiancoding.com/sketch/ns">
    <!-- Generator: Sketch 3.3 (11970) - http://www.bohemiancoding.com/sketch -->
    <title>logo-en</title>
    <desc>Created with Sketch.</desc>
    <defs></defs>
    <g id="Page-1" stroke="none" stroke-width="1" fill="none" fill-rule="evenodd" sketch:type="MSPage">
        <g id="logo-en" sketch:type="MSLayerGroup" fill="#003D6E">
            <path d="M35.2199869,23.5293742 L33.291663,27.7946258 L33.2570153,27.7946258 L31.3268993,23.5293742 L35.2199869,23.5293742 L35.2199869,23.5293742 Z M24.1440722,27.7946258 L24.111814,27.7946258 L22.1811007,23.5293742 L26.0729934,23.5293742 L24.1440722,27.7946258 L24.1440722,27.7946258 Z M14.995884,27.7946258 L14.9636258,27.7946258 L13.0347046,23.5293742 L16.926,23.5293742 L14.995884,27.7946258 L14.995884,27.7946258 Z M28.641105,21.7940022 L10.3471182,21.7940022 L13.8453414,29.5288031 L16.1171554,29.5288031 L19.553849,21.9260219 L22.9917374,29.5288031 L25.262954,29.5288031 L28.7002451,21.9236324 L32.1375361,29.5288031 L34.4093501,29.5288031 L37.9063786,21.7940022 L28.641105,21.7940022 L28.641105,21.7940022 Z" id="Fill-1" sketch:type="MSShapeGroup"></path>
            <path d="M12.1786674,8.5741116 L16.9702057,8.5741116 L16.9702057,6.84172648 L10.4456849,6.84172648 L10.4456849,20.558035 L12.1786674,20.558035 L12.1786674,8.5741116" id="Fill-2" sketch:type="MSShapeGroup"></path>
            <path d="M21.3196871,8.5741116 L26.1100306,8.5741116 L26.1100306,6.84172648 L19.5855098,6.84172648 L19.5855098,20.558035 L21.3196871,20.558035 L21.3196871,8.5741116" id="Fill-3" sketch:type="MSShapeGroup"></path>
            <path d="M22.0741707,11.3035142 L23.6446674,11.3035142 L23.6446674,16.5263567 L22.0741707,16.5263567 L22.0741707,11.3035142 Z" id="Fill-4" sketch:type="MSShapeGroup"></path>
            <path d="M24.4009431,11.3035142 L25.808954,11.3035142 L25.808954,16.5263567 L24.4009431,16.5263567 L24.4009431,11.3035142 Z" id="Fill-5" sketch:type="MSShapeGroup"></path>
            <path d="M26.5628403,11.3035142 L28.1351291,11.3035142 L28.1351291,16.5263567 L26.5628403,16.5263567 L26.5628403,11.3035142 Z" id="Fill-6" sketch:type="MSShapeGroup"></path>
            <path d="M13.0239519,11.3035142 L18.7342516,11.3035142 L18.7342516,16.5263567 L13.0239519,16.5263567 L13.0239519,11.3035142 Z" id="Fill-7" sketch:type="MSShapeGroup"></path>
            <path d="M46.0461991,16.7629168 L38.5778271,32.7976346 L9.96718818,32.7976346 L1.98089278,16.7479825 L1.98089278,10.4785405 L7.2437593,3.39009847 L41.1453414,3.39009847 L46.0461991,10.4600219 L46.0461991,16.7629168 L46.0461991,16.7629168 Z M6.24733917,1.40860832 L0,9.82202626 L0,17.2145317 L8.74257112,34.7803195 L39.8406761,34.7803195 L47.9344989,17.4003151 L48.0276893,17.2013895 L48.0276893,9.84173961 L42.1817856,1.40860832 L6.24733917,1.40860832 L6.24733917,1.40860832 Z" id="Fill-8" sketch:type="MSShapeGroup"></path>
            <path d="M36.9894092,15.5155996 L36.9894092,14.7957637 L33.1357484,14.7957637 L33.1357484,13.035302 L36.9888118,13.035302 L36.9888118,12.3668403 L38.5843982,13.942116 L36.9894092,15.5155996 L36.9894092,15.5155996 Z M30.6178162,8.5741116 L36.1220219,8.5741116 L36.1220219,11.3011247 L31.4021685,11.3011247 L31.4027659,16.5299409 L36.1220219,16.5299409 L36.1220219,18.8011575 L30.6178162,18.8011575 L30.6178162,8.5741116 L30.6178162,8.5741116 Z M37.8567965,6.84172648 L28.8842363,6.84172648 L28.8842363,20.5359322 L37.8567965,20.5359322 L37.8567965,17.0956543 L41.052151,13.942116 L37.8567965,10.7861882 L37.8567965,6.84172648 L37.8567965,6.84172648 Z" id="Fill-9" sketch:type="MSShapeGroup"></path>
            <path d="M72.891,17.4271969 C71.6526433,18.0347265 69.5038884,18.642256 67.4244289,18.642256 C62.2852188,18.642256 59.2487659,15.4421225 59.2487659,10.3029125 C59.2487659,5.25689278 62.6824726,1.77599344 67.7744902,1.77599344 C69.3402079,1.77599344 71.3019847,2.17324726 72.5403414,2.66428884 L72.1436849,6.09799562 C71.0451138,4.67266083 69.3868031,4.15891904 67.5648118,4.15891904 C64.4106761,4.15891904 62.0283479,6.40146171 62.0283479,10.3495077 C62.0283479,13.503046 63.9674245,16.3059256 67.5881094,16.3059256 C68.6627856,16.3059256 69.527186,16.1189475 70.3443939,15.8160788 L70.3443939,12.031116 C68.942954,12.031116 67.494919,12.1947965 66.8873895,12.2885842 L66.8873895,9.69478556 L72.891,9.69478556 L72.891,17.4271969" id="Fill-10" sketch:type="MSShapeGroup"></path>
            <path d="M76.7189737,5.56095624 L79.3354726,5.56095624 L79.3354726,18.4086827 L76.7189737,18.4086827 L76.7189737,5.56095624 Z M78.0039256,0.655319475 C78.9376214,0.655319475 79.6855339,1.40263457 79.6855339,2.33692779 C79.6855339,3.27122101 78.9376214,3.99583589 78.0039256,3.99583589 C77.069035,3.99583589 76.3450175,3.27122101 76.3450175,2.33692779 C76.3450175,1.40263457 77.069035,0.655319475 78.0039256,0.655319475 L78.0039256,0.655319475 Z" id="Fill-11" sketch:type="MSShapeGroup"></path>
            <path d="M86.2948818,10.2790175 L86.2948818,15.6058031 C86.8552188,15.9785646 87.9531926,16.5400963 89.6348009,16.5400963 C91.9012385,16.5400963 93.4657615,14.9976761 93.4657615,12.031116 C93.4657615,8.71449453 91.737558,7.59322319 90.2190328,7.59322319 C88.5840197,7.59322319 87.2524726,8.71449453 86.2948818,10.2790175 L86.2948818,10.2790175 Z M85.9681182,5.56095624 L86.2482867,7.73300875 C87.4627484,5.98150766 88.6539125,5.30289059 90.733372,5.30289059 C93.4191663,5.30289059 96.1766455,7.12547921 96.1766455,11.7975427 C96.1766455,16.3059256 93.4191663,18.6888512 89.9388643,18.6888512 C88.0469803,18.6888512 86.8791138,18.2915974 86.2948818,18.0108315 L86.2948818,23.4314048 L83.6783829,23.5478928 L83.6783829,5.56095624 L85.9681182,5.56095624 L85.9681182,5.56095624 Z" id="Fill-12" sketch:type="MSShapeGroup"></path>
            <path d="M99.2806018,18.4080853 L99.2806018,5.56095624 L101.56974,5.56095624 L101.780015,8.0603698 C102.901287,6.14459081 104.139643,5.39727571 106.055422,5.39727571 C107.013013,5.39727571 107.783626,5.79393217 107.783626,5.79393217 L107.152799,8.69059956 C107.152799,8.69059956 106.335591,8.01377462 105.260915,8.01377462 C103.858877,8.01377462 102.760904,8.8076849 101.897101,10.442698 L101.897101,18.4080853 L99.2806018,18.4080853" id="Fill-13" sketch:type="MSShapeGroup"></path>
            <path d="M114.322484,16.6798818 C116.728707,16.6798818 117.967063,14.7175077 117.967063,11.9845208 C117.967063,9.15774617 116.752602,7.38294748 114.416869,7.38294748 C112.150431,7.38294748 110.679098,9.34532166 110.679098,11.9612232 C110.679098,14.810698 112.173729,16.6798818 114.322484,16.6798818 L114.322484,16.6798818 Z M114.486164,5.187 C118.807569,5.187 120.60686,8.17685777 120.60686,11.9845208 C120.60686,15.7682888 118.317722,18.8758293 114.322484,18.8758293 C110.164759,18.8758293 108.0626,15.9785646 108.0626,11.9845208 C108.0626,8.0603698 110.795586,5.187 114.486164,5.187 L114.486164,5.187 Z" id="Fill-14" sketch:type="MSShapeGroup"></path>
            <path d="M131.840481,8.38713348 C130.858996,7.75570897 129.878107,7.52273304 128.710241,7.52273304 C126.91095,7.52273304 125.159449,9.08785339 125.159449,11.8913304 C125.159449,14.4839344 126.350613,16.190035 128.920516,16.190035 C129.737724,16.190035 130.905591,15.7927812 131.840481,14.9277834 L131.840481,8.38713348 L131.840481,8.38713348 Z M134.456383,5.56095624 L134.456383,16.5633939 C134.456383,21.6554114 132.28433,23.921849 127.68216,23.921849 C125.789678,23.921849 123.453945,23.3137221 123.453945,23.3137221 L123.220372,20.2772691 C123.220372,20.2772691 125.393022,21.7020066 127.775947,21.7020066 C131.396035,21.7020066 131.840481,19.3662735 131.840481,16.8895602 C130.391849,18.2682998 129.130792,18.4319803 128.032221,18.4319803 C124.925875,18.4319803 122.589545,16.0490547 122.589545,12.031116 C122.589545,8.45702626 124.785492,5.32678556 128.686346,5.32678556 C130.532232,5.32678556 132.074055,6.07410066 132.074055,6.12129322 L134.012534,5.56095624 L134.456383,5.56095624 L134.456383,5.56095624 Z" id="Fill-15" sketch:type="MSShapeGroup"></path>
            <path d="M145.526324,12.4283698 C145.526324,12.4283698 144.49884,12.4050722 143.961204,12.4050722 C141.3913,12.4050722 139.96716,13.0126018 139.96716,14.7641028 C139.96716,15.862674 140.737175,16.5633939 141.859641,16.5633939 C143.564547,16.5633939 144.872796,15.4421225 145.549621,14.2736586 L145.526324,12.4283698 L145.526324,12.4283698 Z M146.086661,18.5257681 C145.92298,17.871046 145.82979,17.0532407 145.759897,16.5400963 C144.26467,18.0108315 143.190591,18.7354464 141.415195,18.7354464 C138.635015,18.7354464 137.443851,16.86686 137.443851,14.951081 C137.443851,12.1010088 139.219247,10.442698 143.681035,10.442698 C144.358457,10.442698 144.942689,10.466593 145.572919,10.466593 C145.479729,9.25093654 145.12907,7.59322319 142.536466,7.59322319 C140.317221,7.59322319 139.663096,8.41043107 138.799293,9.13504595 L138.565123,6.09799562 C138.565123,6.09799562 140.200136,5.32678556 142.700147,5.32678556 C147.138637,5.32678556 148.049632,7.19596937 148.049632,11.2605033 L148.049632,13.5263435 C148.049632,16.9373501 148.539479,18.1751094 148.539479,18.1751094 L146.086661,18.5257681 L146.086661,18.5257681 Z" id="Fill-16" sketch:type="MSShapeGroup"></path>
            <path d="M160.918267,5.56095624 L160.918267,6.47195186 C160.871672,6.4247593 154.027556,16.2593304 154.027556,16.2593304 C154.027556,16.2593304 161.15184,16.2593304 161.104648,16.2127352 L161.104648,18.4080853 L150.382976,18.4080853 L150.382976,17.5209847 C150.359081,17.4976871 157.157199,7.68641357 157.157199,7.68641357 C152.97558,7.68641357 151.737821,7.80349891 150.663742,7.96717943 L150.663742,5.56095624 L160.918267,5.56095624" id="Fill-17" sketch:type="MSShapeGroup"></path>
            <path d="M168.344823,16.6798818 C170.751046,16.6798818 171.988805,14.7175077 171.988805,11.9845208 C171.988805,9.15774617 170.774344,7.38294748 168.438611,7.38294748 C166.17277,7.38294748 164.70084,9.34532166 164.70084,11.9612232 C164.70084,14.810698 166.196068,16.6798818 168.344823,16.6798818 L168.344823,16.6798818 Z M168.508503,5.187 C172.829311,5.187 174.628602,8.17685777 174.628602,11.9845208 C174.628602,15.7682888 172.339464,18.8758293 168.344823,18.8758293 C164.187098,18.8758293 162.084341,15.9785646 162.084341,11.9845208 C162.084341,8.0603698 164.817328,5.187 168.508503,5.187 L168.508503,5.187 Z" id="Fill-18" sketch:type="MSShapeGroup"></path>
            <path d="M182.847873,16.6798818 C185.254096,16.6798818 186.492453,14.7175077 186.492453,11.9845208 C186.492453,9.15774617 185.277991,7.38294748 182.942258,7.38294748 C180.675821,7.38294748 179.205085,9.34532166 179.205085,11.9612232 C179.205085,14.810698 180.699716,16.6798818 182.847873,16.6798818 L182.847873,16.6798818 Z M183.011554,5.187 C187.333556,5.187 189.132249,8.17685777 189.132249,11.9845208 C189.132249,15.7682888 186.843709,18.8758293 182.847873,18.8758293 C178.690746,18.8758293 176.588586,15.9785646 176.588586,11.9845208 C176.588586,8.0603698 179.321573,5.187 183.011554,5.187 L183.011554,5.187 Z" id="Fill-19" sketch:type="MSShapeGroup"></path>
            <path d="M201.674718,17.754558 C200.413063,18.314895 198.963834,18.642256 197.632287,18.642256 C193.987707,18.642256 191.115532,16.7963698 191.115532,12.031116 C191.115532,7.73300875 193.801923,5.30289059 197.819862,5.30289059 C199.057621,5.30289059 200.529551,5.60755142 201.51044,6.00420788 L201.183079,9.22823632 C200.319873,8.15356018 199.057621,7.59322319 197.656779,7.59322319 C195.157365,7.59322319 193.731433,9.3214267 193.731433,12.0783085 C193.731433,14.0872779 194.993685,16.4463085 197.77267,16.4463085 C200.249383,16.4463085 201.60363,15.3017396 201.60363,15.3017396 L201.674718,17.754558" id="Fill-20" sketch:type="MSShapeGroup"></path>
            <path d="M213.281698,18.4080853 C213.281698,18.4080853 213.304996,15.7216937 213.304996,12.4050722 C213.304996,9.01796061 212.791254,7.70971116 210.830074,7.70971116 C209.380845,7.70971116 207.978807,8.92477024 207.092304,10.3728053 L207.092304,18.4080853 L204.475208,18.4080853 L204.475208,0.538234136 L206.997919,0.421746171 L206.997919,7.85009409 C208.16698,6.191186 209.521228,5.30289059 211.623387,5.30289059 C215.197477,5.30289059 215.922092,7.45284026 215.922092,12.3351794 C215.898794,12.3351794 215.898794,18.4080853 215.898794,18.4080853 L213.281698,18.4080853" id="Fill-21" sketch:type="MSShapeGroup"></path>
            <path d="M219.750066,5.56095624 L222.365967,5.56095624 L222.365967,18.4086827 L219.750066,18.4086827 L219.750066,5.56095624 Z M221.035018,0.655319475 C221.968713,0.655319475 222.716028,1.40263457 222.716028,2.33692779 C222.716028,3.27122101 221.968713,3.99583589 221.035018,3.99583589 C220.100127,3.99583589 219.375512,3.27122101 219.375512,2.33692779 C219.375512,1.40263457 220.100127,0.655319475 221.035018,0.655319475 L221.035018,0.655319475 Z" id="Fill-22" sketch:type="MSShapeGroup"></path>
            <path d="M230.540435,7.52273304 C229.349271,7.52273304 228.345085,7.98987965 228.345085,8.97136543 C228.345085,10.3495077 230.283565,10.6296761 231.989665,11.1434179 C233.484893,11.587267 235.656348,12.4283698 235.656348,14.7175077 C235.656348,17.1237309 233.880952,18.642256 230.213074,18.642256 C228.345085,18.642256 226.873155,18.1751094 226.032053,17.871046 L226.172435,14.9743786 C226.172435,14.9743786 227.690961,16.4929037 230.330757,16.4929037 C231.685602,16.4929037 232.969359,15.8853742 232.969359,14.858488 C232.969359,13.479151 230.049991,13.0824945 228.227403,12.358477 C226.802665,11.7975427 225.775182,10.8632495 225.775182,9.01796061 C225.775182,6.70492779 227.457387,5.30289059 230.774009,5.30289059 C233.039252,5.30289059 234.76865,5.81782713 234.76865,5.81782713 L234.395291,8.83098249 C233.693974,8.15356018 232.50281,7.52273304 230.540435,7.52273304" id="Fill-23" sketch:type="MSShapeGroup"></path>
            <path d="M241.704761,7.96717943 L241.704761,13.479151 C241.704761,15.7216937 242.545864,16.3531182 243.642643,16.3531182 C245.722103,16.3531182 247.19463,14.9976761 247.19463,14.9976761 L247.07635,17.8244508 C245.324849,18.5956608 244.181475,18.7121488 242.966416,18.7121488 C240.373214,18.7121488 239.064368,16.842965 239.064368,14.0872779 C239.064368,12.6852407 239.087665,7.96717943 239.087665,7.96717943 L236.821825,7.96717943 L236.821825,7.24256455 C238.714306,5.72463676 240.466405,2.03346171 240.466405,2.03346171 L241.704761,2.03346171 L241.704761,5.70074179 L247.030352,5.70074179 L247.030352,7.98987965 L241.704761,7.96717943" id="Fill-24" sketch:type="MSShapeGroup"></path>
            <path d="M261.161239,18.4080853 L257.867915,18.4080853 L254.620589,14.0633829 C253.989761,13.2461751 253.40553,12.7085383 253.078168,12.7085383 L252.542324,12.7085383 L252.542324,18.4080853 L249.925228,18.4080853 L249.925228,0.538234136 L252.542324,0.421746171 L252.542324,11.0036324 L253.149256,11.0036324 C253.428827,11.0036324 253.919869,10.3961028 254.596694,9.48510722 L257.586551,5.53706127 L260.624199,5.53706127 L255.83505,11.6105646 L261.161239,18.4080853" id="Fill-25" sketch:type="MSShapeGroup"></path>
            <path d="M269.66247,12.4283698 C269.66247,12.4283698 268.634389,12.4050722 268.096753,12.4050722 C265.527446,12.4050722 264.102112,13.0126018 264.102112,14.7641028 C264.102112,15.862674 264.873919,16.5633939 265.994593,16.5633939 C267.700694,16.5633939 269.007748,15.4421225 269.685171,14.2736586 L269.66247,12.4283698 L269.66247,12.4283698 Z M270.223405,18.5257681 C270.059724,17.871046 269.966534,17.0532407 269.896044,16.5400963 C268.401414,18.0108315 267.326737,18.7354464 265.551341,18.7354464 C262.771162,18.7354464 261.579998,16.86686 261.579998,14.951081 C261.579998,12.1010088 263.354796,10.442698 267.817182,10.442698 C268.494604,10.442698 269.078239,10.466593 269.709066,10.466593 C269.616473,9.25093654 269.264619,7.59322319 266.672015,7.59322319 C264.452173,7.59322319 263.79984,8.41043107 262.934245,9.13504595 L262.700672,6.09799562 C262.700672,6.09799562 264.336282,5.32678556 266.835696,5.32678556 C271.274783,5.32678556 272.186376,7.19596937 272.186376,11.2605033 L272.186376,13.5263435 C272.186376,16.9373501 272.675028,18.1751094 272.675028,18.1751094 L270.223405,18.5257681 L270.223405,18.5257681 Z" id="Fill-26" sketch:type="MSShapeGroup"></path>
            <path d="M60.4130481,34.7809168 L60.4130481,28.0879365 L64.6299125,28.0879365 L64.6299125,29.0819672 L61.522372,29.0819672 L61.522372,30.8985821 L64.1705317,30.8985821 L64.1705317,31.8740941 L61.522372,31.8740941 L61.522372,33.7862888 L64.7541663,33.7862888 L64.7541663,34.7809168 L60.4130481,34.7809168" id="Fill-27" sketch:type="MSShapeGroup"></path>
            <path d="M69.3605186,34.7809168 C69.3605186,34.7809168 69.3700766,33.681151 69.3700766,32.3233195 C69.3700766,30.936814 69.1598009,30.4015667 68.35693,30.4015667 C67.7637374,30.4015667 67.1902582,30.8985821 66.8270547,31.4917746 L66.8270547,34.7809168 L65.7559628,34.7809168 L65.7559628,29.5216346 L66.6932429,29.5216346 L66.7888228,30.4971466 C67.3814179,29.5980985 67.9835711,29.4164967 68.6819015,29.4164967 C70.097081,29.4164967 70.4411685,30.2964289 70.4411685,32.2946455 C70.4316105,32.2946455 70.4316105,34.7809168 70.4316105,34.7809168 L69.3605186,34.7809168" id="Fill-28" sketch:type="MSShapeGroup"></path>
            <path d="M75.3055864,30.678151 C74.904151,30.4206827 74.5021182,30.3251028 74.0242188,30.3251028 C73.2882538,30.3251028 72.5708074,30.965488 72.5708074,32.1130438 C72.5708074,33.1739803 73.0582648,33.8723107 74.1102407,33.8723107 C74.4453676,33.8723107 74.923267,33.7098249 75.3055864,33.3561794 L75.3055864,30.678151 L75.3055864,30.678151 Z M76.3766783,29.5216346 L76.3766783,34.0252385 C76.3766783,36.109477 75.4871882,37.0371991 73.6036674,37.0371991 C72.8294705,37.0371991 71.872477,36.7886915 71.872477,36.7886915 L71.7774945,35.5455558 C71.7774945,35.5455558 72.6663873,36.128593 73.6418993,36.128593 C75.1239847,36.128593 75.3055864,35.1727943 75.3055864,34.1596477 C74.7129912,34.7235689 74.1962626,34.7898775 73.7470372,34.7898775 C72.4752276,34.7898775 71.5194289,33.8149628 71.5194289,32.1703917 C71.5194289,30.7074223 72.4178796,29.4260547 74.0146608,29.4260547 C74.7703392,29.4260547 75.4011663,29.7319103 75.4011663,29.7516236 L76.1950766,29.5216346 L76.3766783,29.5216346 L76.3766783,29.5216346 Z" id="Fill-29" sketch:type="MSShapeGroup"></path>
            <path d="M78.0851685,29.5216346 L79.1562604,29.5216346 L79.1562604,34.7809168 L78.0851685,34.7809168 L78.0851685,29.5216346 Z M78.6114551,27.51386 C78.9937746,27.51386 79.3002276,27.8197155 79.3002276,28.202035 C79.3002276,28.5849519 78.9937746,28.8812495 78.6114551,28.8812495 C78.2291357,28.8812495 77.9322407,28.5849519 77.9322407,28.202035 C77.9322407,27.8197155 78.2291357,27.51386 78.6114551,27.51386 L78.6114551,27.51386 Z" id="Fill-30" sketch:type="MSShapeGroup"></path>
            <path d="M84.5386018,34.7809168 C84.5386018,34.7809168 84.5481597,33.681151 84.5481597,32.3233195 C84.5481597,30.936814 84.337884,30.4015667 83.5344158,30.4015667 C82.9418206,30.4015667 82.3683414,30.8985821 82.0045405,31.4917746 L82.0045405,34.7809168 L80.9334486,34.7809168 L80.9334486,29.5216346 L81.8707287,29.5216346 L81.9663085,30.4971466 C82.5595011,29.5980985 83.1616543,29.4164967 83.8593873,29.4164967 C85.2751641,29.4164967 85.6192516,30.2964289 85.6192516,32.2946455 C85.6096937,32.2946455 85.6096937,34.7809168 85.6096937,34.7809168 L84.5386018,34.7809168" id="Fill-31" sketch:type="MSShapeGroup"></path>
            <path d="M87.7769672,31.6447024 L90.3301444,31.6447024 C90.3301444,30.8507921 89.9860569,30.200849 89.1156827,30.200849 C88.2841379,30.200849 87.8731444,30.7169803 87.7769672,31.6447024 L87.7769672,31.6447024 Z M91.1144967,34.5515252 C90.5977681,34.7809168 89.900035,34.8764967 89.2972845,34.8764967 C87.5284595,34.8764967 86.6969147,34.0252385 86.6969147,32.1703917 C86.6969147,30.5640525 87.4711116,29.3782648 89.2208206,29.3782648 C90.9418556,29.3782648 91.3725624,30.6500744 91.3725624,31.6638184 C91.3725624,32.0270219 91.3247724,32.4666893 91.3152144,32.5335952 L87.7769672,32.5335952 C87.882105,33.5091072 88.3797177,33.9583326 89.3552298,33.9583326 C90.5977681,33.9583326 91.1144967,33.5180678 91.1144967,33.5180678 L91.1144967,34.5515252 L91.1144967,34.5515252 Z" id="Fill-32" sketch:type="MSShapeGroup"></path>
            <path d="M93.3397155,31.6447024 L95.8928928,31.6447024 C95.8928928,30.8507921 95.5488053,30.200849 94.6784311,30.200849 C93.8468862,30.200849 93.4358928,30.7169803 93.3397155,31.6447024 L93.3397155,31.6447024 Z M96.6772451,34.5515252 C96.1605164,34.7809168 95.4627834,34.8764967 94.8600328,34.8764967 C93.0912079,34.8764967 92.259663,34.0252385 92.259663,32.1703917 C92.259663,30.5640525 93.03386,29.3782648 94.7835689,29.3782648 C96.5046039,29.3782648 96.9353107,30.6500744 96.9353107,31.6638184 C96.9353107,32.0270219 96.8875208,32.4666893 96.8779628,32.5335952 L93.3397155,32.5335952 C93.4448534,33.5091072 93.9424661,33.9583326 94.9179781,33.9583326 C96.1605164,33.9583326 96.6772451,33.5180678 96.6772451,33.5180678 L96.6772451,34.5515252 L96.6772451,34.5515252 Z" id="Fill-33" sketch:type="MSShapeGroup"></path>
            <path d="M98.2716368,34.7809168 L98.2716368,29.5216346 L99.2089168,29.5216346 L99.2949387,30.5449365 C99.7537221,29.7605842 100.260295,29.4547287 101.044648,29.4547287 C101.436525,29.4547287 101.752536,29.6172144 101.752536,29.6172144 L101.493873,30.8030022 C101.493873,30.8030022 101.159344,30.5258206 100.719676,30.5258206 C100.1456,30.5258206 99.6963742,30.8507921 99.3427287,31.5204486 L99.3427287,34.7809168 L98.2716368,34.7809168" id="Fill-34" sketch:type="MSShapeGroup"></path>
            <path d="M102.505228,29.5216346 L103.576319,29.5216346 L103.576319,34.7809168 L102.505228,34.7809168 L102.505228,29.5216346 Z M103.031514,27.51386 C103.413834,27.51386 103.719689,27.8197155 103.719689,28.202035 C103.719689,28.5849519 103.413834,28.8812495 103.031514,28.8812495 C102.648597,28.8812495 102.3523,28.5849519 102.3523,28.202035 C102.3523,27.8197155 102.648597,27.51386 103.031514,27.51386 L103.031514,27.51386 Z" id="Fill-35" sketch:type="MSShapeGroup"></path>
            <path d="M108.958661,34.7809168 C108.958661,34.7809168 108.968219,33.681151 108.968219,32.3233195 C108.968219,30.936814 108.757943,30.4015667 107.954475,30.4015667 C107.36188,30.4015667 106.7884,30.8985821 106.4246,31.4917746 L106.4246,34.7809168 L105.353508,34.7809168 L105.353508,29.5216346 L106.290788,29.5216346 L106.386368,30.4971466 C106.97956,29.5980985 107.581713,29.4164967 108.279446,29.4164967 C109.694626,29.4164967 110.039311,30.2964289 110.039311,32.2946455 C110.029155,32.2946455 110.029155,34.7809168 110.029155,34.7809168 L108.958661,34.7809168" id="Fill-36" sketch:type="MSShapeGroup"></path>
            <path d="M114.903729,30.678151 C114.502293,30.4206827 114.10026,30.3251028 113.622361,30.3251028 C112.886396,30.3251028 112.16895,30.965488 112.16895,32.1130438 C112.16895,33.1739803 112.656407,33.8723107 113.708383,33.8723107 C114.042912,33.8723107 114.520812,33.7098249 114.903729,33.3561794 L114.903729,30.678151 L114.903729,30.678151 Z M115.974821,29.5216346 L115.974821,34.0252385 C115.974821,36.109477 115.084733,37.0371991 113.201212,37.0371991 C112.427015,37.0371991 111.471217,36.7886915 111.471217,36.7886915 L111.375039,35.5455558 C111.375039,35.5455558 112.26453,36.128593 113.240042,36.128593 C114.722127,36.128593 114.903729,35.1727943 114.903729,34.1596477 C114.310536,34.7235689 113.794405,34.7898775 113.344582,34.7898775 C112.072772,34.7898775 111.116974,33.8149628 111.116974,32.1703917 C111.116974,30.7074223 112.016022,29.4260547 113.612803,29.4260547 C114.367884,29.4260547 114.999309,29.7319103 114.999309,29.7516236 L115.792621,29.5216346 L115.974821,29.5216346 L115.974821,29.5216346 Z" id="Fill-37" sketch:type="MSShapeGroup"></path>
            <path d="M123.716193,34.5126958 C123.199464,34.7420875 122.606869,34.8764967 122.062063,34.8764967 C120.57042,34.8764967 119.39419,34.1208184 119.39419,32.1703917 C119.39419,30.4105274 120.493956,29.4164967 122.138527,29.4164967 C122.645698,29.4164967 123.247254,29.5407505 123.649287,29.7038337 L123.515475,31.0228359 C123.161829,30.5831685 122.645698,30.3537768 122.071621,30.3537768 C121.048319,30.3537768 120.465282,31.0610678 120.465282,32.1895077 C120.465282,33.0120919 120.981414,33.9774486 122.119411,33.9774486 C123.133155,33.9774486 123.687519,33.5091072 123.687519,33.5091072 L123.716193,34.5126958" id="Fill-38" sketch:type="MSShapeGroup"></path>
            <path d="M126.964713,34.0730284 C127.949783,34.0730284 128.456357,33.2695602 128.456357,32.1512757 C128.456357,30.9941619 127.959341,30.2677549 127.003543,30.2677549 C126.075821,30.2677549 125.47307,31.0706258 125.47307,32.1417177 C125.47307,33.3083895 126.084781,34.0730284 126.964713,34.0730284 L126.964713,34.0730284 Z M127.031619,29.3687068 C128.800444,29.3687068 129.537007,30.5927265 129.537007,32.1512757 C129.537007,33.700267 128.599726,34.9720766 126.964713,34.9720766 C125.262794,34.9720766 124.401978,33.7862888 124.401978,32.1512757 C124.401978,30.5449365 125.52086,29.3687068 127.031619,29.3687068 L127.031619,29.3687068 Z" id="Fill-39" sketch:type="MSShapeGroup"></path>
            <path d="M134.133801,34.7809168 C134.133801,34.7809168 134.143956,33.681151 134.143956,32.3233195 C134.143956,30.936814 134.028663,30.4015667 133.302256,30.4015667 C132.737737,30.4015667 132.231164,30.8985821 131.867961,31.4917746 L131.867961,34.7809168 L130.796869,34.7809168 L130.796869,29.5216346 L131.733551,29.5216346 L131.829729,30.4780306 C132.364976,29.7414683 132.814799,29.4164967 133.627228,29.4164967 C134.36379,29.4164967 134.755667,29.7038337 135.032849,30.3442188 C135.64456,29.6560438 136.218637,29.4164967 136.830945,29.4164967 C138.255085,29.4164967 138.55198,30.2964289 138.55198,32.2946455 C138.542422,32.2946455 138.542422,34.7809168 138.542422,34.7809168 L137.47133,34.7809168 C137.47133,34.7809168 137.480888,33.681151 137.480888,32.3233195 C137.480888,30.936814 137.366193,30.4015667 136.611112,30.4015667 C135.922339,30.4015667 135.367379,30.9941619 135.204893,31.2809015 L135.204893,34.7809168 L134.133801,34.7809168" id="Fill-40" sketch:type="MSShapeGroup"></path>
            <path d="M141.148168,31.4529453 L141.148168,33.6333611 C141.37756,33.7862888 141.827383,34.0156805 142.515558,34.0156805 C143.44328,34.0156805 144.083665,33.3848534 144.083665,32.1703917 C144.083665,30.8125602 143.376374,30.3537768 142.755105,30.3537768 C142.085449,30.3537768 141.540643,30.8125602 141.148168,31.4529453 L141.148168,31.4529453 Z M141.014357,29.5216346 L141.129053,30.4105274 C141.626068,29.6936783 142.113525,29.4164967 142.964783,29.4164967 C144.064549,29.4164967 145.192989,30.1620197 145.192989,32.0742144 C145.192989,33.9201007 144.064549,34.8956127 142.639812,34.8956127 C141.865018,34.8956127 141.387716,34.7331269 141.148168,34.6178337 L141.148168,36.8364814 L140.077077,36.8842713 L140.077077,29.5216346 L141.014357,29.5216346 L141.014357,29.5216346 Z" id="Fill-41" sketch:type="MSShapeGroup"></path>
            <path d="M149.321442,32.3328775 C149.321442,32.3328775 148.900891,32.3233195 148.681057,32.3233195 C147.629081,32.3233195 147.045446,32.5718271 147.045446,33.2892735 C147.045446,33.7384989 147.361457,34.0252385 147.820241,34.0252385 C148.517974,34.0252385 149.053818,33.5658578 149.331,33.0885558 L149.321442,32.3328775 L149.321442,32.3328775 Z M149.550834,34.8287068 C149.483928,34.5604858 149.445696,34.2259562 149.417022,34.0156805 C148.805311,34.6178337 148.365046,34.9141313 147.638639,34.9141313 C146.500641,34.9141313 146.013184,34.1494923 146.013184,33.3657374 C146.013184,32.1990656 146.739591,31.5204486 148.565764,31.5204486 C148.842945,31.5204486 149.082492,31.5294092 149.340558,31.5294092 C149.302326,31.0323939 149.158359,30.3537768 148.097422,30.3537768 C147.189414,30.3537768 146.921193,30.6883063 146.567547,30.9846039 L146.471967,29.7414683 C146.471967,29.7414683 147.141026,29.4260547 148.164328,29.4260547 C149.980943,29.4260547 150.353705,30.1906937 150.353705,31.8543807 L150.353705,32.7821028 C150.353705,34.1781663 150.554422,34.6847396 150.554422,34.6847396 L149.550834,34.8287068 L149.550834,34.8287068 Z" id="Fill-42" sketch:type="MSShapeGroup"></path>
            <path d="M155.572365,34.7809168 C155.572365,34.7809168 155.581923,33.681151 155.581923,32.3233195 C155.581923,30.936814 155.371648,30.4015667 154.568179,30.4015667 C153.975584,30.4015667 153.402105,30.8985821 153.038902,31.4917746 L153.038902,34.7809168 L151.96781,34.7809168 L151.96781,29.5216346 L152.904492,29.5216346 L153.000072,30.4971466 C153.593265,29.5980985 154.195418,29.4164967 154.893748,29.4164967 C156.30833,29.4164967 156.653015,30.2964289 156.653015,32.2946455 C156.643457,32.2946455 156.643457,34.7809168 156.643457,34.7809168 L155.572365,34.7809168" id="Fill-43" sketch:type="MSShapeGroup"></path>
            <path d="M157.291608,29.5216346 L158.495915,29.5216346 L159.997116,33.7958468 C160.504287,32.3615514 160.752794,31.4726586 161.326274,29.5216346 L162.445155,29.5216346 C161.756383,31.6638184 161.268926,33.0598818 160.761755,34.388442 C160.092696,36.128593 159.500101,36.9231007 158.323871,36.9231007 C158.008457,36.9231007 157.740834,36.8938293 157.472613,36.8173654 L157.405707,35.6602516 C157.587906,35.8042188 157.998899,35.9852232 158.371661,35.9852232 C158.840002,35.9852232 159.136897,35.679965 159.433195,35.0485405 L157.291608,29.5216346" id="Fill-44" sketch:type="MSShapeGroup"></path>
        </g>
    </g>
</svg>