<?xml version="1.0" encoding="UTF-8" standalone="no"?>
<svg width="44px" height="51px" viewBox="0 0 44 51" version="1.1" xmlns="http://www.w3.org/2000/svg" xmlns:xlink="http://www.w3.org/1999/xlink" xmlns:sketch="http://www.bohemiancoding.com/sketch/ns">
    <!-- Generator: Sketch 3.2.2 (9983) - http://www.bohemiancoding.com/sketch -->
    <title>n-1</title>
    <desc>Created with Sketch.</desc>
    <defs></defs>
    <g id="Page-1" stroke="none" stroke-width="1" fill="none" fill-rule="evenodd" sketch:type="MSPage">
        <path d="M0.72972973,50.7018658 L2.60024376,50.7018658 L2.60024376,1.06965927 L0.72972973,1.06965927 L0.72972973,50.7018658 Z M42.2779614,5.44602426 C42.0458062,5.50440154 41.7778476,5.56959917 41.4779359,5.63991394 C40.619271,5.84122935 39.67864,6.04268712 38.6870223,6.23067515 C36.9048506,6.56853415 35.1602667,6.82451024 33.53113,6.96562269 C28.3205087,7.41695595 25.3619055,6.61222718 25.3619055,4.59123771 C25.3619055,2.50207186 23.9264042,1.27631966 21.5620825,0.868767074 C19.7764523,0.560967068 17.4192054,0.690128454 14.6066383,1.16370298 C13.0975387,1.41780221 11.5013124,1.76453599 9.8614781,2.18075413 C8.59701318,2.50169707 7.37876734,2.84537801 6.25062823,3.18918962 C5.85529956,3.30966996 5.49918889,3.42165613 5.18781891,3.52232188 C4.99971281,3.58313648 4.86746834,3.62695735 4.79662055,3.6509574 C4.41472448,3.78032665 4.15713494,4.14351005 4.15713494,4.55258778 L4.15713494,30.6748684 C4.15713494,31.3194098 4.77509253,31.7770216 5.37887077,31.579592 C5.44020006,31.5595379 5.56137226,31.5208003 5.73699532,31.4660521 C6.031843,31.3741373 6.37040669,31.2715397 6.74728261,31.1609331 C7.82549262,30.8444969 8.99257996,30.5279283 10.2050384,30.2326152 C11.8333201,29.8360218 13.4157836,29.5093059 14.902006,29.2764952 C20.3749202,28.4191852 23.4913914,28.9927488 23.4913914,30.9397155 C23.4913914,34.6928635 27.427801,35.7153472 33.7011847,35.0947038 C35.3575973,34.9308303 37.1171739,34.6533422 38.913519,34.2942106 C39.9615544,34.0846837 40.9577194,33.8602504 41.870183,33.6356728 C42.1901511,33.5569215 42.477089,33.4836965 42.7269939,33.4178414 C42.878261,33.3779793 42.9844295,33.3491876 43.0414877,33.3333098 C43.4479205,33.2202099 43.7297297,32.8448721 43.7297297,32.4166495 L43.7297297,6.29373524 C43.7297297,5.67111961 43.1504333,5.21666554 42.557702,5.3742876 C42.5104652,5.38684905 42.4159376,5.41132906 42.2779614,5.44602426 Z M41.8592157,6.29373524 L41.8592157,32.4166495 L42.5474577,31.4999892 C42.4983899,31.5136436 42.4003732,31.5402246 42.2574628,31.5778845 C42.0170718,31.6412325 41.7398554,31.7119767 41.4298772,31.7882692 C40.5424944,32.0066738 39.5724481,32.2252227 38.5524422,32.4291458 C36.8115369,32.7771937 35.1101002,33.045513 33.5199365,33.2028324 C28.31343,33.7179266 25.3619055,32.9512671 25.3619055,30.9397155 C25.3619055,28.8556188 23.9325751,27.618648 21.5723427,27.1842645 C19.7871244,26.8557083 17.4297156,26.9572728 14.6170344,27.397868 C13.0756529,27.6393192 11.4440972,27.9761707 9.76905666,28.3841528 C8.5269933,28.6866767 7.33261586,29.0106476 6.22828106,29.334751 C5.84126629,29.4483332 5.49286792,29.5539111 5.18841502,29.6488202 C5.00445773,29.7061665 4.87517683,29.7474964 4.80591313,29.7701449 L6.02764896,30.6748684 L6.02764896,4.55258778 L5.38816335,5.45421816 C5.45105457,5.43291344 5.57516509,5.39178786 5.75490691,5.33367742 C6.0566168,5.23613478 6.40283285,5.12726017 6.78795473,5.00989045 C7.88967433,4.67413045 9.08030602,4.33823977 10.3147532,4.02491586 C11.9088845,3.62029791 13.4571176,3.28398928 14.9124021,3.03895132 C20.3812351,2.11811994 23.4913914,2.6542366 23.4913914,4.59123771 C23.4913914,8.33383914 27.4207224,9.40260214 33.6899912,8.85957103 C35.3870829,8.71257245 37.1911415,8.44786986 39.0300578,8.09925341 C40.0490344,7.90607874 41.0152199,7.69914789 41.8984434,7.49207468 C42.2081928,7.41945344 42.4857319,7.35192477 42.7272675,7.2911887 C42.8735059,7.2544159 42.9760983,7.22784733 43.0312434,7.21318287 L41.8592157,6.29373524 Z" id="n-1" fill="#0082DC" sketch:type="MSShapeGroup"></path>
    </g>
</svg>