<?xml version="1.0" encoding="UTF-8" standalone="no"?>
<svg width="58px" height="51px" viewBox="0 0 58 51" version="1.1" xmlns="http://www.w3.org/2000/svg" xmlns:xlink="http://www.w3.org/1999/xlink" xmlns:sketch="http://www.bohemiancoding.com/sketch/ns">
    <!-- Generator: Sketch 3.2.2 (9983) - http://www.bohemiancoding.com/sketch -->
    <title>n-2</title>
    <desc>Created with Sketch.</desc>
    <defs></defs>
    <g id="Page-1" stroke="none" stroke-width="1" fill="none" fill-rule="evenodd" sketch:type="MSPage">
        <path d="M56.1310811,41.4380448 L1.13108108,41.4380448 L56.1310811,41.4380448 Z M1.13108108,49.9282165 L9.87967657,49.9282165 L9.87967657,45.5715274 L1.13108108,45.5715274 L1.13108108,49.9282165 Z M47.3824856,49.9297297 L56.1310811,49.9297297 L56.1310811,45.3551305 L47.3824856,45.3551305 L47.3824856,49.9297297 Z M23.6332132,49.9297297 L33.6319272,49.9297297 L33.6319272,45.5737973 L23.6332132,45.5737973 L23.6332132,49.9297297 Z M7.37943966,15.030819 L7.37943966,1.92972973 L42.3790335,1.92972973 L42.3790335,7.40699135 M16.5226526,37.5050698 L1.13108108,37.508853 L1.13108108,19.7181564 L16.5226526,19.7181564 L16.5226526,37.5050698 Z M21.1314872,37.5103662 L56.1310811,37.5103662 L56.1310811,12.0950854 L21.1314872,12.0950854 L21.1314872,37.5103662 Z" id="n-2" stroke="#0082DC" stroke-width="2" stroke-linecap="round" stroke-linejoin="round" sketch:type="MSShapeGroup"></path>
    </g>
</svg>