<?xml version="1.0" encoding="UTF-8" standalone="no"?>
<svg width="70px" height="63px" viewBox="0 0 70 63" version="1.1" xmlns="http://www.w3.org/2000/svg" xmlns:xlink="http://www.w3.org/1999/xlink" xmlns:sketch="http://www.bohemiancoding.com/sketch/ns">
    <!-- Generator: Sketch 3.2.2 (9983) - http://www.bohemiancoding.com/sketch -->
    <title>n-3</title>
    <desc>Created with Sketch.</desc>
    <defs></defs>
    <g id="Page-1" stroke="none" stroke-width="1" fill="none" fill-rule="evenodd" sketch:type="MSPage">
        <g id="n-3" sketch:type="MSLayerGroup" fill="#0082DC">
            <path d="M68.5161386,37.3006303 C67.812396,37.3006303 67.242,37.8780134 67.242,38.5903764 L67.242,54.349637 C67.242,57.6779733 64.5667525,60.3859911 61.2784158,60.3859911 L8.54914851,60.3859911 C5.2609505,60.3859911 2.58570297,57.6779733 2.58570297,54.349637 L2.58570297,38.5903764 C2.58570297,37.8780134 2.01530693,37.3006303 1.31142574,37.3006303 C0.607683168,37.3006303 0.0372871287,37.8780134 0.0372871287,38.5903764 L0.0372871287,54.349637 C0.0372871287,59.1004543 3.85568317,62.9656236 8.54914851,62.9656236 L61.2784158,62.9656236 C65.9718812,62.9656236 69.7902772,59.1004543 69.7902772,54.349637 L69.7902772,38.5903764 C69.7902772,37.8780134 69.2198812,37.3006303 68.5161386,37.3006303" id="Fill-1" sketch:type="MSShapeGroup"></path>
            <path d="M0.890316832,34.752147 C1.56051485,34.9896949 17.0050099,40.4206036 28.3390495,40.730833 L28.3390495,48.0277483 C28.3390495,49.7252405 29.7032871,51.1059087 31.380099,51.1059087 L38.4474653,51.1059087 C40.1244158,51.1059087 41.4886535,49.7252405 41.4886535,48.0277483 L41.4886535,40.7563697 C51.3076436,40.6765323 58.162099,39.2140624 69.1480792,34.9122428 C69.6452871,34.7176303 69.970198,34.2301871 69.9627129,33.6906882 L69.7902772,21.5381425 C69.7575644,19.2323987 68.8671089,17.0745434 67.2828911,15.4620802 C65.6853663,13.8360067 63.5529307,12.9405367 61.2784158,12.9405367 L48.8666535,12.9405367 C48.8595842,12.2408018 48.8512673,11.7505523 48.8414257,11.4530913 C48.836297,11.2970646 48.8310297,11.1392138 48.8055248,10.9826258 C48.8051089,10.716735 48.8139802,9.93295323 48.8279802,8.75489532 L48.8279802,8.73946102 C48.8279802,5.75166147 47.3614455,3.38558352 44.5866733,1.89701559 C42.2826337,0.661008909 39.1302772,0.0342360802 35.2170693,0.0342360802 C31.3247921,0.0342360802 28.010396,0.674057906 25.6323366,1.88438753 C22.6849901,3.38446102 21.1271089,5.75488864 21.1272475,8.73960134 C21.1272475,8.74577506 21.1272475,8.75208909 21.1273861,8.75840312 C21.1501188,10.3287728 21.161901,10.8169176 21.1663366,11.0007261 L21.1674455,11.0503964 C21.1621782,11.1546481 21.1509505,11.4393408 21.1377822,12.9405367 L8.54914851,12.9405367 C3.85568317,12.9405367 0.0372871287,16.805706 0.0372871287,21.5566637 L0.0372871287,33.5348018 C0.0372871287,34.0827194 0.379386139,34.5710045 0.890316832,34.752147 L0.890316832,34.752147 Z M38.9402376,48.0277483 C38.9402376,48.3026192 38.7191485,48.5264165 38.4474653,48.5264165 L31.380099,48.5264165 C31.1085545,48.5264165 30.8874653,48.3026192 30.8874653,48.0277483 L30.8874653,37.1735078 C30.8874653,36.8984967 31.1085545,36.6746993 31.380099,36.6746993 L38.4474653,36.6746993 C38.7191485,36.6746993 38.9402376,36.8984967 38.9402376,37.1735078 L38.9402376,48.0277483 L38.9402376,48.0277483 Z M23.7140594,10.9380067 C23.7097624,10.7579866 23.6982574,10.2805056 23.6756634,8.73048107 C23.6785743,6.73524722 24.6932277,5.24976615 26.7771485,4.18914922 C28.8017426,3.15869933 31.7202574,2.61400891 35.2170693,2.61400891 C38.6606535,2.61400891 41.4879604,3.15420935 43.3932079,4.17638085 C45.3329703,5.2170735 46.2770693,6.70746548 46.2794257,8.73216481 C46.2654257,9.93842539 46.2587723,10.5427483 46.2573861,10.8469443 C46.2565545,11.0324365 46.2555842,11.220735 46.2892673,11.4066481 C46.296198,11.5426102 46.3074257,11.9176637 46.3179604,12.9405367 L23.6864752,12.9405367 C23.6952079,11.9586347 23.704495,11.3385969 23.7132277,11.1691002 C23.7164158,11.1094677 23.7182178,11.1094677 23.7140594,10.9380067 L23.7140594,10.9380067 Z M2.58584158,21.5566637 C2.58584158,18.2281871 5.2609505,15.5203096 8.54914851,15.5203096 L61.2784158,15.5203096 C64.5742376,15.5203096 67.193901,18.1799198 67.242,21.5751849 L67.4015446,32.8279109 C57.1123762,36.7988753 50.8054455,38.1023719 41.4886535,38.1768775 L41.4886535,37.1735078 C41.4886535,35.4760156 40.1244158,34.0950668 38.4474653,34.0950668 L31.380099,34.0950668 C29.7032871,34.0950668 28.3390495,35.4760156 28.3390495,37.1735078 L28.3390495,38.1497973 C23.9247525,38.0172027 18.1029703,37.0218307 11.4104158,35.2503942 C7.39033663,34.1861292 4.07843564,33.1113408 2.58584158,32.6094454 L2.58584158,21.5566637 L2.58584158,21.5566637 Z" id="Fill-2" sketch:type="MSShapeGroup"></path>
        </g>
    </g>
</svg>