<?xml version="1.0" encoding="UTF-8" standalone="no"?>
<svg width="49px" height="48px" viewBox="0 0 49 48" version="1.1" xmlns="http://www.w3.org/2000/svg" xmlns:xlink="http://www.w3.org/1999/xlink" xmlns:sketch="http://www.bohemiancoding.com/sketch/ns">
    <!-- Generator: Sketch 3.2.2 (9983) - http://www.bohemiancoding.com/sketch -->
    <title>n-4</title>
    <desc>Created with Sketch.</desc>
    <defs></defs>
    <g id="Page-1" stroke="none" stroke-width="1" fill="none" fill-rule="evenodd" sketch:type="MSPage">
        <g id="n-4" sketch:type="MSLayerGroup" transform="translate(0.401351, 0.000000)" fill="#0082DC">
            <path d="M47.3898305,48 L0.610169492,48 C0.272949153,48 0,47.7266441 0,47.3898305 L0,0.610169492 C0,0.273355932 0.272949153,0 0.610169492,0 L47.3898305,0 C47.7270508,0 48,0.273355932 48,0.610169492 L48,47.3898305 C48,47.7266441 47.7270508,48 47.3898305,48 L47.3898305,48 Z M1.22033898,46.779661 L46.779661,46.779661 L46.779661,1.22033898 L1.22033898,1.22033898 L1.22033898,46.779661 Z" id="Fill-1" sketch:type="MSShapeGroup"></path>
            <path d="M30.1317966,16.2040678 C29.352,13.4314576 28.2256271,10.4420339 24.4564068,10.4420339 C21.1204068,10.4420339 19.6470508,12.8680678 19.6470508,15.2074576 C19.6470508,18.3701695 21.7269153,19.8431186 25.1495593,21.6195254 C28.528678,23.3524068 32.6444746,25.3887458 32.6444746,30.2412203 C32.6444746,34.7902373 28.7886102,38.4296949 23.0265763,38.4296949 C21.2501695,38.4296949 19.8638644,38.0827119 18.7806102,37.779661 C17.6977627,37.3895593 17.0477288,37.0865085 16.6580339,36.8701017 C16.3114576,35.9597288 15.7480678,32.2340339 15.4881356,30.1545763 L16.744678,29.8515254 C17.4378305,32.4939661 19.3871186,36.8701017 23.8494915,36.8701017 C27.0992542,36.8701017 29.0485424,34.8337627 29.0485424,31.6706441 C29.0485424,28.4652203 26.6660339,26.948339 23.4162712,25.2154576 C20.643661,23.7425085 16.2679322,21.5764068 16.2679322,16.6808136 C16.2679322,12.5214915 19.6039322,8.96867797 25.192678,8.96867797 C27.1854915,8.96867797 29.0054237,9.44542373 30.651661,9.96528814 C30.8249492,11.5248814 31.0417627,13.2146441 31.388339,15.9437288 L30.1317966,16.2040678" id="Fill-2" sketch:type="MSShapeGroup"></path>
        </g>
    </g>
</svg>