<?xml version="1.0" encoding="UTF-8" standalone="no"?>
<svg width="59px" height="62px" viewBox="0 0 59 62" version="1.1" xmlns="http://www.w3.org/2000/svg" xmlns:xlink="http://www.w3.org/1999/xlink" xmlns:sketch="http://www.bohemiancoding.com/sketch/ns">
    <!-- Generator: Sketch 3.2.2 (9983) - http://www.bohemiancoding.com/sketch -->
    <title>n-5</title>
    <desc>Created with Sketch.</desc>
    <defs></defs>
    <g id="Page-1" stroke="none" stroke-width="1" fill="none" fill-rule="evenodd" sketch:type="MSPage">
        <g id="n-5" sketch:type="MSLayerGroup" transform="translate(-0.227703, 0.000000)" fill="#0082DC">
            <path d="M14.9862857,46.5865946 L7.17771429,29.0557838 C6.66857143,27.908973 7.17257143,26.5528649 8.30228571,26.0304865 L15.1868571,22.852973 L15.1868571,16.8092973 C15.1868571,16.0499459 15.612,15.384 16.296,15.0691892 L28.7811429,9.30918919 C29.5594286,8.94075676 30.4885714,8.93210811 31.3045714,9.31264865 L43.7828571,15.0709189 C44.4651429,15.384 44.8885714,16.0499459 44.8885714,16.8092973 L44.8885714,22.852973 L51.7714286,26.0322162 C52.9011429,26.5545946 53.4051429,27.9107027 52.8994286,29.0557838 L45.0977143,46.5658378 L43.0182857,45.6231351 L50.82,28.1130811 L42.6085714,24.3301622 L42.6085714,17.0583784 L30.3497143,11.4021622 C30.1268571,11.2966486 29.9365714,11.3018378 29.7411429,11.3952432 L17.4668571,17.0601081 L17.4668571,24.3301622 L9.252,28.1217297 L17.0657143,45.6438919 L14.9862857,46.5865946 L14.9862857,46.5865946 Z M38.652,22.4983784 L30.348,18.6652973 C30.132,18.5632432 29.9434286,18.564973 29.7291429,18.6652973 L21.4577143,22.4862703 L20.508,20.395027 L28.7777143,16.5740541 C29.1788571,16.3872432 29.6005714,16.2921081 30.0308571,16.2886486 C30.4697143,16.2886486 30.8948571,16.3855135 31.3011429,16.5757838 L39.6,20.4088649 L38.652,22.4983784 L38.652,22.4983784 Z" id="Fill-1" sketch:type="MSShapeGroup"></path>
            <path d="M26.0348571,8.51351351 L23.7548571,8.51351351 L23.7548571,4.83956757 C23.7548571,2.30724324 26.5131429,0.323243243 30.036,0.323243243 C33.5588571,0.323243243 36.3205714,2.30724324 36.3205714,4.83956757 L36.3205714,8.51178378 L34.0388571,8.51178378 L34.0388571,4.83956757 C34.0388571,3.79308108 32.3262857,2.62378378 30.036,2.62378378 C27.7457143,2.62378378 26.0348571,3.79308108 26.0348571,4.83956757 L26.0348571,8.51351351" id="Fill-2" sketch:type="MSShapeGroup"></path>
            <path d="M37.3268571,54.2804324 L37.3251429,54.2804324 C35.7891429,54.2804324 34.4142857,53.4017297 33.084,52.5541622 C32.0245714,51.8761081 30.9274286,51.1772973 30.0428571,51.1772973 C29.1582857,51.179027 28.0731429,51.8743784 27.0205714,52.5472432 C25.6885714,53.3982703 24.312,54.2804324 22.7605714,54.2804324 L22.7571429,54.2804324 C21.2142857,54.2804324 19.8222857,53.4051892 18.4782857,52.5593514 C17.4102857,51.8847568 16.3045714,51.1894054 15.4182857,51.1894054 C14.5371429,51.1894054 13.4588571,51.883027 12.4148571,52.5558919 C11.0982857,53.4034595 9.73714286,54.2804324 8.196,54.2804324 L8.19257143,54.2804324 C6.65657143,54.2804324 5.28171429,53.4017297 3.95142857,52.5524324 C2.892,51.8761081 1.79657143,51.1772973 0.912,51.1772973 L0.912,48.8767568 C2.45828571,48.8767568 3.83657143,49.7571892 5.172,50.6099459 C6.22628571,51.2845405 7.31828571,51.9798919 8.19428571,51.9798919 C9.072,51.9798919 10.1468571,51.2862703 11.1874286,50.6168649 C12.5074286,49.7675676 13.872,48.8888649 15.4182857,48.8888649 C16.9577143,48.8888649 18.3445714,49.7623784 19.6851429,50.6064865 C20.7565714,51.2828108 21.8657143,51.9798919 22.7588571,51.9798919 C23.6502857,51.9798919 24.7422857,51.2810811 25.8,50.6047568 C27.1251429,49.7571892 28.4948571,48.8802162 30.036,48.8767568 C31.5891429,48.8767568 32.9674286,49.7589189 34.3028571,50.6099459 C35.3588571,51.2845405 36.4508571,51.9798919 37.3251429,51.9798919 L37.3268571,51.9798919 C38.2011429,51.9798919 39.2777143,51.2862703 40.3182857,50.6168649 C41.6365714,49.7675676 43.0011429,48.8888649 44.5474286,48.8888649 C46.0868571,48.8888649 47.472,49.7623784 48.8142857,50.6064865 C49.8874286,51.2828108 50.9948571,51.9798919 51.8897143,51.9798919 L51.8914286,51.9798919 C52.7794286,51.9798919 53.8731429,51.2810811 54.9291429,50.6047568 C56.256,49.7554595 57.6291429,48.8767568 59.1737143,48.8767568 L59.1737143,51.1772973 C58.2908571,51.1772973 57.2022857,51.8726486 56.1497143,52.5472432 C54.8194286,53.3982703 53.4411429,54.2804324 51.8914286,54.2804324 L51.888,54.2804324 C50.3417143,54.2804324 48.9531429,53.4051892 47.6074286,52.5576216 C46.5394286,51.8847568 45.4337143,51.1894054 44.5474286,51.1894054 C43.6662857,51.1894054 42.588,51.883027 41.544,52.5558919 C40.2291429,53.4034595 38.868,54.2804324 37.3268571,54.2804324" id="Fill-3" sketch:type="MSShapeGroup"></path>
            <path d="M51.888,61.3048649 C50.34,61.3048649 48.9514286,60.4296216 47.6057143,59.5803243 C46.536,58.9074595 45.4337143,58.2103784 44.5474286,58.2103784 C43.668,58.2103784 42.5897143,58.9074595 41.544,59.5785946 C40.2308571,60.4278919 38.8697143,61.3048649 37.3285714,61.3048649 L37.3251429,61.3048649 C35.7891429,61.3031351 34.4142857,60.4261622 33.0874286,59.5768649 C32.0262857,58.9005405 30.9291429,58.2017297 30.0428571,58.2017297 C29.1582857,58.2034595 28.0714286,58.8988108 27.0188571,59.5734054 C25.6885714,60.4244324 24.312,61.3031351 22.7622857,61.3048649 L22.7554286,61.3048649 C21.2108571,61.3048649 19.8222857,60.4296216 18.4765714,59.5803243 C17.4085714,58.9074595 16.3028571,58.2103784 15.4182857,58.2103784 C14.5388571,58.2103784 13.4588571,58.9074595 12.4165714,59.5785946 C11.0982857,60.4278919 9.73885714,61.316973 8.19257143,61.3048649 C6.65657143,61.3031351 5.28342857,60.4261622 3.95314286,59.5768649 C2.89371429,58.9005405 1.79828571,58.2017297 0.912,58.2017297 L0.912,55.8994595 C2.45828571,55.8994595 3.83828571,56.7816216 5.17371429,57.6326486 C6.228,58.3072432 7.32,59.0025946 8.196,59.0043243 L8.19771429,59.0043243 C9.07371429,59.0043243 10.1468571,58.3107027 11.1874286,57.6395676 C12.5074286,56.7902703 13.8702857,55.9098378 15.4182857,55.9098378 C16.9577143,55.9098378 18.3445714,56.7850811 19.6851429,57.6291892 C20.7565714,58.3055135 21.864,59.0043243 22.7554286,59.0043243 L22.7588571,59.0043243 C23.6485714,59.0025946 24.7422857,58.3037838 25.7982857,57.6274595 C27.1234286,56.7798919 28.4948571,55.9046486 30.0342857,55.8994595 C31.5891429,55.8994595 32.9691429,56.7816216 34.3062857,57.6326486 C35.3605714,58.3072432 36.4525714,59.0025946 37.3268571,59.0043243 L37.3285714,59.0043243 C38.2028571,59.0043243 39.2777143,58.3124324 40.3182857,57.6412973 C41.6365714,56.7902703 43.0011429,55.9098378 44.5474286,55.9098378 C46.0868571,55.9098378 47.472,56.7850811 48.8142857,57.6291892 C49.8857143,58.3055135 50.9948571,59.0043243 51.888,59.0043243 L51.8897143,59.0043243 C52.7777143,59.0025946 53.8714286,58.3055135 54.9274286,57.6274595 C56.2542857,56.7781622 57.6291429,55.8994595 59.1737143,55.8994595 L59.1737143,58.2017297 C58.2908571,58.2017297 57.2005714,58.8988108 56.148,59.5734054 C54.8177143,60.4244324 53.4411429,61.3031351 51.8931429,61.3048649 L51.888,61.3048649" id="Fill-4" sketch:type="MSShapeGroup"></path>
        </g>
    </g>
</svg>