<?xml version="1.0" encoding="UTF-8" standalone="no"?>
<svg width="73px" height="63px" viewBox="0 0 73 63" version="1.1" xmlns="http://www.w3.org/2000/svg" xmlns:xlink="http://www.w3.org/1999/xlink" xmlns:sketch="http://www.bohemiancoding.com/sketch/ns">
    <!-- Generator: Sketch 3.2.2 (9983) - http://www.bohemiancoding.com/sketch -->
    <title>n-6</title>
    <desc>Created with Sketch.</desc>
    <defs></defs>
    <g id="Page-1" stroke="none" stroke-width="1" fill="none" fill-rule="evenodd" sketch:type="MSPage">
        <g id="n-6" sketch:type="MSLayerGroup" fill="#0082DC">
            <path d="M36.4862673,0.345413793 C16.507396,0.345413793 0.254415842,16.6291034 0.254415842,36.6442759 C0.254415842,46.3404828 4.02367327,55.4573793 10.8668812,62.3127931 C11.1494851,62.5952069 11.5188218,62.7371379 11.8888812,62.7371379 C12.2589406,62.7371379 12.629,62.5952069 12.9108812,62.3127931 C13.4753663,61.7472414 13.4753663,60.8304828 12.9108812,60.264931 C6.61336634,53.9562414 3.14550495,45.5671034 3.14550495,36.6442759 C3.14550495,35.4762414 3.20694059,34.3226897 3.3240297,33.185069 C3.48665347,33.2828276 3.67023762,33.3501724 3.86972277,33.3784138 L8.33284158,33.9975517 C8.39933663,34.0076897 8.46655446,34.0120345 8.5330495,34.0120345 C9.24281188,34.0120345 9.8629505,33.4870345 9.96341584,32.7614483 C10.0725545,31.9692414 9.52035644,31.2385862 8.72964356,31.1285172 L4.26652475,30.5086552 C4.07571287,30.4818621 3.88923762,30.4963448 3.71360396,30.5412414 C4.78836634,24.7351034 7.36288119,19.4532414 11.0237228,15.1142069 L14.3369109,18.1541379 C14.6144554,18.4083103 14.965,18.5343103 15.3126535,18.5343103 C15.704396,18.5343103 16.0946931,18.3757241 16.3794653,18.0636207 C16.9179307,17.4734483 16.8774554,16.5574138 16.2891188,16.0172069 L12.9802673,12.9808966 C16.6649604,9.30662069 21.2010792,6.49262069 26.2612079,4.85534483 C26.2677129,4.95093103 26.2836139,5.04724138 26.3103564,5.14282759 L27.5094356,9.50068966 C27.6857921,10.143 28.2676238,10.5644483 28.9022178,10.5644483 C29.0294257,10.5644483 29.158802,10.5477931 29.2874554,10.5115862 C30.0564851,10.3001379 30.5089406,9.50213793 30.2964455,8.73093103 L29.0973663,4.37162069 C29.0713465,4.27748276 29.0359307,4.18768966 28.9932871,4.10296552 C31.4037327,3.54610345 33.9095842,3.24196552 36.4862673,3.24196552 C39.1930495,3.24196552 41.8217723,3.57506897 44.342802,4.18768966 C44.2943762,4.27748276 44.2531782,4.37234483 44.2235446,4.47444828 L42.9572475,8.81493103 C42.7331881,9.58324138 43.1726337,10.3870345 43.939495,10.6115172 C44.0746535,10.6513448 44.2112574,10.6694483 44.3456931,10.6694483 C44.9730594,10.6694483 45.5491089,10.2588621 45.7319703,9.62741379 L46.9968218,5.28548276 C47.027901,5.18048276 47.043802,5.07548276 47.0503069,4.97048276 C51.9427525,6.61282759 56.3343168,9.35658621 59.923604,12.9157241 L56.7043762,15.8680345 C56.1167624,16.4089655 56.0755644,17.325 56.6147525,17.9144483 C56.9002475,18.2265517 57.2898218,18.3844138 57.6822871,18.3844138 C58.0299406,18.3844138 58.3790396,18.2584138 58.6558614,18.0042414 L61.8859307,15.0425172 C65.569901,19.3844483 68.1646535,24.6771724 69.2502574,30.4992414 C69.0984752,30.4695517 68.9416337,30.4572414 68.7811782,30.4796897 L64.3187822,31.1002759 C63.5280693,31.2096207 62.9758713,31.9395517 63.0842871,32.7332069 C63.1847525,33.458069 63.8041683,33.9837931 64.5146535,33.9837931 C64.5811485,33.9837931 64.6469208,33.9794483 64.7141386,33.9685862 L69.1765347,33.3487241 C69.3471089,33.3248276 69.5032277,33.2676207 69.6477822,33.1923103 C69.7641485,34.3270345 69.8248614,35.4784138 69.8248614,36.6442759 C69.8248614,45.5584138 66.363505,53.9403103 60.0782772,60.2468276 C59.5145149,60.8123793 59.5145149,61.7298621 60.0797228,62.2939655 C60.6434851,62.8602414 61.5592376,62.8587931 62.1237228,62.2925172 C68.9539208,55.4407241 72.7159505,46.3303448 72.7159505,36.6442759 C72.7159505,16.6291034 56.4636931,0.345413793 36.4862673,0.345413793" id="Fill-1" sketch:type="MSShapeGroup"></path>
            <path d="M52.1183861,20.9341034 C51.553901,20.3678276 50.6388713,20.3678276 50.0743861,20.9341034 L39.3766337,31.652069 C38.5078614,31.1408276 37.5191089,30.8620345 36.4855446,30.8620345 C34.9561584,30.8620345 33.5200099,31.4587241 32.4401881,32.5413103 C31.3589208,33.6231724 30.7640792,35.0634828 30.7640792,36.5957586 C30.7640792,38.1273103 31.3589208,39.5676207 32.4401881,40.6523793 C33.5214554,41.7327931 34.9583267,42.3294828 36.4862673,42.3294828 C38.0149307,42.3294828 39.4503564,41.7327931 40.5316238,40.650931 C42.4093861,38.771069 42.7013861,35.8991379 41.4184653,33.7021034 L52.1183861,22.9819655 C52.6835941,22.4164138 52.6835941,21.4996552 52.1183861,20.9341034 L52.1183861,20.9341034 Z M38.486901,38.6016207 C37.4179208,39.6726207 35.5524455,39.6711724 34.4841881,38.6016207 C33.9493366,38.0650345 33.6551683,37.3524828 33.6551683,36.5950345 C33.6551683,35.8375862 33.9493366,35.1235862 34.4841881,34.5891724 C35.0190396,34.0525862 35.7295248,33.7585862 36.4855446,33.7585862 C37.2422871,33.7585862 37.9542178,34.0540345 38.4876238,34.5877241 C39.591297,35.694931 39.591297,37.4951379 38.486901,38.6016207 L38.486901,38.6016207 Z" id="Fill-2" sketch:type="MSShapeGroup"></path>
        </g>
    </g>
</svg>