<?xml version="1.0" encoding="UTF-8" standalone="no"?>
<svg width="37px" height="61px" viewBox="0 0 37 61" version="1.1" xmlns="http://www.w3.org/2000/svg" xmlns:xlink="http://www.w3.org/1999/xlink" xmlns:sketch="http://www.bohemiancoding.com/sketch/ns">
    <!-- Generator: Sketch 3.2.2 (9983) - http://www.bohemiancoding.com/sketch -->
    <title>n-7</title>
    <desc>Created with Sketch.</desc>
    <defs></defs>
    <g id="Page-1" stroke="none" stroke-width="1" fill="none" fill-rule="evenodd" sketch:type="MSPage">
        <g id="n-7" sketch:type="MSLayerGroup" fill="#0082DC">
            <path d="M6.475,15.969697 L19.425,15.969697 L19.425,14.0909091 L6.475,14.0909091 L6.475,15.969697 Z" id="Fill-1" sketch:type="MSShapeGroup"></path>
            <path d="M6.475,10.3333333 L19.425,10.3333333 L19.425,8.45454545 L6.475,8.45454545 L6.475,10.3333333 Z" id="Fill-2" sketch:type="MSShapeGroup"></path>
            <path d="M6.475,21.6060606 L30.525,21.6060606 L30.525,19.7272727 L6.475,19.7272727 L6.475,21.6060606 Z" id="Fill-3" sketch:type="MSShapeGroup"></path>
            <path d="M6.475,27.2424242 L30.525,27.2424242 L30.525,25.3636364 L6.475,25.3636364 L6.475,27.2424242 Z" id="Fill-4" sketch:type="MSShapeGroup"></path>
            <path d="M6.475,32.8787879 L30.525,32.8787879 L30.525,31 L6.475,31 L6.475,32.8787879 Z" id="Fill-5" sketch:type="MSShapeGroup"></path>
            <path d="M24.975,0.939393939 L4.63055,0.939393939 C2.58445,0.939393939 0.925,2.62654545 0.925,4.71012121 L0.925,47.8940606 C0.925,49.9795152 2.57335,51.6666667 4.6213,51.6666667 L19.425,51.6666667 L19.425,61.0606061 L24.05,56.3636364 L28.675,61.0606061 L28.675,51.6666667 L32.3787,51.6666667 C34.4211,51.6666667 36.075,49.9795152 36.075,47.9278788 L36.075,14.0909091 L24.975,0.939393939 L24.975,0.939393939 Z M24.975,3.75757576 L33.67,14.0909091 L26.8176,14.0909091 C25.80935,14.0909091 24.975,13.241697 24.975,12.1952121 L24.975,3.75757576 L24.975,3.75757576 Z M26.825,56.5515152 L24.05,53.7333333 L21.275,56.5515152 L21.275,49.1547273 C22.11675,49.5605455 23.05655,49.7878788 24.05,49.7878788 C25.04345,49.7878788 25.98325,49.5605455 26.825,49.1547273 L26.825,56.5515152 L26.825,56.5515152 Z M24.05,47.9090909 C21.49515,47.9090909 19.425,45.8067273 19.425,43.2121212 C19.425,40.6175152 21.49515,38.5151515 24.05,38.5151515 C26.60485,38.5151515 28.675,40.6175152 28.675,43.2121212 C28.675,45.8067273 26.60485,47.9090909 24.05,47.9090909 L24.05,47.9090909 Z M34.225,47.9222424 C34.225,48.9518182 33.39805,49.7878788 32.375,49.7878788 L28.675,49.7878788 L28.675,47.8132727 C29.82015,46.6277576 30.525,45.0026061 30.525,43.2121212 C30.525,39.5785455 27.6279,36.6363636 24.05,36.6363636 C20.4721,36.6363636 17.575,39.5785455 17.575,43.2121212 C17.575,45.0026061 18.27985,46.6277576 19.425,47.8132727 L19.425,49.7878788 L4.625,49.7878788 C3.61675,49.7878788 2.775,48.9518182 2.775,47.9166061 L2.775,4.68945455 C2.775,3.6730303 3.6001,2.81818182 4.6176,2.81818182 L23.125,2.81818182 L23.125,12.2008485 C23.125,14.3032121 24.78075,15.969697 26.8213,15.969697 L34.225,15.969697 L34.225,47.9222424 L34.225,47.9222424 Z" id="Fill-6" sketch:type="MSShapeGroup"></path>
        </g>
    </g>
</svg>