<?xml version="1.0" encoding="UTF-8" standalone="no"?>
<svg width="44px" height="65px" viewBox="0 0 44 65" version="1.1" xmlns="http://www.w3.org/2000/svg" xmlns:xlink="http://www.w3.org/1999/xlink" xmlns:sketch="http://www.bohemiancoding.com/sketch/ns">
    <!-- Generator: Sketch 3.2.2 (9983) - http://www.bohemiancoding.com/sketch -->
    <title>n-8</title>
    <desc>Created with Sketch.</desc>
    <defs></defs>
    <g id="Page-1" stroke="none" stroke-width="1" fill="none" fill-rule="evenodd" sketch:type="MSPage">
        <g id="n-8" sketch:type="MSLayerGroup" fill="#0082DC">
            <path d="M22.0089275,43.8061386 C10.1321159,43.8061386 0.469333333,34.0548515 0.469333333,22.0684653 C0.469333333,10.0820792 10.1321159,0.330792079 22.0089275,0.330792079 C33.8857391,0.330792079 43.5485217,10.0820792 43.5485217,22.0684653 C43.5485217,34.0548515 33.8857391,43.8061386 22.0089275,43.8061386 L22.0089275,43.8061386 Z M22.0089275,2.9050495 C11.5382029,2.9050495 3.02005797,11.5017822 3.02005797,22.0684653 C3.02005797,32.6351485 11.5382029,41.2318812 22.0089275,41.2318812 C32.4796522,41.2318812 40.9977971,32.6351485 40.9977971,22.0691089 C40.9977971,11.5030693 32.4796522,2.9050495 22.0089275,2.9050495 L22.0089275,2.9050495 Z" id="Fill-1" sketch:type="MSShapeGroup"></path>
            <path d="M11.5707246,64.7483663 C11.3666667,64.7483663 11.1606957,64.6981683 10.9738551,64.5990594 C10.5561739,64.375099 10.2953623,63.9381188 10.2953623,63.4612376 L10.2953623,45.6023267 C10.2953623,44.8918317 10.8667246,44.315198 11.5707246,44.315198 C12.2747246,44.315198 12.846087,44.8918317 12.846087,45.6023267 L12.846087,61.030495 L21.2921739,55.2371287 C21.7245217,54.9404455 22.2933333,54.9404455 22.7263188,55.2371287 L31.1730435,61.030495 L31.1730435,45.6023267 C31.1730435,44.8918317 31.7444058,44.315198 32.4484058,44.315198 C33.1524058,44.315198 33.7237681,44.8918317 33.7237681,45.6023267 L33.7237681,63.4612376 C33.7237681,63.9381188 33.4635942,64.375099 33.0446377,64.5990594 C32.6288696,64.8217327 32.1231884,64.7940594 31.7316522,64.5263366 L22.0089275,57.8577228 L12.2874783,64.5263366 C12.071942,64.6730693 11.8213333,64.7483663 11.5707246,64.7483663" id="Fill-2" sketch:type="MSShapeGroup"></path>
            <path d="M22.7333333,32.4755446 C22.0293333,32.4755446 21.457971,31.8989109 21.457971,31.1884158 L21.457971,16.264802 L18.4047536,18.4477723 C17.8289275,18.8596535 17.0337391,18.7212871 16.6268986,18.1414356 C16.2194203,17.5615842 16.3552464,16.7584158 16.9304348,16.3471782 L21.9961739,12.725198 C22.3857971,12.4471782 22.8953043,12.4124257 23.3187246,12.6318812 C23.7421449,12.8532673 24.0086957,13.2934653 24.0086957,13.7748515 L24.0086957,31.1884158 C24.0086957,31.8995545 23.437971,32.4755446 22.7333333,32.4755446" id="Fill-3" sketch:type="MSShapeGroup"></path>
        </g>
    </g>
</svg>