<?xml version="1.0" encoding="UTF-8" standalone="no"?>
<svg width="60px" height="60px" viewBox="0 0 60 60" version="1.1" xmlns="http://www.w3.org/2000/svg" xmlns:xlink="http://www.w3.org/1999/xlink" xmlns:sketch="http://www.bohemiancoding.com/sketch/ns">
    <!-- Generator: Sketch 3.2.2 (9983) - http://www.bohemiancoding.com/sketch -->
    <title>n-9</title>
    <desc>Created with Sketch.</desc>
    <defs></defs>
    <g id="Page-1" stroke="none" stroke-width="1" fill="none" fill-rule="evenodd" sketch:type="MSPage">
        <path d="M30,1 C46.016,1 59,13.984 59,30 C59,46.016 46.016,59 30,59 C13.984,59 1,46.016 1,30 C1,13.984 13.984,1 30,1 L30,1 Z M51.436,10.469 C51.436,10.469 50.174,17.392 45.131,19.914 C40.088,18.653 35.043,22.436 36.305,22.436 C37.566,22.436 38.826,27.479 38.826,27.479 C40.088,28.74 42.609,27.479 42.609,27.479 C45.761,30.631 37.566,36.305 37.566,37.566 C37.566,38.827 40.716,39.457 38.826,41.348 C36.936,43.238 35.043,43.87 35.043,43.87 C35.043,50.174 28.74,50.174 27.479,50.174 C26.218,50.174 23.696,45.131 23.696,43.87 C23.696,42.609 24.958,41.348 24.958,40.087 C24.958,38.827 22.437,36.305 22.437,36.305 C22.437,31.261 18.654,32.523 14.871,32.523 C11.09,32.523 11.09,27.479 11.09,27.479 C11.09,27.479 11.09,18.653 17.393,17.392 C23.698,16.131 23.698,18.653 23.698,18.653 C26.219,21.174 31.264,18.653 33.786,18.653 C33.786,18.653 35.046,9.828 32.523,11.088 C30.003,12.349 27.743,11.374 27.481,8.567 C27.114,4.625 38.484,2.262 38.484,2.262" id="n-9" stroke="#0082DC" stroke-width="2" stroke-linecap="round" stroke-linejoin="round" sketch:type="MSShapeGroup"></path>
    </g>
</svg>