<?xml version="1.0" encoding="utf-8"?>
<!-- Generator: Adobe Illustrator 15.0.0, SVG Export Plug-In . SVG Version: 6.00 Build 0)  -->
<!DOCTYPE svg PUBLIC "-//W3C//DTD SVG 1.1//EN" "http://www.w3.org/Graphics/SVG/1.1/DTD/svg11.dtd">
<svg version="1.1" id="Layer_1" xmlns="http://www.w3.org/2000/svg" xmlns:xlink="http://www.w3.org/1999/xlink" x="0px" y="0px"
	 width="91.253px" height="89.68px" viewBox="0 0 91.253 89.68" enable-background="new 0 0 91.253 89.68" xml:space="preserve">
<g>
	<path fill="#0082DC" d="M63.111,63.417h-1.5c0,1.911-0.383,3.556-1.057,4.971c-1.012,2.116-2.686,3.751-4.879,4.894
		c-2.191,1.137-4.901,1.754-7.864,1.753c-3.954,0.002-7.444-1.099-9.88-3.06c-1.223-0.98-2.189-2.173-2.863-3.587
		c-0.673-1.415-1.056-3.06-1.057-4.971V21.889c0.001-3.814,1.542-7.256,4.042-9.758c2.502-2.5,5.94-4.041,9.758-4.042
		c3.813,0.001,7.257,1.542,9.759,4.042c2.5,2.502,4.041,5.941,4.041,9.758v41.527H63.111h1.5V21.889c0-9.278-7.52-16.799-16.8-16.8
		c-9.278,0.001-16.799,7.521-16.8,16.8v41.527c-0.001,2.313,0.472,4.424,1.348,6.261c1.312,2.76,3.518,4.876,6.207,6.267
		c2.693,1.396,5.87,2.089,9.245,2.09c4.497-0.002,8.656-1.233,11.759-3.72c1.547-1.24,2.819-2.8,3.693-4.637
		c0.876-1.837,1.35-3.945,1.348-6.261H63.111L63.111,63.417z"/>
	<path fill="#0082DC" d="M25.955,67.789h-1.5c-0.002,2.005-0.81,3.807-2.123,5.121c-1.313,1.312-3.117,2.121-5.121,2.122
		c-2.004-0.001-3.806-0.81-5.122-2.122c-1.312-1.314-2.12-3.116-2.121-5.121V50.304c0.001-2.005,0.809-3.808,2.121-5.122
		c1.315-1.312,3.117-2.12,5.122-2.121c2.004,0.001,3.807,0.81,5.121,2.121c1.313,1.314,2.121,3.117,2.123,5.122v17.484H25.955h1.5
		V50.304c-0.002-5.658-4.586-10.242-10.244-10.243c-5.655,0.001-10.24,4.585-10.241,10.243v17.484
		c0.001,5.657,4.585,10.242,10.241,10.243c5.658-0.001,10.242-4.586,10.244-10.243H25.955z"/>
	<path fill="#0082DC" d="M82.783,69.974h-1.5c0,1.4-0.562,2.656-1.479,3.576c-0.92,0.918-2.176,1.479-3.576,1.48
		c-1.402-0.001-2.656-0.562-3.576-1.48c-0.918-0.92-1.48-2.176-1.48-3.576V39.374c0-1.4,0.562-2.656,1.48-3.575
		c0.92-0.918,2.174-1.479,3.576-1.48c1.4,0.001,2.656,0.562,3.576,1.48c0.917,0.92,1.479,2.175,1.479,3.575v30.601H82.783h1.5
		V39.374c0-4.45-3.604-8.057-8.057-8.058c-4.452,0.001-8.059,3.606-8.059,8.058v30.601c0,4.45,3.604,8.058,8.059,8.059
		c4.451-0.001,8.057-3.605,8.057-8.059H82.783z"/>
	<path fill="#0082DC" d="M18.71,41.56V30.632c0.002-1.401,0.563-2.656,1.481-3.576c0.921-0.918,2.175-1.479,3.576-1.48h8.743
		c0.828,0,1.5-0.672,1.5-1.5s-0.672-1.5-1.5-1.5h-8.743c-4.451,0.001-8.058,3.605-8.058,8.059v10.929c0,0.828,0.672,1.5,1.5,1.5
		C18.041,43.061,18.71,42.389,18.71,41.56z"/>
	<path fill="#0082DC" d="M63.111,62.731h6.559c0.828,0,1.5-0.672,1.5-1.5c0-0.827-0.672-1.5-1.5-1.5h-6.559
		c-0.828,0-1.5,0.673-1.5,1.5C61.611,62.059,62.283,62.731,63.111,62.731"/>
	<path fill="#0082DC" d="M74.726,76.532v6.558c0,0.827,0.671,1.5,1.5,1.5c0.828,0,1.5-0.673,1.5-1.5v-6.558
		c0-0.828-0.672-1.5-1.5-1.5C75.397,75.032,74.726,75.704,74.726,76.532"/>
	<path fill="#0082DC" d="M46.311,76.532v6.558c0,0.827,0.671,1.5,1.5,1.5s1.5-0.673,1.5-1.5v-6.558c0-0.828-0.671-1.5-1.5-1.5
		C46.983,75.032,46.311,75.704,46.311,76.532"/>
	<path fill="#0082DC" d="M15.71,76.532v6.558c0,0.827,0.673,1.5,1.5,1.5c0.83,0,1.5-0.673,1.5-1.5v-6.558c0-0.828-0.67-1.5-1.5-1.5
		C16.382,75.032,15.71,75.704,15.71,76.532"/>
	<path fill="#0082DC" d="M6.283,84.59H84.97c0.826,0,1.5-0.673,1.5-1.5c0-0.828-0.674-1.5-1.5-1.5H6.283c-0.829,0-1.5,0.672-1.5,1.5
		C4.783,83.917,5.454,84.59,6.283,84.59"/>
</g>
</svg>
