<?xml version="1.0" encoding="utf-8"?>
<!-- Generator: Adobe Illustrator 15.0.0, SVG Export Plug-In . SVG Version: 6.00 Build 0)  -->
<!DOCTYPE svg PUBLIC "-//W3C//DTD SVG 1.1//EN" "http://www.w3.org/Graphics/SVG/1.1/DTD/svg11.dtd">
<svg version="1.1" id="Layer_1" xmlns="http://www.w3.org/2000/svg" xmlns:xlink="http://www.w3.org/1999/xlink" x="0px" y="0px"
	 width="153.07px" height="240.94px" viewBox="0 0 153.07 240.94" enable-background="new 0 0 153.07 240.94" xml:space="preserve">
<g>
	<path fill="#231F20" d="M93.99,138.84h-1.5c0,1.911-0.383,3.555-1.057,4.97c-1.01,2.117-2.685,3.751-4.879,4.893
		c-2.191,1.137-4.901,1.754-7.864,1.753c-3.954,0.002-7.444-1.098-9.88-3.059c-1.221-0.981-2.189-2.173-2.863-3.587
		c-0.673-1.415-1.056-3.059-1.057-4.97V97.312c0.001-3.815,1.542-7.256,4.042-9.758c2.502-2.5,5.942-4.041,9.758-4.042
		c3.815,0.001,7.257,1.542,9.759,4.042c2.5,2.502,4.041,5.942,4.041,9.758v41.528H93.99h1.5V97.312c0-9.279-7.52-16.799-16.8-16.8
		c-9.279,0.001-16.799,7.521-16.8,16.8v41.528c-0.001,2.314,0.472,4.423,1.348,6.26c1.312,2.76,3.518,4.876,6.207,6.266
		c2.693,1.395,5.87,2.089,9.245,2.09c4.497-0.002,8.656-1.234,11.759-3.719c1.547-1.241,2.819-2.8,3.693-4.637
		c0.876-1.837,1.35-3.945,1.348-6.26H93.99z"/>
	<path fill="#231F20" d="M56.833,143.212h-1.5c-0.001,2.005-0.809,3.806-2.122,5.121c-1.315,1.313-3.117,2.121-5.122,2.122
		c-2.004-0.001-3.806-0.809-5.121-2.122c-1.313-1.315-2.121-3.116-2.122-5.121v-17.485c0.001-2.005,0.809-3.807,2.122-5.122
		c1.315-1.312,3.117-2.12,5.121-2.121c2.005,0.001,3.806,0.809,5.122,2.121c1.313,1.315,2.121,3.117,2.122,5.122v17.485H56.833h1.5
		v-17.485c-0.001-5.658-4.585-10.242-10.243-10.243c-5.657,0.001-10.242,4.585-10.243,10.243v17.485
		c0.001,5.657,4.585,10.242,10.243,10.243c5.658-0.001,10.242-4.586,10.243-10.243H56.833z"/>
	<path fill="#231F20" d="M113.662,145.397h-1.5c-0.001,1.401-0.563,2.656-1.48,3.576c-0.92,0.918-2.175,1.48-3.576,1.481
		c-1.402-0.001-2.657-0.563-3.576-1.481c-0.918-0.92-1.48-2.175-1.481-3.576v-30.6c0.001-1.401,0.563-2.657,1.481-3.576
		c0.919-0.918,2.174-1.48,3.576-1.481c1.401,0.001,2.656,0.563,3.576,1.481c0.917,0.92,1.479,2.175,1.48,3.576v30.6H113.662h1.5
		v-30.6c-0.001-4.451-3.605-8.057-8.057-8.058c-4.452,0.001-8.057,3.607-8.058,8.058v30.6c0.001,4.45,3.605,8.057,8.058,8.058
		c4.451-0.001,8.056-3.606,8.057-8.058H113.662z"/>
	<path fill="#231F20" d="M49.59,116.983v-10.929c0.001-1.401,0.563-2.656,1.481-3.576c0.92-0.918,2.174-1.48,3.576-1.481h8.743
		c0.829,0,1.5-0.672,1.5-1.5s-0.671-1.5-1.5-1.5h-8.743c-4.451,0.001-8.056,3.606-8.057,8.058v10.929c0,0.828,0.671,1.5,1.5,1.5
		S49.59,117.812,49.59,116.983z"/>
	<path fill="#231F20" d="M93.99,138.154h6.558c0.829,0,1.5-0.672,1.5-1.5s-0.671-1.5-1.5-1.5H93.99c-0.828,0-1.5,0.672-1.5,1.5
		S93.162,138.154,93.99,138.154"/>
	<path fill="#231F20" d="M105.605,151.955v6.557c0,0.828,0.671,1.5,1.5,1.5c0.828,0,1.5-0.672,1.5-1.5v-6.557
		c0-0.828-0.672-1.5-1.5-1.5C106.276,150.455,105.605,151.127,105.605,151.955"/>
	<path fill="#231F20" d="M77.19,151.955v6.557c0,0.828,0.671,1.5,1.5,1.5c0.829,0,1.5-0.672,1.5-1.5v-6.557
		c0-0.828-0.671-1.5-1.5-1.5C77.862,150.455,77.19,151.127,77.19,151.955"/>
	<path fill="#231F20" d="M46.59,151.955v6.557c0,0.828,0.671,1.5,1.5,1.5s1.5-0.672,1.5-1.5v-6.557c0-0.828-0.671-1.5-1.5-1.5
		S46.59,151.127,46.59,151.955"/>
	<path fill="#231F20" d="M37.162,160.012h78.686c0.828,0,1.5-0.672,1.5-1.5s-0.672-1.5-1.5-1.5H37.162c-0.829,0-1.5,0.672-1.5,1.5
		S36.333,160.012,37.162,160.012"/>
</g>
</svg>
