<?xml version="1.0" encoding="utf-8"?>
<!-- Generator: Adobe Illustrator 15.0.0, SVG Export Plug-In . SVG Version: 6.00 Build 0)  -->
<!DOCTYPE svg PUBLIC "-//W3C//DTD SVG 1.1//EN" "http://www.w3.org/Graphics/SVG/1.1/DTD/svg11.dtd">
<svg version="1.1" id="Layer_1" xmlns="http://www.w3.org/2000/svg" xmlns:xlink="http://www.w3.org/1999/xlink" x="0px" y="0px"
	 width="63.464px" height="89.68px" viewBox="0 0 63.464 89.68" enable-background="new 0 0 63.464 89.68" xml:space="preserve">
<g id="Page-1_1_">
	<g id="n-8">
		<path id="Fill-1" fill="#0082DC" d="M32.415,57.923c-14.704,0-26.66-12.067-26.66-26.905c0-14.836,11.956-26.906,26.66-26.906
			c14.7,0,26.66,12.07,26.66,26.906C59.075,45.852,47.115,57.923,32.415,57.923L32.415,57.923z M32.415,7.3
			C19.454,7.3,8.91,17.939,8.91,31.017s10.543,23.72,23.504,23.72c12.96,0,23.502-10.642,23.502-23.72S45.375,7.297,32.412,7.297
			L32.415,7.3z"/>
		<path id="Fill-2" fill="#0082DC" d="M19.494,83.842c-0.251,0-0.508-0.061-0.737-0.187c-0.518-0.275-0.843-0.816-0.843-1.406
			V60.146c0-0.88,0.709-1.593,1.58-1.593c0.873,0,1.581,0.713,1.581,1.593v19.093l10.452-7.17c0.537-0.368,1.238-0.368,1.774,0
			l10.456,7.17V60.143c0-0.877,0.705-1.593,1.578-1.593c0.87,0,1.578,0.716,1.578,1.593v22.107c0,0.588-0.321,1.129-0.841,1.407
			c-0.514,0.272-1.139,0.239-1.624-0.092l-12.034-8.253l-12.034,8.253C20.115,83.747,19.803,83.842,19.494,83.842"/>
		<path id="Fill-3" fill="#0082DC" d="M33.309,43.9c-0.87,0-1.577-0.716-1.577-1.596V23.835l-3.78,2.702
			c-0.712,0.509-1.695,0.337-2.2-0.38c-0.505-0.715-0.336-1.71,0.375-2.219l6.271-4.483c0.483-0.344,1.114-0.388,1.636-0.116
			c0.523,0.272,0.855,0.817,0.855,1.415v21.553C34.889,43.186,34.181,43.9,33.309,43.9"/>
	</g>
</g>
</svg>
