<?xml version="1.0" encoding="UTF-8" standalone="no"?>
<svg width="36px" height="36px" viewBox="0 0 36 36" version="1.1" xmlns="http://www.w3.org/2000/svg" xmlns:xlink="http://www.w3.org/1999/xlink" xmlns:sketch="http://www.bohemiancoding.com/sketch/ns">
    <!-- Generator: Sketch 3.2.2 (9983) - http://www.bohemiancoding.com/sketch -->
    <title>prev</title>
    <desc>Created with Sketch.</desc>
    <defs></defs>
    <g id="Page-1" stroke="none" stroke-width="1" fill="none" fill-rule="evenodd" sketch:type="MSPage">
        <path d="M24,17.7928932 L24.0961941,17.6966991 L24.8033009,18.4038059 L24.4497475,18.7573593 L15.2573593,27.9497475 L14.9038059,28.3033009 L14.1966991,27.5961941 L14.5502525,27.2426407 L23.2928932,18.5 L23.2426407,18.4497475 L14.0502525,9.25735931 L13.6966991,8.90380592 L14.4038059,8.19669914 L14.7573593,8.55025253 L23.9497475,17.7426407 L24,17.7928932 Z M18,36 C27.9411255,36 36,27.9411255 36,18 C36,8.0588745 27.9411255,0 18,0 C8.0588745,0 2.48689958e-14,8.0588745 2.48689958e-14,18 C2.48689958e-14,27.9411255 8.0588745,36 18,36 Z" id="prev" fill="#0082DC" sketch:type="MSShapeGroup" transform="translate(18.000000, 18.000000) rotate(180.000000) translate(-18.000000, -18.000000) "></path>
    </g>
</svg>