<svg width="107" height="108" viewBox="0 0 107 108" xmlns="http://www.w3.org/2000/svg"><g id="Page-1" fill="none" fill-rule="evenodd"><g id="Landscape-Retina" transform="translate(-1140 -622)" fill="#fff"><g id="radia" transform="translate(1140 622)"><path d="M96.25 92.925C91.78 86.49 70.965 56.048 70.965 56.048c6.12-2.36 10.922-5.878 14.412-10.548 3.488-4.67 5.234-9.85 5.234-15.54 0-4.292-.834-8.213-2.496-11.755-1.666-3.543-4.082-6.603-7.246-9.18-3.168-2.576-7.005-4.562-11.515-5.958C54.33-1.586 32.945 1.09 17.32 1.027 12.198 1.007 8.556.902 3.713.23c-.762-.106-2.2-.57-3 .23-.99.99-.865 1.93-.134 3.023C2.57 6.47 3.99 8.563 5.958 11.53c2.02 3.05 5.59 3.56 8.92 3.792 4.52.313 9.04.31 13.57.222 2.67-.053 5.336-.157 8.003-.277 6.074-.276 12.23-.623 18.268.3 8.01 1.228 14.664 6.41 13.96 15.147-.437 5.418-2.493 10.398-7.05 13.495-5.76 3.91-12.784 4.07-19.488 4.07-3.84 0-4.063-.147-8.165-.568-.95-.098-1.855.126-2.185 1.05-.405 1.13-.088 1.458.707 2.618.676.985 4.136 6.18 5.18 7.705.937 1.364 2.638 1.965 4.144 2.41 9.338 2.765 14.867 8.957 20.067 16.86 2.65 4.027 5.16 8.142 7.9 12.107 1.517 2.195 3.103 4.344 4.812 6.393 3.966 4.753 9.184 6.884 15.024 8.455 4.668 1.256 9.81 1.66 13.926 1.75 4.322.095 3.69-2.654 2.05-3.894-3.735-2.825-6.25-5.77-9.35-10.24" id="Imported-Layers"/></g></g></g></svg>