<?xml version="1.0" encoding="UTF-8" standalone="no"?>
<svg width="100px" height="100px" viewBox="0 0 100 100" version="1.1" xmlns="http://www.w3.org/2000/svg" xmlns:xlink="http://www.w3.org/1999/xlink" xmlns:sketch="http://www.bohemiancoding.com/sketch/ns">
    <!-- Generator: Sketch 3.2.2 (9983) - http://www.bohemiancoding.com/sketch -->
    <title>s-1</title>
    <desc>Created with Sketch.</desc>
    <defs></defs>
    <g id="Page-1" stroke="none" stroke-width="1" fill="none" fill-rule="evenodd" sketch:type="MSPage">
        <g id="Group" sketch:type="MSLayerGroup" transform="translate(0.000000, -256.000000)" fill="#0082DC">
            <g id="s-1" transform="translate(0.000000, 256.000000)" sketch:type="MSShapeGroup">
                <path d="M49.6621622,99.3243243 C22.2783784,99.3243243 0,77.0466216 0,49.6621622 C0,22.2783784 22.2783784,0 49.6621622,0 C77.0459459,0 99.3243243,22.2783784 99.3243243,49.6621622 C99.3243243,77.0466216 77.0459459,99.3243243 49.6621622,99.3243243 L49.6621622,99.3243243 Z M49.6621622,2.02702703 C23.3959459,2.02702703 2.02702703,23.3959459 2.02702703,49.6621622 C2.02702703,75.9283784 23.3959459,97.2972973 49.6621622,97.2972973 C75.9283784,97.2972973 97.2972973,75.9283784 97.2972973,49.6621622 C97.2972973,23.3959459 75.9283784,2.02702703 49.6621622,2.02702703 L49.6621622,2.02702703 Z" id="Fill-1"></path>
                <path d="M68.5872609,76.5945 L60.3272609,59.0605 C62.4952609,57.8225 64.3272609,56.2445 65.6542609,54.3905 C65.9762609,53.9415 65.8732609,53.3165 65.4242609,52.9955 C64.9752609,52.6735 64.3502609,52.7765 64.0292609,53.2255 C62.9002609,54.8015 61.3382609,56.1635 59.4742609,57.2505 L54.6712609,47.0545 C57.8962609,45.0945 60.0582609,41.5585 60.0582609,37.5085 C60.0582609,31.6735 55.5862609,26.8905 49.8832609,26.3835 L49.8832609,22.0005 C49.8832609,20.6665 47.8832609,20.6665 47.8832609,22.0005 L47.8832609,26.3825 C42.1802609,26.8885 37.7062609,31.6725 37.7062609,37.5085 C37.7062609,41.4295 39.7302609,44.8735 42.7872609,46.8685 L38.9342609,57.5855 C36.8352609,56.3675 35.1162609,54.7495 33.9702609,52.8465 C33.6852609,52.3735 33.0702609,52.2215 32.5972609,52.5065 C32.1242609,52.7915 31.9722609,53.4055 32.2562609,53.8785 C33.6402609,56.1755 35.7272609,58.0875 38.2512609,59.4865 L32.0692609,76.6805 C31.6182609,77.9355 33.5002609,78.6125 33.9512609,77.3575 L40.0572609,60.3725 C42.5982609,61.4515 45.4762609,62.0505 48.4852609,62.0505 C52.1172609,62.0505 55.5752609,61.3055 58.5452609,59.9725 L66.7772609,77.4475 C67.3452609,78.6535 69.1552609,77.8015 68.5872609,76.5945 L68.5872609,76.5945 Z M48.4852609,60.0505 C45.7002609,60.0505 43.0512609,59.4895 40.7352609,58.4885 L44.5702609,47.8195 C45.8972609,48.3755 47.3532609,48.6835 48.8822609,48.6835 C50.2912609,48.6835 51.6342609,48.4125 52.8752609,47.9365 L57.6922609,58.1625 C54.9932609,59.3675 51.8282609,60.0505 48.4852609,60.0505 L48.4852609,60.0505 Z M39.7062609,37.5085 C39.7062609,32.4395 43.8142609,28.3325 48.8822609,28.3325 C53.9502609,28.3325 58.0582609,32.4395 58.0582609,37.5085 C58.0582609,40.9785 56.1302609,43.9975 53.2882609,45.5565 C53.0172609,45.5775 52.7592609,45.7055 52.5752609,45.9045 C51.4452609,46.4025 50.1972609,46.6835 48.8822609,46.6835 C43.8152609,46.6835 39.7062609,42.5755 39.7062609,37.5085 L39.7062609,37.5085 Z" id="Fill-15"></path>
                <path d="M54.3322609,37.5085 C54.3322609,34.4985 51.8912609,32.0585 48.8812609,32.0585 C45.8722609,32.0585 43.4312609,34.4985 43.4312609,37.5085 C43.4312609,40.5175 45.8722609,42.9595 48.8812609,42.9595 C51.8912609,42.9595 54.3322609,40.5175 54.3322609,37.5085 Z M48.8812609,40.9595 C46.9772609,40.9595 45.4312609,39.4135 45.4312609,37.5085 C45.4312609,35.6025 46.9762609,34.0585 48.8812609,34.0585 C50.7872609,34.0585 52.3322609,35.6035 52.3322609,37.5085 C52.3322609,39.4135 50.7862609,40.9595 48.8812609,40.9595 Z" id="Path"></path>
            </g>
        </g>
    </g>
</svg>