<?xml version="1.0" encoding="UTF-8" standalone="no"?>
<svg width="100px" height="100px" viewBox="0 0 100 100" version="1.1" xmlns="http://www.w3.org/2000/svg" xmlns:xlink="http://www.w3.org/1999/xlink" xmlns:sketch="http://www.bohemiancoding.com/sketch/ns">
    <!-- Generator: Sketch 3.2.2 (9983) - http://www.bohemiancoding.com/sketch -->
    <title>s-2</title>
    <desc>Created with Sketch.</desc>
    <defs></defs>
    <g id="Page-1" stroke="none" stroke-width="1" fill="none" fill-rule="evenodd" sketch:type="MSPage">
        <g id="Group" sketch:type="MSLayerGroup" transform="translate(-144.000000, -301.000000)" fill="#0082DC">
            <g id="s-2" transform="translate(144.000000, 301.000000)" sketch:type="MSShapeGroup">
                <path d="M49.7905405,99.647973 C22.4067568,99.647973 0.128378378,77.3702703 0.128378378,49.9858108 C0.128378378,22.602027 22.4067568,0.323648649 49.7905405,0.323648649 C77.1736486,0.323648649 99.4527027,22.602027 99.4527027,49.9858108 C99.4527027,77.3702703 77.1736486,99.647973 49.7905405,99.647973 L49.7905405,99.647973 Z M49.7905405,2.35067568 C23.5236486,2.35067568 2.15540541,23.7195946 2.15540541,49.9858108 C2.15540541,76.252027 23.5236486,97.6209459 49.7905405,97.6209459 C76.0567568,97.6209459 97.4256757,76.252027 97.4256757,49.9858108 C97.4256757,23.7195946 76.0567568,2.35067568 49.7905405,2.35067568 L49.7905405,2.35067568 Z" id="Fill-1"></path>
                <path d="M46.6966216,40.6135135 C46.6966216,41.1648649 46.2506757,41.6108108 45.6993243,41.6108108 C45.1486486,41.6108108 44.702027,41.1648649 44.702027,40.6135135 C44.702027,40.0628378 45.1486486,39.6168919 45.6993243,39.6168919 C46.2506757,39.6168919 46.6966216,40.0628378 46.6966216,40.6135135" id="Fill-3"></path>
                <path d="M71.6966216,40.6135135 C71.6966216,41.1648649 71.2506757,41.6108108 70.6993243,41.6108108 C70.1486486,41.6108108 69.702027,41.1648649 69.702027,40.6135135 C69.702027,40.0628378 70.1486486,39.6168919 70.6993243,39.6168919 C71.2506757,39.6168919 71.6966216,40.0628378 71.6966216,40.6135135" id="Fill-4"></path>
                <path d="M46.6966216,56.1540541 C46.6966216,56.7054054 46.2506757,57.1513514 45.6993243,57.1513514 C45.1486486,57.1513514 44.702027,56.7054054 44.702027,56.1540541 C44.702027,55.6033784 45.1486486,55.1574324 45.6993243,55.1574324 C46.2506757,55.1574324 46.6966216,55.6033784 46.6966216,56.1540541" id="Fill-5"></path>
                <path d="M71.6966216,56.1540541 C71.6966216,56.7054054 71.2506757,57.1513514 70.6993243,57.1513514 C70.1486486,57.1513514 69.702027,56.7054054 69.702027,56.1540541 C69.702027,55.6033784 70.1486486,55.1574324 70.6993243,55.1574324 C71.2506757,55.1574324 71.6966216,55.6033784 71.6966216,56.1540541" id="Fill-6"></path>
                <path d="M24.1310811,62.2108108 L24.1310811,64.2108108 L74.0425676,64.2108108 L74.0425676,62.2108108 L24.1310811,62.2108108 Z M74.0425676,62.2108108 L24.1310811,62.2108108 C22.7977477,62.2108108 22.7977477,64.2108108 24.1310811,64.2108108 L74.0425676,64.2108108 C75.3759009,64.2108108 75.3759009,62.2108108 74.0425676,62.2108108 Z M32.0702703,71.7925676 C32.622555,71.7925676 33.0702703,71.3448523 33.0702703,70.7925676 L33.0702703,66.902027 C33.0702703,66.3497423 32.622555,65.902027 32.0702703,65.902027 L24.1310811,65.902027 C23.5787963,65.902027 23.1310811,66.3497423 23.1310811,66.902027 L23.1310811,70.7925676 C23.1310811,71.3448523 23.5787963,71.7925676 24.1310811,71.7925676 L32.0702703,71.7925676 Z M25.1310811,70.7925676 L25.1310811,66.902027 L24.1310811,67.902027 L32.0702703,67.902027 L31.0702703,66.902027 L31.0702703,70.7925676 L32.0702703,69.7925676 L24.1310811,69.7925676 L25.1310811,70.7925676 Z M74.0425676,71.7939189 C74.5948523,71.7939189 75.0425676,71.3462037 75.0425676,70.7939189 L75.0425676,66.7087838 C75.0425676,66.156499 74.5948523,65.7087838 74.0425676,65.7087838 L66.1033784,65.7087838 C65.5510936,65.7087838 65.1033784,66.156499 65.1033784,66.7087838 L65.1033784,70.7939189 C65.1033784,71.3462037 65.5510936,71.7939189 66.1033784,71.7939189 L74.0425676,71.7939189 Z M67.1033784,70.7939189 L67.1033784,66.7087838 L66.1033784,67.7087838 L74.0425676,67.7087838 L73.0425676,66.7087838 L73.0425676,70.7939189 L74.0425676,69.7939189 L66.1033784,69.7939189 L67.1033784,70.7939189 Z M53.625,71.7939189 C54.1772847,71.7939189 54.625,71.3462037 54.625,70.7939189 L54.625,66.9040541 C54.625,66.3517693 54.1772847,65.9040541 53.625,65.9040541 L44.5513514,65.9040541 C43.9990666,65.9040541 43.5513514,66.3517693 43.5513514,66.9040541 L43.5513514,70.7939189 C43.5513514,71.3462037 43.9990666,71.7939189 44.5513514,71.7939189 L53.625,71.7939189 Z M45.5513514,70.7939189 L45.5513514,66.9040541 L44.5513514,67.9040541 L53.625,67.9040541 L52.625,66.9040541 L52.625,70.7939189 L53.625,69.7939189 L44.5513514,69.7939189 L45.5513514,70.7939189 Z M30.8013514,27.9297297 L29.8013514,28.9297297 L61.5628378,28.9297297 L60.5628378,27.9297297 L60.5628378,32.8209459 C60.5628378,33.3732307 61.0105531,33.8209459 61.5628378,33.8209459 C62.1151226,33.8209459 62.5628378,33.3732307 62.5628378,32.8209459 L62.5628378,27.9297297 C62.5628378,27.377445 62.1151226,26.9297297 61.5628378,26.9297297 L29.8013514,26.9297297 C29.2490666,26.9297297 28.8013514,27.377445 28.8013514,27.9297297 L28.8013514,39.6290541 C28.8013514,40.1813388 29.2490666,40.6290541 29.8013514,40.6290541 C30.3536361,40.6290541 30.8013514,40.1813388 30.8013514,39.6290541 L30.8013514,27.9297297 Z M24.1308392,58.7020271 L25.1310811,59.702027 L25.1310811,43.8148649 L24.1310811,44.8148649 L38.0986486,44.8148649 L37.0986486,43.8148649 L37.0986486,59.6986486 L38.0984068,58.6986487 L24.1308392,58.7020271 Z M39.0986486,59.6986486 L39.0986486,43.8148649 C39.0986486,43.2625801 38.6509334,42.8148649 38.0986486,42.8148649 L24.1310811,42.8148649 C23.5787963,42.8148649 23.1310811,43.2625801 23.1310811,43.8148649 L23.1310811,59.702027 C23.1310811,60.2544062 23.5789438,60.7021606 24.131323,60.702027 L38.0988905,60.6986486 C38.6510808,60.6985151 39.0986486,60.2508389 39.0986486,59.6986486 Z M74.0425676,60.7033784 C74.5948523,60.7033784 75.0425676,60.2556631 75.0425676,59.7033784 L75.0425676,37.0074324 C75.0425676,36.4551477 74.5948523,36.0074324 74.0425676,36.0074324 L42.2810811,36.0074324 C41.7287963,36.0074324 41.2810811,36.4551477 41.2810811,37.0074324 L41.2810811,59.7033784 C41.2810811,60.2556631 41.7287963,60.7033784 42.2810811,60.7033784 L74.0425676,60.7033784 Z M43.2810811,59.7033784 L43.2810811,37.0074324 L42.2810811,38.0074324 L74.0425676,38.0074324 L73.0425676,37.0074324 L73.0425676,59.7033784 L74.0425676,58.7033784 L42.2810811,58.7033784 L43.2810811,59.7033784 Z" id="Stroke-2"></path>
            </g>
        </g>
    </g>
</svg>