<?xml version="1.0" encoding="UTF-8" standalone="no"?>
<svg width="100px" height="100px" viewBox="0 0 100 100" version="1.1" xmlns="http://www.w3.org/2000/svg" xmlns:xlink="http://www.w3.org/1999/xlink" xmlns:sketch="http://www.bohemiancoding.com/sketch/ns">
    <!-- Generator: Sketch 3.2.2 (9983) - http://www.bohemiancoding.com/sketch -->
    <title>s-4</title>
    <desc>Created with Sketch.</desc>
    <defs></defs>
    <g id="Page-1" stroke="none" stroke-width="1" fill="none" fill-rule="evenodd" sketch:type="MSPage">
        <g id="Group" sketch:type="MSLayerGroup" transform="translate(-428.000000, -301.000000)" fill="#0082DC">
            <g id="s-4" transform="translate(428.000000, 301.000000)" sketch:type="MSShapeGroup">
                <path d="M66.8918919,59.4594595 L66.8918919,34.4594595 L66.8918919,34.4594595 L38.5135135,34.4594595 L38.5135135,34.4594595 L38.5135135,72.2972973 L48.6486486,72.2972973 C50,72.2972973 50,74.3243243 48.6486486,74.3243243 L26.3513514,74.3243243 C25,74.3243243 25,72.2972973 26.3513514,72.2972973 L36.4864865,72.2972973 L36.4864865,34.4594595 L26.3513514,34.4594595 C25,34.4594595 25,32.4324324 26.3513514,32.4324324 L29.9900946,32.4324324 L36.4864865,25.6246808 L36.4864865,22.972973 L38.5135135,22.972973 L38.5135135,25.3510286 L68.1153294,32.4324324 L72.2972973,32.4324324 C73.6486486,32.4324324 73.6486486,34.4594595 72.2972973,34.4594595 L68.9189189,34.4594595 L68.9189189,59.4594595 L74.6621622,59.4594595 C75.2219102,59.4594595 75.6756757,59.9132249 75.6756757,60.472973 L75.6756757,67.2297297 C75.6756757,67.7894778 75.2219102,68.2432432 74.6621622,68.2432432 L61.8243243,68.2432432 C61.2645763,68.2432432 60.8108108,67.7894778 60.8108108,67.2297297 L60.8108108,60.472973 C60.8108108,59.9132249 61.2645763,59.4594595 61.8243243,59.4594595 L66.8918919,59.4594595 L66.8918919,59.4594595 Z M38.5135135,32.4324324 L59.4028316,32.4324324 L59.4028316,32.4324324 L38.5135135,27.4352492 L38.5135135,32.4324324 Z M36.4864865,32.4324324 L32.7919561,32.4324324 L36.4864865,28.5608302 L36.4864865,32.4324324 L36.4864865,32.4324324 Z M50.1222973,99.647973 C22.7385135,99.647973 0.460135135,77.3702703 0.460135135,49.9858108 C0.460135135,22.602027 22.7385135,0.323648649 50.1222973,0.323648649 C77.5060811,0.323648649 99.7844595,22.602027 99.7844595,49.9858108 C99.7844595,77.3702703 77.5060811,99.647973 50.1222973,99.647973 Z M50.1222973,2.35067568 C23.8560811,2.35067568 2.48716216,23.7195946 2.48716216,49.9858108 C2.48716216,76.252027 23.8560811,97.6209459 50.1222973,97.6209459 C76.3885135,97.6209459 97.7574324,76.252027 97.7574324,49.9858108 C97.7574324,23.7195946 76.3885135,2.35067568 50.1222973,2.35067568 Z M73.6486489,61.4864865 L73.6486489,66.2162162 L62.8378379,66.2162162 L62.8378379,61.4864865 L73.6486489,61.4864865 Z" id="Fill-1"></path>
            </g>
        </g>
    </g>
</svg>