<?xml version="1.0" encoding="UTF-8" standalone="no"?>
<svg width="100px" height="100px" viewBox="0 0 100 100" version="1.1" xmlns="http://www.w3.org/2000/svg" xmlns:xlink="http://www.w3.org/1999/xlink" xmlns:sketch="http://www.bohemiancoding.com/sketch/ns">
    <!-- Generator: Sketch 3.2.2 (9983) - http://www.bohemiancoding.com/sketch -->
    <title>s-5</title>
    <desc>Created with Sketch.</desc>
    <defs></defs>
    <g id="Page-1" stroke="none" stroke-width="1" fill="none" fill-rule="evenodd" sketch:type="MSPage">
        <g id="Group" sketch:type="MSLayerGroup" transform="translate(-226.000000, -47.000000)" fill="#0082DC">
            <g id="s-5" transform="translate(226.000000, 47.000000)" sketch:type="MSShapeGroup">
                <path d="M50.1222973,99.647973 C22.7385135,99.647973 0.460135135,77.3702703 0.460135135,49.9858108 C0.460135135,22.602027 22.7385135,0.323648649 50.1222973,0.323648649 C77.5060811,0.323648649 99.7844595,22.602027 99.7844595,49.9858108 C99.7844595,77.3702703 77.5060811,99.647973 50.1222973,99.647973 L50.1222973,99.647973 Z M50.1222973,2.35067568 C23.8560811,2.35067568 2.48716216,23.7195946 2.48716216,49.9858108 C2.48716216,76.252027 23.8560811,97.6209459 50.1222973,97.6209459 C76.3885135,97.6209459 97.7574324,76.252027 97.7574324,49.9858108 C97.7574324,23.7195946 76.3885135,2.35067568 50.1222973,2.35067568 L50.1222973,2.35067568 Z" id="Fill-1"></path>
                <path d="M29.7297297,79.1668919 L31.7567568,79.1668919 L31.7567568,26.2391892 L29.7297297,26.2391892 L29.7297297,79.1668919 Z M74.7544594,30.9061376 C74.502879,30.968391 74.2124992,31.0379176 73.8874928,31.1129012 C72.9569801,31.3275836 71.937643,31.5424178 70.8630529,31.742888 C68.93176,32.1031802 67.0412002,32.3761527 65.2757475,32.5266348 C59.6291337,33.0079358 56.422973,32.1497744 56.422973,29.9945946 C56.422973,27.7667116 54.8673579,26.4595715 52.3052044,26.0249581 C50.3701637,25.6967207 47.815677,25.8344582 44.7677719,26.3394772 C43.1324002,26.6104482 41.4026116,26.9802046 39.6255661,27.4240589 C38.2552986,27.7663119 36.9351175,28.1328127 35.7125827,28.4994528 C35.2841754,28.6279329 34.8982676,28.7473547 34.5608441,28.8547045 C34.3569985,28.9195571 34.2136886,28.9662876 34.1369127,28.9918812 C33.723062,29.1298404 33.4439189,29.5171386 33.4439189,29.9533784 L33.4439189,57.8101351 C33.4439189,58.4974729 34.1135834,58.9854694 34.767882,58.7749308 C34.834343,58.7535452 34.9656541,58.7122355 35.1559722,58.6538521 C35.4754909,58.5558342 35.8423835,58.4464244 36.2507941,58.3284737 C37.419222,57.9910266 38.683964,57.6534384 39.9978733,57.338517 C41.7623995,56.9155905 43.4772738,56.5671812 45.0878541,56.3189122 C51.0187077,55.4046783 54.3959459,56.0163255 54.3959459,58.0925676 C54.3959459,62.0949184 58.6617298,63.1852933 65.4600313,62.5234402 C67.2550422,62.3486858 69.1618492,62.052773 71.1085013,61.6697956 C72.2442298,61.4463565 73.3237478,61.2070211 74.3125606,60.967532 C74.6593017,60.8835518 74.9702488,60.8054647 75.2410641,60.7352369 C75.4049883,60.6927281 75.5200404,60.6620246 75.5818729,60.6450925 C76.0223135,60.5244831 76.3277027,60.1242234 76.3277027,59.6675676 L76.3277027,31.8101351 C76.3277027,31.1461789 75.6999343,30.6615498 75.057607,30.8296377 C75.0064177,30.8430332 74.9039806,30.8691387 74.7544594,30.9061376 Z M74.3006757,31.8101351 L74.3006757,59.6675676 L75.0465055,58.6900426 C74.993332,58.7046035 74.8871139,58.7329495 74.7322457,58.7731099 C74.4717402,58.8406641 74.171328,58.9161056 73.8354128,58.9974638 C72.8737793,59.2303702 71.8225656,59.4634303 70.7172119,59.6808936 C68.8306385,60.0520513 66.9868361,60.3381866 65.2636174,60.5059517 C59.6214628,61.0552473 56.422973,60.2376829 56.422973,58.0925676 C56.422973,55.8700904 54.8740452,54.5509867 52.3163231,54.0877609 C50.3817289,53.7373891 47.8270668,53.8456973 44.7790378,54.3155473 C43.1086831,54.5730304 41.3406089,54.9322483 39.5254114,55.3673198 C38.1794199,55.6899307 36.8851044,56.0354128 35.6883657,56.3810361 C35.2689679,56.50216 34.8914177,56.614748 34.5614901,56.715959 C34.3621404,56.777113 34.2220421,56.8211871 34.1469828,56.8453395 L35.4709459,57.8101351 L35.4709459,29.9533784 L34.7779522,30.9148755 C34.8461057,30.8921562 34.980601,30.8482999 35.1753825,30.7863311 C35.5023376,30.6823118 35.8775229,30.5662081 36.2948694,30.4410452 C37.488774,30.0829913 38.7790304,29.724798 40.1167684,29.3906699 C41.8442868,28.959186 43.5220663,28.600547 45.09912,28.339239 C51.0255511,27.3572659 54.3959459,27.9289798 54.3959459,29.9945946 C54.3959459,33.9856986 58.6540589,35.1254256 65.4479012,34.5463382 C67.286995,34.3895791 69.2420061,34.1073007 71.2347914,33.7355367 C72.3390297,33.5295356 73.3860595,33.3088649 74.3431857,33.0880423 C74.678853,33.0105992 74.9796148,32.9385867 75.2413607,32.8738179 C75.3998354,32.8346034 75.5110121,32.8062707 75.5707714,32.7906326 L74.3006757,31.8101351 Z" id="Stroke-2"></path>
            </g>
        </g>
    </g>
</svg>