<?xml version="1.0" encoding="utf-8"?>
<!-- Generator: Adobe Illustrator 15.0.0, SVG Export Plug-In . SVG Version: 6.00 Build 0)  -->
<!DOCTYPE svg PUBLIC "-//W3C//DTD SVG 1.1//EN" "http://www.w3.org/Graphics/SVG/1.1/DTD/svg11.dtd">
<svg version="1.1" id="Layer_1" xmlns="http://www.w3.org/2000/svg" xmlns:xlink="http://www.w3.org/1999/xlink" x="0px" y="0px"
	 width="58.842px" height="89.68px" viewBox="0 0 58.842 89.68" enable-background="new 0 0 58.842 89.68" xml:space="preserve">
<g>
	<g>
		<path fill="#0082DC" d="M6.943,83.577c-0.725,0-1.311-0.587-1.311-1.31V16.795c0-0.725,0.586-1.311,1.311-1.311
			c0.724,0,1.31,0.586,1.31,1.311v65.473C8.251,82.99,7.666,83.577,6.943,83.577z"/>
	</g>
	<g>
		<path fill="#0082DC" d="M26.148,80.959c-0.725,0-1.311-0.586-1.311-1.311V16.795c0-0.725,0.586-1.311,1.311-1.311
			c0.724,0,1.309,0.586,1.309,1.311v62.854C27.457,80.373,26.872,80.959,26.148,80.959z"/>
	</g>
	<g>
		<path fill="#0082DC" d="M25.711,27.27h-7.856c-0.725,0-1.311-0.585-1.311-1.309c0-0.725,0.586-1.311,1.311-1.311h7.856
			c0.724,0,1.31,0.585,1.31,1.311C27.021,26.684,26.435,27.27,25.711,27.27z"/>
	</g>
	<g>
		<path fill="#0082DC" d="M15.235,84.014H7.378c-0.724,0-1.31-0.587-1.31-1.31c0-0.724,0.585-1.311,1.31-1.311h7.856
			c0.724,0,1.31,0.587,1.31,1.311C16.544,83.427,15.959,84.014,15.235,84.014z"/>
	</g>
	<g>
		<path fill="#0082DC" d="M25.711,38.618h-7.856c-0.725,0-1.311-0.585-1.311-1.309S17.13,36,17.855,36h7.856
			c0.724,0,1.31,0.585,1.31,1.31C27.021,38.033,26.435,38.618,25.711,38.618z"/>
	</g>
	<g>
		<path fill="#0082DC" d="M25.711,49.969h-7.856c-0.725,0-1.311-0.587-1.311-1.311c0-0.723,0.586-1.31,1.311-1.31h7.856
			c0.724,0,1.31,0.587,1.31,1.31C27.021,49.382,26.435,49.969,25.711,49.969z"/>
	</g>
	<g>
		<path fill="#0082DC" d="M25.711,61.316h-7.856c-0.725,0-1.311-0.587-1.311-1.31c0-0.724,0.586-1.311,1.311-1.311h7.856
			c0.724,0,1.31,0.587,1.31,1.311C27.021,60.729,26.435,61.316,25.711,61.316z"/>
	</g>
	<g>
		<path fill="#0082DC" d="M25.711,72.666h-7.856c-0.725,0-1.311-0.587-1.311-1.311c0-0.723,0.586-1.31,1.311-1.31h7.856
			c0.724,0,1.31,0.587,1.31,1.31C27.021,72.079,26.435,72.666,25.711,72.666z"/>
	</g>
	<g>
		<path fill="#0082DC" d="M46.226,32.944c-0.723,0-1.309-0.585-1.309-1.309V19.414c0-0.725,0.586-1.311,1.309-1.311
			c0.725,0,1.311,0.585,1.311,1.311v12.222C47.536,32.359,46.95,32.944,46.226,32.944z"/>
	</g>
	<g>
		<path fill="#0082DC" d="M51.901,27.27H39.679c-0.723,0-1.311-0.585-1.311-1.309c0-0.725,0.588-1.311,1.311-1.311h12.223
			c0.723,0,1.309,0.585,1.309,1.311C53.21,26.684,52.624,27.27,51.901,27.27z"/>
	</g>
	<g>
		<path fill="#0082DC" d="M51.901,73.539H39.679c-0.723,0-1.311-0.588-1.311-1.311s0.588-1.31,1.311-1.31h12.223
			c0.723,0,1.309,0.587,1.309,1.31S52.624,73.539,51.901,73.539z"/>
	</g>
	<g>
		<path fill="#0082DC" d="M26.148,18.104c-0.725,0-1.311-0.586-1.311-1.31c0-4.693-3.644-8.512-8.123-8.512
			c-4.587,0-8.463,3.897-8.463,8.512c0,0.724-0.586,1.31-1.311,1.31c-0.723,0-1.309-0.586-1.309-1.31
			c0-6.033,5.075-11.13,11.082-11.13c5.924,0,10.742,4.992,10.742,11.13C27.457,17.518,26.872,18.104,26.148,18.104z"/>
	</g>
</g>
</svg>
