<?xml version="1.0" encoding="utf-8"?>
<!-- Generator: Adobe Illustrator 15.0.0, SVG Export Plug-In . SVG Version: 6.00 Build 0)  -->
<!DOCTYPE svg PUBLIC "-//W3C//DTD SVG 1.1//EN" "http://www.w3.org/Graphics/SVG/1.1/DTD/svg11.dtd">
<svg version="1.1" id="Layer_1" xmlns="http://www.w3.org/2000/svg" xmlns:xlink="http://www.w3.org/1999/xlink" x="0px" y="0px"
	 width="153.07px" height="240.94px" viewBox="0 0 153.07 240.94" enable-background="new 0 0 153.07 240.94" xml:space="preserve">
<g>
	<g>
		<path d="M51.5,164.5c-0.829,0-1.5-0.672-1.5-1.5V88c0-0.829,0.671-1.5,1.5-1.5S53,87.171,53,88v75
			C53,163.828,52.329,164.5,51.5,164.5z"/>
	</g>
	<g>
		<path d="M73.5,161.5c-0.829,0-1.5-0.672-1.5-1.5V88c0-0.829,0.671-1.5,1.5-1.5S75,87.171,75,88v72
			C75,160.828,74.329,161.5,73.5,161.5z"/>
	</g>
	<g>
		<path d="M73,100h-9c-0.829,0-1.5-0.671-1.5-1.5S63.171,97,64,97h9c0.829,0,1.5,0.671,1.5,1.5S73.829,100,73,100z"/>
	</g>
	<g>
		<path d="M61,165h-9c-0.829,0-1.5-0.672-1.5-1.5s0.671-1.5,1.5-1.5h9c0.829,0,1.5,0.672,1.5,1.5S61.829,165,61,165z"/>
	</g>
	<g>
		<path d="M73,113h-9c-0.829,0-1.5-0.671-1.5-1.5s0.671-1.5,1.5-1.5h9c0.829,0,1.5,0.671,1.5,1.5S73.829,113,73,113z"/>
	</g>
	<g>
		<path d="M73,126h-9c-0.829,0-1.5-0.672-1.5-1.5s0.671-1.5,1.5-1.5h9c0.829,0,1.5,0.672,1.5,1.5S73.829,126,73,126z"/>
	</g>
	<g>
		<path d="M73,139h-9c-0.829,0-1.5-0.672-1.5-1.5s0.671-1.5,1.5-1.5h9c0.829,0,1.5,0.672,1.5,1.5S73.829,139,73,139z"/>
	</g>
	<g>
		<path d="M73,152h-9c-0.829,0-1.5-0.672-1.5-1.5s0.671-1.5,1.5-1.5h9c0.829,0,1.5,0.672,1.5,1.5S73.829,152,73,152z"/>
	</g>
	<g>
		<path d="M96.5,106.5c-0.828,0-1.5-0.671-1.5-1.5V91c0-0.829,0.672-1.5,1.5-1.5S98,90.171,98,91v14
			C98,105.829,97.328,106.5,96.5,106.5z"/>
	</g>
	<g>
		<path d="M103,100H89c-0.828,0-1.5-0.671-1.5-1.5S88.172,97,89,97h14c0.828,0,1.5,0.671,1.5,1.5S103.828,100,103,100z"/>
	</g>
	<g>
		<path d="M103,153H89c-0.828,0-1.5-0.672-1.5-1.5s0.672-1.5,1.5-1.5h14c0.828,0,1.5,0.672,1.5,1.5S103.828,153,103,153z"/>
	</g>
	<g>
		<path d="M73.5,89.5c-0.829,0-1.5-0.671-1.5-1.5c0-5.376-4.174-9.75-9.305-9.75C57.44,78.25,53,82.715,53,88
			c0,0.829-0.671,1.5-1.5,1.5S50,88.829,50,88c0-6.911,5.814-12.75,12.695-12.75C69.48,75.25,75,80.97,75,88
			C75,88.829,74.329,89.5,73.5,89.5z"/>
	</g>
</g>
</svg>
