<?xml version="1.0" encoding="UTF-8" standalone="no"?>
<svg width="59px" height="57px" viewBox="0 0 59 57" version="1.1" xmlns="http://www.w3.org/2000/svg" xmlns:xlink="http://www.w3.org/1999/xlink" xmlns:sketch="http://www.bohemiancoding.com/sketch/ns">
    <!-- Generator: Sketch 3.2.2 (9983) - http://www.bohemiancoding.com/sketch -->
    <title>w-1</title>
    <desc>Created with Sketch.</desc>
    <defs></defs>
    <g id="Page-1" stroke="none" stroke-width="1" fill="none" fill-rule="evenodd" sketch:type="MSPage">
        <path d="M46.4841819,56.2294038 C46.0482375,56.2294038 45.5838856,56.0825192 45.1031449,55.7898462 L30.6798301,47.0271923 C30.0308301,46.6325769 28.7219042,46.6325769 28.0729042,47.0271923 L13.6495893,55.7898462 C12.5799412,56.4398654 11.5266819,56.3357308 10.9508856,55.6089808 C10.6799227,55.2647885 10.4067745,54.6388846 10.6493301,53.6030192 L14.4996264,37.1333077 C14.6820893,36.3539423 14.2974967,35.1679038 13.6943856,34.6450385 L0.93071897,23.5914231 C-0.18154029,22.629 -0.0373180674,21.7082308 0.0763115622,21.3574615 C0.189941192,21.0066923 0.612774525,20.1769038 2.07575601,20.0530385 L18.8798301,18.6368077 C19.6741449,18.5699423 20.6793301,17.8377115 20.9874412,17.1 L27.5222375,1.50501923 C28.0914782,0.146884615 29.009256,0 29.3763671,0 C29.7434782,0 30.661256,0.146884615 31.2304967,1.50501923 L37.765293,17.1 C38.0734042,17.8377115 39.0785893,18.5699423 39.8739967,18.6368077 L56.6758856,20.0530385 C58.1399597,20.1769038 58.562793,21.0066923 58.6764227,21.3574615 C58.7900523,21.7082308 58.9342745,22.629 57.8220153,23.5914231 L45.0583486,34.6450385 C44.4552375,35.1679038 44.0706449,36.3539423 44.2531079,37.1333077 L48.1034042,53.6030192 C48.3448671,54.6388846 48.0728116,55.2647885 47.8018486,55.6089808 C47.4849967,56.0090769 47.0173671,56.2294038 46.4841819,56.2294038 L46.4841819,56.2294038 Z M2.67121897,22.2025962 L15.1224042,32.9865577 C16.3308116,34.0322885 16.9918301,36.0744231 16.6269042,37.6331538 L12.8716634,53.6994808 L26.9409782,45.1516731 C28.271756,44.3438077 30.4809782,44.3438077 31.811756,45.1516731 L45.8810708,53.6994808 L42.1258301,37.63425 C41.7609042,36.0744231 42.4219227,34.0322885 43.6303301,32.9865577 L56.0815153,22.2025962 L39.6904412,20.8225385 C38.0996264,20.6877115 36.3689597,19.4260385 35.7505523,17.9506154 L29.3763671,2.73819231 L23.0021819,17.9506154 C22.3837745,19.4260385 20.6531079,20.6877115 19.062293,20.8225385 L2.67121897,22.2025962 L2.67121897,22.2025962 Z" id="w-1" fill="#0082DC" sketch:type="MSShapeGroup"></path>
    </g>
</svg>