<?xml version="1.0" encoding="UTF-8" standalone="no"?>
<svg width="54px" height="44px" viewBox="0 0 54 44" version="1.1" xmlns="http://www.w3.org/2000/svg" xmlns:xlink="http://www.w3.org/1999/xlink" xmlns:sketch="http://www.bohemiancoding.com/sketch/ns">
    <!-- Generator: Sketch 3.2.2 (9983) - http://www.bohemiancoding.com/sketch -->
    <title>w-10</title>
    <desc>Created with Sketch.</desc>
    <defs></defs>
    <g id="Page-1" stroke="none" stroke-width="1" fill="none" fill-rule="evenodd" sketch:type="MSPage">
        <path d="M29.0664444,43.82 C29.0122653,43.82 28.9556235,43.8183333 28.8998026,43.815 C27.4476384,43.7183333 26.3492802,42.4458333 26.4420414,40.9791667 C26.6612205,37.595 26.7917429,34.0825 26.8401757,30.2625 C26.0660712,30.32 25.2542056,30.3183333 24.4817429,30.2608333 C24.5301757,34.0666667 24.6598772,37.5725 24.8774145,40.955 C24.9701757,42.4225 23.8718175,43.6933333 22.4262205,43.7883333 C22.3712205,43.7925 22.312116,43.7941667 22.2530115,43.7941667 C20.8739071,43.7941667 19.7238324,42.7 19.6335339,41.3016667 C19.3536085,36.9166667 19.2091309,32.3116667 19.1935339,27.2241667 L19.1935339,26.0316667 C18.9127877,27.1566667 18.6615936,28.2833333 18.5335339,29.1508333 C18.3504742,30.3925 17.1864444,31.2875 15.9329369,31.1075 C15.3230115,31.0141667 14.7894294,30.6891667 14.4249518,30.1891667 C14.0604742,29.69 13.9102503,29.0758333 14.0013697,28.4616667 C14.4668175,25.3033333 15.8902503,17.7333333 19.0441309,15.6583333 C20.3395041,14.8041667 22.6774145,14.2483333 25.2533847,14.1675 C21.5979369,13.945 18.6911459,10.855 18.6911459,7.09 C18.6911459,3.18083333 21.8245041,0 25.6761459,0 C29.5277877,0 32.660325,3.18083333 32.660325,7.09 C32.660325,10.8158333 29.815922,13.8783333 26.2154742,14.1591667 C28.9531608,14.2 31.2212951,14.7841667 32.4731608,15.7775 C35.3906235,18.0941667 36.9363697,26.0325 37.3410712,28.4091667 C37.5577877,29.6716667 36.7204742,30.8775 35.4768175,31.0983333 C35.3389071,31.1208333 35.2100265,31.1316667 35.0819668,31.1316667 C33.9663697,31.1316667 33.0165936,30.3208333 32.8245041,29.2041667 C32.68331,28.375 32.4312951,27.285 32.1554742,26.1975 L32.1554742,27.2225 C32.1554742,27.3308333 32.13331,27.42 32.1160712,27.4783333 C32.1078623,32.4333333 31.9666682,36.965 31.6851011,41.3275 C31.5931608,42.725 30.4439071,43.82 29.0664444,43.82 L29.0664444,43.82 Z M28.0862951,28.8683333 L28.0789071,29.5808333 C28.0378623,33.6941667 27.9048772,37.4491667 27.670922,41.0608333 C27.6216682,41.84 28.2045041,42.5158333 28.9720414,42.5675 L29.0664444,42.57 C29.7978623,42.57 30.4077877,41.9875 30.4570414,41.2458333 C30.7377877,36.8858333 30.8781608,32.3558333 30.8847279,27.3958333 L30.9241309,22.2316667 C30.9241309,22.1041667 30.9052503,21.9816667 30.8896533,21.8583333 L30.8535339,21.56 L30.9487578,20.9508333 L31.4765936,20.9475 C32.0167429,20.9475 32.0167429,20.9475 32.9098772,24.2241667 C33.2242802,25.3766667 33.7874145,27.5275 34.0386085,28.9908333 C34.1379369,29.5683333 34.671519,29.9666667 35.2715936,29.865 C35.8412951,29.7641667 36.2279369,29.2075 36.1277877,28.6233333 C35.3701011,24.1658333 33.7595041,18.3858333 31.7146533,16.7625 C30.6450265,15.9133333 28.4753996,15.4066667 25.910922,15.4066667 C23.3439817,15.4066667 20.9124891,15.9175 19.7148026,16.7066667 C17.4811459,18.1766667 15.9280115,23.8383333 15.2195787,28.6475 C15.1768921,28.9308333 15.2466682,29.215 15.4149518,29.4466667 C15.5832354,29.6775 15.830325,29.8283333 16.1110712,29.87 C16.6561459,29.9558333 17.2315936,29.5425 17.3161459,28.965 C17.5312205,27.5058333 18.0631608,25.4158333 18.4719668,23.9191667 C19.3938324,20.5433333 19.3938324,20.5433333 19.9151011,20.5433333 L20.6530862,20.5433333 L20.520922,21.28 C20.4552503,21.645 20.4248772,21.9475 20.4248772,22.2316667 L20.4248772,27.2225 C20.4404742,32.2816667 20.58331,36.8616667 20.8632354,41.22 C20.9108474,41.9625 21.5207727,42.5441667 22.2530115,42.5441667 L22.3424891,42.5416667 C23.1141309,42.4908333 23.6977877,41.815 23.6485339,41.0366667 C23.4162205,37.4258333 23.2832354,33.6775 23.2421906,29.5783333 L23.2356235,28.865 L23.9325638,28.9516667 C25.0440563,29.0875 26.2778623,29.0891667 27.3901757,28.9533333 L28.0862951,28.8683333 L28.0862951,28.8683333 Z M25.6761459,1.25 C22.5042056,1.25 19.9224891,3.87 19.9224891,7.09 C19.9224891,10.3108333 22.5042056,12.93 25.6761459,12.93 C28.8489071,12.93 31.4289817,10.3108333 31.4289817,7.09 C31.4289817,3.87 28.8489071,1.25 25.6761459,1.25 L25.6761459,1.25 Z M45.8627877,41.0983333 C45.8077877,41.0983333 45.750325,41.0958333 45.6928623,41.0916667 C45.0501011,41.0491667 44.4541309,40.7516667 44.0239817,40.2533333 C43.5938324,39.7558333 43.3812205,39.1175 43.4230862,38.4566667 C43.620922,35.3958333 43.73831,32.2258333 43.7818175,28.7875 C43.1152503,28.835 42.4224145,28.835 41.7550265,28.7866667 C41.7993548,32.2191667 41.915922,35.3825 42.1129369,38.435 C42.1991309,39.7991667 41.177116,40.9808333 39.8341309,41.07 C39.7791309,41.0741667 39.7257727,41.0758333 39.6732354,41.0758333 C38.3918175,41.0758333 37.3213697,40.0575 37.2376384,38.7566667 C37.0923399,36.5025 36.9897279,34.1616667 36.9240563,31.5975 L36.9174891,31.3091667 L37.1276384,31.1158333 C37.9230862,30.39 38.2900265,29.3275 38.1102503,28.2725 C37.8910712,26.985 35.622116,19.0658333 35.0261459,17.92 L34.8627877,17.605 L35.0450265,17.3008333 C35.5736832,16.4266667 36.1236832,15.8083333 36.7253996,15.4125 C37.7925638,14.7083333 39.6305488,14.2258333 41.7024891,14.0833333 C38.6848772,13.5616667 36.3798026,10.8883333 36.3798026,7.6775 C36.3798026,4.095 39.2512951,1.18 42.780325,1.18 C46.3093548,1.18 49.1808474,4.095 49.1808474,7.6775 C49.1808474,10.8508333 46.9291309,13.5 43.9624145,14.0641667 C46.1501011,14.1816667 47.950325,14.6983333 48.9895787,15.5233333 C51.6492802,17.635 53.0636832,24.865 53.4339071,27.0316667 C53.6358474,28.2091667 52.8551757,29.335 51.6936085,29.5408333 C50.4762205,29.7466667 49.4180862,28.9358333 49.2210712,27.7733333 C49.1159966,27.1616667 48.9337578,26.3716667 48.7252503,25.5508333 L48.7252503,25.9641667 C48.7252503,26.0666667 48.7063697,26.1491667 48.6891309,26.2066667 C48.6817429,30.7075 48.5536832,34.8216667 48.2975638,38.7808333 C48.2121906,40.08 47.1433847,41.0983333 45.8627877,41.0983333 L45.8627877,41.0983333 Z M45.0287578,27.3958333 L45.0213697,28.1075 C44.9852503,31.8383333 44.8637578,35.25 44.6519668,38.5383333 C44.6306235,38.8658333 44.736519,39.1825 44.9499518,39.4291667 C45.1633847,39.6758333 45.4580862,39.8241667 45.7798772,39.845 L45.8627877,39.8483333 C46.4973399,39.8483333 47.0268175,39.3433333 47.0695041,38.6983333 C47.3239817,34.7416667 47.4520414,30.6275 47.4577877,26.1208333 L47.4939071,21.43 C47.4939071,21.3158333 47.4774891,21.2058333 47.462713,21.0958333 L47.3798026,20.7066667 L47.745922,20.2058333 L48.4576384,20.2058333 L48.6620414,20.765 C48.6636832,20.7466667 48.6956981,20.855 48.7638324,21.0883333 C49.1324145,22.3408333 50.1101011,25.6683333 50.4343548,27.5591667 C50.5180862,28.0541667 50.9777877,28.3941667 51.4851011,28.3083333 C51.9743548,28.2216667 52.3059966,27.745 52.2198026,27.2458333 C51.5294294,23.205 50.0706981,17.9691667 48.2310712,16.5083333 C47.2689817,15.745 45.3111459,15.2891667 42.9937578,15.2891667 C40.6730862,15.2891667 38.4755488,15.7491667 37.3960712,16.4608333 C37.0168175,16.71 36.6392056,17.12 36.2698026,17.6791667 C37.0906981,19.69 39.1273399,26.9083333 39.3235339,28.0591667 C39.5599518,29.4433333 39.1273399,30.835 38.1627877,31.84 C38.2276384,34.28 38.3277877,36.5191667 38.4656981,38.6758333 C38.5075638,39.32 39.0386832,39.8258333 39.6732354,39.8258333 L39.7577877,39.8225 C40.4202503,39.7783333 40.9267429,39.1925 40.8848772,38.515 C40.6730862,35.2358333 40.5524145,31.8308333 40.5154742,28.105 L40.5089071,27.3925 L41.2058474,27.4783333 C42.2130862,27.6025 43.322116,27.6033333 44.3326384,27.48 L45.0287578,27.3958333 L45.0287578,27.3958333 Z M42.780325,2.43 C39.9309966,2.43 37.6111459,4.78416667 37.6111459,7.6775 C37.6111459,10.5716667 39.9309966,12.925 42.780325,12.925 C45.6304742,12.925 47.9495041,10.5716667 47.9495041,7.6775 C47.9495041,4.78416667 45.6304742,2.43 42.780325,2.43 L42.780325,2.43 Z M11.6618175,39.7366667 C11.6142056,39.7366667 11.5665936,39.735 11.5173399,39.7316667 C10.3360712,39.6525 9.43719064,38.6116667 9.51353392,37.4116667 C9.67771302,34.8758333 9.77704138,32.2491667 9.81480258,29.4033333 C9.31898168,29.4333333 8.80756377,29.4325 8.31174287,29.4016667 C8.34950407,32.23 8.44801153,34.8508333 8.61136974,37.3925 C8.68689213,38.5933333 7.78719064,39.6341667 6.60510108,39.7125 C6.55995183,39.7158333 6.51151899,39.7175 6.46308616,39.7175 C5.33435481,39.7175 4.39278765,38.8216667 4.31890705,37.6766667 C4.11122049,34.4425 4.00122049,31.0366667 3.98316078,27.2766667 C3.89286228,27.6958333 3.81733989,28.0866667 3.76890705,28.4175 C3.61704138,29.4441667 2.65413093,30.1833333 1.62144437,30.0375 C1.11331004,29.96 0.672489143,29.6908333 0.372041382,29.2766667 C0.0707727252,28.8633333 -0.0540033942,28.3566667 0.0215189939,27.8491667 C0.379429442,25.42 1.47778765,19.595 3.93308616,17.9783333 C4.73428019,17.4508333 6.04114586,17.0691667 7.54092198,16.9025 C5.26622049,16.2283333 3.59898168,14.0916667 3.59898168,11.5666667 C3.59898168,8.50333333 6.05510108,6.01 9.07353392,6.01 C12.0911459,6.01 14.5472653,8.50333333 14.5472653,11.5666667 C14.5472653,14.0616667 12.9202503,16.1775 10.6865936,16.8783333 C12.2659966,17.0341667 13.5605488,17.4516667 14.3477877,18.0766667 C14.675325,18.3366667 14.9889071,18.6925 15.3049518,19.1658333 L15.4904742,19.4416667 L15.3673399,19.7508333 C14.9314444,20.8491667 14.1474891,23.6391667 14.1401011,23.6666667 C13.7813697,25.115 13.4735339,26.6958333 13.2305488,28.345 C13.1082354,29.1691667 13.3101757,29.9908333 13.7986085,30.6608333 L14.085922,30.9841667 L14.0801757,31.2258333 C14.0243548,33.5775 13.9348772,35.6941667 13.8051757,37.6966667 C13.7304742,38.8408333 12.7889071,39.7366667 11.6618175,39.7366667 L11.6618175,39.7366667 Z M11.060922,28.015 L11.0535339,28.7258333 C11.0231608,31.8633333 10.9213697,34.7308333 10.7424145,37.4933333 C10.7095787,38.0058333 11.0945787,38.4508333 11.5994294,38.485 L11.6618175,38.4866667 C12.1420414,38.4866667 12.5442802,38.1033333 12.5762951,37.6141667 C12.7002503,35.7008333 12.7880862,33.6816667 12.8422653,31.4491667 C12.8315936,31.4341667 12.820922,31.4208333 12.8094294,31.4066667 C12.1239817,30.4658333 11.8415936,29.3133333 12.0123399,28.16 C12.2610712,26.47 12.577116,24.85 12.9506235,23.3433333 C12.9851011,23.2191667 13.6393548,20.8908333 14.1023399,19.6083333 C13.9266682,19.3766667 13.7542802,19.1925 13.5901011,19.0616667 C12.7987578,18.4341667 11.1774891,18.0591667 9.25166825,18.0591667 C7.32010108,18.0591667 5.49607123,18.4391667 4.6037578,19.0275 C2.94062347,20.1216667 1.77577273,24.3975 1.23890705,28.0341667 C1.2126384,28.2116667 1.25614586,28.3891667 1.36122049,28.5341667 C1.46711601,28.6791667 1.62226526,28.7733333 1.79711601,28.8 C1.82584735,28.8033333 1.86196676,28.8066667 1.89644437,28.8066667 C2.22151899,28.8066667 2.50226526,28.56 2.5506981,28.2333333 C2.71241452,27.1358333 3.1195787,25.5325 3.43316078,24.3808333 C4.16950407,21.6708333 4.16950407,21.6708333 4.68010108,21.6708333 L4.97808616,21.6708333 L5.34831004,22.145 L5.27771302,22.4508333 C5.23584735,22.6875 5.21368317,22.9108333 5.21368317,23.1183333 L5.21368317,26.9258333 C5.22599661,30.7966667 5.33517571,34.2866667 5.54778765,37.5958333 C5.57898168,38.085 5.98122049,38.4675 6.46308616,38.4675 C7.03032496,38.4316667 7.41450407,37.9866667 7.38248914,37.4725 C7.20435481,34.7033333 7.10338467,31.8416667 7.07219064,28.7233333 L7.06562347,28.0108333 L7.76256377,28.0966667 C8.6006981,28.2008333 9.52502646,28.2016667 10.3648026,28.0983333 L11.060922,28.015 L11.060922,28.015 Z M9.07353392,7.26 C6.73398168,7.26 4.83032496,9.19166667 4.83032496,11.5666667 C4.83032496,13.9425 6.73398168,15.8741667 9.07353392,15.8741667 C11.4130862,15.8741667 13.315922,13.9425 13.315922,11.5666667 C13.315922,9.19166667 11.4130862,7.26 9.07353392,7.26 L9.07353392,7.26 Z" id="w-10" fill="#1584D9" sketch:type="MSShapeGroup"></path>
    </g>
</svg>