<?xml version="1.0" encoding="UTF-8" standalone="no"?>
<svg width="62px" height="95px" viewBox="0 0 62 95" version="1.1" xmlns="http://www.w3.org/2000/svg" xmlns:xlink="http://www.w3.org/1999/xlink" xmlns:sketch="http://www.bohemiancoding.com/sketch/ns">
    <!-- Generator: Sketch 3.2.2 (9983) - http://www.bohemiancoding.com/sketch -->
    <title>w-2</title>
    <desc>Created with Sketch.</desc>
    <defs></defs>
    <g id="Page-1" stroke="none" stroke-width="1" fill="none" fill-rule="evenodd" sketch:type="MSPage">
        <g id="w-2" sketch:type="MSLayerGroup" fill="#0082DC">
            <path d="M61.047125,92.2370833 L47.303,62.9080952 C50.901875,60.8395833 53.94725,58.2022024 56.162375,55.0932143 C56.704625,54.3320833 56.531375,53.272381 55.773125,52.726131 C55.016,52.1821429 53.96075,52.3563095 53.419625,53.1185714 C51.5285,55.7706548 48.942125,58.043869 45.86975,59.848869 L37.88225,42.8042857 C43.247375,39.5132143 46.8485,33.5904167 46.8485,26.8227976 C46.8485,17.0694643 39.390875,9.04309524 29.90825,8.18017857 L29.90825,2.5389881 C29.90825,1.60255952 29.15225,0.842559524 28.22075,0.842559524 C27.288125,0.842559524 26.53325,1.60255952 26.53325,2.5389881 L26.53325,8.18017857 C17.048375,9.04083333 9.5885,17.0683333 9.5885,26.8227976 C9.5885,33.3766667 12.960125,39.1456548 18.045125,42.4932738 L11.650625,60.3747619 C8.17775,58.3480952 5.312375,55.6620833 3.408875,52.4841071 C2.927375,51.6822619 1.890125,51.4232738 1.0925,51.9061905 C0.29375,52.3902381 0.036125,53.4329762 0.517625,54.2359524 C2.84525,58.1196429 6.3035,61.3157143 10.480625,63.6466071 L0.204875,92.3829762 C-0.110125,93.265119 0.344375,94.2354762 1.221875,94.5521429 C1.410875,94.621131 1.60325,94.6527976 1.79225,94.6527976 C2.484125,94.6527976 3.13325,94.2219048 3.38075,93.5308929 L13.5305,65.1485119 C17.754875,66.9410714 22.53725,67.925 27.558125,67.925 C33.58025,67.925 39.339125,66.6854762 44.295875,64.4529762 L57.993875,93.6835714 C58.281875,94.2976786 58.88825,94.6561905 59.521625,94.6561905 C59.762375,94.6561905 60.007625,94.6041667 60.239375,94.4955952 C61.083125,94.0952381 61.44425,93.0852976 61.047125,92.2370833 L61.047125,92.2370833 Z M12.9635,26.8227976 C12.9635,18.7715476 19.17125,12.1645238 27.024875,11.5481548 C27.32975,11.8569048 27.75275,12.0480357 28.22075,12.0480357 C28.687625,12.0480357 29.110625,11.8569048 29.416625,11.5481548 C37.269125,12.1656548 43.4735,18.7738095 43.4735,26.8227976 C43.4735,32.6223214 40.25375,37.6788095 35.518625,40.2845238 C35.31275,40.2969643 35.10575,40.3455952 34.908875,40.4383333 C34.695125,40.5389881 34.512875,40.6803571 34.3655,40.8477381 C32.48225,41.6846429 30.4055,42.1585119 28.2185,42.1585119 C19.806875,42.1585119 12.9635,35.2789286 12.9635,26.8227976 L12.9635,26.8227976 Z M27.558125,64.5321429 C22.981625,64.5321429 18.56825,63.5911905 14.68925,61.9072024 L21.0545,44.1071429 C23.26175,45.0356548 25.6805,45.551369 28.2185,45.551369 C30.557375,45.551369 32.78825,45.0967262 34.85375,44.3016667 L42.8615,61.3914881 C38.355875,63.4091071 33.08975,64.5321429 27.558125,64.5321429 L27.558125,64.5321429 Z" id="Fill-1" sketch:type="MSShapeGroup"></path>
            <path d="M37.31525,26.8227976 C37.31525,21.779881 33.23375,17.6779167 28.217375,17.6779167 C23.201,17.6779167 19.120625,21.779881 19.120625,26.8227976 C19.120625,31.8668452 23.201,35.9699405 28.217375,35.9699405 C33.23375,35.9699405 37.31525,31.8668452 37.31525,26.8227976 L37.31525,26.8227976 Z M28.217375,32.5770833 C25.062875,32.5770833 22.495625,29.995119 22.495625,26.8227976 C22.495625,23.6504762 25.062875,21.0707738 28.217375,21.0707738 C31.373,21.0707738 33.94025,23.6504762 33.94025,26.8227976 C33.94025,29.995119 31.373,32.5770833 28.217375,32.5770833 L28.217375,32.5770833 Z" id="Fill-2" sketch:type="MSShapeGroup"></path>
        </g>
    </g>
</svg>