<?xml version="1.0" encoding="UTF-8" standalone="no"?>
<svg width="80px" height="52px" viewBox="0 0 80 52" version="1.1" xmlns="http://www.w3.org/2000/svg" xmlns:xlink="http://www.w3.org/1999/xlink" xmlns:sketch="http://www.bohemiancoding.com/sketch/ns">
    <!-- Generator: Sketch 3.2.2 (9983) - http://www.bohemiancoding.com/sketch -->
    <title>w-3</title>
    <desc>Created with Sketch.</desc>
    <defs></defs>
    <g id="Page-1" stroke="none" stroke-width="1" fill="none" fill-rule="evenodd" sketch:type="MSPage">
        <path d="M75.122963,32.7065143 L75.122963,18.0737143 C76.0074074,17.4081143 76.1718519,16.6266286 76.1718519,16.1526857 C76.1718519,15.5346286 75.9037037,14.3921143 74.1066667,13.6685714 L41.3881481,0.543771429 C39.5807407,-0.181257143 36.5896296,-0.181257143 34.7851852,0.543771429 L2.06518519,13.6685714 C0.268148148,14.3921143 0,15.5346286 0,16.1526857 C0,16.7707429 0.268148148,17.9132571 2.06666667,18.6368 L14.3822222,23.5753143 L14.3822222,41.4098286 C14.3822222,41.8198857 14.5511111,42.2121143 14.8488889,42.4929143 C21.3644444,48.6274286 29.7244444,51.6969143 38.0859259,51.6969143 C46.4474074,51.6969143 54.8074074,48.6274286 61.322963,42.4929143 C61.6207407,42.2121143 61.7896296,41.8198857 61.7896296,41.4098286 L61.7896296,23.5753143 L72.16,19.4168 L72.16,32.7065143 C69.6118519,33.3706286 67.7155556,35.6779429 67.7155556,38.4384 C67.7155556,41.7158857 70.3733333,44.3812571 73.6414815,44.3812571 C76.9096296,44.3812571 79.5674074,41.7158857 79.5674074,38.4384 C79.5674074,35.6779429 77.6711111,33.3706286 75.122963,32.7065143 L75.122963,32.7065143 Z M58.8266667,40.7590857 C47.0740741,51.3819429 29.0977778,51.3819429 17.3451852,40.7590857 L17.3451852,24.7638857 L34.7837037,31.7586286 C35.6874074,32.1211429 36.8592593,32.3202286 38.0859259,32.3202286 C39.3125926,32.3202286 40.4844444,32.1211429 41.3866667,31.7586286 L58.8266667,24.7653714 L58.8266667,40.7590857 L58.8266667,40.7590857 Z M40.2859259,28.9996571 C39.1807407,29.4424 36.9925926,29.4424 35.8844444,28.9996571 L3.85333333,16.1526857 L35.8859259,3.30422857 C36.9911111,2.86 39.1792593,2.86 40.2859259,3.30422857 L72.1718519,16.0947429 C72.1703704,16.1155429 72.16,16.1318857 72.16,16.1526857 L72.16,16.2165714 L40.2859259,28.9996571 L40.2859259,28.9996571 Z M73.6414815,41.4098286 C72.0074074,41.4098286 70.6785185,40.0771429 70.6785185,38.4384 C70.6785185,36.8011429 72.0074074,35.4669714 73.6414815,35.4669714 C75.2755556,35.4669714 76.6044444,36.8011429 76.6044444,38.4384 C76.6044444,40.0771429 75.2755556,41.4098286 73.6414815,41.4098286 L73.6414815,41.4098286 Z" id="w-3" fill="#0082DC" sketch:type="MSShapeGroup"></path>
    </g>
</svg>