<?xml version="1.0" encoding="UTF-8" standalone="no"?>
<svg width="59px" height="54px" viewBox="0 0 59 54" version="1.1" xmlns="http://www.w3.org/2000/svg" xmlns:xlink="http://www.w3.org/1999/xlink" xmlns:sketch="http://www.bohemiancoding.com/sketch/ns">
    <!-- Generator: Sketch 3.2.2 (9983) - http://www.bohemiancoding.com/sketch -->
    <title>w-4</title>
    <desc>Created with Sketch.</desc>
    <defs></defs>
    <g id="Page-1" stroke="none" stroke-width="1" fill="none" fill-rule="evenodd" sketch:type="MSPage">
        <g id="w-4" sketch:type="MSLayerGroup" fill="#0082DC">
            <path d="M57.9087273,10.0649388 C56.5570909,6.25518367 53.9683636,3.27967347 50.6214545,1.68832653 C48.3381818,0.598408163 45.7745455,0.0231428571 43.2065455,0.0231428571 C37.5109091,0.0231428571 32.2341818,2.79587755 29.7676364,7.08171429 L29.5003636,7.54126531 L29.2810909,7.16436735 C26.8145455,2.86971429 21.5378182,0.0947755102 15.8389091,0.0947755102 C13.2730909,0.0947755102 10.7094545,0.670040816 8.42727273,1.7577551 C5.07927273,3.34910204 2.49054545,6.32240816 1.13781818,10.1299592 C-0.433090909,14.5513469 -0.188727273,19.7155102 1.79127273,23.9440408 C6.34145455,33.6585306 27.864,52.7535918 28.7781818,53.5613878 C28.9690909,53.73 29.2298182,53.7994286 29.4861818,53.7994286 C29.5363636,53.7994286 29.5854545,53.7961224 29.6345455,53.7917143 C29.8767273,53.7674694 30.12,53.6374286 30.3010909,53.46 C31.5818182,52.326 52.7454545,33.4910204 57.2530909,23.8624898 C59.232,19.6416735 59.4774545,14.4841224 57.9087273,10.0649388 L57.9087273,10.0649388 Z M55.2818182,22.9202449 C51.3501818,31.3155918 33.1658182,47.9332653 29.4829091,51.247102 C25.62,47.7679592 7.66690909,31.3343265 3.76254545,23.0006939 C2.02581818,19.2901224 1.812,14.7574286 3.19090909,10.8749388 C4.34727273,7.62171429 6.53672727,5.09253061 9.35781818,3.75134694 C11.3509091,2.80138776 13.5927273,2.29885714 15.8389091,2.29885714 C20.7741818,2.29885714 25.3101818,4.64289796 27.3970909,8.27632653 L28.5556364,10.2699184 C28.7443636,10.5950204 29.0836364,10.8 29.4545455,10.8143265 C29.8167273,10.8231429 30.1810909,10.6501224 30.3927273,10.340449 C30.4090909,10.3173061 30.4789091,10.2137143 30.4930909,10.1894694 L31.6516364,8.19367347 C33.7374545,4.56906122 38.2734545,2.22722449 43.2065455,2.22722449 C45.4538182,2.22722449 47.6956364,2.7297551 49.692,3.68191837 C52.5109091,5.02310204 54.7003636,7.5544898 55.8556364,10.8088163 C57.2323636,14.689102 57.0174545,19.2162857 55.2818182,22.9202449 L55.2818182,22.9202449 Z" id="Fill-1" sketch:type="MSShapeGroup"></path>
            <path d="M16.512,6.92963265 C11.5134545,6.92963265 7.44545455,11.0380408 7.44545455,16.0886939 C7.44545455,17.5753469 7.80654545,19.0509796 8.48945455,20.356898 C8.68472727,20.7315918 9.06327273,20.9442857 9.45490909,20.9442857 C9.62618182,20.9442857 9.80072727,20.9035102 9.96327273,20.817551 C10.4967273,20.5332245 10.6996364,19.8664898 10.4181818,19.3286939 C9.90109091,18.3379592 9.62727273,17.2182857 9.62727273,16.0886939 C9.62727273,12.2535918 12.7156364,9.13371429 16.512,9.13371429 C17.1152727,9.13371429 17.6029091,8.64 17.6029091,8.03167347 C17.6029091,7.4222449 17.1152727,6.92963265 16.512,6.92963265" id="Fill-2" sketch:type="MSShapeGroup"></path>
        </g>
    </g>
</svg>