<?xml version="1.0" encoding="UTF-8" standalone="no"?>
<svg width="50px" height="50px" viewBox="0 0 50 50" version="1.1" xmlns="http://www.w3.org/2000/svg" xmlns:xlink="http://www.w3.org/1999/xlink" xmlns:sketch="http://www.bohemiancoding.com/sketch/ns">
    <!-- Generator: Sketch 3.2.2 (9983) - http://www.bohemiancoding.com/sketch -->
    <title>w-5</title>
    <desc>Created with Sketch.</desc>
    <defs></defs>
    <g id="Page-1" stroke="none" stroke-width="1" fill="none" fill-rule="evenodd" sketch:type="MSPage">
        <path d="M48.1194444,27.3584906 C49.2537037,26.4981132 50,25.1330189 50,23.5849057 C50,20.9839623 47.9231481,18.8679245 45.3703704,18.8679245 L34.5481481,18.8679245 C35.4046296,15.1669811 36.1111111,8.11792453 36.1111111,5.66037736 C36.1111111,0.982075472 33.5935185,0 31.4814815,0 C30.0981481,0 27.7777778,0.612264151 27.7777778,4.71698113 C27.7777778,10.3518868 19.6490741,22.2377358 18.0435185,24.5283019 L16.3675926,24.5283019 C16.262963,24.1509434 16.0842593,23.7990566 15.8268519,23.5066038 C15.3425926,22.9566038 14.637037,22.6415094 13.8888889,22.6415094 L2.77777778,22.6415094 C1.2462963,22.6415094 0,23.9113208 0,25.4716981 L0,47.1698113 C0,48.7301887 1.2462963,50 2.77777778,50 L11.1111111,50 C12.5898148,50 13.925,48.7820755 14.087963,47.2858491 L16.3638889,26.4150943 L18.5185185,26.4150943 C18.812963,26.4150943 19.0907407,26.2716981 19.2657407,26.0292453 C19.6888889,25.4415094 29.6296296,11.5509434 29.6296296,4.71698113 C29.6296296,2.70660377 30.1657407,1.88679245 31.4814815,1.88679245 C32.925,1.88679245 34.2592593,2.34339623 34.2592593,5.66037736 C34.2592593,8.55849057 33.3037037,16.9198113 32.4555556,19.5132075 C32.3601852,19.8009434 32.4083333,20.1169811 32.5814815,20.3632075 C32.7564815,20.609434 33.0361111,20.754717 33.3333333,20.754717 L45.3703704,20.754717 C46.9018519,20.754717 48.1481481,22.0245283 48.1481481,23.5849057 C48.1481481,25.145283 46.9018519,26.4150943 45.3703704,26.4150943 L43.5185185,26.4150943 C43.0064815,26.4150943 42.5925926,26.8377358 42.5925926,27.3584906 C42.5925926,27.8792453 43.0064815,28.3018868 43.5185185,28.3018868 L45.3703704,28.3018868 C46.9018519,28.3018868 48.1481481,29.5716981 48.1481481,31.1320755 C48.1481481,32.6924528 46.9018519,33.9622642 45.3703704,33.9622642 L44.4444444,33.9622642 C44.3351852,33.9622642 44.2324074,33.990566 44.1351852,34.0254717 C43.9314815,33.9981132 43.7305556,33.9622642 43.5185185,33.9622642 L42.5925926,33.9622642 C42.0805556,33.9622642 41.6666667,34.3849057 41.6666667,34.9056604 C41.6666667,35.4264151 42.0805556,35.8490566 42.5925926,35.8490566 L43.5185185,35.8490566 C45.05,35.8490566 46.2962963,37.1188679 46.2962963,38.6792453 C46.2962963,40.2396226 45.05,41.509434 43.5185185,41.509434 L42.5925926,41.509434 C42.4916667,41.509434 42.3990741,41.5377358 42.3074074,41.5679245 C42.2166667,41.5367925 42.1231481,41.509434 42.0222222,41.509434 L41.2037037,41.509434 C40.6916667,41.509434 40.2777778,41.9320755 40.2777778,42.4528302 C40.2777778,42.9735849 40.6916667,43.3962264 41.2037037,43.3962264 C42.4805556,43.3962264 43.5185185,44.454717 43.5185185,45.754717 C43.5185185,47.054717 42.2722222,48.1132075 40.7407407,48.1132075 L27.3148148,48.1132075 C23.8972222,48.1132075 20.6416667,47.6688679 19.8583333,47.2688679 L18.0064815,46.3264151 C17.5490741,46.0924528 16.9935185,46.2820755 16.7648148,46.7481132 C16.5351852,47.2141509 16.7212963,47.7811321 17.1787037,48.0141509 L19.0305556,48.9566038 C20.3601852,49.6339623 24.2907407,50 27.3148148,50 L40.7407407,50 C43.2935185,50 45.3703704,48.095283 45.3703704,45.754717 C45.3703704,44.8226415 45.0712963,43.9632075 44.5694444,43.2622642 C46.6157407,42.7745283 48.1481481,40.9103774 48.1481481,38.6792453 C48.1481481,37.4726415 47.687963,36.3820755 46.9537037,35.5462264 C48.725,34.8839623 50,33.1641509 50,31.1320755 C50,29.5839623 49.2537037,28.2188679 48.1194444,27.3584906 L48.1194444,27.3584906 Z M12.2472222,47.0773585 C12.187037,47.6292453 11.6564815,48.1132075 11.1111111,48.1132075 L2.77777778,48.1132075 C2.26666667,48.1132075 1.85185185,47.6896226 1.85185185,47.1698113 L1.85185185,25.4716981 C1.85185185,24.9518868 2.26666667,24.5283019 2.77777778,24.5283019 L13.8888889,24.5283019 C14.1138889,24.5283019 14.312037,24.6122642 14.4462963,24.7650943 C14.5805556,24.9179245 14.6407407,25.1273585 14.6157407,25.3556604 L12.2472222,47.0773585 L12.2472222,47.0773585 Z" id="w-5" fill="#0082DC" sketch:type="MSShapeGroup"></path>
    </g>
</svg>