<?xml version="1.0" encoding="UTF-8" standalone="no"?>
<svg width="60px" height="54px" viewBox="0 0 60 54" version="1.1" xmlns="http://www.w3.org/2000/svg" xmlns:xlink="http://www.w3.org/1999/xlink" xmlns:sketch="http://www.bohemiancoding.com/sketch/ns">
    <!-- Generator: Sketch 3.2.2 (9983) - http://www.bohemiancoding.com/sketch -->
    <title>w-7</title>
    <desc>Created with Sketch.</desc>
    <defs></defs>
    <g id="Page-1" stroke="none" stroke-width="1" fill="none" fill-rule="evenodd" sketch:type="MSPage">
        <path d="M58.7313024,21.2241793 C58.4640159,20.6651816 58.0421073,20.2145531 57.5184122,19.9097161 C57.4430436,19.848125 57.3614591,19.7935506 57.2666656,19.7553486 C56.8222241,19.5760327 56.659055,18.5570508 56.6683789,18.0510683 C56.6839188,17.5068836 56.2557942,17.0523569 55.7134512,17.0359846 C55.1687773,17.0001214 54.7165658,17.448411 54.6994719,17.994155 C54.6948099,18.1438447 54.688594,18.8946324 54.9372326,19.6914186 C54.1042932,20.001713 53.423645,20.6636224 53.1182857,21.5391515 C52.9652175,21.9780856 52.9263678,22.4349512 52.9760955,22.8840205 C52.2418346,23.0290325 51.439198,23.3541399 50.6505474,23.790735 C49.6847418,21.143877 48.3723961,19.3585148 46.7476982,18.4447835 L46.7476982,18.3309569 C46.9792429,18.3512274 47.2131186,18.3652608 47.4516562,18.3652608 C51.0491462,18.3652608 55.2721177,16.1885222 55.4842375,16.0785938 C55.9667518,15.826772 56.1547848,15.2295722 55.9038152,14.746199 C55.8082447,14.5598664 55.6606155,14.417973 55.4881225,14.3275354 C55.3381623,14.162253 55.1338125,14.0437486 54.8944978,14.0117836 C52.4718253,13.6858965 51.445414,11.2783862 51.4019023,11.1762541 C51.3560595,11.0647664 51.2907919,10.9688714 51.2138693,10.8862302 C50.7950686,8.24249071 48.5130323,6.2138826 45.7624676,6.2138826 C43.009572,6.2138826 40.7275357,8.24482962 40.308735,10.8901284 C40.2325894,10.97199 40.1673218,11.0671053 40.1222561,11.1762541 C40.0787443,11.2783862 39.052333,13.6858965 36.6296605,14.0117836 C36.3895688,14.0437486 36.185996,14.162253 36.0344818,14.3290947 C35.8627658,14.4195323 35.7159136,14.5606461 35.6203431,14.746199 C35.3693735,15.2295722 35.5574065,15.826772 36.0406978,16.0785938 C36.2512636,16.1885222 40.4742351,18.3652608 44.0717251,18.3652608 C44.3110397,18.3652608 44.5441384,18.3512274 44.7764601,18.3309569 L44.7764601,18.4354279 C43.2069289,19.3164145 42.0507593,20.9489685 41.1991721,22.9393745 C41.1766392,22.9713395 41.1509983,23.0009656 41.1315734,23.0368288 L36.3344021,31.5987713 L31.2761603,20.5053566 C31.2101157,20.3619039 31.1122142,20.2457385 30.9987728,20.1521824 C30.2676199,18.2171303 29.3352251,16.6212192 28.1557457,15.6108133 L28.1557457,13.6367796 C30.7338173,13.1682194 32.6988394,10.9041618 32.6988394,8.18401815 C32.6988394,6.22479747 31.6794211,4.50414485 30.1464086,3.51712799 C31.2613974,2.99009529 32.2784847,2.27517075 32.6343487,1.34272828 C32.8285977,0.832067895 32.5729661,0.260596045 32.0655879,0.0656875019 C31.5582097,-0.130000676 30.9871179,0.126498967 30.792869,0.636379717 C30.5232515,1.34428755 28.2000344,2.30011904 26.2785241,2.71644369 C23.6546097,3.14680176 21.6429679,5.43112988 21.6429679,8.18401815 C21.6429679,10.9041618 23.606436,13.1689991 26.1845076,13.6367796 L26.1845076,15.185133 C26.121571,15.2475038 26.0648503,15.3184505 26.0205616,15.3964139 C24.6445022,16.4458015 23.5963351,18.2763825 22.7968065,20.5123733 L17.1084212,32.6411422 L10.7494886,29.8344592 C10.7487116,29.8344592 10.7479346,29.8344592 10.7479346,29.8336795 C10.5358148,29.6418895 10.308155,29.478946 10.0680634,29.3417304 L10.0680634,28.2019052 C11.8543764,27.7582933 13.184593,26.1397728 13.184593,24.2117375 C13.184593,22.4981016 12.1348719,21.0261523 10.6477021,20.4079024 C10.5295988,20.2823813 10.3796386,20.1833677 10.2032606,20.1319119 C9.2724198,19.865277 7.60498709,19.0544574 7.77748013,18.2982123 C7.89869145,17.7665018 7.5669143,17.2363505 7.03622625,17.113948 C6.5063152,16.9892065 5.97718115,17.3252288 5.85674682,17.857719 C5.58868331,19.0302888 6.15589015,19.9705276 6.99349149,20.672978 C5.78992519,21.3910211 4.9795187,22.7062639 4.9795187,24.2101782 C4.9795187,26.1382135 6.31051229,27.7559544 8.09760234,28.2003459 L8.09760234,29.3401711 C7.30817474,29.7939182 6.66404533,30.5626375 6.14035024,31.5348413 C6.13335728,31.5434173 6.12403333,31.550434 6.11781737,31.5590099 L0.224305178,39.6063939 C-0.0973710311,40.0461076 -0.0033545545,40.6651371 0.434871006,40.9886853 C0.610472028,41.1181045 0.81482189,41.1804753 1.01839476,41.1804753 C1.32064607,41.1804753 1.61901241,41.0401411 1.81248434,40.7774044 L4.44727667,37.180952 C3.7767294,41.3192502 3.86841489,45.618153 3.89405575,46.4352096 C3.90648768,46.826586 4.14735634,47.1735232 4.50865933,47.3200944 C4.86840832,47.4674453 5.28254702,47.3879226 5.56304246,47.1150506 C5.56925842,47.1095932 5.84975386,46.8546528 6.29264139,46.5638493 L6.83265339,52.0220681 L5.42551422,52.0220681 C4.88239424,52.0220681 4.44028371,52.4649003 4.44028371,53.0114239 C4.44028371,53.5579474 4.88161725,54 5.42551422,54 L7.92044733,54 L10.2405564,54 L12.7354895,54 C13.2801635,54 13.722274,53.5579474 13.722274,53.0114239 C13.722274,52.4649003 13.2809405,52.0220681 12.7354895,52.0220681 L11.3283504,52.0220681 L11.8675854,46.5654085 C12.3135809,46.8562121 12.5932993,47.1111524 12.5979613,47.1150506 C12.7844403,47.2967054 13.0323019,47.3926004 13.2824945,47.3926004 C13.4068138,47.3926004 13.5326871,47.3692114 13.6531214,47.3193148 C14.0144244,47.1727435 14.2552931,46.8258063 14.267725,46.43443 C14.3026898,45.313316 14.4666359,37.6362583 12.6065082,32.814221 L16.8248178,34.6759874 C16.953799,34.7329007 17.0882193,34.7586286 17.2203086,34.7586286 C17.2824682,34.7586286 17.3422969,34.7438155 17.4036795,34.7329007 C17.4875951,34.7547304 17.5738416,34.7711027 17.6593111,34.7711027 C18.0283841,34.7711027 18.3834711,34.5606015 18.5513021,34.2027494 L20.9250239,29.142144 C20.1402583,35.4712142 20.2669086,41.7153043 20.3026504,42.9658375 C20.3135283,43.3650102 20.5637209,43.7181845 20.9351249,43.8608576 C21.0493432,43.9045171 21.1690006,43.9255672 21.2871039,43.9255672 C21.5520594,43.9255672 21.812353,43.8179777 22.0019399,43.6168321 C22.0089329,43.6098154 22.2280457,43.3821622 22.6087736,43.0664103 L23.7563962,52.0197292 L21.5955712,52.0197292 C21.0524512,52.0197292 20.6103407,52.4625614 20.6103407,53.009085 C20.6103407,53.5556085 21.0516742,53.9976611 21.5955712,53.9976611 L24.8768239,53.9976611 L29.4587674,53.9976611 L32.7392432,53.9976611 C33.2831401,53.9976611 33.7252507,53.5556085 33.7252507,53.009085 C33.7252507,52.4625614 33.2839171,52.0197292 32.7392432,52.0197292 L30.5791952,52.0197292 L31.68486,43.3899585 C31.8348202,43.5271741 31.9187357,43.6129339 31.9226207,43.6168321 C32.1969002,43.906856 32.6164778,44.0019714 32.9894358,43.8600779 C33.3608397,43.7166252 33.6110323,43.363451 33.6211332,42.9650579 C33.657652,41.7051691 33.7858563,35.379997 32.9839968,29.0049284 L35.3507256,34.1918346 C35.3693735,34.2347144 35.3996763,34.2674591 35.4237632,34.3056611 C35.4400801,34.3298298 35.454066,34.3563374 35.4719369,34.3797264 C35.5084557,34.4280637 35.5480825,34.467825 35.5908173,34.5068068 C35.5985872,34.5130438 35.6055802,34.5192809 35.6125732,34.5247383 C35.7905052,34.6775466 36.0127259,34.7695435 36.2458246,34.7695435 C36.3833529,34.7695435 36.5224351,34.740697 36.6553014,34.6798855 C36.8681982,34.5824313 37.0267053,34.4148099 37.1246067,34.2191217 L39.3553613,30.2359708 C38.7500817,34.7118505 38.8611921,38.8797748 38.8946029,39.7701171 C38.9093658,40.1427822 39.1315866,40.4749064 39.4695797,40.6308332 C39.7695,40.7696081 40.1137091,40.7376431 40.3918735,40.5661236 C40.1587748,43.7174049 40.2388054,46.2208102 40.2426904,46.3408739 C40.2558993,46.7244539 40.488221,47.0659337 40.840977,47.2164031 C40.9652964,47.2694182 41.0973856,47.2967054 41.2279209,47.2967054 C41.4656816,47.2967054 41.6995573,47.210166 41.8844822,47.0456632 C41.8922522,47.0386465 42.2597712,46.7228946 42.8565038,46.3743981 L43.3195933,52.0212885 L41.9901537,52.0212885 C41.4462567,52.0212885 41.0041461,52.4641207 41.0041461,53.0106442 C41.0041461,53.5571678 41.4454797,53.9992204 41.9901537,53.9992204 L49.5316737,53.9992204 C50.0755706,53.9992204 50.5176812,53.5571678 50.5176812,53.0106442 C50.5176812,52.4641207 50.0763476,52.0212885 49.5316737,52.0212885 L48.2006801,52.0212885 L48.6645465,46.3743981 C49.2643872,46.7228946 49.6311291,47.0402057 49.6381221,47.0456632 C49.9217255,47.3013832 50.3312022,47.3676521 50.6816273,47.2171827 C51.0328293,47.0667133 51.265928,46.7252335 51.2791369,46.3416535 C51.2830219,46.2239288 51.3622755,43.7189642 51.1291768,40.5622254 C51.2869069,40.6596797 51.4617309,40.7220504 51.6427709,40.7220504 C51.7818531,40.7220504 51.9209354,40.6932039 52.0514706,40.6331721 C52.3910177,40.4780249 52.6132385,40.1443415 52.6272244,39.7716763 C52.6326634,39.6321218 52.7429968,36.4808405 52.3964567,32.5881271 C52.4197666,32.5803307 52.4446304,32.5756529 52.4671633,32.5655177 L56.844757,30.6250082 C57.3428112,30.4043717 57.5681399,29.8204257 57.3474732,29.3206802 C57.1268064,28.8209347 56.5471676,28.5940612 56.0475594,28.8162569 L55.5658221,29.0298767 C56.2690032,27.8690014 56.8129001,26.5560975 56.7546255,25.4926764 C57.7173231,25.240075 58.5199596,24.5290486 58.8587297,23.5568448 C59.1299012,22.7881255 59.0832815,21.9593744 58.7313024,21.2241793 L58.7313024,21.2241793 Z M6.94997973,24.2125171 C6.94997973,23.0329306 7.90646141,22.073201 9.08283286,22.073201 C10.2576503,22.073201 11.213355,23.0329306 11.213355,24.2125171 C11.213355,25.391324 10.2576503,26.3494944 9.08283286,26.3494944 C7.90646141,26.350274 6.94997973,25.391324 6.94997973,24.2125171 L6.94997973,24.2125171 Z M9.34934238,52.0228477 L8.83807922,52.0228477 L8.1955038,45.769402 C8.36100388,45.7389963 8.52883494,45.7109295 8.70132798,45.7031331 L9.41927199,45.7015739 C9.60730494,45.7101498 9.78912193,45.7389963 9.96860793,45.7725206 L9.34934238,52.0228477 L9.34934238,52.0228477 Z M9.46356074,43.7259809 L8.65703923,43.7267605 C7.5661373,43.7758774 6.59877769,44.1360684 5.84586888,44.5352411 C5.88161068,40.475686 6.41307572,35.2872206 7.77903412,32.6091772 C7.79302004,32.5842289 7.80545197,32.5592806 7.81710691,32.532773 C8.15121505,31.8981508 8.53349692,31.4132184 8.97016849,31.1286519 C9.00824127,31.1325501 9.04320608,31.1403464 9.08283286,31.1403464 C9.12090565,31.1403464 9.15742444,31.1325501 9.19394324,31.1286519 C11.4565546,32.605279 12.2747311,39.4606023 12.3182428,44.5391393 C11.5583411,44.1384073 10.5777725,43.7758774 9.46356074,43.7259809 L9.46356074,43.7259809 Z M23.613429,8.18401815 C23.613429,6.2162215 25.2086011,4.61485291 27.1705152,4.61485291 C29.1316522,4.61485291 30.7276014,6.2162215 30.7276014,8.18401815 C30.7276014,10.1518148 29.1316522,11.7531834 27.1705152,11.7531834 C25.2086011,11.7531834 23.613429,10.1518148 23.613429,8.18401815 L23.613429,8.18401815 Z M24.5528167,21.4120712 L24.5877815,21.3387856 C24.6227463,21.263161 24.6437252,21.1851976 24.6600421,21.1064546 C25.2723147,19.3756667 26.0291085,17.9863586 26.9653883,17.1677427 C30.8666836,20.5786422 31.686414,33.869066 31.680975,40.882655 C30.6724347,40.1996955 29.2645185,39.4683986 27.6134027,39.2181361 C27.4945224,39.1666802 27.3624331,39.1378337 27.2241279,39.1378337 L27.0695057,39.139393 C27.0298789,39.1409523 26.9902522,39.1432912 26.9506254,39.1456301 C26.9047826,39.1432912 26.8589399,39.1401727 26.8123202,39.1378337 L26.7043178,39.1378337 C26.5730055,39.1378337 26.4471322,39.1635617 26.3321368,39.2111194 C24.679467,39.4520263 23.2630039,40.1895602 22.2474706,40.8803161 C22.2443626,35.6466319 22.700459,26.9209662 24.5528167,21.4120712 L24.5528167,21.4120712 Z M28.5947482,52.0228477 L25.7455051,52.0228477 L24.4448143,41.8696719 C25.1744133,41.5024642 26.0260005,41.202305 26.9482944,41.1282398 C28.0508513,41.2178977 29.0531757,41.6256464 29.8682441,42.0848509 L28.5947482,52.0228477 L28.5947482,52.0228477 Z M54.7779485,25.5207433 C54.9698664,26.0828595 53.9007203,28.7008711 51.8191489,30.4745388 C50.8362494,31.3110863 49.3863755,32.1530912 48.0219711,31.4732502 L47.7842104,31.2814602 C47.2807172,30.4207441 47.490506,29.3768139 48.4089149,28.1769569 C50.1579322,25.8926288 53.2783468,24.5742674 53.8875114,24.7816501 C53.9053823,24.7917853 53.9255842,24.7972428 53.9442321,24.8058187 C54.1571289,24.9999476 54.4049905,25.1527559 54.6683921,25.2806159 C54.6971409,25.3632572 54.7258897,25.4443391 54.7779485,25.5207433 L54.7779485,25.5207433 Z M52.5005741,15.2420463 C51.448522,15.6474561 50.2014439,16.0411714 49.0002086,16.2462151 C49.8160541,15.6521339 50.4671765,14.8444329 50.8618903,13.9010755 C51.2876839,14.3789913 51.8300269,14.8576867 52.5005741,15.2420463 L52.5005741,15.2420463 Z M45.7632446,8.19181449 C47.7236047,8.19181449 49.3195538,9.79240345 49.3195538,11.7602001 C49.3195538,13.7279968 47.7236047,15.3293654 45.7632446,15.3293654 C43.8021076,15.3293654 42.2053815,13.7279968 42.2053815,11.7602001 C42.2053815,9.79240345 43.8013306,8.19181449 45.7632446,8.19181449 L45.7632446,8.19181449 Z M40.663822,13.9018552 C41.0585358,14.8452125 41.7104352,15.6529135 42.5247267,16.2469948 C41.3234914,16.041951 40.0771903,15.6474561 39.0251382,15.242826 C39.6941314,14.8576867 40.2364744,14.3789913 40.663822,13.9018552 L40.663822,13.9018552 Z M45.7523667,20.1490638 C47.0546115,20.8608698 48.1276425,22.4591199 48.9504809,24.9126286 C48.3591872,25.3687146 47.8191752,25.8552063 47.3825036,26.3331221 C45.4400144,28.4591845 45.0173288,30.7076494 46.2232261,32.5015877 C46.2776158,32.5826696 46.3444374,32.6559552 46.42136,32.718326 L46.8619165,33.0746188 C46.9100903,33.1128209 46.959818,33.1471248 47.0134307,33.1759712 C47.6583371,33.5236881 48.3483093,33.6944279 49.0592603,33.6944279 C49.5285657,33.6944279 50.009526,33.613346 50.4912633,33.4652155 C50.6272376,35.2381036 50.6691953,36.829337 50.6754113,37.9582472 C49.5192417,37.3485733 47.8098513,36.6749694 45.8153034,36.6009041 L45.6715592,36.6016838 C43.6925512,36.6749694 41.9909306,37.3509122 40.8378691,37.9621454 C40.854186,32.5000284 41.7275291,22.3749194 45.7523667,20.1490638 L45.7523667,20.1490638 Z M46.2247801,52.0228477 L45.2993782,52.0228477 L44.7717982,45.5986621 C45.0763805,45.5277154 45.3933947,45.4778188 45.7220639,45.4637854 L45.7640216,45.4630058 C46.1066767,45.4778188 46.4368999,45.5292747 46.7515831,45.6025603 L46.2247801,52.0228477 L46.2247801,52.0228477 Z M45.8036484,43.4858535 L45.6816601,43.4866332 C44.3056008,43.5427668 43.0989265,44.0035306 42.2038275,44.4775482 C42.2178134,43.1895925 42.279196,41.338741 42.4781069,39.3654869 C43.362328,38.9748902 44.4780938,38.6248345 45.708078,38.578836 L45.7803386,38.5780564 C47.0351866,38.6248345 48.1703772,38.9803476 49.0631453,39.3740629 C49.0608143,39.420841 49.0577063,39.4660597 49.0623683,39.5120582 C49.2496242,41.4299582 49.3078989,43.2231168 49.3218848,44.4806667 C48.4213468,44.0050899 47.2014636,43.5435465 45.8036484,43.4858535 L45.8036484,43.4858535 Z M57.0009331,22.904291 C56.8113461,23.4469164 56.1967426,23.7603293 55.6357517,23.5623022 C55.3653572,23.4671869 55.1485754,23.2730579 55.0250331,23.014999 C54.9007138,22.7561605 54.8843969,22.4637977 54.9784133,22.1932646 C55.1283735,21.7621269 55.5362962,21.472103 55.9908387,21.472103 C56.111273,21.472103 56.2309304,21.4923735 56.3435947,21.5321348 C56.6139892,21.6272502 56.831548,21.8221588 56.9550903,22.0809973 C57.0794096,22.3398358 57.0957266,22.631419 57.0009331,22.904291 L57.0009331,22.904291 Z" id="w-7" fill="#0082DC" sketch:type="MSShapeGroup"></path>
    </g>
</svg>