<?xml version="1.0" encoding="UTF-8" standalone="no"?>
<svg width="37px" height="45px" viewBox="0 0 37 45" version="1.1" xmlns="http://www.w3.org/2000/svg" xmlns:xlink="http://www.w3.org/1999/xlink" xmlns:sketch="http://www.bohemiancoding.com/sketch/ns">
    <!-- Generator: Sketch 3.2.2 (9983) - http://www.bohemiancoding.com/sketch -->
    <title>w-8</title>
    <desc>Created with Sketch.</desc>
    <defs></defs>
    <g id="Page-1" stroke="none" stroke-width="1" fill="none" fill-rule="evenodd" sketch:type="MSPage">
        <path d="M8.39997271,13.6279363 C12.2228577,13.6279363 15.3640683,10.5485555 15.3640683,6.80091801 C15.3640683,3.05328053 12.2228577,0 8.39997271,0 C4.5770877,0 1.4625014,3.05328053 1.4625014,6.80091801 C1.4625014,10.5485555 4.57662866,13.6279363 8.39997271,13.6279363 L8.39997271,13.6279363 Z M8.39997271,3.10098101 C10.5028349,3.10098101 12.1741995,4.7398974 12.1741995,6.80091801 C12.1741995,8.86193862 10.5023758,10.501305 8.39997271,10.501305 C6.29756957,10.501305 4.62574594,8.86238862 4.62574594,6.80091801 C4.62574594,4.73944739 6.29711053,3.10098101 8.39997271,3.10098101 Z M28.6009454,13.6279363 C32.4238304,13.6279363 35.5379576,10.5485555 35.5379576,6.80091801 C35.5379576,3.05328053 32.4238304,0 28.6009454,0 C24.7780604,0 21.6363907,3.05328053 21.6363907,6.80091801 C21.6363907,10.5485555 24.7780604,13.6279363 28.6009454,13.6279363 Z M28.6009454,3.10098101 C30.7033485,3.10098101 32.3751721,4.7398974 32.3751721,6.80091801 C32.3751721,8.86193862 30.7033485,10.501305 28.6009454,10.501305 C26.4980832,10.501305 24.8262596,8.86238862 24.8262596,6.80091801 C24.8262596,4.73944739 26.4980832,3.10098101 28.6009454,3.10098101 Z M11.5893825,18.6828368 C11.5893825,22.4304743 14.7305932,25.5094051 18.5534782,25.5094051 C22.3763632,25.5094051 25.4909495,22.4304743 25.4909495,18.6828368 C25.4909495,14.9351994 22.3763632,11.8819188 18.5534782,11.8819188 C14.7305932,11.8819188 11.5893825,14.9351994 11.5893825,18.6828368 Z M18.5534782,14.9828998 C20.6563403,14.9828998 22.3015396,16.6218162 22.3015396,18.6828368 C22.3015396,20.7443074 20.6563403,22.3827738 18.5534782,22.3827738 C16.450616,22.3827738 14.7792514,20.7438574 14.7792514,18.6828368 C14.7792514,16.6218162 16.450616,14.9828998 18.5534782,14.9828998 Z M3.16324454,41.1700117 L3.16324454,17.2500225 C3.16324454,16.9314193 3.3968959,16.7289173 3.72143717,16.7289173 C4.60187586,16.7262173 5.31384688,16.0237602 5.3106336,15.1602016 C5.30787936,14.300693 4.5977445,13.604986 3.72143717,13.602286 C1.68834907,13.602286 0,15.2569526 0,17.2500225 L0,41.1704617 C0,43.1639816 1.68834907,44.8181982 3.72143717,44.8181982 L8.82458469,44.8181982 L8.82458469,41.6915669 L3.72189621,41.6915669 C3.3968959,41.6911169 3.16324454,41.4881649 3.16324454,41.1700117 Z M33.2785628,13.601836 C32.3976651,13.598686 31.6815627,14.296193 31.6788085,15.1597516 C31.6755952,16.0228602 32.3871072,16.7253173 33.2680049,16.7284673 L33.2785628,16.7284673 C33.6035631,16.7284673 33.8101311,16.9314193 33.8101311,17.2495725 L33.8101311,41.1700117 C33.8101311,41.4881649 33.6035631,41.6911169 33.2785628,41.6911169 L28.14925,41.6911169 L28.14925,44.8177482 L33.2790219,44.8177482 C35.312569,44.8177482 37,43.1630816 37,41.1700117 L37,17.2500225 C37,15.2565026 35.31211,13.601836 33.2785628,13.601836 Z M23.2315547,26.9165692 C22.811074,26.9165692 22.3878392,27.0704707 22.0885451,27.3593736 C21.789251,27.6491765 21.6106845,28.0420304 21.6106845,28.4537845 C21.6106845,28.8659887 21.789251,29.2853929 22.0885451,29.5742957 C22.3878392,29.8640986 22.811074,30.0229502 23.2315547,30.0171002 C23.5560959,30.0171002 23.763123,30.2200522 23.763123,30.5382054 L23.763123,41.3518135 C23.763123,41.6699667 23.5560959,41.8729187 23.2315547,41.8729187 L13.8487773,41.8729187 C13.523777,41.8729187 13.317209,41.6699667 13.317209,41.3518135 L13.317209,30.5382054 C13.317209,30.2200522 13.523777,30.0171002 13.8487773,30.0171002 C14.269258,30.0171002 14.6924928,29.8636486 14.9917869,29.5742957 C15.291081,29.2849428 15.4701066,28.8659887 15.4701066,28.4542345 C15.4701066,28.0420304 15.291081,27.6491765 14.9917869,27.3593736 C14.6924928,27.0700207 14.269258,26.9107191 13.8487773,26.9165692 C11.8156892,26.9165692 10.1277992,28.5455855 10.1277992,30.5386554 L10.1277992,41.3522635 C10.1277992,43.3453335 11.8156892,45 13.8487773,45 L23.2315547,45 C25.2651018,45 26.9529918,43.3448834 26.9529918,41.3522635 L26.9529918,30.5386554 C26.9529918,28.5460355 25.2646428,26.9165692 23.2315547,26.9165692 Z" id="w-8" fill="#1584D9" sketch:type="MSShapeGroup"></path>
    </g>
</svg>